G04 DipTrace 3.2.0.1*
G04 Bottom.gbr*
%MOIN*%
G04 #@! TF.FileFunction,Copper,L2,Bot*
G04 #@! TF.Part,Single*
%AMOUTLINE9*
4,1,4,
-0.014979,0.099094,
0.099094,0.014979,
0.014979,-0.099094,
-0.099094,-0.014979,
-0.014979,0.099094,
0*%
%AMOUTLINE12*
4,1,4,
-0.103974,-0.020286,
-0.00926,0.105529,
0.103974,0.020286,
0.00926,-0.105529,
-0.103974,-0.020286,
0*%
G04 #@! TA.AperFunction,CopperBalancing*
%ADD10C,0.009843*%
G04 #@! TA.AperFunction,Conductor*
%ADD16C,0.015748*%
%ADD17C,0.006299*%
G04 #@! TA.AperFunction,ViaPad*
%ADD22C,0.031496*%
G04 #@! TA.AperFunction,Conductor*
%ADD24C,0.019685*%
%ADD27C,0.020669*%
G04 #@! TA.AperFunction,ViaPad*
%ADD28C,0.023622*%
G04 #@! TA.AperFunction,CopperBalancing*
%ADD30C,0.008661*%
%ADD33R,0.03937X0.043307*%
%ADD34R,0.043307X0.03937*%
%ADD35R,0.133858X0.074803*%
%ADD40R,0.023622X0.03937*%
G04 #@! TA.AperFunction,ComponentPad*
%ADD44C,0.041339*%
%ADD59R,0.023622X0.051181*%
G04 #@! TA.AperFunction,ViaPad*
%ADD61C,0.025984*%
%ADD125OUTLINE9*%
%ADD128OUTLINE12*%
%FSLAX26Y26*%
G04*
G70*
G90*
G75*
G01*
G04 Bottom*
%LPD*%
X275984Y77953D2*
D10*
X349606D1*
Y76772D1*
X330315Y125984D2*
Y96063D1*
X349606Y76772D1*
X388976Y126378D2*
Y84646D1*
X381102Y76772D1*
X349606D1*
X381496Y-176772D2*
Y-220866D1*
X384646Y-224016D1*
X393701D1*
Y-292126D1*
X392520Y-293307D1*
X532677Y-246457D2*
X471260D1*
Y-246850D1*
X330315Y125984D2*
Y156693D1*
X314567Y172441D1*
X356693Y527953D2*
X341732D1*
X307087Y493307D1*
Y433071D1*
X305906D1*
X-145434Y-867D2*
X-118190D1*
X-117323Y0D1*
X-118110Y61811D2*
X-47253D1*
X-46072Y62992D1*
X-118504Y-62205D2*
X-48434D1*
X-46072Y-64567D1*
X19282D1*
X19676Y-64173D1*
Y-1575D1*
X18888Y-787D1*
Y61811D1*
X19676Y62598D1*
X-45678D1*
X-116929Y62992D2*
X-118110Y61811D1*
Y787D1*
X-144567Y0D2*
X-145434Y-867D1*
X-117323Y0D2*
Y-61024D1*
X-118504Y-62205D1*
X-206693Y-224803D2*
X-140954D1*
X19676Y-64173D1*
X-353552Y110630D2*
Y75993D1*
X-275197Y-2362D1*
X402756Y-538189D2*
Y-530315D1*
X351181Y-478740D1*
Y-403543D1*
X383858Y-370866D1*
X-275197Y-2362D2*
X-146929D1*
X-145434Y-867D1*
X305906Y-433071D2*
Y-446063D1*
X298819Y-453150D1*
X108268D1*
X103150Y-458268D1*
X317717Y-224016D2*
X306693D1*
Y-292520D1*
X305906Y-293307D1*
X183071Y-287402D2*
X300000D1*
X305906Y-293307D1*
X464961Y-189764D2*
D17*
Y-202756D1*
X440157Y-227559D1*
Y-324409D1*
X462598Y-346850D1*
X471260D1*
X428740Y-188976D2*
X426772D1*
Y-360630D1*
X464173Y-398031D1*
X470079D1*
X471260Y-396850D1*
X532677Y-396457D2*
Y-400394D1*
X505512Y-427559D1*
X455906D1*
X410236Y-381890D1*
Y-356299D1*
X397244Y-343307D1*
X381102D1*
X347244Y-309449D1*
Y-277165D1*
X187795Y306693D2*
D24*
X147970Y346518D1*
D10*
X147010D1*
X128346Y380315D1*
X349606Y-76772D2*
D24*
X270472D1*
X167717Y-179528D1*
Y-212598D1*
X10236Y-370079D1*
X-127559D1*
X36220Y-458268D2*
D10*
X30709D1*
Y-390551D1*
X10236Y-370079D1*
X161417Y-190551D2*
D16*
X166929Y-218898D1*
X167717Y-212598D1*
X471260Y-296850D2*
D10*
X532677D1*
Y-296457D1*
X-390157Y296063D2*
D24*
X-363386D1*
X-304724Y354724D1*
X-78346D1*
X3543D1*
X91339D1*
X143701Y302362D1*
Y273228D1*
X196457Y220472D1*
D10*
X299213D1*
X312992Y234252D1*
X76772Y454724D2*
X103097Y448534D1*
X28294Y351290D1*
X3543Y354724D1*
X91339D2*
X102756D1*
X128346Y380315D1*
X-227559Y-424016D2*
X-224606Y-421063D1*
Y-417913D1*
D27*
X-176772Y-370079D1*
X-127559D1*
X-46457Y-368898D2*
D10*
X9843D1*
X30709Y-389764D2*
Y-440551D1*
X36220D1*
X53937Y-458268D1*
X36220D1*
X-461417Y-279134D2*
D24*
X-406299D1*
X-277953Y-407480D1*
X-244094D1*
X-227559Y-424016D1*
X-461417Y-279134D2*
Y-238976D1*
X-491732Y-208661D1*
Y194488D1*
X-390157Y296063D1*
X-297638Y544094D2*
D10*
X-264961D1*
X-237402Y516535D1*
X-185827D1*
X-155512Y546850D1*
X-97638D1*
X-78346Y527559D1*
Y354724D1*
X349606Y-76772D2*
D28*
X254331D1*
X184252Y-6693D1*
Y208268D1*
X196457Y220472D1*
X379921Y234252D2*
D10*
X394094D1*
Y291732D1*
X392520Y293307D1*
X381496Y172441D2*
Y232677D1*
X379921Y234252D1*
X350787Y302362D2*
Y350000D1*
X393701Y392913D1*
Y433071D1*
X392520D1*
X-333071Y544094D2*
X-373228D1*
X-384646Y532677D1*
X-390551Y394488D2*
X-368110D1*
X-333071Y429528D1*
Y461417D1*
X-241732Y451575D2*
X-291732D1*
X-297638Y457480D1*
Y461417D1*
X-417323Y472835D2*
X-391732D1*
X-384646Y465748D1*
X-447638Y429528D2*
Y404331D1*
X-457480Y394488D1*
X-139370Y460236D2*
X-166142D1*
X-174803Y451575D1*
X-41732Y473228D2*
X13780D1*
X48819Y508268D1*
X164567D1*
X262205Y410630D1*
Y358661D1*
X234252Y330709D1*
X233071D1*
X-128346Y-404331D2*
Y-410630D1*
X-40157Y-498819D1*
X105906Y-413386D2*
Y-403543D1*
X157480Y-351969D1*
D28*
X394488Y545276D3*
X356693Y527953D3*
X17323Y519685D3*
X-41339Y518110D3*
X-24016Y393701D3*
X418504Y516535D3*
X-41732Y473228D3*
X-417323Y472835D3*
X-139370Y460236D3*
X76772Y454724D3*
X-447638Y429528D3*
X233071Y330709D3*
X425197Y371654D3*
X350787Y302362D3*
X-356693Y353543D3*
X427165Y334646D3*
X-108268Y403937D3*
X-431890Y324803D3*
X187795Y306693D3*
D22*
X-390157Y296063D3*
D28*
X242126Y284252D3*
X85433Y282283D3*
X428740Y255906D3*
X-380709Y249606D3*
X-83465Y216535D3*
X-412598Y216142D3*
X429528Y197244D3*
X-350394Y191339D3*
X-84252Y186220D3*
X-427953Y168110D3*
X-454724Y145276D3*
X429528Y132677D3*
X388976Y126378D3*
X330315Y125984D3*
X-353552Y110630D3*
X-455512Y87402D3*
X275984Y77953D3*
X-385039Y9843D3*
X-275197Y-2362D3*
X407874Y-3543D3*
X343701Y-4331D3*
X300394Y-4724D3*
X410236Y-137795D3*
X343701Y-138583D3*
X291732Y-139370D3*
X-520866Y-149606D3*
X-208268Y-157087D3*
X238976Y-174803D3*
X381496Y-176772D3*
X542913Y-177559D3*
X505906Y-187402D3*
X428740Y-188976D3*
X70866Y-194094D3*
X464961Y-189764D3*
X161417Y-190551D3*
X-286614Y-198031D3*
X-546850Y-198425D3*
X-544882Y-222441D3*
X99213Y-222835D3*
X-206693Y-224803D3*
X-283858Y-243307D3*
X12598Y-273622D3*
X-363386Y-272047D3*
X-461417Y-279134D3*
X151575Y-275591D3*
X-16929Y-295276D3*
X210236Y-316535D3*
X183071Y-287402D3*
X347244Y-277165D3*
X106299Y-365748D3*
X-127559Y-370079D3*
X383858Y-370866D3*
X-506299Y-389764D3*
X154331Y-405118D3*
X-498425Y-414567D3*
X-470079Y-414961D3*
X-128346Y-404331D3*
X-227559Y-424016D3*
X-46457Y-368898D3*
X-414173Y-440551D3*
X-110236Y-471260D3*
X-40157Y-498819D3*
X-393701Y-507874D3*
X83071Y-541339D3*
X1181Y-544882D3*
X402756Y-538189D3*
X-111811Y-498425D3*
D61*
X-46072Y62992D3*
X19676Y62598D3*
X-118110Y61811D3*
X-117323Y0D3*
X-45678D3*
X18888Y-787D3*
X-118504Y-62205D3*
X19676Y-64173D3*
X-46072Y-64567D3*
D28*
X105906Y-413386D3*
X157480Y-351969D3*
X-71869Y547769D2*
D30*
X421182D1*
X-63445Y539239D2*
X421182D1*
X-59486Y530709D2*
X421182D1*
X-59216Y522178D2*
X36121D1*
X177265D2*
X421182D1*
X-59216Y513648D2*
X27510D1*
X185876D2*
X421182D1*
X-59216Y505118D2*
X18984D1*
X194402D2*
X421182D1*
X-59216Y496588D2*
X-51914D1*
X-31540D2*
X10441D1*
X202945D2*
X421182D1*
X55295Y488058D2*
X102350D1*
X124975D2*
X158091D1*
X211471D2*
X421182D1*
X-110287Y479528D2*
X-97471D1*
X46768D2*
X71748D1*
X81803D2*
X96023D1*
X136546D2*
X166617D1*
X219997D2*
X424193D1*
X-115768Y470997D2*
X-97471D1*
X38242D2*
X56726D1*
X148117D2*
X175143D1*
X228523D2*
X279893D1*
X331919D2*
X366507D1*
X418533D2*
X427661D1*
X-113451Y462467D2*
X-97471D1*
X29716D2*
X51972D1*
X159688D2*
X183670D1*
X237049D2*
X279893D1*
X331919D2*
X366507D1*
X418533D2*
X431129D1*
X-114161Y453937D2*
X-97471D1*
X-24739D2*
X50771D1*
X171259D2*
X192213D1*
X245592D2*
X279893D1*
X331919D2*
X366507D1*
X418533D2*
X433819D1*
X-118188Y445407D2*
X-97471D1*
X-59216D2*
X52547D1*
X182814D2*
X200739D1*
X254118D2*
X279893D1*
X331919D2*
X366507D1*
X418533D2*
X436390D1*
X-129184Y436877D2*
X-97471D1*
X-59216D2*
X58181D1*
X194385D2*
X209265D1*
X262644D2*
X279893D1*
X331919D2*
X366507D1*
X418533D2*
X438505D1*
X-481510Y428346D2*
X-473634D1*
X-313983D2*
X-277585D1*
X-138945D2*
X-97471D1*
X-59216D2*
X58282D1*
X205956D2*
X217791D1*
X271170D2*
X279893D1*
X331919D2*
X366507D1*
X418533D2*
X438505D1*
X-502944Y419816D2*
X-493342D1*
X-316740D2*
X-277585D1*
X-138945D2*
X-97471D1*
X-59216D2*
X51989D1*
X217527D2*
X226334D1*
X331919D2*
X366507D1*
X418533D2*
X438522D1*
X-497734Y411286D2*
X-493351D1*
X-324624D2*
X-97471D1*
X-59216D2*
X45696D1*
X229098D2*
X234848D1*
X331919D2*
X366507D1*
X418533D2*
X438522D1*
X-333150Y402756D2*
X-97471D1*
X-59216D2*
X39403D1*
X331919D2*
X366507D1*
X418533D2*
X438522D1*
X-341676Y394226D2*
X-97471D1*
X-59216D2*
X33110D1*
X331919D2*
X366507D1*
X418533D2*
X438539D1*
X-350219Y385696D2*
X-97471D1*
X-59216D2*
X26834D1*
X237810D2*
X243091D1*
X281337D2*
X359791D1*
X411343D2*
X438539D1*
X-502200Y377165D2*
X-493342D1*
X-354685D2*
X-311401D1*
X231517D2*
X243081D1*
X281337D2*
X351265D1*
X404644D2*
X438539D1*
X-501997Y368635D2*
X-493342D1*
X-354685D2*
X-324461D1*
X225224D2*
X243081D1*
X281337D2*
X342739D1*
X396118D2*
X438555D1*
X-497260Y360105D2*
X-332987D1*
X218931D2*
X236958D1*
X281337D2*
X334720D1*
X387575D2*
X438555D1*
X-495230Y351575D2*
X-341530D1*
X212638D2*
X218176D1*
X279899D2*
X331726D1*
X379049D2*
X438572D1*
X-495416Y343045D2*
X-350056D1*
X273285D2*
X331658D1*
X370523D2*
X438572D1*
X-497852Y334514D2*
X-358583D1*
X200069D2*
X207353D1*
X264742D2*
X331658D1*
X369914D2*
X438572D1*
X-503164Y325984D2*
X-367109D1*
X-299824D2*
X59280D1*
X258635D2*
X279893D1*
X418533D2*
X438589D1*
X-501134Y317454D2*
X-410737D1*
X-308350D2*
X70851D1*
X255302D2*
X279893D1*
X418533D2*
X438589D1*
X-496837Y308924D2*
X-417115D1*
X-316876D2*
X82422D1*
X213704D2*
X219635D1*
X246505D2*
X279893D1*
X418533D2*
X438589D1*
X-495128Y300394D2*
X-419788D1*
X-325402D2*
X93977D1*
X213010D2*
X279893D1*
X418533D2*
X438606D1*
X-495619Y291864D2*
X-428009D1*
X-333928D2*
X105548D1*
X208967D2*
X279893D1*
X418533D2*
X438606D1*
X-498393Y283333D2*
X-436535D1*
X-342471D2*
X117119D1*
X167741D2*
X177613D1*
X197988D2*
X279893D1*
X418533D2*
X438606D1*
X-504213Y274803D2*
X-445061D1*
X-353281D2*
X119656D1*
X175776D2*
X279893D1*
X418533D2*
X438623D1*
X-500356Y266273D2*
X-453604D1*
X-386302D2*
X120722D1*
X184302D2*
X277135D1*
X418533D2*
X438623D1*
X-496465Y257743D2*
X-462130D1*
X-394829D2*
X125577D1*
X192828D2*
X277135D1*
X418533D2*
X438623D1*
X-495061Y249213D2*
X-470657D1*
X-403355D2*
X134069D1*
X201371D2*
X277135D1*
X415775D2*
X438640D1*
X-495856Y240682D2*
X-479183D1*
X-411881D2*
X142596D1*
X212300D2*
X277135D1*
X415775D2*
X438640D1*
X-498985Y232152D2*
X-487726D1*
X-420424D2*
X151122D1*
X415775D2*
X438640D1*
X-505380Y223622D2*
X-496252D1*
X-428950D2*
X159665D1*
X415775D2*
X438657D1*
X-554845Y215092D2*
X-539237D1*
X-520605D2*
X-504778D1*
X-437476D2*
X159174D1*
X415775D2*
X438657D1*
X-554828Y206562D2*
X-512390D1*
X-446002D2*
X158244D1*
X415775D2*
X438674D1*
X-554828Y198031D2*
X-515503D1*
X-454545D2*
X158244D1*
X210456D2*
X278708D1*
X417349D2*
X438674D1*
X-554811Y189501D2*
X-515774D1*
X-463071D2*
X158244D1*
X210270D2*
X278708D1*
X417349D2*
X438674D1*
X-554811Y180971D2*
X-515774D1*
X-467689D2*
X158244D1*
X210270D2*
X278708D1*
X417349D2*
X438691D1*
X-554811Y172441D2*
X-515774D1*
X-467689D2*
X158244D1*
X210270D2*
X278708D1*
X417349D2*
X438691D1*
X-554794Y163911D2*
X-515774D1*
X-467689D2*
X158244D1*
X210270D2*
X278708D1*
X417349D2*
X438691D1*
X-554794Y155381D2*
X-515774D1*
X-467689D2*
X158244D1*
X210270D2*
X278708D1*
X417349D2*
X438708D1*
X-554777Y146850D2*
X-515774D1*
X-467689D2*
X158244D1*
X210270D2*
X278708D1*
X417349D2*
X438708D1*
X-554777Y138320D2*
X-515774D1*
X-467689D2*
X158244D1*
X210270D2*
X438708D1*
X-554760Y129790D2*
X-515774D1*
X-467689D2*
X158244D1*
X210270D2*
X438725D1*
X-554760Y121260D2*
X-515774D1*
X-467689D2*
X158244D1*
X210270D2*
X268474D1*
X430747D2*
X438725D1*
X-554743Y112730D2*
X-515774D1*
X-467689D2*
X-166187D1*
X-142362D2*
X158244D1*
X210270D2*
X268474D1*
X430747D2*
X438725D1*
X-554743Y104199D2*
X-515774D1*
X-467689D2*
X-172599D1*
X-131044D2*
X158244D1*
X210270D2*
X268474D1*
X430747D2*
X438742D1*
X-554726Y95669D2*
X-515774D1*
X-467689D2*
X-179027D1*
X-119710D2*
X158244D1*
X210270D2*
X268474D1*
X430747D2*
X438742D1*
X-554726Y87139D2*
X-515774D1*
X-467689D2*
X-185439D1*
X-108376D2*
X158244D1*
X210270D2*
X268474D1*
X430747D2*
X438742D1*
X-554709Y78609D2*
X-515774D1*
X-467689D2*
X-191867D1*
X-97042D2*
X158244D1*
X210270D2*
X268474D1*
X430747D2*
X438758D1*
X-554709Y70079D2*
X-515774D1*
X-467689D2*
X-198296D1*
X-85707D2*
X158244D1*
X210270D2*
X268474D1*
X430747D2*
X438758D1*
X-554709Y61549D2*
X-515774D1*
X-467689D2*
X-204707D1*
X-74373D2*
X158244D1*
X210270D2*
X268474D1*
X430747D2*
X438758D1*
X-554693Y53018D2*
X-515774D1*
X-467689D2*
X-211135D1*
X-63056D2*
X158244D1*
X210270D2*
X268474D1*
X430747D2*
X438775D1*
X-554693Y44488D2*
X-515774D1*
X-467689D2*
X-217547D1*
X-51721D2*
X158244D1*
X210270D2*
X268474D1*
X430747D2*
X438775D1*
X-554676Y35958D2*
X-515774D1*
X-467689D2*
X-223975D1*
X-40387D2*
X158244D1*
X210270D2*
X268474D1*
X430747D2*
X438792D1*
X-554676Y27428D2*
X-515774D1*
X-467689D2*
X-230404D1*
X-29932D2*
X158244D1*
X210270D2*
X268474D1*
X430747D2*
X438792D1*
X-554659Y18898D2*
X-515774D1*
X-467689D2*
X-236815D1*
X-27260D2*
X158244D1*
X210270D2*
X438792D1*
X-554659Y10367D2*
X-515774D1*
X-467689D2*
X-243244D1*
X-30711D2*
X158244D1*
X210270D2*
X438809D1*
X-554642Y1837D2*
X-515774D1*
X-467689D2*
X-249655D1*
X-37139D2*
X158244D1*
X212147D2*
X438809D1*
X-554642Y-6693D2*
X-515774D1*
X-467689D2*
X-256083D1*
X-43551D2*
X158244D1*
X220690D2*
X438809D1*
X-554625Y-15223D2*
X-515774D1*
X-467689D2*
X-262224D1*
X-49979D2*
X159732D1*
X229216D2*
X438826D1*
X-554625Y-23753D2*
X-515774D1*
X-467689D2*
X-263358D1*
X-56390D2*
X164909D1*
X237743D2*
X438826D1*
X-554608Y-32283D2*
X-515774D1*
X-467689D2*
X-257674D1*
X-62819D2*
X173401D1*
X246269D2*
X268474D1*
X430747D2*
X438826D1*
X-554608Y-40814D2*
X-515774D1*
X-467689D2*
X-246339D1*
X-69247D2*
X181944D1*
X254812D2*
X268474D1*
X430747D2*
X438843D1*
X-554591Y-49344D2*
X-515774D1*
X-467689D2*
X-235005D1*
X-75659D2*
X190470D1*
X263338D2*
X268474D1*
X430747D2*
X438843D1*
X-554591Y-57874D2*
X-515774D1*
X-467689D2*
X-223671D1*
X-82087D2*
X198996D1*
X430747D2*
X438843D1*
X-554591Y-66404D2*
X-515774D1*
X-467689D2*
X-212337D1*
X-88499D2*
X207522D1*
X430747D2*
X438860D1*
X-554574Y-74934D2*
X-515774D1*
X-467689D2*
X-201019D1*
X-94927D2*
X216065D1*
X430747D2*
X438860D1*
X-554574Y-83465D2*
X-515774D1*
X-467689D2*
X-189685D1*
X-101355D2*
X224591D1*
X430747D2*
X438860D1*
X-554557Y-91995D2*
X-515774D1*
X-467689D2*
X-178351D1*
X-107767D2*
X221597D1*
X430747D2*
X438877D1*
X-554557Y-100525D2*
X-515774D1*
X-467689D2*
X-167016D1*
X-114195D2*
X213071D1*
X430747D2*
X438877D1*
X-554540Y-109055D2*
X-515774D1*
X-467689D2*
X-155682D1*
X-120607D2*
X204545D1*
X430747D2*
X438894D1*
X-554540Y-117585D2*
X-515774D1*
X-467689D2*
X-144297D1*
X-128050D2*
X196002D1*
X263304D2*
X268474D1*
X430747D2*
X438894D1*
X-554523Y-126115D2*
X-515774D1*
X-467689D2*
X187476D1*
X254778D2*
X268474D1*
X430747D2*
X438894D1*
X-554523Y-134646D2*
X-515774D1*
X-467689D2*
X178950D1*
X246252D2*
X455354D1*
X-554506Y-143176D2*
X-515774D1*
X-467689D2*
X170424D1*
X237726D2*
X483030D1*
X-554506Y-151706D2*
X-515774D1*
X-467689D2*
X161881D1*
X229183D2*
X510706D1*
X-554490Y-160236D2*
X-515774D1*
X-467689D2*
X153355D1*
X220657D2*
X538382D1*
X-554490Y-168766D2*
X-515774D1*
X-467689D2*
X146317D1*
X212130D2*
X412910D1*
X444568D2*
X450245D1*
X479670D2*
X553793D1*
X-554490Y-177297D2*
X-515774D1*
X-467689D2*
X139178D1*
X203604D2*
X405601D1*
X487672D2*
X553725D1*
X-554473Y-185827D2*
X-515774D1*
X-467689D2*
X135846D1*
X195061D2*
X402929D1*
X490666D2*
X553641D1*
X-554473Y-194357D2*
X-515774D1*
X-467689D2*
X135693D1*
X191763D2*
X281855D1*
X490548D2*
X553573D1*
X-554456Y-202887D2*
X-515774D1*
X-463849D2*
X138637D1*
X191763D2*
X281855D1*
X487283D2*
X553488D1*
X-554456Y-211417D2*
X-515621D1*
X-455323D2*
X135254D1*
X191763D2*
X281855D1*
X479856D2*
X553421D1*
X-554439Y-219948D2*
X-512847D1*
X-446797D2*
X126711D1*
X190561D2*
X281855D1*
X492933D2*
X510503D1*
X-554439Y-228478D2*
X-505573D1*
X-439878D2*
X118185D1*
X186721D2*
X281855D1*
X-554422Y-237008D2*
X-548786D1*
X-509474D2*
X-497030D1*
X-437459D2*
X109658D1*
X178838D2*
X281855D1*
X-500626Y-245538D2*
X-488504D1*
X-437374D2*
X101132D1*
X168434D2*
X281855D1*
X-496194Y-254068D2*
X-485459D1*
X-437374D2*
X92589D1*
X159891D2*
X281855D1*
X-494367Y-262598D2*
X-485459D1*
X-389178D2*
X84063D1*
X151365D2*
X178036D1*
X188092D2*
X279893D1*
X-494756Y-271129D2*
X-486119D1*
X-380652D2*
X75537D1*
X142839D2*
X163031D1*
X-497412Y-279659D2*
X-487421D1*
X-372126D2*
X67011D1*
X134313D2*
X158277D1*
X-503062Y-288189D2*
X-485746D1*
X-363600D2*
X58485D1*
X125770D2*
X157059D1*
X-499814Y-296719D2*
X-480265D1*
X-355057D2*
X49942D1*
X117244D2*
X158853D1*
X-495788Y-305249D2*
X-413833D1*
X-346531D2*
X41416D1*
X108718D2*
X164486D1*
X-494299Y-313780D2*
X-405307D1*
X-338005D2*
X32890D1*
X100192D2*
X279893D1*
X-494976Y-322310D2*
X-396781D1*
X-329479D2*
X24364D1*
X91649D2*
X279893D1*
X-497987Y-330840D2*
X-388238D1*
X-320936D2*
X15821D1*
X83123D2*
X142968D1*
X171987D2*
X279893D1*
X331919D2*
X344447D1*
X-504196Y-339370D2*
X-379712D1*
X-312410D2*
X7295D1*
X74597D2*
X134848D1*
X180107D2*
X352973D1*
X-554320Y-347900D2*
X-539863D1*
X-518406D2*
X-371186D1*
X-303884D2*
X-185912D1*
X66071D2*
X131803D1*
X183169D2*
X361516D1*
X-554320Y-356430D2*
X-362659D1*
X-295358D2*
X-197467D1*
X57528D2*
X126322D1*
X183101D2*
X370262D1*
X-554303Y-364961D2*
X-354116D1*
X-286831D2*
X-205993D1*
X49001D2*
X117795D1*
X179887D2*
X392880D1*
X-554303Y-373491D2*
X-345590D1*
X-278288D2*
X-214536D1*
X41118D2*
X109269D1*
X171361D2*
X392880D1*
X-554287Y-382021D2*
X-337064D1*
X-269762D2*
X-223062D1*
X48105D2*
X100743D1*
X154123D2*
X392880D1*
X-554287Y-390551D2*
X-328538D1*
X49830D2*
X92200D1*
X145580D2*
X395333D1*
X-554270Y-399081D2*
X-319995D1*
X-171425D2*
X-153804D1*
X-102878D2*
X11575D1*
X49830D2*
X84351D1*
X137054D2*
X279893D1*
X331919D2*
X366507D1*
X-554270Y-407612D2*
X-311469D1*
X-179951D2*
X-154143D1*
X-102540D2*
X11575D1*
X49830D2*
X80561D1*
X131251D2*
X279893D1*
X331919D2*
X366507D1*
X-554270Y-416142D2*
X-302943D1*
X-188494D2*
X-151419D1*
X-96145D2*
X11575D1*
X49830D2*
X80037D1*
X131775D2*
X279893D1*
X331919D2*
X366507D1*
X-476452Y-424672D2*
X-294366D1*
X-197020D2*
X-144009D1*
X-87619D2*
X11575D1*
X49830D2*
X82558D1*
X129255D2*
X279893D1*
X331919D2*
X366507D1*
X418533D2*
X428828D1*
X-460533Y-433202D2*
X-252023D1*
X-203279D2*
X-132472D1*
X-79093D2*
X359D1*
X139016D2*
X279893D1*
X331919D2*
X366507D1*
X418533D2*
X437371D1*
X-450400Y-441732D2*
X-246272D1*
X-208845D2*
X-123929D1*
X-70550D2*
X359D1*
X331919D2*
X366507D1*
X418533D2*
X444612D1*
X-442991Y-450262D2*
X-115403D1*
X-62024D2*
X359D1*
X331919D2*
X366507D1*
X418533D2*
X437794D1*
X-435581Y-458793D2*
X-106877D1*
X-53498D2*
X359D1*
X331919D2*
X366507D1*
X418533D2*
X432448D1*
X-431640Y-467323D2*
X-98351D1*
X-44972D2*
X359D1*
X331919D2*
X366507D1*
X418533D2*
X428253D1*
X-429102Y-475853D2*
X-89808D1*
X-29036D2*
X359D1*
X139016D2*
X424058D1*
X-426564Y-484383D2*
X-81282D1*
X-18700D2*
X359D1*
X147204D2*
X421419D1*
X-425516Y-492913D2*
X-72756D1*
X-14843D2*
X99999D1*
X155899D2*
X420894D1*
X-425516Y-501444D2*
X-66040D1*
X-14284D2*
X95736D1*
X160179D2*
X420370D1*
X-425516Y-509974D2*
X-63570D1*
X-16754D2*
X94112D1*
X161786D2*
X419862D1*
X-425516Y-518504D2*
X-56668D1*
X-23639D2*
X94755D1*
X161160D2*
X419642D1*
X-425516Y-527034D2*
X-246221D1*
X-188426D2*
X97783D1*
X158132D2*
X419727D1*
X-425516Y-535564D2*
X-247321D1*
X-186921D2*
X104144D1*
X151754D2*
X419795D1*
X-425516Y-544094D2*
X-247321D1*
X-186921D2*
X120130D1*
X135768D2*
X419862D1*
X-425516Y-552625D2*
X-247321D1*
X-186921D2*
X419947D1*
X270205Y127512D2*
X429874D1*
Y26031D1*
X269339D1*
Y127512D1*
X270205D1*
X-489782Y427512D2*
X-472710Y427554D1*
X-472698Y431600D1*
X-477715Y428979D1*
X-482951Y428282D1*
X-489759Y427513D1*
X-24464Y454968D2*
X-26950Y452882D1*
X-30315Y450820D1*
X-33961Y449310D1*
X-37798Y448388D1*
X-41732Y448079D1*
X-45667Y448388D1*
X-49504Y449310D1*
X-53150Y450820D1*
X-56515Y452882D1*
X-59516Y455445D1*
X-60086Y456062D1*
X-60087Y377896D1*
X21932Y377906D1*
X63043Y433637D1*
X60438Y435600D1*
X57648Y438391D1*
X55328Y441584D1*
X53536Y445100D1*
X52317Y448853D1*
X51700Y452751D1*
Y456698D1*
X52317Y460595D1*
X53536Y464349D1*
X55328Y467865D1*
X57648Y471058D1*
X60438Y473848D1*
X63631Y476168D1*
X67147Y477960D1*
X70901Y479179D1*
X74798Y479796D1*
X78745D1*
X82643Y479179D1*
X86396Y477960D1*
X89912Y476168D1*
X92845Y474054D1*
X103286Y488144D1*
X104780Y489616D1*
X103937Y490008D1*
X56384D1*
X25638Y459343D1*
X23320Y457659D1*
X20767Y456358D1*
X18042Y455473D1*
X15212Y455025D1*
X-7874Y454968D1*
X-24436D1*
X197297Y329974D2*
X200936Y328136D1*
X204129Y325817D1*
X206919Y323026D1*
X209239Y319834D1*
X211030Y316317D1*
X212250Y312564D1*
X212867Y308666D1*
Y304720D1*
X212250Y300822D1*
X211030Y297069D1*
X209239Y293552D1*
X206919Y290360D1*
X204129Y287569D1*
X200936Y285249D1*
X197420Y283458D1*
X193666Y282238D1*
X189768Y281621D1*
X185822D1*
X181924Y282238D1*
X178171Y283458D1*
X174655Y285249D1*
X171462Y287569D1*
X168671Y290360D1*
X167616Y291698D1*
X166882Y289370D1*
Y282823D1*
X206081Y243708D1*
X209597Y241916D1*
X212790Y239596D1*
X213780Y238732D1*
X278000Y238733D1*
Y267275D1*
X280756Y267370D1*
Y332236D1*
X331055D1*
Y317941D1*
X332527Y319685D1*
X332584Y351433D1*
X333032Y354263D1*
X333917Y356988D1*
X335218Y359541D1*
X336902Y361859D1*
X353187Y378223D1*
X369108Y394145D1*
X367370Y394142D1*
Y472000D1*
X417669D1*
Y394142D1*
X411961Y394094D1*
X411904Y391481D1*
X411456Y388651D1*
X410571Y385926D1*
X409270Y383373D1*
X407586Y381054D1*
X391301Y364690D1*
X369040Y342429D1*
X369047Y332220D1*
X417669Y332236D1*
Y254378D1*
X414914Y254283D1*
X414899Y205465D1*
X416488D1*
Y139417D1*
X279575D1*
Y201228D1*
X278000D1*
Y202226D1*
X213766Y202212D1*
X209396Y197844D1*
X209402Y3726D1*
X264752Y-51626D1*
X269336Y-51622D1*
X269339Y-26032D1*
X429874D1*
Y-127512D1*
X269339D1*
Y-110680D1*
X190893Y-189134D1*
X190826Y-214417D1*
X190257Y-218010D1*
X189133Y-221470D1*
X187478Y-224716D1*
X185369Y-229383D1*
X183501Y-232139D1*
X181226Y-234568D1*
X178599Y-236612D1*
X175678Y-238222D1*
X171859Y-241239D1*
X39930Y-373168D1*
X44594Y-377905D1*
X46278Y-380223D1*
X47579Y-382776D1*
X48464Y-385501D1*
X48912Y-388331D1*
X48969Y-403543D1*
Y-425248D1*
X83738Y-425244D1*
X82670Y-423010D1*
X81451Y-419257D1*
X80833Y-415359D1*
Y-411413D1*
X81451Y-407515D1*
X82670Y-403761D1*
X84462Y-400245D1*
X86782Y-397052D1*
X89572Y-394262D1*
X90790Y-393302D1*
X92994Y-390632D1*
X132337Y-351289D1*
X132640Y-348034D1*
X133562Y-344197D1*
X135072Y-340551D1*
X137134Y-337186D1*
X139697Y-334185D1*
X142698Y-331622D1*
X146063Y-329560D1*
X149709Y-328050D1*
X153546Y-327129D1*
X157480Y-326819D1*
X161415Y-327129D1*
X165252Y-328050D1*
X168898Y-329560D1*
X172263Y-331622D1*
X175264Y-334185D1*
X177827Y-337186D1*
X179889Y-340551D1*
X181399Y-344197D1*
X182320Y-348034D1*
X182630Y-351969D1*
X182320Y-355903D1*
X181399Y-359740D1*
X179889Y-363386D1*
X177827Y-366751D1*
X175264Y-369752D1*
X172263Y-372315D1*
X168898Y-374377D1*
X165252Y-375887D1*
X161415Y-376808D1*
X158143Y-377129D1*
X129781Y-405491D1*
X130745Y-409452D1*
X131055Y-413386D1*
X130745Y-417320D1*
X129824Y-421157D1*
X128314Y-424804D1*
X128069Y-425241D1*
X138142Y-425244D1*
Y-434904D1*
X280769Y-434890D1*
X280756Y-394142D1*
X331055D1*
Y-472000D1*
X280756D1*
Y-471408D1*
X138126Y-471409D1*
X138158Y-480404D1*
X142945Y-482387D1*
X147364Y-485094D1*
X151304Y-488460D1*
X154669Y-492400D1*
X157377Y-496819D1*
X159360Y-501606D1*
X160570Y-506645D1*
X160976Y-511811D1*
X160570Y-516977D1*
X159360Y-522016D1*
X157377Y-526803D1*
X154669Y-531222D1*
X151304Y-535162D1*
X147364Y-538528D1*
X142945Y-541235D1*
X138158Y-543218D1*
X133119Y-544428D1*
X127953Y-544835D1*
X122787Y-544428D1*
X117748Y-543218D1*
X112960Y-541235D1*
X108542Y-538528D1*
X104602Y-535162D1*
X101236Y-531222D1*
X98528Y-526803D1*
X96545Y-522016D1*
X95336Y-516977D1*
X94929Y-511811D1*
X95336Y-506645D1*
X96545Y-501606D1*
X98528Y-496819D1*
X101236Y-492400D1*
X102108Y-491295D1*
X1229Y-491292D1*
Y-425244D1*
X12444D1*
X12449Y-398128D1*
X7593Y-393259D1*
X-40586Y-393352D1*
X-44483Y-393970D1*
X-48430D1*
X-52328Y-393352D1*
X-54724Y-393260D1*
X-105762D1*
X-104428Y-396559D1*
X-103506Y-400396D1*
X-103197Y-404331D1*
X-103506Y-408265D1*
X-103737Y-409423D1*
X-39464Y-473689D1*
X-36223Y-473979D1*
X-32386Y-474900D1*
X-28740Y-476410D1*
X-25375Y-478472D1*
X-22374Y-481035D1*
X-19811Y-484036D1*
X-17749Y-487401D1*
X-16239Y-491047D1*
X-15318Y-494885D1*
X-15008Y-498819D1*
X-15318Y-502753D1*
X-16239Y-506591D1*
X-17749Y-510237D1*
X-19811Y-513601D1*
X-22374Y-516602D1*
X-25375Y-519165D1*
X-28740Y-521227D1*
X-32386Y-522738D1*
X-36223Y-523659D1*
X-40157Y-523969D1*
X-44092Y-523659D1*
X-47929Y-522738D1*
X-51575Y-521227D1*
X-54940Y-519165D1*
X-57941Y-516602D1*
X-60504Y-513601D1*
X-62566Y-510237D1*
X-64076Y-506591D1*
X-64997Y-502753D1*
X-65318Y-499482D1*
X-136767Y-428032D1*
X-139764Y-426739D1*
X-143129Y-424677D1*
X-146130Y-422114D1*
X-148693Y-419113D1*
X-150755Y-415748D1*
X-152265Y-412102D1*
X-153186Y-408265D1*
X-153496Y-404331D1*
X-153186Y-400396D1*
X-152265Y-396559D1*
X-151139Y-393747D1*
X-166958Y-393752D1*
X-203107Y-429893D1*
X-204324Y-433640D1*
X-206115Y-437156D1*
X-208435Y-440349D1*
X-211226Y-443140D1*
X-214418Y-445459D1*
X-217935Y-447251D1*
X-221688Y-448470D1*
X-225586Y-449088D1*
X-229532D1*
X-233430Y-448470D1*
X-237183Y-447251D1*
X-240700Y-445459D1*
X-243892Y-443140D1*
X-246683Y-440349D1*
X-249003Y-437156D1*
X-250840Y-433517D1*
X-253700Y-430658D1*
X-279772Y-430590D1*
X-283364Y-430021D1*
X-286824Y-428897D1*
X-290065Y-427246D1*
X-293008Y-425107D1*
X-303531Y-414685D1*
X-415890Y-302326D1*
X-451793Y-302369D1*
X-455546Y-303589D1*
X-459444Y-304206D1*
X-463391D1*
X-467288Y-303589D1*
X-471042Y-302369D1*
X-474558Y-300577D1*
X-477751Y-298258D1*
X-480541Y-295467D1*
X-482861Y-292274D1*
X-484653Y-288758D1*
X-485872Y-285005D1*
X-486489Y-281107D1*
Y-277161D1*
X-485872Y-273263D1*
X-484598Y-269390D1*
X-484599Y-248565D1*
X-509359Y-223716D1*
X-511498Y-220774D1*
X-513149Y-217532D1*
X-514273Y-214073D1*
X-514842Y-210480D1*
X-514914Y-195669D1*
X-514842Y196307D1*
X-514273Y199900D1*
X-513149Y203359D1*
X-511498Y206600D1*
X-509359Y209543D1*
X-498937Y220067D1*
X-418971Y300033D1*
X-418440Y302853D1*
X-417030Y307194D1*
X-414958Y311261D1*
X-412275Y314953D1*
X-409048Y318181D1*
X-405355Y320863D1*
X-401288Y322936D1*
X-396948Y324346D1*
X-392440Y325060D1*
X-387875D1*
X-383367Y324346D1*
X-379027Y322936D1*
X-374960Y320863D1*
X-372830Y319412D1*
X-319779Y372351D1*
X-316837Y374490D1*
X-313595Y376141D1*
X-310136Y377265D1*
X-306543Y377834D1*
X-291732Y377906D1*
X-96597D1*
X-96663Y486700D1*
X-100855Y483654D1*
X-105473Y481301D1*
X-110401Y479700D1*
X-115519Y478889D1*
X-120701D1*
X-122783Y479136D1*
X-120246Y476570D1*
X-117927Y473377D1*
X-116135Y469861D1*
X-114915Y466107D1*
X-114298Y462209D1*
Y458263D1*
X-114915Y454365D1*
X-116135Y450612D1*
X-117927Y447096D1*
X-120246Y443903D1*
X-123037Y441112D1*
X-126229Y438793D1*
X-129746Y437001D1*
X-133499Y435781D1*
X-137397Y435164D1*
X-139809Y435104D1*
X-139811Y418551D1*
X-276724D1*
X-276819Y428393D1*
X-314831D1*
X-315315Y425265D1*
X-316201Y422540D1*
X-317502Y419987D1*
X-319186Y417669D1*
X-335470Y401304D1*
X-355203Y381573D1*
X-355559Y379874D1*
Y361464D1*
X-492472D1*
Y427210D1*
X-503398Y425987D1*
X-510401Y425889D1*
X-507835Y423891D1*
X-504061Y420118D1*
X-500925Y415801D1*
X-498502Y411046D1*
X-496853Y405970D1*
X-496018Y400700D1*
Y395363D1*
X-496853Y390093D1*
X-498502Y385017D1*
X-500925Y380262D1*
X-504061Y375945D1*
X-506893Y373043D1*
X-504061Y370118D1*
X-500925Y365801D1*
X-498502Y361046D1*
X-496853Y355970D1*
X-496018Y350700D1*
Y345363D1*
X-496853Y340093D1*
X-498502Y335017D1*
X-500925Y330262D1*
X-504061Y325945D1*
X-506893Y323043D1*
X-504061Y320118D1*
X-500925Y315801D1*
X-498502Y311046D1*
X-496853Y305970D1*
X-496018Y300700D1*
Y295363D1*
X-496853Y290093D1*
X-498502Y285017D1*
X-500925Y280262D1*
X-504061Y275945D1*
X-506893Y273043D1*
X-504061Y270118D1*
X-500925Y265801D1*
X-498502Y261046D1*
X-496853Y255970D1*
X-496018Y250700D1*
Y245363D1*
X-496853Y240093D1*
X-498502Y235017D1*
X-500925Y230262D1*
X-504061Y225945D1*
X-507835Y222172D1*
X-512152Y219035D1*
X-516907Y216612D1*
X-521982Y214963D1*
X-527253Y214128D1*
X-532589D1*
X-537860Y214963D1*
X-542936Y216612D1*
X-547690Y219035D1*
X-552008Y222172D1*
X-555717Y225876D1*
X-555287Y-243606D1*
X-553181Y-241307D1*
X-549123Y-237841D1*
X-544573Y-235053D1*
X-539643Y-233011D1*
X-534454Y-231765D1*
X-529134Y-231346D1*
X-523814Y-231765D1*
X-518625Y-233011D1*
X-513695Y-235053D1*
X-509145Y-237841D1*
X-505087Y-241307D1*
X-501621Y-245365D1*
X-498833Y-249915D1*
X-496790Y-254845D1*
X-495545Y-260034D1*
X-495126Y-265354D1*
X-495545Y-270674D1*
X-496790Y-275863D1*
X-498833Y-280794D1*
X-501621Y-285344D1*
X-505087Y-289402D1*
X-506105Y-290343D1*
X-503274Y-293268D1*
X-500137Y-297585D1*
X-497715Y-302340D1*
X-496066Y-307415D1*
X-495231Y-312686D1*
Y-318023D1*
X-496066Y-323293D1*
X-497715Y-328369D1*
X-500137Y-333123D1*
X-503274Y-337441D1*
X-507048Y-341214D1*
X-511365Y-344351D1*
X-516120Y-346774D1*
X-521195Y-348423D1*
X-526466Y-349257D1*
X-531802D1*
X-537073Y-348423D1*
X-542148Y-346774D1*
X-546903Y-344351D1*
X-551220Y-341214D1*
X-554994Y-337441D1*
X-555207Y-337170D1*
X-555096Y-422856D1*
X-480403Y-423285D1*
X-479116Y-423711D1*
X-456438Y-435920D1*
X-452946Y-439799D1*
X-434516Y-461092D1*
X-434081Y-462014D1*
X-426415Y-488015D1*
X-426378Y-544882D1*
Y-554331D1*
X-246467D1*
X-246404Y-529244D1*
X-245985Y-527955D1*
X-245188Y-526859D1*
X-244092Y-526062D1*
X-242803Y-525644D1*
X-233431Y-525659D1*
X-191415Y-526043D1*
X-190129Y-526472D1*
X-189040Y-527277D1*
X-188252Y-528379D1*
X-187843Y-529671D1*
X-187793Y-553940D1*
X420824Y-554328D1*
X420473Y-514210D1*
X422543Y-480953D1*
X422879Y-479991D1*
X435832Y-453801D1*
X446165Y-440873D1*
X444247Y-439218D1*
X417679Y-412650D1*
X417669Y-472000D1*
X367370D1*
Y-394142D1*
X399157D1*
X396897Y-391581D1*
X395545Y-389375D1*
X394555Y-386985D1*
X393951Y-384469D1*
X393748Y-381890D1*
Y-363129D1*
X390407Y-359788D1*
X379809Y-359745D1*
X377253Y-359340D1*
X374793Y-358540D1*
X372487Y-357366D1*
X370394Y-355845D1*
X351070Y-336592D1*
X334706Y-320157D1*
X333186Y-318064D1*
X332011Y-315759D1*
X331210Y-313293D1*
X331055Y-315008D1*
Y-332236D1*
X280756D1*
Y-305660D1*
X200377Y-305662D1*
X197853Y-307748D1*
X194489Y-309810D1*
X190843Y-311320D1*
X187005Y-312242D1*
X183071Y-312551D1*
X179137Y-312242D1*
X175299Y-311320D1*
X171653Y-309810D1*
X168288Y-307748D1*
X165287Y-305185D1*
X162724Y-302184D1*
X160662Y-298819D1*
X159152Y-295173D1*
X158231Y-291336D1*
X157921Y-287402D1*
X158231Y-283467D1*
X159152Y-279630D1*
X160662Y-275984D1*
X162724Y-272619D1*
X165287Y-269618D1*
X168288Y-267055D1*
X171653Y-264993D1*
X175299Y-263483D1*
X179137Y-262562D1*
X183071Y-262252D1*
X187005Y-262562D1*
X190843Y-263483D1*
X194489Y-264993D1*
X197853Y-267055D1*
X200394Y-269142D1*
X280766D1*
X280756Y-254378D1*
X282735D1*
X282724Y-190992D1*
X403668Y-190950D1*
Y-187003D1*
X404285Y-183105D1*
X405505Y-179352D1*
X407297Y-175836D1*
X409616Y-172643D1*
X412407Y-169852D1*
X415600Y-167533D1*
X419116Y-165741D1*
X422869Y-164522D1*
X426767Y-163904D1*
X430713D1*
X434611Y-164522D1*
X438364Y-165741D1*
X441881Y-167533D1*
X445074Y-169852D1*
X447220Y-171946D1*
X450178Y-169417D1*
X453543Y-167355D1*
X457189Y-165845D1*
X461026Y-164924D1*
X464961Y-164614D1*
X468895Y-164924D1*
X472732Y-165845D1*
X476378Y-167355D1*
X479743Y-169417D1*
X482744Y-171980D1*
X485307Y-174981D1*
X487369Y-178346D1*
X488879Y-181992D1*
X489801Y-185830D1*
X490110Y-189764D1*
X489801Y-193698D1*
X488879Y-197535D1*
X487369Y-201181D1*
X485307Y-204546D1*
X482744Y-207547D1*
X479711Y-210132D1*
X478297Y-212451D1*
X478119Y-213542D1*
X481471Y-214412D1*
X484717Y-215619D1*
X487824Y-217149D1*
X490759Y-218988D1*
X493491Y-221115D1*
X495993Y-223509D1*
X498239Y-226146D1*
X500204Y-228997D1*
X501874Y-232042D1*
X503709Y-228641D1*
X505671Y-225787D1*
X507914Y-223148D1*
X510412Y-220750D1*
X513142Y-218619D1*
X516074Y-216777D1*
X519179Y-215242D1*
X522423Y-214031D1*
X525774Y-213157D1*
X529197Y-212627D1*
X532655Y-212449D1*
X536114Y-212623D1*
X539537Y-213148D1*
X542889Y-214018D1*
X546135Y-215225D1*
X549241Y-216755D1*
X552176Y-218594D1*
X554206Y-220132D1*
X554696Y-165011D1*
X442187Y-130266D1*
X441079Y-129486D1*
X440266Y-128402D1*
X439828Y-127120D1*
X439758Y-117720D1*
X439370Y438337D1*
X432523Y461163D1*
X422160Y486813D1*
X422047Y492126D1*
Y556292D1*
X-80289Y555333D1*
X-64462Y539418D1*
X-62777Y537100D1*
X-61477Y534547D1*
X-60591Y531822D1*
X-60143Y528992D1*
X-60087Y505906D1*
Y490427D1*
X-58066Y492352D1*
X-54873Y494672D1*
X-51357Y496464D1*
X-47603Y497683D1*
X-43705Y498300D1*
X-39759D1*
X-35861Y497683D1*
X-32108Y496464D1*
X-28592Y494672D1*
X-25399Y492352D1*
X-24409Y491488D1*
X6227D1*
X36960Y522153D1*
X39278Y523837D1*
X41831Y525138D1*
X44556Y526023D1*
X47386Y526471D1*
X70472Y526528D1*
X166000Y526471D1*
X168830Y526023D1*
X171555Y525138D1*
X174108Y523837D1*
X176426Y522153D1*
X192790Y505868D1*
X276090Y422489D1*
X277774Y420171D1*
X279075Y417618D1*
X279960Y414893D1*
X280408Y412063D1*
X280465Y388976D1*
X280408Y357229D1*
X279960Y354399D1*
X279075Y351674D1*
X277774Y349121D1*
X276090Y346803D1*
X259805Y330438D1*
X258143Y328735D1*
X257526Y324838D1*
X256306Y321084D1*
X254514Y317568D1*
X252195Y314375D1*
X249404Y311585D1*
X246211Y309265D1*
X242695Y307473D1*
X238942Y306254D1*
X235044Y305637D1*
X231098D1*
X227200Y306254D1*
X223447Y307473D1*
X219930Y309265D1*
X216738Y311585D1*
X213947Y314375D1*
X211627Y317568D1*
X209836Y321084D1*
X208616Y324838D1*
X207999Y328735D1*
Y332682D1*
X208616Y336580D1*
X209836Y340333D1*
X211627Y343849D1*
X213947Y347042D1*
X216738Y349833D1*
X219930Y352152D1*
X223447Y353944D1*
X227200Y355163D1*
X231098Y355781D1*
X233589Y355869D1*
X243936Y366217D1*
X243945Y403068D1*
X157006Y490005D1*
X121480Y490008D1*
X236175Y405375D1*
X237645Y403885D1*
X238863Y402183D1*
X239800Y400311D1*
X240433Y398316D1*
X240745Y396247D1*
X240731Y394154D1*
X240389Y392089D1*
X239728Y390103D1*
X238765Y388244D1*
X212475Y352522D1*
X196461Y330805D1*
X-372619Y272879D2*
X-374960Y271263D1*
X-379027Y269190D1*
X-383367Y267780D1*
X-386165Y267268D1*
X-468541Y184896D1*
X-468551Y-199048D1*
X-443790Y-223921D1*
X-441652Y-226864D1*
X-440001Y-230105D1*
X-438877Y-233565D1*
X-438308Y-237158D1*
X-438236Y-251969D1*
Y-255944D1*
X-404480Y-256024D1*
X-400888Y-256593D1*
X-397428Y-257717D1*
X-394187Y-259369D1*
X-391244Y-261507D1*
X-380721Y-271929D1*
X-268362Y-384288D1*
X-242276Y-384371D1*
X-238683Y-384940D1*
X-235223Y-386064D1*
X-231982Y-387715D1*
X-230463Y-388731D1*
X-229097Y-388925D1*
X-192146Y-352077D1*
X-189141Y-349894D1*
X-185831Y-348208D1*
X-182298Y-347060D1*
X-178629Y-346478D1*
X-163780Y-346405D1*
X-136053D1*
X-133430Y-345624D1*
X-129532Y-345007D1*
X-125586D1*
X-121688Y-345624D1*
X-117816Y-346898D1*
X-58657Y-346897D1*
X-56081Y-345662D1*
X-52328Y-344443D1*
X-48430Y-343826D1*
X-44483D1*
X-40586Y-344443D1*
X-36832Y-345662D1*
X-34305Y-346900D1*
X620Y-346897D1*
X141563Y-205968D1*
X139974Y-203692D1*
X138182Y-200176D1*
X136963Y-196422D1*
X136345Y-192524D1*
Y-188578D1*
X136963Y-184680D1*
X138182Y-180927D1*
X139974Y-177411D1*
X142293Y-174218D1*
X145084Y-171427D1*
X146423Y-170372D1*
X147951Y-167415D1*
X150089Y-164473D1*
X160512Y-153949D1*
X228229Y-86232D1*
X165128Y-23026D1*
X162808Y-19834D1*
X161017Y-16317D1*
X159797Y-12564D1*
X159180Y-8666D1*
X159102Y6299D1*
X159180Y210241D1*
X159797Y214139D1*
X161017Y217892D1*
X161847Y219692D1*
X161691Y222455D1*
X126074Y258173D1*
X123936Y261116D1*
X122284Y264357D1*
X121160Y267817D1*
X120591Y271410D1*
X120520Y281467D1*
X52613Y331537D1*
X-295136Y331543D1*
X-348331Y278436D1*
X-351274Y276298D1*
X-354515Y274646D1*
X-357974Y273522D1*
X-361567Y272953D1*
X-372605Y272882D1*
X367366Y-292233D2*
X365028Y-294949D1*
X363730Y-296148D1*
X363732Y-302625D1*
X367370Y-306252D1*
Y-292248D1*
X281622Y472000D2*
X331055D1*
Y394142D1*
X280756D1*
Y472000D1*
X281622D1*
X-260050Y-13112D2*
X-164337Y113878D1*
X-162370Y115570D1*
X-160114Y116850D1*
X-157652Y117668D1*
X-155078Y117995D1*
X-152490Y117817D1*
X-149985Y117141D1*
X-147658Y115994D1*
X-140444Y110630D1*
X-32244Y29061D1*
X-30552Y27095D1*
X-29273Y24838D1*
X-28454Y22376D1*
X-28127Y19803D1*
X-28305Y17214D1*
X-28981Y14710D1*
X-30128Y12383D1*
X-35492Y5168D1*
X-126532Y-115613D1*
X-128498Y-117305D1*
X-130755Y-118584D1*
X-133217Y-119403D1*
X-135791Y-119729D1*
X-138379Y-119552D1*
X-140884Y-118876D1*
X-143210Y-117729D1*
X-150425Y-112365D1*
X-258105Y-31267D1*
X-259898Y-29392D1*
X-261295Y-27206D1*
X-262241Y-24790D1*
X-262703Y-22238D1*
X-262661Y-19644D1*
X-262118Y-17107D1*
X-261094Y-14723D1*
X-260161Y-13261D1*
X314567Y172441D2*
D10*
Y139434D1*
X279592Y172441D2*
X314567D1*
X349606Y127495D2*
Y26048D1*
X269356Y76772D2*
X429857D1*
X384646Y-191009D2*
Y-224016D1*
X532677Y-212466D2*
Y-246457D1*
X305906Y471983D2*
Y394159D1*
X280773Y433071D2*
X331038D1*
X-145434Y114371D2*
Y-116106D1*
X-250829Y-867D2*
X-40040D1*
X367387Y-293307D2*
X392520D1*
D34*
X381496Y172441D3*
X314567D3*
D35*
X349606Y76772D3*
Y-76772D3*
D34*
X317717Y-224016D3*
X384646D3*
D33*
X-384646Y532677D3*
Y465748D3*
D34*
X-241732Y451575D3*
X-174803D3*
X-457480Y394488D3*
X-390551D3*
X379921Y234252D3*
X312992D3*
X103150Y-458268D3*
X36220D3*
D40*
X-333071Y544094D3*
Y461417D3*
X-297638Y544094D3*
Y461417D3*
D44*
X-529921Y298031D3*
Y348031D3*
Y248031D3*
Y398031D3*
X532677Y-346457D3*
Y-296457D3*
Y-396457D3*
Y-246457D3*
X471260Y-346850D3*
Y-296850D3*
Y-396850D3*
Y-246850D3*
X-529134Y-315354D3*
Y-265354D3*
D125*
X128346Y380315D3*
D59*
X305906Y433071D3*
X392520D3*
X305906Y293307D3*
X392520D3*
D128*
X-145434Y-867D3*
D59*
X305906Y-293307D3*
X392520D3*
X305906Y-433071D3*
X392520D3*
M02*
