G04 DipTrace 3.2.0.1*
G04 BottomMask.gbr*
%MOIN*%
G04 #@! TF.FileFunction,Soldermask,Bot*
G04 #@! TF.Part,Single*
%AMOUTLINE10*
4,1,4,
-0.015811,0.1046,
0.1046,0.015811,
0.015811,-0.1046,
-0.1046,-0.015811,
-0.015811,0.1046,
0*%
%AMOUTLINE13*
4,1,4,
-0.109487,-0.021064,
-0.010037,0.111042,
0.109487,0.021064,
0.010037,-0.111042,
-0.109487,-0.021064,
0*%
%ADD63C,0.03937*%
%ADD66R,0.031496X0.059055*%
%ADD90C,0.049213*%
%ADD102R,0.031496X0.047244*%
%ADD106R,0.141732X0.082677*%
%ADD108R,0.051181X0.047244*%
%ADD110R,0.047244X0.051181*%
%ADD126OUTLINE10*%
%ADD129OUTLINE13*%
%FSLAX26Y26*%
G04*
G70*
G90*
G75*
G01*
G04 BotMask*
%LPD*%
D108*
X381496Y172441D3*
X314567D3*
D106*
X349606Y76772D3*
Y-76772D3*
D108*
X317717Y-224016D3*
X384646D3*
D102*
X-333071Y544094D3*
Y461417D3*
X-297638Y544094D3*
Y461417D3*
D63*
X-118110Y511811D3*
X127953Y-511811D3*
D110*
X-384646Y532677D3*
Y465748D3*
D108*
X-241732Y451575D3*
X-174803D3*
X-457480Y394488D3*
X-390551D3*
X379921Y234252D3*
X312992D3*
X103150Y-458268D3*
X36220D3*
D90*
X-529921Y298031D3*
Y348031D3*
Y248031D3*
Y398031D3*
X532677Y-346457D3*
Y-296457D3*
Y-396457D3*
Y-246457D3*
X471260Y-346850D3*
Y-296850D3*
Y-396850D3*
Y-246850D3*
X-529134Y-315354D3*
Y-265354D3*
D126*
X128346Y380315D3*
D66*
X305906Y433071D3*
X392520D3*
X305906Y293307D3*
X392520D3*
D129*
X-145434Y-867D3*
D66*
X305906Y-293307D3*
X392520D3*
X305906Y-433071D3*
X392520D3*
M02*
