G04 DipTrace 3.2.0.1*
G04 BottomSilk.gbr*
%MOIN*%
G04 #@! TF.FileFunction,Legend,Bot*
G04 #@! TF.Part,Single*
%ADD10C,0.009843*%
%ADD12C,0.003*%
%ADD13C,0.001969*%
%ADD14C,0.002625*%
%ADD15C,0.007874*%
%ADD31C,0.003937*%
%ADD114C,0.003281*%
%ADD115C,0.003088*%
%FSLAX26Y26*%
G04*
G70*
G90*
G75*
G01*
G04 BotSilk*
%LPD*%
X412654Y16190D2*
D10*
X286559D1*
X412654Y23702D2*
X286559D1*
X412654D2*
X412600Y-23634D1*
X286559Y23702D2*
X286613Y-23634D1*
X-340948Y514570D2*
X-289764D1*
Y490942D1*
X-340948D1*
Y514570D1*
X-275984Y542128D2*
X284252Y428148D2*
X414173D1*
Y298230D1*
X284252D1*
Y428148D1*
Y-298230D2*
X414173D1*
Y-428148D1*
X284252D1*
Y-298230D1*
X-145669Y-9843D2*
D15*
Y9843D1*
X-135827Y0D2*
X-155512D1*
X-484449Y420276D2*
D31*
X-364370D1*
Y367520D1*
X-484449D1*
Y420276D1*
X8465Y-432087D2*
X128543D1*
Y-484843D1*
X8465D1*
Y-432087D1*
X364173Y-358268D2*
D15*
X344488D1*
X354331Y-348425D2*
Y-368110D1*
X364173Y358268D2*
X344488D1*
X354331Y348425D2*
Y368110D1*
X-557087Y425984D2*
D31*
X-502756D1*
Y218898D1*
X-557087D1*
Y425984D1*
X443307Y-218504D2*
X497638D1*
Y-425591D1*
X443307D1*
Y-218504D1*
X290748Y-197835D2*
X410827D1*
Y-250591D1*
X290748D1*
Y-197835D1*
X-411417Y559055D2*
X-358661D1*
Y438976D1*
X-411417D1*
Y559055D1*
X-267913Y478150D2*
X-147835D1*
Y425394D1*
X-267913D1*
Y478150D1*
X286024Y260433D2*
X406102D1*
Y207677D1*
X286024D1*
Y260433D1*
X505118Y-217717D2*
X559449D1*
Y-424803D1*
X505118D1*
Y-217717D1*
X287598Y199016D2*
X407677D1*
Y146260D1*
X287598D1*
Y199016D1*
X-555512Y-235039D2*
X-501181D1*
Y-346850D1*
X-555512D1*
Y-235039D1*
X489171Y231434D2*
D12*
X493671D1*
X519171D2*
X523671D1*
X489171Y229934D2*
X493671D1*
X516921D2*
X523671D1*
X489171Y228434D2*
X493671D1*
X514798D2*
X523671D1*
X489171Y226934D2*
X493671D1*
X512715D2*
X523671D1*
X489171Y225434D2*
X493671D1*
X510681D2*
X523671D1*
X489171Y223934D2*
X493671D1*
X508689D2*
X523671D1*
X489171Y222434D2*
X493671D1*
X506670D2*
X523671D1*
X489171Y220934D2*
X493671D1*
X504663D2*
X513113D1*
X517671D2*
X523671D1*
X489171Y219434D2*
X493676D1*
X502676D2*
X511421D1*
X517671D2*
X523671D1*
X489171Y217934D2*
X493734D1*
X500610D2*
X509562D1*
X517671D2*
X523671D1*
X489171Y216434D2*
X493965D1*
X498422D2*
X507671D1*
X517671D2*
X523671D1*
X489171Y214934D2*
X494478D1*
X496097D2*
X505857D1*
X517671D2*
X523671D1*
X489171Y213434D2*
X504027D1*
X517671D2*
X523671D1*
X489171Y211934D2*
X502098D1*
X517671D2*
X523671D1*
X489171Y210434D2*
X500130D1*
X517671D2*
X523671D1*
X489171Y208934D2*
X498125D1*
X517671D2*
X523671D1*
X489171Y207434D2*
X495962D1*
X517671D2*
X523671D1*
X489171Y205934D2*
X493671D1*
X517671D2*
X523671D1*
X489171Y192434D2*
X538671D1*
X489171Y190934D2*
X538671D1*
X489171Y189434D2*
X538671D1*
X489171Y187934D2*
X538671D1*
X508376Y186434D2*
X516465D1*
X509253Y184934D2*
X515588D1*
X509755Y183434D2*
X515086D1*
X509999Y181934D2*
X514842D1*
X510104Y180434D2*
X514737D1*
X510146Y178934D2*
X514695D1*
X510162Y177434D2*
X514679D1*
X510168Y175934D2*
X514673D1*
X510170Y174434D2*
X514672D1*
X510170Y172934D2*
X514671D1*
X510171Y171434D2*
X514671D1*
X510171Y169934D2*
X514671D1*
X510171Y168434D2*
X514671D1*
X510171Y166934D2*
X514671D1*
X510171Y165434D2*
X514671D1*
X489171Y163934D2*
X538671D1*
X489171Y162434D2*
X538671D1*
X489171Y160934D2*
X538671D1*
X489171Y159434D2*
X538671D1*
X489171Y157934D2*
X538671D1*
X505671Y145934D2*
X514671D1*
X501355Y144434D2*
X514671D1*
X525171D2*
X526671D1*
X497797Y142934D2*
X514671D1*
X525176D2*
X529370D1*
X495161Y141434D2*
X514671D1*
X525241D2*
X531694D1*
X493326Y139934D2*
X514671D1*
X525399D2*
X533500D1*
X491947Y138434D2*
X504534D1*
X508376D2*
X514671D1*
X526302D2*
X534826D1*
X490823Y136934D2*
X500966D1*
X509253D2*
X514671D1*
X527629D2*
X535802D1*
X490018Y135434D2*
X498317D1*
X509755D2*
X514671D1*
X529078D2*
X536527D1*
X489556Y133934D2*
X496359D1*
X509999D2*
X514671D1*
X530318D2*
X537101D1*
X489330Y132434D2*
X495510D1*
X510105D2*
X514671D1*
X531281D2*
X537647D1*
X489232Y130934D2*
X494814D1*
X510148D2*
X514671D1*
X531959D2*
X538113D1*
X489193Y129434D2*
X494331D1*
X510171D2*
X514671D1*
X532341D2*
X538401D1*
X489179Y127934D2*
X494070D1*
X532477D2*
X538500D1*
X489173Y126434D2*
X494371D1*
X532363D2*
X538377D1*
X489177Y124934D2*
X494767D1*
X531978D2*
X538039D1*
X489229Y123434D2*
X495267D1*
X531338D2*
X537613D1*
X489426Y121934D2*
X495927D1*
X530516D2*
X537158D1*
X489844Y120434D2*
X497626D1*
X528472D2*
X536602D1*
X490478Y118934D2*
X500150D1*
X525302D2*
X535905D1*
X491355Y117434D2*
X503478D1*
X520996D2*
X535002D1*
X492545Y115934D2*
X533802D1*
X494095Y114434D2*
X532248D1*
X496025Y112934D2*
X530316D1*
X498171Y111434D2*
X528171D1*
X496671Y100934D2*
X501171D1*
X495231Y99434D2*
X501171D1*
X493297Y97934D2*
X501171D1*
X491459Y96434D2*
X517671D1*
X490042Y94934D2*
X517671D1*
X489581Y93434D2*
X517671D1*
X489329Y91934D2*
X517671D1*
X537171D2*
X538671D1*
X496671Y90434D2*
X501171D1*
X533478D2*
X538659D1*
X496671Y88934D2*
X501171D1*
X530042D2*
X538536D1*
X496671Y87434D2*
X501171D1*
X526771D2*
X538237D1*
X496671Y85934D2*
X501171D1*
X523483D2*
X536638D1*
X496671Y84434D2*
X501171D1*
X520085D2*
X534244D1*
X496671Y82934D2*
X501171D1*
X516685D2*
X531337D1*
X496671Y81434D2*
X501176D1*
X513412D2*
X528284D1*
X496671Y79934D2*
X501234D1*
X510214D2*
X525222D1*
X496671Y78434D2*
X501465D1*
X506918D2*
X522137D1*
X496671Y76934D2*
X501978D1*
X503378D2*
X518931D1*
X496671Y75434D2*
X515565D1*
X496671Y73934D2*
X512178D1*
X496671Y72434D2*
X508915D1*
X496671Y70934D2*
X505767D1*
X496671Y69434D2*
X502671D1*
X489171Y58934D2*
X495171D1*
X489171Y57434D2*
X495171D1*
X489171Y55934D2*
X495171D1*
X489171Y54434D2*
X495171D1*
X489171Y52934D2*
X495171D1*
X489171Y42434D2*
X493671D1*
X522171D2*
X529671D1*
X489171Y40934D2*
X493671D1*
X519054D2*
X531857D1*
X489171Y39434D2*
X493671D1*
X516315D2*
X533729D1*
X489171Y37934D2*
X493671D1*
X513937D2*
X535203D1*
X489171Y36434D2*
X493671D1*
X511790D2*
X536244D1*
X489171Y34934D2*
X493671D1*
X509707D2*
X520960D1*
X529608D2*
X536981D1*
X489171Y33434D2*
X493671D1*
X507677D2*
X518530D1*
X530857D2*
X537599D1*
X489171Y31934D2*
X493671D1*
X505687D2*
X516336D1*
X531747D2*
X538095D1*
X489171Y30434D2*
X493682D1*
X503663D2*
X514227D1*
X532248D2*
X538395D1*
X489171Y28934D2*
X493797D1*
X501596D2*
X512185D1*
X532434D2*
X538498D1*
X489171Y27434D2*
X494069D1*
X499341D2*
X510190D1*
X532425D2*
X538376D1*
X489171Y25934D2*
X495238D1*
X496658D2*
X508170D1*
X531706D2*
X538039D1*
X489171Y24434D2*
X506163D1*
X530569D2*
X537607D1*
X489171Y22934D2*
X504182D1*
X529203D2*
X537099D1*
X489171Y21434D2*
X502167D1*
X528033D2*
X536347D1*
X489171Y19934D2*
X500158D1*
X527308D2*
X535233D1*
X489171Y18434D2*
X498136D1*
X526939D2*
X533720D1*
X489171Y16934D2*
X495965D1*
X526769D2*
X531806D1*
X489171Y15434D2*
X493671D1*
X526671D2*
X529671D1*
X-229766Y-214197D2*
D14*
X-220580D1*
X-198270D2*
X-190396D1*
X-168087D2*
X-160213D1*
X-137903D2*
X-128717D1*
X-105094D2*
X-85409D1*
X-67037D2*
X-59163D1*
X-231477Y-215509D2*
X-218712D1*
X-200183D2*
X-188528D1*
X-170000D2*
X-158300D1*
X-139613D2*
X-126848D1*
X-107007D2*
X-85409D1*
X-69354D2*
X-56644D1*
X-232794Y-216822D2*
X-217196D1*
X-201821D2*
X-187012D1*
X-171638D2*
X-156662D1*
X-140931D2*
X-125332D1*
X-108645D2*
X-85409D1*
X-71265D2*
X-54624D1*
X-233785Y-218134D2*
X-216059D1*
X-203106D2*
X-185875D1*
X-172922D2*
X-155377D1*
X-141922D2*
X-124195D1*
X-109935D2*
X-85409D1*
X-72697D2*
X-53103D1*
X-234587Y-219446D2*
X-226829D1*
X-222354D2*
X-215217D1*
X-204114D2*
X-196492D1*
X-191709D2*
X-185033D1*
X-173930D2*
X-166461D1*
X-161838D2*
X-154369D1*
X-142723D2*
X-134965D1*
X-130490D2*
X-123353D1*
X-110845D2*
X-103316D1*
X-90659D2*
X-85409D1*
X-73835D2*
X-65461D1*
X-60738D2*
X-51987D1*
X-235251Y-220759D2*
X-228689D1*
X-220606D2*
X-214628D1*
X-204483D2*
X-198195D1*
X-190396D2*
X-184444D1*
X-174300D2*
X-168322D1*
X-159978D2*
X-153950D1*
X-143388D2*
X-136826D1*
X-128742D2*
X-122765D1*
X-111490D2*
X-105020D1*
X-90659D2*
X-85409D1*
X-74792D2*
X-67491D1*
X-58704D2*
X-51161D1*
X-235713Y-222071D2*
X-230120D1*
X-219218D2*
X-214270D1*
X-204683D2*
X-199384D1*
X-189084D2*
X-184086D1*
X-174500D2*
X-169752D1*
X-158547D2*
X-153581D1*
X-143849D2*
X-138256D1*
X-127354D2*
X-122407D1*
X-112031D2*
X-106213D1*
X-90659D2*
X-85409D1*
X-75491D2*
X-69042D1*
X-57125D2*
X-50579D1*
X-235967Y-223383D2*
X-230682D1*
X-217955D2*
X-214018D1*
X-204769D2*
X-200263D1*
X-187772D2*
X-183835D1*
X-174590D2*
X-170250D1*
X-158050D2*
X-153176D1*
X-144104D2*
X-138819D1*
X-126092D2*
X-122155D1*
X-112460D2*
X-107108D1*
X-90659D2*
X-85409D1*
X-75921D2*
X-70129D1*
X-55965D2*
X-50202D1*
X-235710Y-224696D2*
X-230689D1*
X-204759D2*
X-200492D1*
X-174627D2*
X-170516D1*
X-157783D2*
X-152803D1*
X-143847D2*
X-138826D1*
X-112681D2*
X-107372D1*
X-90659D2*
X-85409D1*
X-76223D2*
X-70974D1*
X-55115D2*
X-49873D1*
X-235372Y-226008D2*
X-230426D1*
X-204601D2*
X-200148D1*
X-174641D2*
X-170635D1*
X-157664D2*
X-152560D1*
X-143509D2*
X-138563D1*
X-112650D2*
X-107471D1*
X-90659D2*
X-85409D1*
X-54528D2*
X-49488D1*
X-234992Y-227320D2*
X-229960D1*
X-204235D2*
X-199582D1*
X-174646D2*
X-170683D1*
X-157616D2*
X-152434D1*
X-143129D2*
X-138096D1*
X-112391D2*
X-107142D1*
X-90659D2*
X-85409D1*
X-54193D2*
X-49124D1*
X-234514Y-228633D2*
X-229382D1*
X-203632D2*
X-198107D1*
X-174647D2*
X-170702D1*
X-157598D2*
X-152376D1*
X-142650D2*
X-137519D1*
X-112028D2*
X-106263D1*
X-90659D2*
X-85409D1*
X-54030D2*
X-48884D1*
X-233912Y-229945D2*
X-228711D1*
X-202672D2*
X-196344D1*
X-174648D2*
X-170708D1*
X-157591D2*
X-152353D1*
X-142048D2*
X-136848D1*
X-111590D2*
X-102806D1*
X-90659D2*
X-85409D1*
X-53958D2*
X-48758D1*
X-233174Y-231257D2*
X-227901D1*
X-201256D2*
X-194619D1*
X-174648D2*
X-170710D1*
X-157589D2*
X-152344D1*
X-141311D2*
X-136038D1*
X-110934D2*
X-96876D1*
X-90659D2*
X-85409D1*
X-53930D2*
X-48702D1*
X-232342Y-232570D2*
X-226934D1*
X-199583D2*
X-193764D1*
X-174648D2*
X-170711D1*
X-157588D2*
X-152340D1*
X-140479D2*
X-135071D1*
X-109969D2*
X-85409D1*
X-53919D2*
X-48678D1*
X-231499Y-233882D2*
X-225939D1*
X-201136D2*
X-193492D1*
X-174648D2*
X-170711D1*
X-157588D2*
X-152339D1*
X-139636D2*
X-134076D1*
X-108738D2*
X-85409D1*
X-53915D2*
X-48669D1*
X-230597Y-235194D2*
X-225007D1*
X-202467D2*
X-195297D1*
X-174648D2*
X-170711D1*
X-157588D2*
X-152339D1*
X-138734D2*
X-133144D1*
X-107459D2*
X-85409D1*
X-53914D2*
X-48666D1*
X-229587Y-236507D2*
X-224058D1*
X-203516D2*
X-197220D1*
X-174648D2*
X-170711D1*
X-157588D2*
X-152339D1*
X-137724D2*
X-132195D1*
X-106336D2*
X-85409D1*
X-53914D2*
X-48670D1*
X-228574Y-237819D2*
X-222990D1*
X-204362D2*
X-198810D1*
X-174648D2*
X-170711D1*
X-157588D2*
X-152339D1*
X-136711D2*
X-131127D1*
X-106065D2*
X-99637D1*
X-90659D2*
X-85409D1*
X-53919D2*
X-48715D1*
X-227636Y-239131D2*
X-221849D1*
X-205055D2*
X-200048D1*
X-174648D2*
X-170711D1*
X-157588D2*
X-152344D1*
X-135772D2*
X-129986D1*
X-106427D2*
X-100578D1*
X-90659D2*
X-85409D1*
X-53965D2*
X-48883D1*
X-226689Y-240444D2*
X-220761D1*
X-205574D2*
X-200487D1*
X-174648D2*
X-170711D1*
X-157588D2*
X-152390D1*
X-134826D2*
X-128898D1*
X-107031D2*
X-101378D1*
X-90659D2*
X-85409D1*
X-54137D2*
X-49197D1*
X-225661Y-241756D2*
X-219787D1*
X-205876D2*
X-200717D1*
X-174648D2*
X-170706D1*
X-157593D2*
X-152557D1*
X-133798D2*
X-127923D1*
X-107800D2*
X-102100D1*
X-90659D2*
X-85409D1*
X-54503D2*
X-49538D1*
X-224641Y-243068D2*
X-218825D1*
X-205983D2*
X-200766D1*
X-174648D2*
X-170650D1*
X-157649D2*
X-152871D1*
X-132778D2*
X-126961D1*
X-108573D2*
X-102782D1*
X-90659D2*
X-85409D1*
X-76223D2*
X-70974D1*
X-55063D2*
X-49813D1*
X-223700Y-244381D2*
X-217791D1*
X-205878D2*
X-200681D1*
X-187772D2*
X-182522D1*
X-174643D2*
X-170511D1*
X-157788D2*
X-153213D1*
X-131837D2*
X-125927D1*
X-109299D2*
X-103449D1*
X-90659D2*
X-85409D1*
X-75970D2*
X-70197D1*
X-55891D2*
X-50108D1*
X-222748Y-245693D2*
X-216774D1*
X-205544D2*
X-199965D1*
X-188635D2*
X-183026D1*
X-174592D2*
X-169786D1*
X-158513D2*
X-153493D1*
X-130884D2*
X-124910D1*
X-109992D2*
X-104108D1*
X-90659D2*
X-85409D1*
X-75472D2*
X-69163D1*
X-56988D2*
X-50529D1*
X-221674Y-247005D2*
X-215883D1*
X-205041D2*
X-197722D1*
X-190917D2*
X-183636D1*
X-174373D2*
X-167540D1*
X-160759D2*
X-153833D1*
X-129811D2*
X-124019D1*
X-110662D2*
X-104766D1*
X-90659D2*
X-85409D1*
X-74761D2*
X-66702D1*
X-59475D2*
X-51107D1*
X-220494Y-248318D2*
X-215149D1*
X-204399D2*
X-194389D1*
X-194268D2*
X-184423D1*
X-173835D2*
X-164206D1*
X-164093D2*
X-154427D1*
X-128630D2*
X-123285D1*
X-111325D2*
X-105422D1*
X-90659D2*
X-85409D1*
X-73925D2*
X-63241D1*
X-62949D2*
X-51888D1*
X-236328Y-249630D2*
X-214607D1*
X-203505D2*
X-185471D1*
X-172916D2*
X-155369D1*
X-144465D2*
X-122743D1*
X-111987D2*
X-106075D1*
X-90659D2*
X-85409D1*
X-72823D2*
X-52982D1*
X-236328Y-250942D2*
X-214288D1*
X-202164D2*
X-186830D1*
X-171616D2*
X-156679D1*
X-144465D2*
X-122424D1*
X-112679D2*
X-106696D1*
X-90659D2*
X-85409D1*
X-71249D2*
X-54542D1*
X-236328Y-252255D2*
X-214122D1*
X-200333D2*
X-188519D1*
X-169950D2*
X-158347D1*
X-144465D2*
X-122259D1*
X-113445D2*
X-107243D1*
X-90659D2*
X-85409D1*
X-69240D2*
X-56680D1*
X-236328Y-253567D2*
X-214018D1*
X-198270D2*
X-190396D1*
X-168087D2*
X-160213D1*
X-144465D2*
X-122155D1*
X-114281D2*
X-107719D1*
X-90659D2*
X-85409D1*
X-67037D2*
X-59163D1*
X-245383Y-140050D2*
X-241446D1*
X-198139D2*
X-194202D1*
X-119399D2*
X-115462D1*
X-76092D2*
X-69530D1*
X-245383Y-141362D2*
X-241446D1*
X-198139D2*
X-194202D1*
X-119399D2*
X-115462D1*
X-76092D2*
X-68426D1*
X-245383Y-142675D2*
X-241446D1*
X-198139D2*
X-194202D1*
X-150895D2*
X-145646D1*
X-119399D2*
X-115462D1*
X-76092D2*
X-67490D1*
X-245383Y-143987D2*
X-241446D1*
X-198139D2*
X-194202D1*
X-150895D2*
X-145646D1*
X-119399D2*
X-115462D1*
X-76092D2*
X-66736D1*
X-245383Y-145299D2*
X-241446D1*
X-198139D2*
X-194202D1*
X-150895D2*
X-145646D1*
X-119399D2*
X-115462D1*
X-70843D2*
X-66186D1*
X-245383Y-146612D2*
X-241446D1*
X-198139D2*
X-194202D1*
X-150895D2*
X-145635D1*
X-119399D2*
X-115462D1*
X-70843D2*
X-65855D1*
X-245383Y-147924D2*
X-241446D1*
X-198139D2*
X-194202D1*
X-150895D2*
X-145543D1*
X-119399D2*
X-115462D1*
X-70843D2*
X-65604D1*
X-245383Y-149236D2*
X-241446D1*
X-198139D2*
X-194202D1*
X-150895D2*
X-145328D1*
X-119399D2*
X-115462D1*
X-70843D2*
X-65200D1*
X-245388Y-150549D2*
X-241446D1*
X-198139D2*
X-194202D1*
X-150895D2*
X-144610D1*
X-119399D2*
X-115462D1*
X-70843D2*
X-64544D1*
X-379241Y-151861D2*
X-373992D1*
X-362181D2*
X-355619D1*
X-350370D2*
X-346433D1*
X-329373D2*
X-321499D1*
X-301814D2*
X-292627D1*
X-257194D2*
X-250633D1*
X-245438D2*
X-241446D1*
X-224386D2*
X-216512D1*
X-198139D2*
X-194202D1*
X-177142D2*
X-169268D1*
X-154832D2*
X-143925D1*
X-137772D2*
X-132522D1*
X-119399D2*
X-115462D1*
X-98402D2*
X-90528D1*
X-76092D2*
X-63871D1*
X-48533D2*
X-40659D1*
X-13100D2*
X-7850D1*
X5273D2*
X7898D1*
X21021D2*
X26270D1*
X31520D2*
X36769D1*
X49892D2*
X52517D1*
X65640D2*
X70890D1*
X76139D2*
X81388D1*
X94512D2*
X97136D1*
X110260D2*
X115509D1*
X-381104Y-153173D2*
X-372020D1*
X-363896D2*
X-354066D1*
X-350611D2*
X-346433D1*
X-331286D2*
X-319340D1*
X-303737D2*
X-290468D1*
X-258904D2*
X-249079D1*
X-245641D2*
X-241446D1*
X-226702D2*
X-214370D1*
X-198139D2*
X-194202D1*
X-179458D2*
X-167126D1*
X-154832D2*
X-143409D1*
X-136459D2*
X-131210D1*
X-119399D2*
X-115462D1*
X-100112D2*
X-88615D1*
X-76092D2*
X-63358D1*
X-50243D2*
X-38746D1*
X-12646D2*
X-7800D1*
X4617D2*
X8553D1*
X20971D2*
X25822D1*
X31973D2*
X36819D1*
X49237D2*
X53173D1*
X65590D2*
X70441D1*
X76593D2*
X81438D1*
X93856D2*
X97792D1*
X110210D2*
X115061D1*
X-382579Y-154486D2*
X-370126D1*
X-365250D2*
X-352293D1*
X-351072D2*
X-346433D1*
X-332924D2*
X-317632D1*
X-305455D2*
X-288760D1*
X-260217D2*
X-247306D1*
X-246090D2*
X-241446D1*
X-228396D2*
X-212666D1*
X-198139D2*
X-194202D1*
X-181152D2*
X-165422D1*
X-154832D2*
X-143471D1*
X-135152D2*
X-129903D1*
X-119399D2*
X-115462D1*
X-101430D2*
X-86971D1*
X-76092D2*
X-63419D1*
X-51561D2*
X-37103D1*
X-12209D2*
X-7632D1*
X4072D2*
X9099D1*
X20803D2*
X25426D1*
X32410D2*
X36987D1*
X48692D2*
X53718D1*
X65422D2*
X70045D1*
X77030D2*
X81607D1*
X93311D2*
X98337D1*
X110042D2*
X114665D1*
X-383596Y-155798D2*
X-368164D1*
X-366369D2*
X-346433D1*
X-334213D2*
X-316392D1*
X-307063D2*
X-287520D1*
X-261167D2*
X-241446D1*
X-229578D2*
X-211262D1*
X-198139D2*
X-194202D1*
X-182334D2*
X-164018D1*
X-154832D2*
X-144117D1*
X-133886D2*
X-128637D1*
X-119399D2*
X-115462D1*
X-102420D2*
X-85641D1*
X-76092D2*
X-64065D1*
X-52552D2*
X-35772D1*
X-11793D2*
X-7318D1*
X3562D2*
X9609D1*
X20488D2*
X25131D1*
X32826D2*
X37302D1*
X48181D2*
X54228D1*
X65108D2*
X69751D1*
X77446D2*
X81921D1*
X92801D2*
X98848D1*
X109727D2*
X114370D1*
X-384290Y-157110D2*
X-376304D1*
X-371423D2*
X-359243D1*
X-354773D2*
X-346433D1*
X-335124D2*
X-327595D1*
X-323124D2*
X-315462D1*
X-305751D2*
X-300501D1*
X-294253D2*
X-286590D1*
X-261847D2*
X-255827D1*
X-248216D2*
X-241446D1*
X-230464D2*
X-225441D1*
X-216512D2*
X-213887D1*
X-198139D2*
X-194202D1*
X-183220D2*
X-178196D1*
X-169268D2*
X-166643D1*
X-150895D2*
X-144776D1*
X-132741D2*
X-127491D1*
X-119399D2*
X-115462D1*
X-103222D2*
X-98194D1*
X-90578D2*
X-84609D1*
X-70843D2*
X-64724D1*
X-53353D2*
X-48325D1*
X-40709D2*
X-34741D1*
X-11350D2*
X-6976D1*
X3094D2*
X10076D1*
X20147D2*
X24835D1*
X33269D2*
X37643D1*
X47714D2*
X54696D1*
X64766D2*
X69455D1*
X77888D2*
X82263D1*
X92333D2*
X99315D1*
X109385D2*
X114074D1*
X-384853Y-158423D2*
X-378164D1*
X-370330D2*
X-361104D1*
X-353070D2*
X-346433D1*
X-335768D2*
X-329298D1*
X-321264D2*
X-314734D1*
X-292392D2*
X-285863D1*
X-262370D2*
X-256920D1*
X-247280D2*
X-241446D1*
X-231168D2*
X-226213D1*
X-198139D2*
X-194202D1*
X-183924D2*
X-178969D1*
X-150895D2*
X-145225D1*
X-131743D2*
X-126493D1*
X-119399D2*
X-115462D1*
X-103892D2*
X-99130D1*
X-89434D2*
X-83818D1*
X-70843D2*
X-65172D1*
X-54023D2*
X-49262D1*
X-39566D2*
X-33949D1*
X-10951D2*
X-6701D1*
X2664D2*
X10512D1*
X19872D2*
X24458D1*
X33669D2*
X37918D1*
X47283D2*
X55131D1*
X64491D2*
X69077D1*
X78288D2*
X82538D1*
X91903D2*
X99751D1*
X109110D2*
X113697D1*
X-385295Y-159735D2*
X-379595D1*
X-369550D2*
X-362534D1*
X-351876D2*
X-346433D1*
X-336310D2*
X-330491D1*
X-319833D2*
X-314203D1*
X-290962D2*
X-285331D1*
X-262856D2*
X-257699D1*
X-246526D2*
X-241446D1*
X-231689D2*
X-226682D1*
X-198139D2*
X-194202D1*
X-184445D2*
X-179438D1*
X-150895D2*
X-145463D1*
X-130770D2*
X-125512D1*
X-119404D2*
X-115462D1*
X-104399D2*
X-99897D1*
X-88448D2*
X-83254D1*
X-70843D2*
X-65411D1*
X-54531D2*
X-50028D1*
X-38579D2*
X-33385D1*
X-10652D2*
X-6412D1*
X2210D2*
X11007D1*
X19583D2*
X24052D1*
X33967D2*
X38207D1*
X46829D2*
X55626D1*
X64202D2*
X68671D1*
X78587D2*
X82827D1*
X91449D2*
X100246D1*
X108821D2*
X113290D1*
X-385565Y-161047D2*
X-380092D1*
X-369107D2*
X-363032D1*
X-350982D2*
X-346433D1*
X-336743D2*
X-331386D1*
X-319336D2*
X-313891D1*
X-290464D2*
X-285019D1*
X-263266D2*
X-258142D1*
X-245976D2*
X-241446D1*
X-231997D2*
X-227010D1*
X-198139D2*
X-194202D1*
X-184752D2*
X-179766D1*
X-150895D2*
X-145573D1*
X-129707D2*
X-124379D1*
X-119454D2*
X-115462D1*
X-104702D2*
X-100511D1*
X-87526D2*
X-82928D1*
X-70843D2*
X-65521D1*
X-54834D2*
X-50642D1*
X-37657D2*
X-33059D1*
X-10354D2*
X-6042D1*
X1767D2*
X11571D1*
X19213D2*
X23646D1*
X34265D2*
X38577D1*
X46386D2*
X56190D1*
X63832D2*
X68266D1*
X78885D2*
X83197D1*
X91006D2*
X100810D1*
X108451D2*
X112885D1*
X-385702Y-162360D2*
X-380359D1*
X-368893D2*
X-363298D1*
X-350667D2*
X-346433D1*
X-337011D2*
X-331700D1*
X-319069D2*
X-313736D1*
X-290198D2*
X-284865D1*
X-263525D2*
X-258356D1*
X-245655D2*
X-241446D1*
X-232149D2*
X-220566D1*
X-198139D2*
X-194202D1*
X-184905D2*
X-173321D1*
X-150895D2*
X-145618D1*
X-128585D2*
X-122986D1*
X-119657D2*
X-115462D1*
X-104854D2*
X-101026D1*
X-86591D2*
X-82768D1*
X-70843D2*
X-65566D1*
X-54985D2*
X-51157D1*
X-36722D2*
X-32899D1*
X-9976D2*
X-5677D1*
X1341D2*
X5070D1*
X8100D2*
X12144D1*
X18848D2*
X23202D1*
X34644D2*
X38942D1*
X45960D2*
X49690D1*
X52720D2*
X56763D1*
X63467D2*
X67821D1*
X79263D2*
X83561D1*
X90580D2*
X94309D1*
X97339D2*
X101383D1*
X108087D2*
X112441D1*
X-385764Y-163672D2*
X-380478D1*
X-368801D2*
X-363418D1*
X-350497D2*
X-346433D1*
X-337147D2*
X-331871D1*
X-318950D2*
X-313668D1*
X-290079D2*
X-284797D1*
X-263657D2*
X-258449D1*
X-245497D2*
X-241446D1*
X-232217D2*
X-215885D1*
X-198139D2*
X-194202D1*
X-184973D2*
X-168641D1*
X-150895D2*
X-145636D1*
X-129444D2*
X-121283D1*
X-120106D2*
X-115462D1*
X-104920D2*
X-82698D1*
X-70843D2*
X-65583D1*
X-55052D2*
X-32829D1*
X-9569D2*
X-5394D1*
X850D2*
X4740D1*
X8431D2*
X12658D1*
X18564D2*
X22762D1*
X35051D2*
X39226D1*
X45469D2*
X49359D1*
X53050D2*
X57277D1*
X63184D2*
X67382D1*
X79670D2*
X83845D1*
X90088D2*
X93979D1*
X97670D2*
X101896D1*
X107803D2*
X112001D1*
X-385788Y-164984D2*
X-380526D1*
X-368764D2*
X-363466D1*
X-350420D2*
X-346433D1*
X-337202D2*
X-331948D1*
X-318902D2*
X-313641D1*
X-290030D2*
X-284769D1*
X-263717D2*
X-258485D1*
X-245427D2*
X-241446D1*
X-232244D2*
X-212472D1*
X-198139D2*
X-194202D1*
X-185000D2*
X-165228D1*
X-150895D2*
X-145642D1*
X-130319D2*
X-115462D1*
X-104947D2*
X-82670D1*
X-70843D2*
X-65590D1*
X-55079D2*
X-32801D1*
X-9163D2*
X-5101D1*
X287D2*
X4354D1*
X8817D2*
X13113D1*
X18272D2*
X22343D1*
X35456D2*
X39518D1*
X44906D2*
X48973D1*
X53436D2*
X57732D1*
X62891D2*
X66962D1*
X80075D2*
X84137D1*
X89526D2*
X93593D1*
X98056D2*
X102352D1*
X107511D2*
X111582D1*
X-385798Y-166297D2*
X-380544D1*
X-368750D2*
X-363484D1*
X-350388D2*
X-346433D1*
X-337181D2*
X-331974D1*
X-318884D2*
X-313630D1*
X-290012D2*
X-284759D1*
X-263736D2*
X-258499D1*
X-245405D2*
X-241446D1*
X-232254D2*
X-211005D1*
X-198139D2*
X-194202D1*
X-185010D2*
X-163761D1*
X-150895D2*
X-145645D1*
X-131211D2*
X-115462D1*
X-104958D2*
X-82659D1*
X-70843D2*
X-65592D1*
X-55089D2*
X-32791D1*
X-8719D2*
X-4725D1*
X-286D2*
X3957D1*
X9219D2*
X13578D1*
X17896D2*
X21893D1*
X35900D2*
X39894D1*
X44334D2*
X48576D1*
X53838D2*
X58198D1*
X62515D2*
X66512D1*
X80520D2*
X84514D1*
X88953D2*
X93196D1*
X98458D2*
X102817D1*
X107135D2*
X111132D1*
X-385801Y-167609D2*
X-380550D1*
X-368745D2*
X-363490D1*
X-350377D2*
X-346433D1*
X-337023D2*
X-331940D1*
X-318882D2*
X-313632D1*
X-290011D2*
X-284760D1*
X-263700D2*
X-258499D1*
X-245440D2*
X-241446D1*
X-232258D2*
X-227010D1*
X-215457D2*
X-210450D1*
X-198139D2*
X-194202D1*
X-185014D2*
X-179766D1*
X-168213D2*
X-163206D1*
X-150895D2*
X-145645D1*
X-132034D2*
X-127526D1*
X-123341D2*
X-115462D1*
X-104963D2*
X-82661D1*
X-70843D2*
X-65593D1*
X-55094D2*
X-32792D1*
X-8280D2*
X-4315D1*
X-803D2*
X3515D1*
X9701D2*
X14030D1*
X17486D2*
X21451D1*
X36340D2*
X40304D1*
X43816D2*
X48135D1*
X54321D2*
X58649D1*
X62105D2*
X66071D1*
X80959D2*
X84924D1*
X88436D2*
X92754D1*
X98940D2*
X103268D1*
X106725D2*
X110690D1*
X-385803Y-168921D2*
X-380553D1*
X-368744D2*
X-363492D1*
X-350372D2*
X-346433D1*
X-336712D2*
X-331766D1*
X-318937D2*
X-313677D1*
X-290065D2*
X-284805D1*
X-263536D2*
X-258449D1*
X-245609D2*
X-241446D1*
X-232259D2*
X-227010D1*
X-214695D2*
X-210158D1*
X-198144D2*
X-194202D1*
X-185015D2*
X-179766D1*
X-167451D2*
X-162914D1*
X-150895D2*
X-145646D1*
X-132785D2*
X-128024D1*
X-122080D2*
X-115462D1*
X-86393D2*
X-82705D1*
X-70843D2*
X-65593D1*
X-36524D2*
X-32837D1*
X-7860D2*
X-3874D1*
X-1295D2*
X3077D1*
X10261D2*
X14489D1*
X17044D2*
X21031D1*
X36759D2*
X40746D1*
X43324D2*
X47696D1*
X54880D2*
X59108D1*
X61664D2*
X65650D1*
X81379D2*
X85365D1*
X87944D2*
X92316D1*
X99500D2*
X103727D1*
X106283D2*
X110270D1*
X-385803Y-170234D2*
X-380553D1*
X-368743D2*
X-363493D1*
X-350371D2*
X-346433D1*
X-336372D2*
X-331336D1*
X-319074D2*
X-313849D1*
X-290203D2*
X-284977D1*
X-263217D2*
X-258327D1*
X-245999D2*
X-241446D1*
X-232260D2*
X-227010D1*
X-214271D2*
X-210030D1*
X-198206D2*
X-194202D1*
X-185016D2*
X-179766D1*
X-167027D2*
X-162786D1*
X-150895D2*
X-145651D1*
X-133525D2*
X-128725D1*
X-120986D2*
X-115462D1*
X-87452D2*
X-82877D1*
X-70843D2*
X-65593D1*
X-37583D2*
X-33009D1*
X-7410D2*
X-3293D1*
X-1897D2*
X2653D1*
X10832D2*
X15076D1*
X16464D2*
X20581D1*
X37210D2*
X41326D1*
X42722D2*
X47272D1*
X55452D2*
X59695D1*
X61083D2*
X65200D1*
X81829D2*
X85946D1*
X87342D2*
X91891D1*
X100071D2*
X104315D1*
X105703D2*
X109819D1*
X-385803Y-171546D2*
X-380554D1*
X-368743D2*
X-363493D1*
X-350370D2*
X-346433D1*
X-336092D2*
X-330674D1*
X-319799D2*
X-314209D1*
X-290928D2*
X-285343D1*
X-262835D2*
X-257720D1*
X-246568D2*
X-241446D1*
X-232260D2*
X-227010D1*
X-214026D2*
X-209984D1*
X-198360D2*
X-194202D1*
X-185016D2*
X-179766D1*
X-166781D2*
X-162740D1*
X-150895D2*
X-145697D1*
X-134324D2*
X-129464D1*
X-120207D2*
X-115462D1*
X-88574D2*
X-83243D1*
X-70843D2*
X-65593D1*
X-38705D2*
X-33374D1*
X-6968D2*
X2162D1*
X11345D2*
X20139D1*
X37651D2*
X46781D1*
X55965D2*
X64758D1*
X82270D2*
X91400D1*
X100584D2*
X109378D1*
X-385803Y-172858D2*
X-380554D1*
X-368743D2*
X-363493D1*
X-350370D2*
X-346433D1*
X-335752D2*
X-328584D1*
X-322046D2*
X-314723D1*
X-304438D2*
X-301814D1*
X-293174D2*
X-285897D1*
X-262434D2*
X-255615D1*
X-248077D2*
X-241446D1*
X-232260D2*
X-227010D1*
X-215923D2*
X-210017D1*
X-199289D2*
X-194207D1*
X-185016D2*
X-179766D1*
X-168679D2*
X-162773D1*
X-150895D2*
X-145869D1*
X-135181D2*
X-130180D1*
X-119764D2*
X-115462D1*
X-91196D2*
X-83798D1*
X-70843D2*
X-65593D1*
X-51157D2*
D3*
X-41327D2*
X-33929D1*
X-6548D2*
X1599D1*
X11800D2*
X19719D1*
X38071D2*
X46218D1*
X56420D2*
X64338D1*
X82691D2*
X90838D1*
X101039D2*
X108958D1*
X-385803Y-174171D2*
X-380554D1*
X-368743D2*
X-363493D1*
X-350370D2*
X-346433D1*
X-335158D2*
X-325382D1*
X-325379D2*
X-315368D1*
X-305751D2*
X-297344D1*
X-296508D2*
X-286664D1*
X-276879D2*
X-271630D1*
X-261942D2*
X-252229D1*
X-251661D2*
X-241446D1*
X-232260D2*
X-227010D1*
X-220970D2*
X-210234D1*
X-200597D2*
X-194258D1*
X-185016D2*
X-179766D1*
X-173726D2*
X-162989D1*
X-150895D2*
X-146235D1*
X-136028D2*
X-130907D1*
X-119549D2*
X-115462D1*
X-103651D2*
X-98402D1*
X-95064D2*
X-84565D1*
X-70843D2*
X-65593D1*
X-53167D2*
X-48533D1*
X-45195D2*
X-34696D1*
X-24911D2*
X-19661D1*
X-6098D2*
X1027D1*
X12266D2*
X19273D1*
X38522D2*
X45646D1*
X56885D2*
X63893D1*
X83141D2*
X90265D1*
X101505D2*
X108512D1*
X-385803Y-175483D2*
X-380554D1*
X-368743D2*
X-363493D1*
X-350370D2*
X-346433D1*
X-334216D2*
X-316263D1*
X-307063D2*
X-287705D1*
X-276879D2*
X-271630D1*
X-261281D2*
X-241446D1*
X-232260D2*
X-210655D1*
X-201843D2*
X-194477D1*
X-185016D2*
X-163411D1*
X-154832D2*
X-146790D1*
X-136889D2*
X-131698D1*
X-119457D2*
X-115462D1*
X-104963D2*
X-85606D1*
X-70843D2*
X-65593D1*
X-55094D2*
X-35737D1*
X-24911D2*
X-19661D1*
X-5652D2*
X509D1*
X12717D2*
X18878D1*
X38967D2*
X45128D1*
X57337D2*
X63497D1*
X83587D2*
X89748D1*
X101956D2*
X108117D1*
X-385803Y-176795D2*
X-380554D1*
X-368743D2*
X-363493D1*
X-350370D2*
X-346433D1*
X-332907D2*
X-317605D1*
X-305268D2*
X-289062D1*
X-276879D2*
X-271630D1*
X-260297D2*
X-241446D1*
X-232260D2*
X-211844D1*
X-202802D2*
X-195005D1*
X-185016D2*
X-164600D1*
X-154832D2*
X-147548D1*
X-137742D2*
X-132517D1*
X-119420D2*
X-115462D1*
X-102949D2*
X-86962D1*
X-70843D2*
X-65593D1*
X-53080D2*
X-37093D1*
X-24911D2*
X-19661D1*
X-5195D2*
X17D1*
X13176D2*
X18624D1*
X39424D2*
X44637D1*
X57796D2*
X63243D1*
X84044D2*
X89256D1*
X102415D2*
X107863D1*
X-385803Y-178108D2*
X-380554D1*
X-368743D2*
X-363493D1*
X-350370D2*
X-346433D1*
X-331238D2*
X-319436D1*
X-303035D2*
X-290751D1*
X-276879D2*
X-271630D1*
X-258872D2*
X-248008D1*
X-245383D2*
X-241446D1*
X-232260D2*
X-213410D1*
X-203137D2*
X-195844D1*
X-185016D2*
X-166166D1*
X-154832D2*
X-148515D1*
X-138467D2*
X-133226D1*
X-119406D2*
X-115462D1*
X-100730D2*
X-88651D1*
X-70843D2*
X-65593D1*
X-50861D2*
X-38782D1*
X-24911D2*
X-19661D1*
X-4609D2*
X-585D1*
X13764D2*
X18486D1*
X40011D2*
X44035D1*
X58383D2*
X63105D1*
X84630D2*
X88654D1*
X103003D2*
X107725D1*
X-385803Y-179420D2*
X-380554D1*
X-368743D2*
X-363493D1*
X-350370D2*
X-346433D1*
X-329373D2*
X-321499D1*
X-300501D2*
X-292627D1*
X-276879D2*
X-271630D1*
X-257194D2*
X-250633D1*
X-245383D2*
X-241446D1*
X-232260D2*
X-227010D1*
X-223073D2*
X-215199D1*
X-203388D2*
X-196827D1*
X-185016D2*
X-179766D1*
X-175829D2*
X-167955D1*
X-154832D2*
X-149583D1*
X-139084D2*
X-133835D1*
X-119399D2*
X-115462D1*
X-98402D2*
X-90528D1*
X-70843D2*
X-65593D1*
X-48533D2*
X-40659D1*
X-24911D2*
X-19661D1*
X-3913D2*
X-1289D1*
X14459D2*
X18396D1*
X40706D2*
X43331D1*
X59079D2*
X63016D1*
X85325D2*
X87950D1*
X103698D2*
X107635D1*
X-79364Y556764D2*
D13*
X-74442D1*
X-60663D2*
X-55741D1*
X-41962D2*
X-37041D1*
X-23261D2*
X-18340D1*
X361D2*
X15125D1*
X23983D2*
X28904D1*
X61385D2*
X63353D1*
X94849D2*
X99770D1*
X123392D2*
X125361D1*
X136188D2*
X139140D1*
X154888D2*
X156857D1*
X179495D2*
X182448D1*
X188353D2*
X191306D1*
X204101D2*
X207054D1*
X212959D2*
X215912D1*
X229692D2*
X231660D1*
X263156D2*
X270046D1*
X282841D2*
X285794D1*
X298589D2*
X301542D1*
X314337D2*
X317290D1*
X330085D2*
X333038D1*
X345833D2*
X348786D1*
X-80462Y555780D2*
X-73160D1*
X-62060D2*
X-54307D1*
X-43060D2*
X-35758D1*
X-24658D2*
X-16905D1*
X513D2*
X15125D1*
X22885D2*
X30187D1*
X61385D2*
X63353D1*
X93452D2*
X101205D1*
X123392D2*
X125507D1*
X136562D2*
X139293D1*
X154397D2*
X156701D1*
X179495D2*
X182448D1*
X188353D2*
X191306D1*
X203457D2*
X207054D1*
X212959D2*
X215912D1*
X229692D2*
X231660D1*
X261419D2*
X271817D1*
X282841D2*
X285794D1*
X297945D2*
X301542D1*
X314181D2*
X317896D1*
X330085D2*
X333038D1*
X345189D2*
X348786D1*
X-81397Y554795D2*
X-72171D1*
X-63166D2*
X-53078D1*
X-43996D2*
X-34770D1*
X-25765D2*
X-15677D1*
X761D2*
X15125D1*
X21949D2*
X31175D1*
X61385D2*
X63353D1*
X92346D2*
X102434D1*
X123392D2*
X126023D1*
X136981D2*
X139540D1*
X153988D2*
X156422D1*
X179495D2*
X182448D1*
X188353D2*
X191306D1*
X202800D2*
X207054D1*
X212959D2*
X215912D1*
X229692D2*
X231660D1*
X259985D2*
X273342D1*
X282841D2*
X285794D1*
X297289D2*
X301542D1*
X313903D2*
X318427D1*
X330085D2*
X333038D1*
X344533D2*
X348786D1*
X-82178Y553811D2*
X-79322D1*
X-74484D2*
X-71428D1*
X-63928D2*
X-60621D1*
X-56087D2*
X-52115D1*
X-44776D2*
X-41921D1*
X-37082D2*
X-34027D1*
X-26527D2*
X-23220D1*
X-18686D2*
X-14713D1*
X1050D2*
X3470D1*
X21168D2*
X24024D1*
X28863D2*
X31918D1*
X61385D2*
X63353D1*
X91584D2*
X94890D1*
X99424D2*
X103397D1*
X123392D2*
X127258D1*
X137407D2*
X139830D1*
X153605D2*
X156042D1*
X179495D2*
X182448D1*
X188353D2*
X191306D1*
X202128D2*
X207054D1*
X212959D2*
X215912D1*
X229692D2*
X231660D1*
X258911D2*
X263353D1*
X269852D2*
X274527D1*
X282841D2*
X285794D1*
X296616D2*
X301542D1*
X313522D2*
X318860D1*
X330085D2*
X333038D1*
X343860D2*
X348786D1*
X-82764Y552827D2*
X-80142D1*
X-73660D2*
X-70827D1*
X-64446D2*
X-61441D1*
X-54776D2*
X-51358D1*
X-45363D2*
X-42740D1*
X-36259D2*
X-33425D1*
X-27044D2*
X-24039D1*
X-17375D2*
X-13956D1*
X1352D2*
X3748D1*
X20582D2*
X23205D1*
X29686D2*
X32519D1*
X61385D2*
X63353D1*
X91066D2*
X94071D1*
X100735D2*
X104154D1*
X123392D2*
X128677D1*
X137790D2*
X140131D1*
X153255D2*
X155630D1*
X179495D2*
X182448D1*
X188353D2*
X191306D1*
X201480D2*
X207054D1*
X212959D2*
X215912D1*
X229692D2*
X231660D1*
X258057D2*
X261828D1*
X271409D2*
X275401D1*
X282841D2*
X285794D1*
X295968D2*
X301542D1*
X313110D2*
X315169D1*
X317442D2*
X319225D1*
X330085D2*
X333038D1*
X343212D2*
X348786D1*
X-83204Y551843D2*
X-80726D1*
X-73041D2*
X-70325D1*
X-64833D2*
X-62026D1*
X-53735D2*
X-51055D1*
X-45803D2*
X-43325D1*
X-35639D2*
X-32923D1*
X-27431D2*
X-24624D1*
X-16334D2*
X-13654D1*
X1714D2*
X4128D1*
X20142D2*
X22620D1*
X30305D2*
X33022D1*
X61385D2*
X63353D1*
X90679D2*
X93486D1*
X101776D2*
X104456D1*
X123392D2*
X129886D1*
X138131D2*
X140493D1*
X152928D2*
X155252D1*
X179495D2*
X182448D1*
X188353D2*
X191306D1*
X200826D2*
X207054D1*
X212959D2*
X215912D1*
X229692D2*
X231660D1*
X257336D2*
X260644D1*
X272684D2*
X276073D1*
X282841D2*
X285794D1*
X295314D2*
X301542D1*
X312732D2*
X314922D1*
X317690D2*
X319612D1*
X330085D2*
X333038D1*
X342558D2*
X348786D1*
X-83593Y550858D2*
X-81059D1*
X-72583D2*
X-69944D1*
X-65129D2*
X-62354D1*
X-52789D2*
X-50820D1*
X-46191D2*
X-43657D1*
X-35182D2*
X-32542D1*
X-27727D2*
X-24952D1*
X-15387D2*
X-13419D1*
X2133D2*
X4540D1*
X19754D2*
X22288D1*
X30763D2*
X33403D1*
X61385D2*
X63353D1*
X90383D2*
X93158D1*
X102723D2*
X104692D1*
X123392D2*
X130684D1*
X138480D2*
X140913D1*
X152557D2*
X154913D1*
X179495D2*
X182448D1*
X188353D2*
X191306D1*
X200161D2*
X203269D1*
X205085D2*
X207054D1*
X212959D2*
X215912D1*
X229692D2*
X231660D1*
X256780D2*
X259774D1*
X273664D2*
X276639D1*
X282841D2*
X285794D1*
X294649D2*
X297757D1*
X299573D2*
X301542D1*
X312389D2*
X314632D1*
X317979D2*
X320041D1*
X330085D2*
X333038D1*
X341893D2*
X345001D1*
X346818D2*
X348786D1*
X-83911Y549874D2*
X-81223D1*
X-72187D2*
X-69717D1*
X-65025D2*
X-62480D1*
X-46509D2*
X-43821D1*
X-34785D2*
X-32315D1*
X-27623D2*
X-25078D1*
X2562D2*
X4919D1*
X19436D2*
X22123D1*
X31159D2*
X33630D1*
X61385D2*
X63353D1*
X90487D2*
X93032D1*
X123392D2*
X125361D1*
X128314D2*
X131266D1*
X138815D2*
X141341D1*
X152134D2*
X154565D1*
X179495D2*
X182448D1*
X188353D2*
X191306D1*
X199545D2*
X202533D1*
X205085D2*
X207054D1*
X212959D2*
X215912D1*
X229692D2*
X231660D1*
X256354D2*
X259136D1*
X274428D2*
X277126D1*
X282841D2*
X285794D1*
X294033D2*
X297021D1*
X299573D2*
X301542D1*
X312010D2*
X314330D1*
X318277D2*
X320473D1*
X330085D2*
X333038D1*
X341277D2*
X344265D1*
X346818D2*
X348786D1*
X-84109Y548890D2*
X-81327D1*
X-71865D2*
X-69603D1*
X-64820D2*
X-62420D1*
X-46707D2*
X-43925D1*
X-34464D2*
X-32202D1*
X-27418D2*
X-25018D1*
X2947D2*
X5262D1*
X19238D2*
X22020D1*
X31481D2*
X33743D1*
X61385D2*
X63353D1*
X90692D2*
X93092D1*
X123392D2*
X125361D1*
X139136D2*
X141726D1*
X151704D2*
X154229D1*
X179495D2*
X182448D1*
X188353D2*
X191306D1*
X198982D2*
X201838D1*
X205085D2*
X207054D1*
X212959D2*
X215912D1*
X229692D2*
X231660D1*
X255971D2*
X258696D1*
X274709D2*
X277500D1*
X282841D2*
X285794D1*
X293471D2*
X296326D1*
X299573D2*
X301542D1*
X311584D2*
X313969D1*
X318608D2*
X320860D1*
X330085D2*
X333038D1*
X340715D2*
X343570D1*
X346818D2*
X348786D1*
X-84210Y547906D2*
X-81480D1*
X-71666D2*
X-69553D1*
X-64526D2*
X-62173D1*
X-46808D2*
X-44078D1*
X-34264D2*
X-32152D1*
X-27124D2*
X-24772D1*
X3288D2*
X5641D1*
X19136D2*
X21866D1*
X31680D2*
X33793D1*
X61385D2*
X63353D1*
X90986D2*
X93338D1*
X123392D2*
X125361D1*
X139505D2*
X142068D1*
X151319D2*
X153909D1*
X179495D2*
X182448D1*
X188353D2*
X191306D1*
X198428D2*
X201151D1*
X205085D2*
X207054D1*
X212959D2*
X215912D1*
X229692D2*
X231660D1*
X255655D2*
X258445D1*
X274897D2*
X277726D1*
X282841D2*
X285794D1*
X292916D2*
X295639D1*
X299573D2*
X301542D1*
X311153D2*
X313549D1*
X318937D2*
X321201D1*
X330085D2*
X333038D1*
X340160D2*
X342884D1*
X346818D2*
X348786D1*
X-84255Y546921D2*
X-81722D1*
X-71564D2*
X-69533D1*
X-64053D2*
X-61764D1*
X-46854D2*
X-44321D1*
X-34163D2*
X-32131D1*
X-26651D2*
X-24362D1*
X3637D2*
X6067D1*
X19091D2*
X21624D1*
X31782D2*
X33814D1*
X61385D2*
X63353D1*
X91459D2*
X93748D1*
X123392D2*
X125361D1*
X139927D2*
X142417D1*
X150977D2*
X153540D1*
X179495D2*
X182448D1*
X188353D2*
X191306D1*
X197829D2*
X200498D1*
X205085D2*
X207054D1*
X212959D2*
X215912D1*
X229692D2*
X231660D1*
X255458D2*
X258322D1*
X275117D2*
X277838D1*
X282841D2*
X285794D1*
X292317D2*
X294986D1*
X299573D2*
X301542D1*
X310768D2*
X313121D1*
X319251D2*
X321550D1*
X330085D2*
X333038D1*
X339561D2*
X342230D1*
X346818D2*
X348786D1*
X-84274Y545937D2*
X-81944D1*
X-71519D2*
X-69525D1*
X-63366D2*
X-61161D1*
X-46872D2*
X-44542D1*
X-34117D2*
X-32124D1*
X-25964D2*
X-23760D1*
X3973D2*
X6498D1*
X19073D2*
X21403D1*
X31827D2*
X33821D1*
X61385D2*
X63353D1*
X92146D2*
X94350D1*
X123392D2*
X125361D1*
X140357D2*
X142752D1*
X150628D2*
X153117D1*
X179495D2*
X182448D1*
X188353D2*
X191306D1*
X197186D2*
X199843D1*
X205085D2*
X207054D1*
X212959D2*
X215912D1*
X229692D2*
X231660D1*
X255357D2*
X258269D1*
X275482D2*
X277888D1*
X282841D2*
X285794D1*
X291674D2*
X294331D1*
X299573D2*
X301542D1*
X310422D2*
X312733D1*
X319585D2*
X321886D1*
X330085D2*
X333038D1*
X338918D2*
X341575D1*
X346818D2*
X348786D1*
X-84281Y544953D2*
X-81991D1*
X-71500D2*
X-69522D1*
X-62527D2*
X-60294D1*
X-46879D2*
X-44590D1*
X-34099D2*
X-32121D1*
X-25126D2*
X-22892D1*
X4293D2*
X6883D1*
X19066D2*
X21355D1*
X31846D2*
X33824D1*
X61385D2*
X63353D1*
X92984D2*
X95218D1*
X123392D2*
X125361D1*
X140742D2*
X143069D1*
X150292D2*
X152688D1*
X179495D2*
X182448D1*
X188353D2*
X191306D1*
X196550D2*
X199177D1*
X205085D2*
X207054D1*
X212959D2*
X215912D1*
X229688D2*
X231660D1*
X255315D2*
X258247D1*
X275951D2*
X277908D1*
X282841D2*
X285794D1*
X291039D2*
X293665D1*
X299573D2*
X301542D1*
X310042D2*
X312364D1*
X319884D2*
X322207D1*
X330085D2*
X333038D1*
X338283D2*
X340909D1*
X346818D2*
X348786D1*
X-84283Y543969D2*
X-81847D1*
X-71497D2*
X-69521D1*
X-61607D2*
X-59193D1*
X-46882D2*
X-44446D1*
X-34096D2*
X-32120D1*
X-24205D2*
X-21792D1*
X4662D2*
X7229D1*
X19063D2*
X21499D1*
X31849D2*
X33825D1*
X61385D2*
X63353D1*
X93905D2*
X96318D1*
X123392D2*
X125361D1*
X141087D2*
X143407D1*
X149976D2*
X152303D1*
X179495D2*
X182448D1*
X188353D2*
X191306D1*
X195902D2*
X198561D1*
X205085D2*
X207054D1*
X212959D2*
X215912D1*
X229653D2*
X231660D1*
X255332D2*
X258243D1*
X275497D2*
X277912D1*
X282841D2*
X285794D1*
X290390D2*
X293049D1*
X299573D2*
X301542D1*
X309616D2*
X311912D1*
X320090D2*
X322576D1*
X330085D2*
X333038D1*
X337634D2*
X340293D1*
X346818D2*
X348786D1*
X-84280Y542984D2*
X-81637D1*
X-71529D2*
X-69521D1*
X-60648D2*
X-58009D1*
X-46879D2*
X-44235D1*
X-34128D2*
X-32120D1*
X-23246D2*
X-20607D1*
X5085D2*
X7609D1*
X19066D2*
X21710D1*
X31817D2*
X33825D1*
X61385D2*
X63353D1*
X94864D2*
X97503D1*
X123392D2*
X125361D1*
X141467D2*
X143739D1*
X149637D2*
X151958D1*
X179495D2*
X182448D1*
X188353D2*
X191310D1*
X195231D2*
X197998D1*
X205085D2*
X207054D1*
X212963D2*
X215912D1*
X229528D2*
X231660D1*
X255450D2*
X258275D1*
X275211D2*
X277880D1*
X282841D2*
X285798D1*
X289719D2*
X292486D1*
X299573D2*
X301542D1*
X309185D2*
X311385D1*
X320243D2*
X322998D1*
X330085D2*
X333042D1*
X336963D2*
X339731D1*
X346818D2*
X348786D1*
X-84246Y542000D2*
X-81482D1*
X-71654D2*
X-69525D1*
X-59673D2*
X-56874D1*
X-46845D2*
X-44081D1*
X-34252D2*
X-32123D1*
X-22272D2*
X-19473D1*
X5514D2*
X8035D1*
X19100D2*
X21864D1*
X31693D2*
X33822D1*
X61385D2*
X63353D1*
X95839D2*
X98638D1*
X123392D2*
X125361D1*
X141893D2*
X144058D1*
X149306D2*
X151578D1*
X179495D2*
X182448D1*
X188353D2*
X191347D1*
X194544D2*
X197443D1*
X205085D2*
X207054D1*
X212998D2*
X215916D1*
X229292D2*
X231656D1*
X255687D2*
X258403D1*
X275029D2*
X277752D1*
X282841D2*
X285835D1*
X289032D2*
X291932D1*
X299573D2*
X301542D1*
X308799D2*
X323428D1*
X330085D2*
X333079D1*
X336276D2*
X339176D1*
X346818D2*
X348786D1*
X-84121Y541016D2*
X-81394D1*
X-71893D2*
X-69559D1*
X-58692D2*
X-55806D1*
X-46719D2*
X-43992D1*
X-34492D2*
X-32158D1*
X-21291D2*
X-18405D1*
X5899D2*
X8466D1*
X19226D2*
X21953D1*
X31453D2*
X33787D1*
X61385D2*
X63353D1*
X96819D2*
X99705D1*
X123392D2*
X125361D1*
X142324D2*
X144434D1*
X148987D2*
X151151D1*
X179495D2*
X182448D1*
X188353D2*
X191499D1*
X193707D2*
X196844D1*
X205085D2*
X207054D1*
X213123D2*
X215951D1*
X229036D2*
X231622D1*
X255977D2*
X258677D1*
X274802D2*
X277482D1*
X282841D2*
X285987D1*
X288195D2*
X291332D1*
X299573D2*
X301542D1*
X308454D2*
X323813D1*
X330085D2*
X333231D1*
X335439D2*
X338577D1*
X346818D2*
X348786D1*
X-83881Y540031D2*
X-81316D1*
X-72184D2*
X-69689D1*
X-57709D2*
X-54783D1*
X-46480D2*
X-43914D1*
X-34782D2*
X-32287D1*
X-20308D2*
X-17382D1*
X6245D2*
X8852D1*
X19465D2*
X22030D1*
X31163D2*
X33658D1*
X61385D2*
X63353D1*
X97802D2*
X100728D1*
X123392D2*
X125361D1*
X142710D2*
X144932D1*
X148615D2*
X150720D1*
X179495D2*
X182448D1*
X188353D2*
X191836D1*
X192591D2*
X196201D1*
X205085D2*
X207054D1*
X213363D2*
X216084D1*
X228822D2*
X231492D1*
X256308D2*
X259097D1*
X274373D2*
X277100D1*
X282841D2*
X286324D1*
X287079D2*
X290690D1*
X299573D2*
X301542D1*
X308074D2*
X324154D1*
X330085D2*
X333568D1*
X334323D2*
X337934D1*
X346818D2*
X348786D1*
X-83591Y539047D2*
X-81120D1*
X-72535D2*
X-69959D1*
X-56726D2*
X-53787D1*
X-46189D2*
X-43719D1*
X-35133D2*
X-32557D1*
X-19324D2*
X-16385D1*
X6624D2*
X9197D1*
X19756D2*
X22226D1*
X30812D2*
X33387D1*
X61385D2*
X63353D1*
X98786D2*
X101725D1*
X123392D2*
X125361D1*
X143052D2*
X145671D1*
X148164D2*
X150335D1*
X179495D2*
X182448D1*
X188353D2*
X195566D1*
X205085D2*
X207054D1*
X213654D2*
X216322D1*
X228607D2*
X231222D1*
X256768D2*
X259730D1*
X273649D2*
X276654D1*
X282841D2*
X290054D1*
X299573D2*
X301542D1*
X307647D2*
X310590D1*
X322363D2*
X324503D1*
X330085D2*
X337298D1*
X346818D2*
X348786D1*
X-83259Y538063D2*
X-80759D1*
X-72999D2*
X-70341D1*
X-55741D2*
X-52831D1*
X-45857D2*
X-43358D1*
X-35597D2*
X-32939D1*
X-18340D2*
X-15429D1*
X7051D2*
X9577D1*
X20088D2*
X22587D1*
X30348D2*
X33006D1*
X61385D2*
X63353D1*
X99770D2*
X102681D1*
X123392D2*
X125361D1*
X143401D2*
X146740D1*
X147622D2*
X149993D1*
X179495D2*
X182448D1*
X188353D2*
X194918D1*
X205085D2*
X207054D1*
X213989D2*
X216951D1*
X227985D2*
X230837D1*
X257371D2*
X260587D1*
X272697D2*
X276143D1*
X282841D2*
X289406D1*
X299573D2*
X301542D1*
X307216D2*
X309980D1*
X322611D2*
X324839D1*
X330085D2*
X336650D1*
X346818D2*
X348786D1*
X-82799Y537079D2*
X-79351D1*
X-74433D2*
X-70790D1*
X-54757D2*
X-51973D1*
X-45397D2*
X-41950D1*
X-37031D2*
X-33389D1*
X-17356D2*
X-14572D1*
X7482D2*
X10004D1*
X20548D2*
X23995D1*
X28914D2*
X32556D1*
X61385D2*
X63353D1*
X100755D2*
X103538D1*
X123392D2*
X125361D1*
X143736D2*
X149644D1*
X179495D2*
X182448D1*
X188353D2*
X194250D1*
X205085D2*
X207054D1*
X214484D2*
X219033D1*
X225776D2*
X230352D1*
X258106D2*
X262967D1*
X270275D2*
X275492D1*
X282841D2*
X288738D1*
X299573D2*
X301542D1*
X306831D2*
X309525D1*
X322901D2*
X325159D1*
X330085D2*
X335982D1*
X346818D2*
X348786D1*
X-82194Y536094D2*
X-77152D1*
X-76645D2*
X-71335D1*
X-53773D2*
X-51262D1*
X-44792D2*
X-39751D1*
X-39244D2*
X-33934D1*
X-16371D2*
X-13860D1*
X-7513D2*
X-5545D1*
X7871D2*
X10431D1*
X21153D2*
X26194D1*
X26701D2*
X32011D1*
X61385D2*
X63353D1*
X101739D2*
X104250D1*
X110597D2*
X112566D1*
X123392D2*
X125361D1*
X144054D2*
X149305D1*
X179495D2*
X182448D1*
X188353D2*
X193601D1*
X205085D2*
X207054D1*
X215215D2*
X222458D1*
X222247D2*
X229681D1*
X259048D2*
X266597D1*
X266621D2*
X274567D1*
X282841D2*
X288089D1*
X299573D2*
X301542D1*
X306488D2*
X309129D1*
X323199D2*
X325532D1*
X330085D2*
X335333D1*
X346818D2*
X348786D1*
X-81445Y535110D2*
X-72098D1*
X-65584D2*
X-50684D1*
X-44043D2*
X-34696D1*
X-28182D2*
X-13283D1*
X-7513D2*
X-5545D1*
X8240D2*
X10785D1*
X21902D2*
X31249D1*
X61385D2*
X63353D1*
X89928D2*
X104828D1*
X110597D2*
X112566D1*
X123392D2*
X125361D1*
X144397D2*
X148961D1*
X179495D2*
X182448D1*
X188353D2*
X192916D1*
X205085D2*
X207054D1*
X216208D2*
X228675D1*
X260242D2*
X273300D1*
X282841D2*
X287404D1*
X299573D2*
X301542D1*
X306135D2*
X308805D1*
X323535D2*
X325983D1*
X330085D2*
X334648D1*
X346818D2*
X348786D1*
X-80482Y534126D2*
X-73178D1*
X-65584D2*
X-50223D1*
X-43081D2*
X-35776D1*
X-28182D2*
X-12821D1*
X-7513D2*
X-5545D1*
X8691D2*
X11018D1*
X22864D2*
X30169D1*
X61385D2*
X63353D1*
X89928D2*
X105289D1*
X110597D2*
X112566D1*
X123392D2*
X125361D1*
X144736D2*
X148520D1*
X179495D2*
X182448D1*
X188353D2*
X192137D1*
X205085D2*
X207054D1*
X217463D2*
X227302D1*
X261643D2*
X271737D1*
X282841D2*
X286625D1*
X299573D2*
X301542D1*
X305791D2*
X308590D1*
X323871D2*
X326525D1*
X330085D2*
X333869D1*
X346818D2*
X348786D1*
X-79364Y533142D2*
X-74442D1*
X-65584D2*
X-49836D1*
X-41962D2*
X-37041D1*
X-28182D2*
X-12434D1*
X-7513D2*
X-5545D1*
X9219D2*
X11188D1*
X23983D2*
X28904D1*
X61385D2*
X63353D1*
X89928D2*
X105676D1*
X110597D2*
X112566D1*
X123392D2*
X125361D1*
X145046D2*
X147999D1*
X179495D2*
X182448D1*
X188353D2*
X191306D1*
X205085D2*
X207054D1*
X218865D2*
X225755D1*
X263156D2*
X270046D1*
X282841D2*
X285794D1*
X299573D2*
X301542D1*
X305479D2*
X308432D1*
X324180D2*
X327133D1*
X330085D2*
X333038D1*
X346818D2*
X348786D1*
X61385Y532157D2*
X63353D1*
X61385Y531173D2*
X63353D1*
X61385Y530189D2*
X63353D1*
X61385Y529205D2*
X63353D1*
X61385Y528220D2*
X63353D1*
X157841D2*
X176542D1*
X234613D2*
X253314D1*
X61385Y527236D2*
X63353D1*
X157841D2*
X176542D1*
X234613D2*
X253314D1*
X61385Y526252D2*
X63353D1*
X-481538Y-301139D2*
X-475633D1*
X-461853D2*
X-457916D1*
X-433310D2*
X-427404D1*
X-482973Y-302123D2*
X-474198D1*
X-461853D2*
X-456518D1*
X-434744D2*
X-425969D1*
X-484201Y-303108D2*
X-472969D1*
X-461853D2*
X-455403D1*
X-435973D2*
X-424741D1*
X-485165Y-304092D2*
X-482481D1*
X-474690D2*
X-472006D1*
X-461853D2*
X-459885D1*
X-457916D2*
X-454605D1*
X-436936D2*
X-434253D1*
X-426461D2*
X-423778D1*
X-485921Y-305076D2*
X-483301D1*
X-473870D2*
X-471250D1*
X-461853D2*
X-459885D1*
X-455948D2*
X-453979D1*
X-437692D2*
X-435072D1*
X-425642D2*
X-423021D1*
X-486198Y-306060D2*
X-483885D1*
X-473286D2*
X-470935D1*
X-461853D2*
X-459885D1*
X-437969D2*
X-435657D1*
X-425057D2*
X-422707D1*
X-486348Y-307045D2*
X-484217D1*
X-472953D2*
X-470659D1*
X-461853D2*
X-459885D1*
X-438120D2*
X-435989D1*
X-424725D2*
X-422431D1*
X-486416Y-308029D2*
X-484378D1*
X-472793D2*
X-470355D1*
X-461853D2*
X-459885D1*
X-438187D2*
X-436150D1*
X-424564D2*
X-422127D1*
X-486443Y-309013D2*
X-484447D1*
X-472723D2*
X-470075D1*
X-461853D2*
X-459885D1*
X-438215D2*
X-436219D1*
X-424495D2*
X-421847D1*
X-486454Y-309997D2*
X-484475D1*
X-472696D2*
X-469893D1*
X-461853D2*
X-459885D1*
X-438225D2*
X-436247D1*
X-424467D2*
X-421665D1*
X-486457Y-310982D2*
X-484485D1*
X-472685D2*
X-469798D1*
X-461853D2*
X-459885D1*
X-438229D2*
X-436257D1*
X-424457D2*
X-421570D1*
X-486459Y-311966D2*
X-484489D1*
X-472682D2*
X-469755D1*
X-461853D2*
X-459885D1*
X-438230D2*
X-436261D1*
X-424453D2*
X-421527D1*
X-486459Y-312950D2*
X-484490D1*
X-472680D2*
X-469738D1*
X-461853D2*
X-459885D1*
X-438231D2*
X-436262D1*
X-424452D2*
X-421509D1*
X-486459Y-313934D2*
X-484491D1*
X-472680D2*
X-469731D1*
X-461853D2*
X-459885D1*
X-438231D2*
X-436262D1*
X-424452D2*
X-421502D1*
X-486459Y-314919D2*
X-484491D1*
X-472680D2*
X-469728D1*
X-461853D2*
X-459885D1*
X-438231D2*
X-436262D1*
X-424452D2*
X-421500D1*
X-486459Y-315903D2*
X-484491D1*
X-472680D2*
X-469727D1*
X-461853D2*
X-459885D1*
X-438231D2*
X-436262D1*
X-424451D2*
X-421499D1*
X-486459Y-316887D2*
X-484491D1*
X-472680D2*
X-469727D1*
X-461853D2*
X-459885D1*
X-438231D2*
X-436262D1*
X-424451D2*
X-421499D1*
X-486459Y-317871D2*
X-484491D1*
X-472680D2*
X-469727D1*
X-461853D2*
X-459885D1*
X-438231D2*
X-436262D1*
X-424451D2*
X-421499D1*
X-486459Y-318856D2*
X-484491D1*
X-472680D2*
X-469727D1*
X-461853D2*
X-459885D1*
X-438231D2*
X-436262D1*
X-424451D2*
X-421499D1*
X-486459Y-319840D2*
X-484491D1*
X-472680D2*
X-469731D1*
X-461853D2*
X-459885D1*
X-438231D2*
X-436262D1*
X-424451D2*
X-421503D1*
X-486459Y-320824D2*
X-484491D1*
X-472680D2*
X-469765D1*
X-461853D2*
X-459885D1*
X-438231D2*
X-436262D1*
X-424451D2*
X-421537D1*
X-486459Y-321808D2*
X-484491D1*
X-472680D2*
X-469891D1*
X-461853D2*
X-459885D1*
X-438231D2*
X-436262D1*
X-424451D2*
X-421663D1*
X-486459Y-322793D2*
X-484487D1*
X-472684D2*
X-470127D1*
X-461853D2*
X-459885D1*
X-438231D2*
X-436259D1*
X-424455D2*
X-421898D1*
X-486455Y-323777D2*
X-484449D1*
X-472722D2*
X-470383D1*
X-461853D2*
X-459885D1*
X-438227D2*
X-436220D1*
X-424494D2*
X-422155D1*
X-486417Y-324761D2*
X-484356D1*
X-472814D2*
X-470593D1*
X-461853D2*
X-459885D1*
X-438189D2*
X-436128D1*
X-424586D2*
X-422365D1*
X-486253Y-325745D2*
X-483870D1*
X-473301D2*
X-470848D1*
X-461853D2*
X-459885D1*
X-438025D2*
X-435642D1*
X-425072D2*
X-422620D1*
X-485850Y-326730D2*
X-481949D1*
X-475222D2*
X-471293D1*
X-461853D2*
X-459885D1*
X-437621D2*
X-433720D1*
X-426994D2*
X-423065D1*
X-485160Y-327714D2*
X-478726D1*
X-478445D2*
X-472000D1*
X-461853D2*
X-459885D1*
X-448073D2*
X-446105D1*
X-436932D2*
X-430498D1*
X-430216D2*
X-423772D1*
X-484185Y-328698D2*
X-472982D1*
X-461853D2*
X-459885D1*
X-448073D2*
X-445647D1*
X-435956D2*
X-424754D1*
X-482936Y-329682D2*
X-474233D1*
X-461853D2*
X-459885D1*
X-448073D2*
X-445343D1*
X-434708D2*
X-426005D1*
X-481538Y-330667D2*
X-475633D1*
X-461853D2*
X-459885D1*
X-448073D2*
X-445121D1*
X-433310D2*
X-427404D1*
X-482719Y-247990D2*
X-476814D1*
X-460081D2*
X-454176D1*
X-426617D2*
X-420711D1*
X-484120Y-248974D2*
X-475413D1*
X-461516D2*
X-452741D1*
X-428052D2*
X-419277D1*
X-485257Y-249958D2*
X-474276D1*
X-462745D2*
X-451513D1*
X-429280D2*
X-418048D1*
X-486110Y-250942D2*
X-482370D1*
X-476817D2*
X-473423D1*
X-463708D2*
X-461024D1*
X-453233D2*
X-450549D1*
X-430243D2*
X-427560D1*
X-419768D2*
X-417085D1*
X-486742Y-251927D2*
X-483647D1*
X-475872D2*
X-472791D1*
X-464464D2*
X-461844D1*
X-452413D2*
X-449793D1*
X-431000D2*
X-428379D1*
X-418949D2*
X-416328D1*
X-487180Y-252911D2*
X-484542D1*
X-475051D2*
X-472353D1*
X-464741D2*
X-462428D1*
X-451829D2*
X-449479D1*
X-431277D2*
X-428964D1*
X-418364D2*
X-416014D1*
X-487431Y-253895D2*
X-485213D1*
X-474467D2*
X-472102D1*
X-464891D2*
X-462761D1*
X-451497D2*
X-449202D1*
X-431427D2*
X-429296D1*
X-418032D2*
X-415738D1*
X-487553Y-254879D2*
X-485449D1*
X-474134D2*
X-471979D1*
X-464959D2*
X-462921D1*
X-451336D2*
X-448899D1*
X-431494D2*
X-429457D1*
X-417871D2*
X-415434D1*
X-487607Y-255864D2*
X-485573D1*
X-473978D2*
X-471926D1*
X-464987D2*
X-462991D1*
X-451267D2*
X-448619D1*
X-431522D2*
X-429526D1*
X-417802D2*
X-415154D1*
X-487628Y-256848D2*
X-485596D1*
X-473947D2*
X-471909D1*
X-464997D2*
X-463018D1*
X-451239D2*
X-448437D1*
X-431532D2*
X-429554D1*
X-417774D2*
X-414972D1*
X-487636Y-257832D2*
X-485487D1*
X-474083D2*
X-471935D1*
X-465001D2*
X-463029D1*
X-451229D2*
X-448342D1*
X-431536D2*
X-429564D1*
X-417764D2*
X-414877D1*
X-487635Y-258816D2*
X-485260D1*
X-474377D2*
X-472062D1*
X-465002D2*
X-463032D1*
X-451225D2*
X-448299D1*
X-431537D2*
X-429568D1*
X-417760D2*
X-414834D1*
X-487601Y-259801D2*
X-484648D1*
X-475299D2*
X-472335D1*
X-465002D2*
X-463033D1*
X-451224D2*
X-448281D1*
X-431538D2*
X-429569D1*
X-417759D2*
X-414816D1*
X-487473Y-260785D2*
X-482738D1*
X-476903D2*
X-472755D1*
X-465003D2*
X-463034D1*
X-451223D2*
X-448274D1*
X-431538D2*
X-429569D1*
X-417759D2*
X-414810D1*
X-487202Y-261769D2*
X-479654D1*
X-479502D2*
X-473380D1*
X-465003D2*
X-463034D1*
X-451223D2*
X-448272D1*
X-431538D2*
X-429569D1*
X-417759D2*
X-414807D1*
X-486821Y-262753D2*
X-474214D1*
X-465003D2*
X-463034D1*
X-451223D2*
X-448271D1*
X-431538D2*
X-429570D1*
X-417759D2*
X-414806D1*
X-486379Y-263738D2*
X-476250D1*
X-465003D2*
X-463034D1*
X-451223D2*
X-448270D1*
X-431538D2*
X-429570D1*
X-417759D2*
X-414806D1*
X-485906Y-264722D2*
X-479198D1*
X-465003D2*
X-463034D1*
X-451223D2*
X-448270D1*
X-431538D2*
X-429570D1*
X-417759D2*
X-414806D1*
X-485422Y-265706D2*
X-482719D1*
X-465003D2*
X-463034D1*
X-451223D2*
X-448270D1*
X-431538D2*
X-429570D1*
X-417759D2*
X-414806D1*
X-484932Y-266690D2*
X-482345D1*
X-465003D2*
X-463034D1*
X-451223D2*
X-448274D1*
X-431538D2*
X-429570D1*
X-417759D2*
X-414810D1*
X-484442Y-267675D2*
X-481922D1*
X-465003D2*
X-463034D1*
X-451223D2*
X-448309D1*
X-431538D2*
X-429570D1*
X-417759D2*
X-414844D1*
X-483949Y-268659D2*
X-481465D1*
X-465003D2*
X-463034D1*
X-451223D2*
X-448434D1*
X-431538D2*
X-429570D1*
X-417759D2*
X-414970D1*
X-483458Y-269643D2*
X-480987D1*
X-465003D2*
X-463030D1*
X-451227D2*
X-448670D1*
X-431538D2*
X-429566D1*
X-417762D2*
X-415205D1*
X-482965Y-270627D2*
X-480502D1*
X-464999D2*
X-462992D1*
X-451265D2*
X-448926D1*
X-431534D2*
X-429527D1*
X-417801D2*
X-415462D1*
X-482473Y-271612D2*
X-480011D1*
X-464960D2*
X-462900D1*
X-451358D2*
X-449136D1*
X-431496D2*
X-429435D1*
X-417893D2*
X-415672D1*
X-481981Y-272596D2*
X-479520D1*
X-464796D2*
X-462413D1*
X-451844D2*
X-449391D1*
X-431332D2*
X-428949D1*
X-418379D2*
X-415927D1*
X-481489Y-273580D2*
X-479028D1*
X-464393D2*
X-460492D1*
X-453765D2*
X-449837D1*
X-430928D2*
X-427027D1*
X-420301D2*
X-416372D1*
X-480999Y-274564D2*
X-478533D1*
X-463704D2*
X-457269D1*
X-456988D2*
X-450543D1*
X-441381D2*
X-439412D1*
X-430239D2*
X-423805D1*
X-423523D2*
X-417079D1*
X-480534Y-275549D2*
X-478015D1*
X-462728D2*
X-451525D1*
X-441381D2*
X-438954D1*
X-429264D2*
X-418061D1*
X-480124Y-276533D2*
X-477441D1*
X-461479D2*
X-452777D1*
X-441381D2*
X-438650D1*
X-428015D2*
X-419312D1*
X-479766Y-277517D2*
X-476814D1*
X-460081D2*
X-454176D1*
X-441381D2*
X-438428D1*
X-426617D2*
X-420711D1*
X3370Y289685D2*
D12*
X39370D1*
X-5400Y286685D2*
X47769D1*
X-13111Y283685D2*
X55406D1*
X-19866Y280685D2*
X7200D1*
X36244D2*
X61911D1*
X-25765Y277685D2*
X-2668D1*
X44731D2*
X67192D1*
X-30809Y274685D2*
X-10724D1*
X52407D2*
X71509D1*
X-35263Y271685D2*
X-17337D1*
X59014D2*
X75360D1*
X-39481Y268685D2*
X-23015D1*
X64574D2*
X78939D1*
X-43364Y265685D2*
X-27814D1*
X69228D2*
X82085D1*
X-46591Y262685D2*
X-31815D1*
X73129D2*
X84874D1*
X-49183Y259685D2*
X-35295D1*
X76462D2*
X87630D1*
X-51541Y256685D2*
X-38501D1*
X15370D2*
X21370D1*
X79363D2*
X90378D1*
X-53969Y253685D2*
X-41583D1*
X7985D2*
X28755D1*
X81990D2*
X92911D1*
X-56318Y250685D2*
X-44602D1*
X1124D2*
X35617D1*
X84577D2*
X95055D1*
X-58375Y247685D2*
X-47507D1*
X-5312D2*
X15009D1*
X21834D2*
X42053D1*
X87004D2*
X96879D1*
X-60162Y244685D2*
X-50117D1*
X-11506D2*
X8544D1*
X28577D2*
X48258D1*
X89094D2*
X98515D1*
X-61783Y241685D2*
X-52294D1*
X-17584D2*
X2104D1*
X35354D2*
X54441D1*
X90894D2*
X99978D1*
X-63241Y238685D2*
X-54131D1*
X-23625D2*
X-4370D1*
X41880D2*
X60853D1*
X92521D2*
X101215D1*
X-64476Y235685D2*
X-55784D1*
X-29742D2*
X-10895D1*
X48158D2*
X67583D1*
X93980D2*
X102279D1*
X-65516Y232685D2*
X-57352D1*
X-36130D2*
X-17268D1*
X54286D2*
X74332D1*
X95215D2*
X103339D1*
X-66348Y229685D2*
X-58956D1*
X-42875D2*
X-23471D1*
X60339D2*
X80622D1*
X96279D2*
X104272D1*
X-66839Y226685D2*
X-60715D1*
X-49768D2*
X-29566D1*
X66359D2*
X85902D1*
X97340D2*
X104973D1*
X-65052Y223685D2*
X-62630D1*
X-56630D2*
X-35606D1*
X72366D2*
X90188D1*
X98272D2*
X105786D1*
X-62630Y220685D2*
X-41610D1*
X78369D2*
X91826D1*
X98962D2*
X106926D1*
X-68630Y217685D2*
X-47486D1*
X84370D2*
X92761D1*
X99645D2*
X109716D1*
X-74630Y214685D2*
X-52872D1*
X-5630D2*
X12370D1*
X24370D2*
X42370D1*
X90370D2*
X93370D1*
X100500D2*
X113540D1*
X-80630Y211685D2*
X-57155D1*
X-5630D2*
X12370D1*
X24370D2*
X42370D1*
X101324D2*
X118433D1*
X-86618Y208685D2*
X-60437D1*
X-5630D2*
X12370D1*
X24370D2*
X42370D1*
X101869D2*
X124119D1*
X-92504Y205685D2*
X-61574D1*
X-5630D2*
X370D1*
X9370D2*
X12370D1*
X24370D2*
X27370D1*
X36370D2*
X42370D1*
X102143D2*
X129980D1*
X-98040Y202685D2*
X-80630D1*
X-71516D2*
X-62184D1*
X-5630D2*
X370D1*
X9370D2*
X12370D1*
X24370D2*
X27370D1*
X36370D2*
X42370D1*
X102167D2*
X108358D1*
X117370D2*
X134938D1*
X-103015Y199685D2*
X-86630D1*
X-71131D2*
X-62456D1*
X-5630D2*
X12370D1*
X24370D2*
X42370D1*
X101839D2*
X108253D1*
X123370D2*
X138794D1*
X-107630Y196685D2*
X-92630D1*
X-70412D2*
X-62555D1*
X-5630D2*
X12370D1*
X24370D2*
X42370D1*
X101141D2*
X107871D1*
X129370D2*
X140251D1*
X-104630Y193685D2*
X-98630D1*
X-69643D2*
X-62490D1*
X100367D2*
X107152D1*
X135370D2*
X141370D1*
X-69108Y190685D2*
X-62123D1*
X99741D2*
X106383D1*
X-68724Y187685D2*
X-61398D1*
X99082D2*
X105848D1*
X-68215Y184685D2*
X-60525D1*
X-5630D2*
X12370D1*
X24370D2*
X42370D1*
X98224D2*
X105464D1*
X-67432Y181685D2*
X-59608D1*
X-5630D2*
X12370D1*
X24370D2*
X42370D1*
X97297D2*
X104955D1*
X-66537Y178685D2*
X-58506D1*
X-5630D2*
X370D1*
X9370D2*
X12370D1*
X24370D2*
X30370D1*
X36370D2*
X42370D1*
X96360D2*
X104172D1*
X-65612Y175685D2*
X-57216D1*
X-5630D2*
X370D1*
X9370D2*
X12370D1*
X24370D2*
X27370D1*
X36370D2*
X42370D1*
X95250D2*
X103277D1*
X-64507Y172685D2*
X-55816D1*
X-5630D2*
X12370D1*
X24370D2*
X42370D1*
X93957D2*
X102352D1*
X-63216Y169685D2*
X-54354D1*
X-5630D2*
X12370D1*
X24370D2*
X42370D1*
X92545D2*
X101248D1*
X-61816Y166685D2*
X-52861D1*
X-5630D2*
X12370D1*
X24370D2*
X42370D1*
X90977D2*
X99956D1*
X-60354Y163685D2*
X-51258D1*
X89101D2*
X98544D1*
X-58861Y160685D2*
X-49369D1*
X86781D2*
X96977D1*
X-57258Y157685D2*
X-47043D1*
X84122D2*
X95101D1*
X-55369Y154685D2*
X-44383D1*
X81273D2*
X92781D1*
X-53043Y151685D2*
X-41521D1*
X78334D2*
X90122D1*
X-50383Y148685D2*
X-38489D1*
X75357D2*
X87273D1*
X-47533Y145685D2*
X-35235D1*
X72366D2*
X84334D1*
X-44594Y142685D2*
X-31907D1*
X69380D2*
X81357D1*
X-41617Y139685D2*
X-28859D1*
X66499D2*
X78366D1*
X-38626Y136685D2*
X-26106D1*
X63998D2*
X75369D1*
X-35640Y133685D2*
X-23353D1*
X62205D2*
X72381D1*
X-32755Y130685D2*
X-20515D1*
X61124D2*
X69496D1*
X-30219Y127685D2*
X66960D1*
X-28245Y124685D2*
X64985D1*
X-26630Y121685D2*
X63370D1*
X-23630Y106685D2*
X60370D1*
X-23078Y103685D2*
X59819D1*
X-22026Y100685D2*
X58766D1*
X-20630Y97685D2*
X57370D1*
X-8630Y85685D2*
X45370D1*
X-8630Y82685D2*
X48370D1*
X-8630Y79685D2*
X45370D1*
X489171Y231434D2*
Y229934D1*
Y228434D1*
Y226934D1*
Y225434D1*
Y223934D1*
Y222434D1*
Y220934D1*
Y219434D1*
Y217934D1*
Y216434D1*
Y214934D1*
Y213434D1*
Y211934D1*
Y210434D1*
Y208934D1*
Y207434D1*
Y205934D1*
X493671Y231434D2*
Y229934D1*
Y228434D1*
Y226934D1*
Y225434D1*
Y223934D1*
Y222434D1*
Y220934D1*
X493676Y219434D1*
X493734Y217934D1*
X493965Y216434D1*
X494478Y214934D1*
X495171Y213434D1*
X519171Y231434D2*
X516921Y229934D1*
X514798Y228434D1*
X512715Y226934D1*
X510681Y225434D1*
X508689Y223934D1*
X506670Y222434D1*
X504663Y220934D1*
X502676Y219434D1*
X500610Y217934D1*
X498422Y216434D1*
X496097Y214934D1*
X493671Y213434D1*
X523671Y231434D2*
Y229934D1*
Y228434D1*
Y226934D1*
Y225434D1*
Y223934D1*
Y222434D1*
Y220934D1*
Y219434D1*
Y217934D1*
Y216434D1*
Y214934D1*
Y213434D1*
Y211934D1*
Y210434D1*
Y208934D1*
Y207434D1*
Y205934D1*
X514671Y222434D2*
X513113Y220934D1*
X511421Y219434D1*
X509562Y217934D1*
X507671Y216434D1*
X505857Y214934D1*
X504027Y213434D1*
X502098Y211934D1*
X500130Y210434D1*
X498125Y208934D1*
X495962Y207434D1*
X493671Y205934D1*
X517671Y222434D2*
Y220934D1*
Y219434D1*
Y217934D1*
Y216434D1*
Y214934D1*
Y213434D1*
Y211934D1*
Y210434D1*
Y208934D1*
Y207434D1*
Y205934D1*
X489171Y192434D2*
Y190934D1*
Y189434D1*
Y187934D1*
X538671Y192434D2*
Y190934D1*
Y189434D1*
Y187934D1*
X507171D2*
X508376Y186434D1*
X509253Y184934D1*
X509755Y183434D1*
X509999Y181934D1*
X510104Y180434D1*
X510146Y178934D1*
X510162Y177434D1*
X510168Y175934D1*
X510170Y174434D1*
Y172934D1*
X510171Y171434D1*
Y169934D1*
Y168434D1*
Y166934D1*
Y165434D1*
Y163934D1*
X517671Y187934D2*
X516465Y186434D1*
X515588Y184934D1*
X515086Y183434D1*
X514842Y181934D1*
X514737Y180434D1*
X514695Y178934D1*
X514679Y177434D1*
X514673Y175934D1*
X514672Y174434D1*
X514671Y172934D1*
Y171434D1*
Y169934D1*
Y168434D1*
Y166934D1*
Y165434D1*
Y163934D1*
X489171D2*
Y162434D1*
Y160934D1*
Y159434D1*
Y157934D1*
X538671Y163934D2*
Y162434D1*
Y160934D1*
Y159434D1*
Y157934D1*
X505671Y145934D2*
X501355Y144434D1*
X497797Y142934D1*
X495161Y141434D1*
X493326Y139934D1*
X491947Y138434D1*
X490823Y136934D1*
X490018Y135434D1*
X489556Y133934D1*
X489330Y132434D1*
X489232Y130934D1*
X489193Y129434D1*
X489179Y127934D1*
X489173Y126434D1*
X489177Y124934D1*
X489229Y123434D1*
X489426Y121934D1*
X489844Y120434D1*
X490478Y118934D1*
X491355Y117434D1*
X492545Y115934D1*
X494095Y114434D1*
X496025Y112934D1*
X498171Y111434D1*
X514671Y145934D2*
Y144434D1*
Y142934D1*
Y141434D1*
Y139934D1*
Y138434D1*
Y136934D1*
Y135434D1*
Y133934D1*
Y132434D1*
Y130934D1*
Y129434D1*
X525171Y144434D2*
X525176Y142934D1*
X525241Y141434D1*
X525399Y139934D1*
X526302Y138434D1*
X527629Y136934D1*
X529078Y135434D1*
X530318Y133934D1*
X531281Y132434D1*
X531959Y130934D1*
X532341Y129434D1*
X532477Y127934D1*
X532363Y126434D1*
X531978Y124934D1*
X531338Y123434D1*
X530516Y121934D1*
X528472Y120434D1*
X525302Y118934D1*
X520996Y117434D1*
X516171Y115934D1*
X526671Y144434D2*
X529370Y142934D1*
X531694Y141434D1*
X533500Y139934D1*
X534826Y138434D1*
X535802Y136934D1*
X536527Y135434D1*
X537101Y133934D1*
X537647Y132434D1*
X538113Y130934D1*
X538401Y129434D1*
X538500Y127934D1*
X538377Y126434D1*
X538039Y124934D1*
X537613Y123434D1*
X537158Y121934D1*
X536602Y120434D1*
X535905Y118934D1*
X535002Y117434D1*
X533802Y115934D1*
X532248Y114434D1*
X530316Y112934D1*
X528171Y111434D1*
X508671Y139934D2*
X504534Y138434D1*
X500966Y136934D1*
X498317Y135434D1*
X496359Y133934D1*
X495510Y132434D1*
X494814Y130934D1*
X494331Y129434D1*
X494070Y127934D1*
X494371Y126434D1*
X494767Y124934D1*
X495267Y123434D1*
X495927Y121934D1*
X497626Y120434D1*
X500150Y118934D1*
X503478Y117434D1*
X507171Y115934D1*
Y139934D2*
X508376Y138434D1*
X509253Y136934D1*
X509755Y135434D1*
X509999Y133934D1*
X510105Y132434D1*
X510148Y130934D1*
X510171Y129434D1*
X496671Y100934D2*
X495231Y99434D1*
X493297Y97934D1*
X491459Y96434D1*
X490042Y94934D1*
X489581Y93434D1*
X489329Y91934D1*
X489171Y90434D1*
X496671D1*
Y88934D1*
Y87434D1*
Y85934D1*
Y84434D1*
Y82934D1*
Y81434D1*
Y79934D1*
Y78434D1*
Y76934D1*
Y75434D1*
Y73934D1*
Y72434D1*
Y70934D1*
Y69434D1*
X501171Y100934D2*
Y99434D1*
Y97934D1*
Y96434D1*
X517671D1*
Y94934D1*
Y93434D1*
Y91934D1*
Y90434D1*
X501171D1*
Y88934D1*
Y87434D1*
Y85934D1*
Y84434D1*
Y82934D1*
X501176Y81434D1*
X501234Y79934D1*
X501465Y78434D1*
X501978Y76934D1*
X502671Y75434D1*
X537171Y91934D2*
X533478Y90434D1*
X530042Y88934D1*
X526771Y87434D1*
X523483Y85934D1*
X520085Y84434D1*
X516685Y82934D1*
X513412Y81434D1*
X510214Y79934D1*
X506918Y78434D1*
X503378Y76934D1*
X499671Y75434D1*
X538671Y91934D2*
X538659Y90434D1*
X538536Y88934D1*
X538237Y87434D1*
X536638Y85934D1*
X534244Y84434D1*
X531337Y82934D1*
X528284Y81434D1*
X525222Y79934D1*
X522137Y78434D1*
X518931Y76934D1*
X515565Y75434D1*
X512178Y73934D1*
X508915Y72434D1*
X505767Y70934D1*
X502671Y69434D1*
X489171Y58934D2*
Y57434D1*
Y55934D1*
Y54434D1*
Y52934D1*
X495171Y58934D2*
Y57434D1*
Y55934D1*
Y54434D1*
Y52934D1*
X489171Y42434D2*
Y40934D1*
Y39434D1*
Y37934D1*
Y36434D1*
Y34934D1*
Y33434D1*
Y31934D1*
Y30434D1*
Y28934D1*
Y27434D1*
Y25934D1*
Y24434D1*
Y22934D1*
Y21434D1*
Y19934D1*
Y18434D1*
Y16934D1*
Y15434D1*
X493671Y42434D2*
Y40934D1*
Y39434D1*
Y37934D1*
Y36434D1*
Y34934D1*
Y33434D1*
Y31934D1*
X493682Y30434D1*
X493797Y28934D1*
X494069Y27434D1*
X495238Y25934D1*
X496671Y24434D1*
X522171Y42434D2*
X519054Y40934D1*
X516315Y39434D1*
X513937Y37934D1*
X511790Y36434D1*
X509707Y34934D1*
X507677Y33434D1*
X505687Y31934D1*
X503663Y30434D1*
X501596Y28934D1*
X499341Y27434D1*
X496658Y25934D1*
X493671Y24434D1*
X529671Y42434D2*
X531857Y40934D1*
X533729Y39434D1*
X535203Y37934D1*
X536244Y36434D1*
X536981Y34934D1*
X537599Y33434D1*
X538095Y31934D1*
X538395Y30434D1*
X538498Y28934D1*
X538376Y27434D1*
X538039Y25934D1*
X537607Y24434D1*
X537099Y22934D1*
X536347Y21434D1*
X535233Y19934D1*
X533720Y18434D1*
X531806Y16934D1*
X529671Y15434D1*
X523671Y36434D2*
X520960Y34934D1*
X518530Y33434D1*
X516336Y31934D1*
X514227Y30434D1*
X512185Y28934D1*
X510190Y27434D1*
X508170Y25934D1*
X506163Y24434D1*
X504182Y22934D1*
X502167Y21434D1*
X500158Y19934D1*
X498136Y18434D1*
X495965Y16934D1*
X493671Y15434D1*
X528171Y36434D2*
X529608Y34934D1*
X530857Y33434D1*
X531747Y31934D1*
X532248Y30434D1*
X532434Y28934D1*
X532425Y27434D1*
X531706Y25934D1*
X530569Y24434D1*
X529203Y22934D1*
X528033Y21434D1*
X527308Y19934D1*
X526939Y18434D1*
X526769Y16934D1*
X526671Y15434D1*
X-229766Y-214197D2*
D14*
X-231477Y-215509D1*
X-232794Y-216822D1*
X-233785Y-218134D1*
X-234587Y-219446D1*
X-235251Y-220759D1*
X-235713Y-222071D1*
X-235967Y-223383D1*
X-235710Y-224696D1*
X-235372Y-226008D1*
X-234992Y-227320D1*
X-234514Y-228633D1*
X-233912Y-229945D1*
X-233174Y-231257D1*
X-232342Y-232570D1*
X-231499Y-233882D1*
X-230597Y-235194D1*
X-229587Y-236507D1*
X-228574Y-237819D1*
X-227636Y-239131D1*
X-226689Y-240444D1*
X-225661Y-241756D1*
X-224641Y-243068D1*
X-223700Y-244381D1*
X-222748Y-245693D1*
X-221674Y-247005D1*
X-220494Y-248318D1*
X-219268Y-249630D1*
X-220580Y-214197D2*
X-218712Y-215509D1*
X-217196Y-216822D1*
X-216059Y-218134D1*
X-215217Y-219446D1*
X-214628Y-220759D1*
X-214270Y-222071D1*
X-214018Y-223383D1*
X-198270Y-214197D2*
X-200183Y-215509D1*
X-201821Y-216822D1*
X-203106Y-218134D1*
X-204114Y-219446D1*
X-204483Y-220759D1*
X-204683Y-222071D1*
X-204769Y-223383D1*
X-204759Y-224696D1*
X-204601Y-226008D1*
X-204235Y-227320D1*
X-203632Y-228633D1*
X-202672Y-229945D1*
X-201256Y-231257D1*
X-199583Y-232570D1*
X-201136Y-233882D1*
X-202467Y-235194D1*
X-203516Y-236507D1*
X-204362Y-237819D1*
X-205055Y-239131D1*
X-205574Y-240444D1*
X-205876Y-241756D1*
X-205983Y-243068D1*
X-205878Y-244381D1*
X-205544Y-245693D1*
X-205041Y-247005D1*
X-204399Y-248318D1*
X-203505Y-249630D1*
X-202164Y-250942D1*
X-200333Y-252255D1*
X-198270Y-253567D1*
X-190396Y-214197D2*
X-188528Y-215509D1*
X-187012Y-216822D1*
X-185875Y-218134D1*
X-185033Y-219446D1*
X-184444Y-220759D1*
X-184086Y-222071D1*
X-183835Y-223383D1*
X-168087Y-214197D2*
X-170000Y-215509D1*
X-171638Y-216822D1*
X-172922Y-218134D1*
X-173930Y-219446D1*
X-174300Y-220759D1*
X-174500Y-222071D1*
X-174590Y-223383D1*
X-174627Y-224696D1*
X-174641Y-226008D1*
X-174646Y-227320D1*
X-174647Y-228633D1*
X-174648Y-229945D1*
Y-231257D1*
Y-232570D1*
Y-233882D1*
Y-235194D1*
Y-236507D1*
Y-237819D1*
Y-239131D1*
Y-240444D1*
Y-241756D1*
Y-243068D1*
X-174643Y-244381D1*
X-174592Y-245693D1*
X-174373Y-247005D1*
X-173835Y-248318D1*
X-172916Y-249630D1*
X-171616Y-250942D1*
X-169950Y-252255D1*
X-168087Y-253567D1*
X-160213Y-214197D2*
X-158300Y-215509D1*
X-156662Y-216822D1*
X-155377Y-218134D1*
X-154369Y-219446D1*
X-153950Y-220759D1*
X-153581Y-222071D1*
X-153176Y-223383D1*
X-152803Y-224696D1*
X-152560Y-226008D1*
X-152434Y-227320D1*
X-152376Y-228633D1*
X-152353Y-229945D1*
X-152344Y-231257D1*
X-152340Y-232570D1*
X-152339Y-233882D1*
Y-235194D1*
Y-236507D1*
Y-237819D1*
X-152344Y-239131D1*
X-152390Y-240444D1*
X-152557Y-241756D1*
X-152871Y-243068D1*
X-153213Y-244381D1*
X-153493Y-245693D1*
X-153833Y-247005D1*
X-154427Y-248318D1*
X-155369Y-249630D1*
X-156679Y-250942D1*
X-158347Y-252255D1*
X-160213Y-253567D1*
X-137903Y-214197D2*
X-139613Y-215509D1*
X-140931Y-216822D1*
X-141922Y-218134D1*
X-142723Y-219446D1*
X-143388Y-220759D1*
X-143849Y-222071D1*
X-144104Y-223383D1*
X-143847Y-224696D1*
X-143509Y-226008D1*
X-143129Y-227320D1*
X-142650Y-228633D1*
X-142048Y-229945D1*
X-141311Y-231257D1*
X-140479Y-232570D1*
X-139636Y-233882D1*
X-138734Y-235194D1*
X-137724Y-236507D1*
X-136711Y-237819D1*
X-135772Y-239131D1*
X-134826Y-240444D1*
X-133798Y-241756D1*
X-132778Y-243068D1*
X-131837Y-244381D1*
X-130884Y-245693D1*
X-129811Y-247005D1*
X-128630Y-248318D1*
X-127404Y-249630D1*
X-128717Y-214197D2*
X-126848Y-215509D1*
X-125332Y-216822D1*
X-124195Y-218134D1*
X-123353Y-219446D1*
X-122765Y-220759D1*
X-122407Y-222071D1*
X-122155Y-223383D1*
X-105094Y-214197D2*
X-107007Y-215509D1*
X-108645Y-216822D1*
X-109935Y-218134D1*
X-110845Y-219446D1*
X-111490Y-220759D1*
X-112031Y-222071D1*
X-112460Y-223383D1*
X-112681Y-224696D1*
X-112650Y-226008D1*
X-112391Y-227320D1*
X-112028Y-228633D1*
X-111590Y-229945D1*
X-110934Y-231257D1*
X-109969Y-232570D1*
X-108738Y-233882D1*
X-107459Y-235194D1*
X-106336Y-236507D1*
X-106065Y-237819D1*
X-106427Y-239131D1*
X-107031Y-240444D1*
X-107800Y-241756D1*
X-108573Y-243068D1*
X-109299Y-244381D1*
X-109992Y-245693D1*
X-110662Y-247005D1*
X-111325Y-248318D1*
X-111987Y-249630D1*
X-112679Y-250942D1*
X-113445Y-252255D1*
X-114281Y-253567D1*
X-85409Y-214197D2*
Y-215509D1*
Y-216822D1*
Y-218134D1*
Y-219446D1*
Y-220759D1*
Y-222071D1*
Y-223383D1*
Y-224696D1*
Y-226008D1*
Y-227320D1*
Y-228633D1*
Y-229945D1*
Y-231257D1*
Y-232570D1*
Y-233882D1*
Y-235194D1*
Y-236507D1*
Y-237819D1*
Y-239131D1*
Y-240444D1*
Y-241756D1*
Y-243068D1*
Y-244381D1*
Y-245693D1*
Y-247005D1*
Y-248318D1*
Y-249630D1*
Y-250942D1*
Y-252255D1*
Y-253567D1*
X-67037Y-214197D2*
X-69354Y-215509D1*
X-71265Y-216822D1*
X-72697Y-218134D1*
X-73835Y-219446D1*
X-74792Y-220759D1*
X-75491Y-222071D1*
X-75921Y-223383D1*
X-76223Y-224696D1*
X-59163Y-214197D2*
X-56644Y-215509D1*
X-54624Y-216822D1*
X-53103Y-218134D1*
X-51987Y-219446D1*
X-51161Y-220759D1*
X-50579Y-222071D1*
X-50202Y-223383D1*
X-49873Y-224696D1*
X-49488Y-226008D1*
X-49124Y-227320D1*
X-48884Y-228633D1*
X-48758Y-229945D1*
X-48702Y-231257D1*
X-48678Y-232570D1*
X-48669Y-233882D1*
X-48666Y-235194D1*
X-48670Y-236507D1*
X-48715Y-237819D1*
X-48883Y-239131D1*
X-49197Y-240444D1*
X-49538Y-241756D1*
X-49813Y-243068D1*
X-50108Y-244381D1*
X-50529Y-245693D1*
X-51107Y-247005D1*
X-51888Y-248318D1*
X-52982Y-249630D1*
X-54542Y-250942D1*
X-56680Y-252255D1*
X-59163Y-253567D1*
X-224517Y-218134D2*
X-226829Y-219446D1*
X-228689Y-220759D1*
X-230120Y-222071D1*
X-230682Y-223383D1*
X-230689Y-224696D1*
X-230426Y-226008D1*
X-229960Y-227320D1*
X-229382Y-228633D1*
X-228711Y-229945D1*
X-227901Y-231257D1*
X-226934Y-232570D1*
X-225939Y-233882D1*
X-225007Y-235194D1*
X-224058Y-236507D1*
X-222990Y-237819D1*
X-221849Y-239131D1*
X-220761Y-240444D1*
X-219787Y-241756D1*
X-218825Y-243068D1*
X-217791Y-244381D1*
X-216774Y-245693D1*
X-215883Y-247005D1*
X-215149Y-248318D1*
X-214607Y-249630D1*
X-214288Y-250942D1*
X-214122Y-252255D1*
X-214018Y-253567D1*
X-224517Y-218134D2*
X-222354Y-219446D1*
X-220606Y-220759D1*
X-219218Y-222071D1*
X-217955Y-223383D1*
X-194333Y-218134D2*
X-196492Y-219446D1*
X-198195Y-220759D1*
X-199384Y-222071D1*
X-200263Y-223383D1*
X-200492Y-224696D1*
X-200148Y-226008D1*
X-199582Y-227320D1*
X-198107Y-228633D1*
X-196344Y-229945D1*
X-194619Y-231257D1*
X-193764Y-232570D1*
X-193492Y-233882D1*
X-195297Y-235194D1*
X-197220Y-236507D1*
X-198810Y-237819D1*
X-200048Y-239131D1*
X-200487Y-240444D1*
X-200717Y-241756D1*
X-200766Y-243068D1*
X-200681Y-244381D1*
X-199965Y-245693D1*
X-197722Y-247005D1*
X-194389Y-248318D1*
X-190396Y-249630D1*
X-193021Y-218134D2*
X-191709Y-219446D1*
X-190396Y-220759D1*
X-189084Y-222071D1*
X-187772Y-223383D1*
X-164150Y-218134D2*
X-166461Y-219446D1*
X-168322Y-220759D1*
X-169752Y-222071D1*
X-170250Y-223383D1*
X-170516Y-224696D1*
X-170635Y-226008D1*
X-170683Y-227320D1*
X-170702Y-228633D1*
X-170708Y-229945D1*
X-170710Y-231257D1*
X-170711Y-232570D1*
Y-233882D1*
Y-235194D1*
Y-236507D1*
Y-237819D1*
Y-239131D1*
Y-240444D1*
X-170706Y-241756D1*
X-170650Y-243068D1*
X-170511Y-244381D1*
X-169786Y-245693D1*
X-167540Y-247005D1*
X-164206Y-248318D1*
X-160213Y-249630D1*
X-164150Y-218134D2*
X-161838Y-219446D1*
X-159978Y-220759D1*
X-158547Y-222071D1*
X-158050Y-223383D1*
X-157783Y-224696D1*
X-157664Y-226008D1*
X-157616Y-227320D1*
X-157598Y-228633D1*
X-157591Y-229945D1*
X-157589Y-231257D1*
X-157588Y-232570D1*
Y-233882D1*
Y-235194D1*
Y-236507D1*
Y-237819D1*
Y-239131D1*
Y-240444D1*
X-157593Y-241756D1*
X-157649Y-243068D1*
X-157788Y-244381D1*
X-158513Y-245693D1*
X-160759Y-247005D1*
X-164093Y-248318D1*
X-168087Y-249630D1*
X-132654Y-218134D2*
X-134965Y-219446D1*
X-136826Y-220759D1*
X-138256Y-222071D1*
X-138819Y-223383D1*
X-138826Y-224696D1*
X-138563Y-226008D1*
X-138096Y-227320D1*
X-137519Y-228633D1*
X-136848Y-229945D1*
X-136038Y-231257D1*
X-135071Y-232570D1*
X-134076Y-233882D1*
X-133144Y-235194D1*
X-132195Y-236507D1*
X-131127Y-237819D1*
X-129986Y-239131D1*
X-128898Y-240444D1*
X-127923Y-241756D1*
X-126961Y-243068D1*
X-125927Y-244381D1*
X-124910Y-245693D1*
X-124019Y-247005D1*
X-123285Y-248318D1*
X-122743Y-249630D1*
X-122424Y-250942D1*
X-122259Y-252255D1*
X-122155Y-253567D1*
X-132654Y-218134D2*
X-130490Y-219446D1*
X-128742Y-220759D1*
X-127354Y-222071D1*
X-126092Y-223383D1*
X-101157Y-218134D2*
X-103316Y-219446D1*
X-105020Y-220759D1*
X-106213Y-222071D1*
X-107108Y-223383D1*
X-107372Y-224696D1*
X-107471Y-226008D1*
X-107142Y-227320D1*
X-106263Y-228633D1*
X-102806Y-229945D1*
X-96876Y-231257D1*
X-89346Y-232570D1*
X-90659Y-218134D2*
Y-219446D1*
Y-220759D1*
Y-222071D1*
Y-223383D1*
Y-224696D1*
Y-226008D1*
Y-227320D1*
Y-228633D1*
Y-229945D1*
Y-231257D1*
X-102470Y-232570D1*
X-63100Y-218134D2*
X-65461Y-219446D1*
X-67491Y-220759D1*
X-69042Y-222071D1*
X-70129Y-223383D1*
X-70974Y-224696D1*
X-63100Y-218134D2*
X-60738Y-219446D1*
X-58704Y-220759D1*
X-57125Y-222071D1*
X-55965Y-223383D1*
X-55115Y-224696D1*
X-54528Y-226008D1*
X-54193Y-227320D1*
X-54030Y-228633D1*
X-53958Y-229945D1*
X-53930Y-231257D1*
X-53919Y-232570D1*
X-53915Y-233882D1*
X-53914Y-235194D1*
Y-236507D1*
X-53919Y-237819D1*
X-53965Y-239131D1*
X-54137Y-240444D1*
X-54503Y-241756D1*
X-55063Y-243068D1*
X-55891Y-244381D1*
X-56988Y-245693D1*
X-59475Y-247005D1*
X-62949Y-248318D1*
X-67037Y-249630D1*
X-98533Y-236507D2*
X-99637Y-237819D1*
X-100578Y-239131D1*
X-101378Y-240444D1*
X-102100Y-241756D1*
X-102782Y-243068D1*
X-103449Y-244381D1*
X-104108Y-245693D1*
X-104766Y-247005D1*
X-105422Y-248318D1*
X-106075Y-249630D1*
X-106696Y-250942D1*
X-107243Y-252255D1*
X-107719Y-253567D1*
X-90659Y-236507D2*
Y-237819D1*
Y-239131D1*
Y-240444D1*
Y-241756D1*
Y-243068D1*
Y-244381D1*
Y-245693D1*
Y-247005D1*
Y-248318D1*
Y-249630D1*
Y-250942D1*
Y-252255D1*
Y-253567D1*
X-76223Y-243068D2*
X-75970Y-244381D1*
X-75472Y-245693D1*
X-74761Y-247005D1*
X-73925Y-248318D1*
X-72823Y-249630D1*
X-71249Y-250942D1*
X-69240Y-252255D1*
X-67037Y-253567D1*
X-70974Y-243068D2*
X-70197Y-244381D1*
X-69163Y-245693D1*
X-66702Y-247005D1*
X-63241Y-248318D1*
X-59163Y-249630D1*
X-187772Y-244381D2*
X-188635Y-245693D1*
X-190917Y-247005D1*
X-194268Y-248318D1*
X-198270Y-249630D1*
X-182522Y-244381D2*
X-183026Y-245693D1*
X-183636Y-247005D1*
X-184423Y-248318D1*
X-185471Y-249630D1*
X-186830Y-250942D1*
X-188519Y-252255D1*
X-190396Y-253567D1*
X-236328Y-249630D2*
Y-250942D1*
Y-252255D1*
Y-253567D1*
X-144465Y-249630D2*
Y-250942D1*
Y-252255D1*
Y-253567D1*
X-245383Y-140050D2*
Y-141362D1*
Y-142675D1*
Y-143987D1*
Y-145299D1*
Y-146612D1*
Y-147924D1*
Y-149236D1*
X-245388Y-150549D1*
X-245438Y-151861D1*
X-245641Y-153173D1*
X-246090Y-154486D1*
X-246696Y-155798D1*
X-241446Y-140050D2*
Y-141362D1*
Y-142675D1*
Y-143987D1*
Y-145299D1*
Y-146612D1*
Y-147924D1*
Y-149236D1*
Y-150549D1*
Y-151861D1*
Y-153173D1*
Y-154486D1*
Y-155798D1*
Y-157110D1*
Y-158423D1*
Y-159735D1*
Y-161047D1*
Y-162360D1*
Y-163672D1*
Y-164984D1*
Y-166297D1*
Y-167609D1*
Y-168921D1*
Y-170234D1*
Y-171546D1*
Y-172858D1*
Y-174171D1*
Y-175483D1*
Y-176795D1*
Y-178108D1*
Y-179420D1*
X-198139Y-140050D2*
Y-141362D1*
Y-142675D1*
Y-143987D1*
Y-145299D1*
Y-146612D1*
Y-147924D1*
Y-149236D1*
Y-150549D1*
Y-151861D1*
Y-153173D1*
Y-154486D1*
Y-155798D1*
Y-157110D1*
Y-158423D1*
Y-159735D1*
Y-161047D1*
Y-162360D1*
Y-163672D1*
Y-164984D1*
Y-166297D1*
Y-167609D1*
X-198144Y-168921D1*
X-198206Y-170234D1*
X-198360Y-171546D1*
X-199289Y-172858D1*
X-200597Y-174171D1*
X-201843Y-175483D1*
X-202802Y-176795D1*
X-203137Y-178108D1*
X-203388Y-179420D1*
X-194202Y-140050D2*
Y-141362D1*
Y-142675D1*
Y-143987D1*
Y-145299D1*
Y-146612D1*
Y-147924D1*
Y-149236D1*
Y-150549D1*
Y-151861D1*
Y-153173D1*
Y-154486D1*
Y-155798D1*
Y-157110D1*
Y-158423D1*
Y-159735D1*
Y-161047D1*
Y-162360D1*
Y-163672D1*
Y-164984D1*
Y-166297D1*
Y-167609D1*
Y-168921D1*
Y-170234D1*
Y-171546D1*
X-194207Y-172858D1*
X-194258Y-174171D1*
X-194477Y-175483D1*
X-195005Y-176795D1*
X-195844Y-178108D1*
X-196827Y-179420D1*
X-119399Y-140050D2*
Y-141362D1*
Y-142675D1*
Y-143987D1*
Y-145299D1*
Y-146612D1*
Y-147924D1*
Y-149236D1*
Y-150549D1*
Y-151861D1*
Y-153173D1*
Y-154486D1*
Y-155798D1*
Y-157110D1*
Y-158423D1*
X-119404Y-159735D1*
X-119454Y-161047D1*
X-119657Y-162360D1*
X-120106Y-163672D1*
X-120711Y-164984D1*
X-115462Y-140050D2*
Y-141362D1*
Y-142675D1*
Y-143987D1*
Y-145299D1*
Y-146612D1*
Y-147924D1*
Y-149236D1*
Y-150549D1*
Y-151861D1*
Y-153173D1*
Y-154486D1*
Y-155798D1*
Y-157110D1*
Y-158423D1*
Y-159735D1*
Y-161047D1*
Y-162360D1*
Y-163672D1*
Y-164984D1*
Y-166297D1*
Y-167609D1*
Y-168921D1*
Y-170234D1*
Y-171546D1*
Y-172858D1*
Y-174171D1*
Y-175483D1*
Y-176795D1*
Y-178108D1*
Y-179420D1*
X-76092Y-140050D2*
Y-141362D1*
Y-142675D1*
Y-143987D1*
Y-145299D1*
X-70843D1*
Y-146612D1*
Y-147924D1*
Y-149236D1*
Y-150549D1*
Y-151861D1*
X-76092D1*
Y-153173D1*
Y-154486D1*
Y-155798D1*
Y-157110D1*
X-70843D1*
Y-158423D1*
Y-159735D1*
Y-161047D1*
Y-162360D1*
Y-163672D1*
Y-164984D1*
Y-166297D1*
Y-167609D1*
Y-168921D1*
Y-170234D1*
Y-171546D1*
Y-172858D1*
Y-174171D1*
Y-175483D1*
Y-176795D1*
Y-178108D1*
Y-179420D1*
X-69530Y-140050D2*
X-68426Y-141362D1*
X-67490Y-142675D1*
X-66736Y-143987D1*
X-66186Y-145299D1*
X-65855Y-146612D1*
X-65604Y-147924D1*
X-65200Y-149236D1*
X-64544Y-150549D1*
X-63871Y-151861D1*
X-63358Y-153173D1*
X-63419Y-154486D1*
X-64065Y-155798D1*
X-64724Y-157110D1*
X-65172Y-158423D1*
X-65411Y-159735D1*
X-65521Y-161047D1*
X-65566Y-162360D1*
X-65583Y-163672D1*
X-65590Y-164984D1*
X-65592Y-166297D1*
X-65593Y-167609D1*
Y-168921D1*
Y-170234D1*
Y-171546D1*
Y-172858D1*
Y-174171D1*
Y-175483D1*
Y-176795D1*
Y-178108D1*
Y-179420D1*
X-150895Y-142675D2*
Y-143987D1*
Y-145299D1*
Y-146612D1*
Y-147924D1*
Y-149236D1*
Y-150549D1*
Y-151861D1*
X-154832D1*
Y-153173D1*
Y-154486D1*
Y-155798D1*
Y-157110D1*
X-150895D1*
Y-158423D1*
Y-159735D1*
Y-161047D1*
Y-162360D1*
Y-163672D1*
Y-164984D1*
Y-166297D1*
Y-167609D1*
Y-168921D1*
Y-170234D1*
Y-171546D1*
Y-172858D1*
Y-174171D1*
Y-175483D1*
X-154832D1*
Y-176795D1*
Y-178108D1*
Y-179420D1*
X-145646Y-142675D2*
Y-143987D1*
Y-145299D1*
X-145635Y-146612D1*
X-145543Y-147924D1*
X-145328Y-149236D1*
X-144610Y-150549D1*
X-143925Y-151861D1*
X-143409Y-153173D1*
X-143471Y-154486D1*
X-144117Y-155798D1*
X-144776Y-157110D1*
X-145225Y-158423D1*
X-145463Y-159735D1*
X-145573Y-161047D1*
X-145618Y-162360D1*
X-145636Y-163672D1*
X-145642Y-164984D1*
X-145645Y-166297D1*
Y-167609D1*
X-145646Y-168921D1*
X-145651Y-170234D1*
X-145697Y-171546D1*
X-145869Y-172858D1*
X-146235Y-174171D1*
X-146790Y-175483D1*
X-147548Y-176795D1*
X-148515Y-178108D1*
X-149583Y-179420D1*
X-379241Y-151861D2*
X-381104Y-153173D1*
X-382579Y-154486D1*
X-383596Y-155798D1*
X-384290Y-157110D1*
X-384853Y-158423D1*
X-385295Y-159735D1*
X-385565Y-161047D1*
X-385702Y-162360D1*
X-385764Y-163672D1*
X-385788Y-164984D1*
X-385798Y-166297D1*
X-385801Y-167609D1*
X-385803Y-168921D1*
Y-170234D1*
Y-171546D1*
Y-172858D1*
Y-174171D1*
Y-175483D1*
Y-176795D1*
Y-178108D1*
Y-179420D1*
X-373992Y-151861D2*
X-372020Y-153173D1*
X-370126Y-154486D1*
X-368164Y-155798D1*
X-366118Y-157110D1*
X-362181Y-151861D2*
X-363896Y-153173D1*
X-365250Y-154486D1*
X-366369Y-155798D1*
X-367430Y-157110D1*
X-355619Y-151861D2*
X-354066Y-153173D1*
X-352293Y-154486D1*
X-350370Y-155798D1*
Y-151861D2*
X-350611Y-153173D1*
X-351072Y-154486D1*
X-351682Y-155798D1*
X-346433Y-151861D2*
Y-153173D1*
Y-154486D1*
Y-155798D1*
Y-157110D1*
Y-158423D1*
Y-159735D1*
Y-161047D1*
Y-162360D1*
Y-163672D1*
Y-164984D1*
Y-166297D1*
Y-167609D1*
Y-168921D1*
Y-170234D1*
Y-171546D1*
Y-172858D1*
Y-174171D1*
Y-175483D1*
Y-176795D1*
Y-178108D1*
Y-179420D1*
X-329373Y-151861D2*
X-331286Y-153173D1*
X-332924Y-154486D1*
X-334213Y-155798D1*
X-335124Y-157110D1*
X-335768Y-158423D1*
X-336310Y-159735D1*
X-336743Y-161047D1*
X-337011Y-162360D1*
X-337147Y-163672D1*
X-337202Y-164984D1*
X-337181Y-166297D1*
X-337023Y-167609D1*
X-336712Y-168921D1*
X-336372Y-170234D1*
X-336092Y-171546D1*
X-335752Y-172858D1*
X-335158Y-174171D1*
X-334216Y-175483D1*
X-332907Y-176795D1*
X-331238Y-178108D1*
X-329373Y-179420D1*
X-321499Y-151861D2*
X-319340Y-153173D1*
X-317632Y-154486D1*
X-316392Y-155798D1*
X-315462Y-157110D1*
X-314734Y-158423D1*
X-314203Y-159735D1*
X-313891Y-161047D1*
X-313736Y-162360D1*
X-313668Y-163672D1*
X-313641Y-164984D1*
X-313630Y-166297D1*
X-313632Y-167609D1*
X-313677Y-168921D1*
X-313849Y-170234D1*
X-314209Y-171546D1*
X-314723Y-172858D1*
X-315368Y-174171D1*
X-316263Y-175483D1*
X-317605Y-176795D1*
X-319436Y-178108D1*
X-321499Y-179420D1*
X-301814Y-151861D2*
X-303737Y-153173D1*
X-305455Y-154486D1*
X-307063Y-155798D1*
X-305751Y-157110D1*
X-292627Y-151861D2*
X-290468Y-153173D1*
X-288760Y-154486D1*
X-287520Y-155798D1*
X-286590Y-157110D1*
X-285863Y-158423D1*
X-285331Y-159735D1*
X-285019Y-161047D1*
X-284865Y-162360D1*
X-284797Y-163672D1*
X-284769Y-164984D1*
X-284759Y-166297D1*
X-284760Y-167609D1*
X-284805Y-168921D1*
X-284977Y-170234D1*
X-285343Y-171546D1*
X-285897Y-172858D1*
X-286664Y-174171D1*
X-287705Y-175483D1*
X-289062Y-176795D1*
X-290751Y-178108D1*
X-292627Y-179420D1*
X-257194Y-151861D2*
X-258904Y-153173D1*
X-260217Y-154486D1*
X-261167Y-155798D1*
X-261847Y-157110D1*
X-262370Y-158423D1*
X-262856Y-159735D1*
X-263266Y-161047D1*
X-263525Y-162360D1*
X-263657Y-163672D1*
X-263717Y-164984D1*
X-263736Y-166297D1*
X-263700Y-167609D1*
X-263536Y-168921D1*
X-263217Y-170234D1*
X-262835Y-171546D1*
X-262434Y-172858D1*
X-261942Y-174171D1*
X-261281Y-175483D1*
X-260297Y-176795D1*
X-258872Y-178108D1*
X-257194Y-179420D1*
X-250633Y-151861D2*
X-249079Y-153173D1*
X-247306Y-154486D1*
X-245383Y-155798D1*
X-224386Y-151861D2*
X-226702Y-153173D1*
X-228396Y-154486D1*
X-229578Y-155798D1*
X-230464Y-157110D1*
X-231168Y-158423D1*
X-231689Y-159735D1*
X-231997Y-161047D1*
X-232149Y-162360D1*
X-232217Y-163672D1*
X-232244Y-164984D1*
X-232254Y-166297D1*
X-232258Y-167609D1*
X-232259Y-168921D1*
X-232260Y-170234D1*
Y-171546D1*
Y-172858D1*
Y-174171D1*
Y-175483D1*
Y-176795D1*
Y-178108D1*
Y-179420D1*
X-216512Y-151861D2*
X-214370Y-153173D1*
X-212666Y-154486D1*
X-211262Y-155798D1*
X-213887Y-157110D1*
X-177142Y-151861D2*
X-179458Y-153173D1*
X-181152Y-154486D1*
X-182334Y-155798D1*
X-183220Y-157110D1*
X-183924Y-158423D1*
X-184445Y-159735D1*
X-184752Y-161047D1*
X-184905Y-162360D1*
X-184973Y-163672D1*
X-185000Y-164984D1*
X-185010Y-166297D1*
X-185014Y-167609D1*
X-185015Y-168921D1*
X-185016Y-170234D1*
Y-171546D1*
Y-172858D1*
Y-174171D1*
Y-175483D1*
Y-176795D1*
Y-178108D1*
Y-179420D1*
X-169268Y-151861D2*
X-167126Y-153173D1*
X-165422Y-154486D1*
X-164018Y-155798D1*
X-166643Y-157110D1*
X-137772Y-151861D2*
X-136459Y-153173D1*
X-135152Y-154486D1*
X-133886Y-155798D1*
X-132741Y-157110D1*
X-131743Y-158423D1*
X-130770Y-159735D1*
X-129707Y-161047D1*
X-128585Y-162360D1*
X-129444Y-163672D1*
X-130319Y-164984D1*
X-131211Y-166297D1*
X-132034Y-167609D1*
X-132785Y-168921D1*
X-133525Y-170234D1*
X-134324Y-171546D1*
X-135181Y-172858D1*
X-136028Y-174171D1*
X-136889Y-175483D1*
X-137742Y-176795D1*
X-138467Y-178108D1*
X-139084Y-179420D1*
X-132522Y-151861D2*
X-131210Y-153173D1*
X-129903Y-154486D1*
X-128637Y-155798D1*
X-127491Y-157110D1*
X-126493Y-158423D1*
X-125512Y-159735D1*
X-124379Y-161047D1*
X-122986Y-162360D1*
X-121283Y-163672D1*
X-119399Y-164984D1*
X-98402Y-151861D2*
X-100112Y-153173D1*
X-101430Y-154486D1*
X-102420Y-155798D1*
X-103222Y-157110D1*
X-103892Y-158423D1*
X-104399Y-159735D1*
X-104702Y-161047D1*
X-104854Y-162360D1*
X-104920Y-163672D1*
X-104947Y-164984D1*
X-104958Y-166297D1*
X-104963Y-167609D1*
X-90528Y-151861D2*
X-88615Y-153173D1*
X-86971Y-154486D1*
X-85641Y-155798D1*
X-84609Y-157110D1*
X-83818Y-158423D1*
X-83254Y-159735D1*
X-82928Y-161047D1*
X-82768Y-162360D1*
X-82698Y-163672D1*
X-82670Y-164984D1*
X-82659Y-166297D1*
X-82661Y-167609D1*
X-82705Y-168921D1*
X-82877Y-170234D1*
X-83243Y-171546D1*
X-83798Y-172858D1*
X-84565Y-174171D1*
X-85606Y-175483D1*
X-86962Y-176795D1*
X-88651Y-178108D1*
X-90528Y-179420D1*
X-48533Y-151861D2*
X-50243Y-153173D1*
X-51561Y-154486D1*
X-52552Y-155798D1*
X-53353Y-157110D1*
X-54023Y-158423D1*
X-54531Y-159735D1*
X-54834Y-161047D1*
X-54985Y-162360D1*
X-55052Y-163672D1*
X-55079Y-164984D1*
X-55089Y-166297D1*
X-55094Y-167609D1*
X-40659Y-151861D2*
X-38746Y-153173D1*
X-37103Y-154486D1*
X-35772Y-155798D1*
X-34741Y-157110D1*
X-33949Y-158423D1*
X-33385Y-159735D1*
X-33059Y-161047D1*
X-32899Y-162360D1*
X-32829Y-163672D1*
X-32801Y-164984D1*
X-32791Y-166297D1*
X-32792Y-167609D1*
X-32837Y-168921D1*
X-33009Y-170234D1*
X-33374Y-171546D1*
X-33929Y-172858D1*
X-34696Y-174171D1*
X-35737Y-175483D1*
X-37093Y-176795D1*
X-38782Y-178108D1*
X-40659Y-179420D1*
X-13100Y-151861D2*
X-12646Y-153173D1*
X-12209Y-154486D1*
X-11793Y-155798D1*
X-11350Y-157110D1*
X-10951Y-158423D1*
X-10652Y-159735D1*
X-10354Y-161047D1*
X-9976Y-162360D1*
X-9569Y-163672D1*
X-9163Y-164984D1*
X-8719Y-166297D1*
X-8280Y-167609D1*
X-7860Y-168921D1*
X-7410Y-170234D1*
X-6968Y-171546D1*
X-6548Y-172858D1*
X-6098Y-174171D1*
X-5652Y-175483D1*
X-5195Y-176795D1*
X-4609Y-178108D1*
X-3913Y-179420D1*
X-7850Y-151861D2*
X-7800Y-153173D1*
X-7632Y-154486D1*
X-7318Y-155798D1*
X-6976Y-157110D1*
X-6701Y-158423D1*
X-6412Y-159735D1*
X-6042Y-161047D1*
X-5677Y-162360D1*
X-5394Y-163672D1*
X-5101Y-164984D1*
X-4725Y-166297D1*
X-4315Y-167609D1*
X-3874Y-168921D1*
X-3293Y-170234D1*
X-2601Y-171546D1*
X5273Y-151861D2*
X4617Y-153173D1*
X4072Y-154486D1*
X3562Y-155798D1*
X3094Y-157110D1*
X2664Y-158423D1*
X2210Y-159735D1*
X1767Y-161047D1*
X1341Y-162360D1*
X850Y-163672D1*
X287Y-164984D1*
X-286Y-166297D1*
X-803Y-167609D1*
X-1295Y-168921D1*
X-1897Y-170234D1*
X-2601Y-171546D1*
X7898Y-151861D2*
X8553Y-153173D1*
X9099Y-154486D1*
X9609Y-155798D1*
X10076Y-157110D1*
X10512Y-158423D1*
X11007Y-159735D1*
X11571Y-161047D1*
X12144Y-162360D1*
X12658Y-163672D1*
X13113Y-164984D1*
X13578Y-166297D1*
X14030Y-167609D1*
X14489Y-168921D1*
X15076Y-170234D1*
X15772Y-171546D1*
X21021Y-151861D2*
X20971Y-153173D1*
X20803Y-154486D1*
X20488Y-155798D1*
X20147Y-157110D1*
X19872Y-158423D1*
X19583Y-159735D1*
X19213Y-161047D1*
X18848Y-162360D1*
X18564Y-163672D1*
X18272Y-164984D1*
X17896Y-166297D1*
X17486Y-167609D1*
X17044Y-168921D1*
X16464Y-170234D1*
X15772Y-171546D1*
X26270Y-151861D2*
X25822Y-153173D1*
X25426Y-154486D1*
X25131Y-155798D1*
X24835Y-157110D1*
X24458Y-158423D1*
X24052Y-159735D1*
X23646Y-161047D1*
X23202Y-162360D1*
X22762Y-163672D1*
X22343Y-164984D1*
X21893Y-166297D1*
X21451Y-167609D1*
X21031Y-168921D1*
X20581Y-170234D1*
X20139Y-171546D1*
X19719Y-172858D1*
X19273Y-174171D1*
X18878Y-175483D1*
X18624Y-176795D1*
X18486Y-178108D1*
X18396Y-179420D1*
X31520Y-151861D2*
X31973Y-153173D1*
X32410Y-154486D1*
X32826Y-155798D1*
X33269Y-157110D1*
X33669Y-158423D1*
X33967Y-159735D1*
X34265Y-161047D1*
X34644Y-162360D1*
X35051Y-163672D1*
X35456Y-164984D1*
X35900Y-166297D1*
X36340Y-167609D1*
X36759Y-168921D1*
X37210Y-170234D1*
X37651Y-171546D1*
X38071Y-172858D1*
X38522Y-174171D1*
X38967Y-175483D1*
X39424Y-176795D1*
X40011Y-178108D1*
X40706Y-179420D1*
X36769Y-151861D2*
X36819Y-153173D1*
X36987Y-154486D1*
X37302Y-155798D1*
X37643Y-157110D1*
X37918Y-158423D1*
X38207Y-159735D1*
X38577Y-161047D1*
X38942Y-162360D1*
X39226Y-163672D1*
X39518Y-164984D1*
X39894Y-166297D1*
X40304Y-167609D1*
X40746Y-168921D1*
X41326Y-170234D1*
X42018Y-171546D1*
X49892Y-151861D2*
X49237Y-153173D1*
X48692Y-154486D1*
X48181Y-155798D1*
X47714Y-157110D1*
X47283Y-158423D1*
X46829Y-159735D1*
X46386Y-161047D1*
X45960Y-162360D1*
X45469Y-163672D1*
X44906Y-164984D1*
X44334Y-166297D1*
X43816Y-167609D1*
X43324Y-168921D1*
X42722Y-170234D1*
X42018Y-171546D1*
X52517Y-151861D2*
X53173Y-153173D1*
X53718Y-154486D1*
X54228Y-155798D1*
X54696Y-157110D1*
X55131Y-158423D1*
X55626Y-159735D1*
X56190Y-161047D1*
X56763Y-162360D1*
X57277Y-163672D1*
X57732Y-164984D1*
X58198Y-166297D1*
X58649Y-167609D1*
X59108Y-168921D1*
X59695Y-170234D1*
X60391Y-171546D1*
X65640Y-151861D2*
X65590Y-153173D1*
X65422Y-154486D1*
X65108Y-155798D1*
X64766Y-157110D1*
X64491Y-158423D1*
X64202Y-159735D1*
X63832Y-161047D1*
X63467Y-162360D1*
X63184Y-163672D1*
X62891Y-164984D1*
X62515Y-166297D1*
X62105Y-167609D1*
X61664Y-168921D1*
X61083Y-170234D1*
X60391Y-171546D1*
X70890Y-151861D2*
X70441Y-153173D1*
X70045Y-154486D1*
X69751Y-155798D1*
X69455Y-157110D1*
X69077Y-158423D1*
X68671Y-159735D1*
X68266Y-161047D1*
X67821Y-162360D1*
X67382Y-163672D1*
X66962Y-164984D1*
X66512Y-166297D1*
X66071Y-167609D1*
X65650Y-168921D1*
X65200Y-170234D1*
X64758Y-171546D1*
X64338Y-172858D1*
X63893Y-174171D1*
X63497Y-175483D1*
X63243Y-176795D1*
X63105Y-178108D1*
X63016Y-179420D1*
X76139Y-151861D2*
X76593Y-153173D1*
X77030Y-154486D1*
X77446Y-155798D1*
X77888Y-157110D1*
X78288Y-158423D1*
X78587Y-159735D1*
X78885Y-161047D1*
X79263Y-162360D1*
X79670Y-163672D1*
X80075Y-164984D1*
X80520Y-166297D1*
X80959Y-167609D1*
X81379Y-168921D1*
X81829Y-170234D1*
X82270Y-171546D1*
X82691Y-172858D1*
X83141Y-174171D1*
X83587Y-175483D1*
X84044Y-176795D1*
X84630Y-178108D1*
X85325Y-179420D1*
X81388Y-151861D2*
X81438Y-153173D1*
X81607Y-154486D1*
X81921Y-155798D1*
X82263Y-157110D1*
X82538Y-158423D1*
X82827Y-159735D1*
X83197Y-161047D1*
X83561Y-162360D1*
X83845Y-163672D1*
X84137Y-164984D1*
X84514Y-166297D1*
X84924Y-167609D1*
X85365Y-168921D1*
X85946Y-170234D1*
X86638Y-171546D1*
X94512Y-151861D2*
X93856Y-153173D1*
X93311Y-154486D1*
X92801Y-155798D1*
X92333Y-157110D1*
X91903Y-158423D1*
X91449Y-159735D1*
X91006Y-161047D1*
X90580Y-162360D1*
X90088Y-163672D1*
X89526Y-164984D1*
X88953Y-166297D1*
X88436Y-167609D1*
X87944Y-168921D1*
X87342Y-170234D1*
X86638Y-171546D1*
X97136Y-151861D2*
X97792Y-153173D1*
X98337Y-154486D1*
X98848Y-155798D1*
X99315Y-157110D1*
X99751Y-158423D1*
X100246Y-159735D1*
X100810Y-161047D1*
X101383Y-162360D1*
X101896Y-163672D1*
X102352Y-164984D1*
X102817Y-166297D1*
X103268Y-167609D1*
X103727Y-168921D1*
X104315Y-170234D1*
X105010Y-171546D1*
X110260Y-151861D2*
X110210Y-153173D1*
X110042Y-154486D1*
X109727Y-155798D1*
X109385Y-157110D1*
X109110Y-158423D1*
X108821Y-159735D1*
X108451Y-161047D1*
X108087Y-162360D1*
X107803Y-163672D1*
X107511Y-164984D1*
X107135Y-166297D1*
X106725Y-167609D1*
X106283Y-168921D1*
X105703Y-170234D1*
X105010Y-171546D1*
X115509Y-151861D2*
X115061Y-153173D1*
X114665Y-154486D1*
X114370Y-155798D1*
X114074Y-157110D1*
X113697Y-158423D1*
X113290Y-159735D1*
X112885Y-161047D1*
X112441Y-162360D1*
X112001Y-163672D1*
X111582Y-164984D1*
X111132Y-166297D1*
X110690Y-167609D1*
X110270Y-168921D1*
X109819Y-170234D1*
X109378Y-171546D1*
X108958Y-172858D1*
X108512Y-174171D1*
X108117Y-175483D1*
X107863Y-176795D1*
X107725Y-178108D1*
X107635Y-179420D1*
X-373992Y-155798D2*
X-376304Y-157110D1*
X-378164Y-158423D1*
X-379595Y-159735D1*
X-380092Y-161047D1*
X-380359Y-162360D1*
X-380478Y-163672D1*
X-380526Y-164984D1*
X-380544Y-166297D1*
X-380550Y-167609D1*
X-380553Y-168921D1*
Y-170234D1*
X-380554Y-171546D1*
Y-172858D1*
Y-174171D1*
Y-175483D1*
Y-176795D1*
Y-178108D1*
Y-179420D1*
X-372680Y-155798D2*
X-371423Y-157110D1*
X-370330Y-158423D1*
X-369550Y-159735D1*
X-369107Y-161047D1*
X-368893Y-162360D1*
X-368801Y-163672D1*
X-368764Y-164984D1*
X-368750Y-166297D1*
X-368745Y-167609D1*
X-368744Y-168921D1*
X-368743Y-170234D1*
Y-171546D1*
Y-172858D1*
Y-174171D1*
Y-175483D1*
Y-176795D1*
Y-178108D1*
Y-179420D1*
X-356932Y-155798D2*
X-359243Y-157110D1*
X-361104Y-158423D1*
X-362534Y-159735D1*
X-363032Y-161047D1*
X-363298Y-162360D1*
X-363418Y-163672D1*
X-363466Y-164984D1*
X-363484Y-166297D1*
X-363490Y-167609D1*
X-363492Y-168921D1*
X-363493Y-170234D1*
Y-171546D1*
Y-172858D1*
Y-174171D1*
Y-175483D1*
Y-176795D1*
Y-178108D1*
Y-179420D1*
X-356932Y-155798D2*
X-354773Y-157110D1*
X-353070Y-158423D1*
X-351876Y-159735D1*
X-350982Y-161047D1*
X-350667Y-162360D1*
X-350497Y-163672D1*
X-350420Y-164984D1*
X-350388Y-166297D1*
X-350377Y-167609D1*
X-350372Y-168921D1*
X-350371Y-170234D1*
X-350370Y-171546D1*
Y-172858D1*
Y-174171D1*
Y-175483D1*
Y-176795D1*
Y-178108D1*
Y-179420D1*
X-325436Y-155798D2*
X-327595Y-157110D1*
X-329298Y-158423D1*
X-330491Y-159735D1*
X-331386Y-161047D1*
X-331700Y-162360D1*
X-331871Y-163672D1*
X-331948Y-164984D1*
X-331974Y-166297D1*
X-331940Y-167609D1*
X-331766Y-168921D1*
X-331336Y-170234D1*
X-330674Y-171546D1*
X-328584Y-172858D1*
X-325382Y-174171D1*
X-321499Y-175483D1*
X-325436Y-155798D2*
X-323124Y-157110D1*
X-321264Y-158423D1*
X-319833Y-159735D1*
X-319336Y-161047D1*
X-319069Y-162360D1*
X-318950Y-163672D1*
X-318902Y-164984D1*
X-318884Y-166297D1*
X-318882Y-167609D1*
X-318937Y-168921D1*
X-319074Y-170234D1*
X-319799Y-171546D1*
X-322046Y-172858D1*
X-325379Y-174171D1*
X-329373Y-175483D1*
X-299189Y-155798D2*
X-300501Y-157110D1*
X-296564Y-155798D2*
X-294253Y-157110D1*
X-292392Y-158423D1*
X-290962Y-159735D1*
X-290464Y-161047D1*
X-290198Y-162360D1*
X-290079Y-163672D1*
X-290030Y-164984D1*
X-290012Y-166297D1*
X-290011Y-167609D1*
X-290065Y-168921D1*
X-290203Y-170234D1*
X-290928Y-171546D1*
X-293174Y-172858D1*
X-296508Y-174171D1*
X-300501Y-175483D1*
X-254570Y-155798D2*
X-255827Y-157110D1*
X-256920Y-158423D1*
X-257699Y-159735D1*
X-258142Y-161047D1*
X-258356Y-162360D1*
X-258449Y-163672D1*
X-258485Y-164984D1*
X-258499Y-166297D1*
Y-167609D1*
X-258449Y-168921D1*
X-258327Y-170234D1*
X-257720Y-171546D1*
X-255615Y-172858D1*
X-252229Y-174171D1*
X-248008Y-175483D1*
X-249320Y-155798D2*
X-248216Y-157110D1*
X-247280Y-158423D1*
X-246526Y-159735D1*
X-245976Y-161047D1*
X-245655Y-162360D1*
X-245497Y-163672D1*
X-245427Y-164984D1*
X-245405Y-166297D1*
X-245440Y-167609D1*
X-245609Y-168921D1*
X-245999Y-170234D1*
X-246568Y-171546D1*
X-248077Y-172858D1*
X-251661Y-174171D1*
X-255882Y-175483D1*
X-224386Y-155798D2*
X-225441Y-157110D1*
X-226213Y-158423D1*
X-226682Y-159735D1*
X-227010Y-161047D1*
X-220566Y-162360D1*
X-215885Y-163672D1*
X-212472Y-164984D1*
X-211005Y-166297D1*
X-210450Y-167609D1*
X-210158Y-168921D1*
X-210030Y-170234D1*
X-209984Y-171546D1*
X-210017Y-172858D1*
X-210234Y-174171D1*
X-210655Y-175483D1*
X-211844Y-176795D1*
X-213410Y-178108D1*
X-215199Y-179420D1*
X-217824Y-155798D2*
X-216512Y-157110D1*
X-177142Y-155798D2*
X-178196Y-157110D1*
X-178969Y-158423D1*
X-179438Y-159735D1*
X-179766Y-161047D1*
X-173321Y-162360D1*
X-168641Y-163672D1*
X-165228Y-164984D1*
X-163761Y-166297D1*
X-163206Y-167609D1*
X-162914Y-168921D1*
X-162786Y-170234D1*
X-162740Y-171546D1*
X-162773Y-172858D1*
X-162989Y-174171D1*
X-163411Y-175483D1*
X-164600Y-176795D1*
X-166166Y-178108D1*
X-167955Y-179420D1*
X-170580Y-155798D2*
X-169268Y-157110D1*
X-97089Y-155798D2*
X-98194Y-157110D1*
X-99130Y-158423D1*
X-99897Y-159735D1*
X-100511Y-161047D1*
X-101026Y-162360D1*
X-87903Y-163672D1*
X-91840Y-155798D2*
X-90578Y-157110D1*
X-89434Y-158423D1*
X-88448Y-159735D1*
X-87526Y-161047D1*
X-86591Y-162360D1*
X-98402Y-163672D1*
X-47220Y-155798D2*
X-48325Y-157110D1*
X-49262Y-158423D1*
X-50028Y-159735D1*
X-50642Y-161047D1*
X-51157Y-162360D1*
X-38034Y-163672D1*
X-41971Y-155798D2*
X-40709Y-157110D1*
X-39566Y-158423D1*
X-38579Y-159735D1*
X-37657Y-161047D1*
X-36722Y-162360D1*
X-48533Y-163672D1*
X5273Y-161047D2*
X5070Y-162360D1*
X4740Y-163672D1*
X4354Y-164984D1*
X3957Y-166297D1*
X3515Y-167609D1*
X3077Y-168921D1*
X2653Y-170234D1*
X2162Y-171546D1*
X1599Y-172858D1*
X1027Y-174171D1*
X509Y-175483D1*
X17Y-176795D1*
X-585Y-178108D1*
X-1289Y-179420D1*
X7898Y-161047D2*
X8100Y-162360D1*
X8431Y-163672D1*
X8817Y-164984D1*
X9219Y-166297D1*
X9701Y-167609D1*
X10261Y-168921D1*
X10832Y-170234D1*
X11345Y-171546D1*
X11800Y-172858D1*
X12266Y-174171D1*
X12717Y-175483D1*
X13176Y-176795D1*
X13764Y-178108D1*
X14459Y-179420D1*
X49892Y-161047D2*
X49690Y-162360D1*
X49359Y-163672D1*
X48973Y-164984D1*
X48576Y-166297D1*
X48135Y-167609D1*
X47696Y-168921D1*
X47272Y-170234D1*
X46781Y-171546D1*
X46218Y-172858D1*
X45646Y-174171D1*
X45128Y-175483D1*
X44637Y-176795D1*
X44035Y-178108D1*
X43331Y-179420D1*
X52517Y-161047D2*
X52720Y-162360D1*
X53050Y-163672D1*
X53436Y-164984D1*
X53838Y-166297D1*
X54321Y-167609D1*
X54880Y-168921D1*
X55452Y-170234D1*
X55965Y-171546D1*
X56420Y-172858D1*
X56885Y-174171D1*
X57337Y-175483D1*
X57796Y-176795D1*
X58383Y-178108D1*
X59079Y-179420D1*
X94512Y-161047D2*
X94309Y-162360D1*
X93979Y-163672D1*
X93593Y-164984D1*
X93196Y-166297D1*
X92754Y-167609D1*
X92316Y-168921D1*
X91891Y-170234D1*
X91400Y-171546D1*
X90838Y-172858D1*
X90265Y-174171D1*
X89748Y-175483D1*
X89256Y-176795D1*
X88654Y-178108D1*
X87950Y-179420D1*
X97136Y-161047D2*
X97339Y-162360D1*
X97670Y-163672D1*
X98056Y-164984D1*
X98458Y-166297D1*
X98940Y-167609D1*
X99500Y-168921D1*
X100071Y-170234D1*
X100584Y-171546D1*
X101039Y-172858D1*
X101505Y-174171D1*
X101956Y-175483D1*
X102415Y-176795D1*
X103003Y-178108D1*
X103698Y-179420D1*
X-227010Y-166297D2*
Y-167609D1*
Y-168921D1*
Y-170234D1*
Y-171546D1*
Y-172858D1*
Y-174171D1*
X-216512Y-175483D1*
Y-166297D2*
X-215457Y-167609D1*
X-214695Y-168921D1*
X-214271Y-170234D1*
X-214026Y-171546D1*
X-215923Y-172858D1*
X-220970Y-174171D1*
X-227010Y-175483D1*
X-179766Y-166297D2*
Y-167609D1*
Y-168921D1*
Y-170234D1*
Y-171546D1*
Y-172858D1*
Y-174171D1*
X-169268Y-175483D1*
Y-166297D2*
X-168213Y-167609D1*
X-167451Y-168921D1*
X-167027Y-170234D1*
X-166781Y-171546D1*
X-168679Y-172858D1*
X-173726Y-174171D1*
X-179766Y-175483D1*
X-127273Y-166297D2*
X-127526Y-167609D1*
X-128024Y-168921D1*
X-128725Y-170234D1*
X-129464Y-171546D1*
X-130180Y-172858D1*
X-130907Y-174171D1*
X-131698Y-175483D1*
X-132517Y-176795D1*
X-133226Y-178108D1*
X-133835Y-179420D1*
X-124648Y-166297D2*
X-123341Y-167609D1*
X-122080Y-168921D1*
X-120986Y-170234D1*
X-120207Y-171546D1*
X-119764Y-172858D1*
X-119549Y-174171D1*
X-119457Y-175483D1*
X-119420Y-176795D1*
X-119406Y-178108D1*
X-119399Y-179420D1*
X-85278Y-167609D2*
X-86393Y-168921D1*
X-87452Y-170234D1*
X-88574Y-171546D1*
X-91196Y-172858D1*
X-95064Y-174171D1*
X-99714Y-175483D1*
X-35409Y-167609D2*
X-36524Y-168921D1*
X-37583Y-170234D1*
X-38705Y-171546D1*
X-41327Y-172858D1*
X-45195Y-174171D1*
X-49845Y-175483D1*
X-304438Y-172858D2*
X-305751Y-174171D1*
X-307063Y-175483D1*
X-305268Y-176795D1*
X-303035Y-178108D1*
X-300501Y-179420D1*
X-301814Y-172858D2*
X-297344Y-174171D1*
X-292627Y-175483D1*
X-51157Y-172858D2*
X-53167Y-174171D1*
X-55094Y-175483D1*
X-53080Y-176795D1*
X-50861Y-178108D1*
X-48533Y-179420D1*
X-276879Y-174171D2*
Y-175483D1*
Y-176795D1*
Y-178108D1*
Y-179420D1*
X-271630Y-174171D2*
Y-175483D1*
Y-176795D1*
Y-178108D1*
Y-179420D1*
X-103651Y-174171D2*
X-104963Y-175483D1*
X-102949Y-176795D1*
X-100730Y-178108D1*
X-98402Y-179420D1*
Y-174171D2*
X-97089Y-175483D1*
X-48533Y-174171D2*
X-47220Y-175483D1*
X-24911Y-174171D2*
Y-175483D1*
Y-176795D1*
Y-178108D1*
Y-179420D1*
X-19661Y-174171D2*
Y-175483D1*
Y-176795D1*
Y-178108D1*
Y-179420D1*
X-245383Y-176795D2*
X-248008Y-178108D1*
X-250633Y-179420D1*
X-245383Y-176795D2*
Y-178108D1*
Y-179420D1*
X-225698Y-178108D2*
X-227010Y-179420D1*
X-224386Y-178108D2*
X-223073Y-179420D1*
X-178454Y-178108D2*
X-179766Y-179420D1*
X-177142Y-178108D2*
X-175829Y-179420D1*
X-79364Y556764D2*
D13*
X-80462Y555780D1*
X-81397Y554795D1*
X-82178Y553811D1*
X-82764Y552827D1*
X-83204Y551843D1*
X-83593Y550858D1*
X-83911Y549874D1*
X-84109Y548890D1*
X-84210Y547906D1*
X-84255Y546921D1*
X-84274Y545937D1*
X-84281Y544953D1*
X-84283Y543969D1*
X-84280Y542984D1*
X-84246Y542000D1*
X-84121Y541016D1*
X-83881Y540031D1*
X-83591Y539047D1*
X-83259Y538063D1*
X-82799Y537079D1*
X-82194Y536094D1*
X-81445Y535110D1*
X-80482Y534126D1*
X-79364Y533142D1*
X-74442Y556764D2*
X-73160Y555780D1*
X-72171Y554795D1*
X-71428Y553811D1*
X-70827Y552827D1*
X-70325Y551843D1*
X-69944Y550858D1*
X-69717Y549874D1*
X-69603Y548890D1*
X-69553Y547906D1*
X-69533Y546921D1*
X-69525Y545937D1*
X-69522Y544953D1*
X-69521Y543969D1*
Y542984D1*
X-69525Y542000D1*
X-69559Y541016D1*
X-69689Y540031D1*
X-69959Y539047D1*
X-70341Y538063D1*
X-70790Y537079D1*
X-71335Y536094D1*
X-72098Y535110D1*
X-73178Y534126D1*
X-74442Y533142D1*
X-60663Y556764D2*
X-62060Y555780D1*
X-63166Y554795D1*
X-63928Y553811D1*
X-64446Y552827D1*
X-64833Y551843D1*
X-65129Y550858D1*
X-65025Y549874D1*
X-64820Y548890D1*
X-64526Y547906D1*
X-64053Y546921D1*
X-63366Y545937D1*
X-62527Y544953D1*
X-61607Y543969D1*
X-60648Y542984D1*
X-59673Y542000D1*
X-58692Y541016D1*
X-57709Y540031D1*
X-56726Y539047D1*
X-55741Y538063D1*
X-54757Y537079D1*
X-53773Y536094D1*
X-52789Y535110D1*
X-55741Y556764D2*
X-54307Y555780D1*
X-53078Y554795D1*
X-52115Y553811D1*
X-51358Y552827D1*
X-51055Y551843D1*
X-50820Y550858D1*
X-41962Y556764D2*
X-43060Y555780D1*
X-43996Y554795D1*
X-44776Y553811D1*
X-45363Y552827D1*
X-45803Y551843D1*
X-46191Y550858D1*
X-46509Y549874D1*
X-46707Y548890D1*
X-46808Y547906D1*
X-46854Y546921D1*
X-46872Y545937D1*
X-46879Y544953D1*
X-46882Y543969D1*
X-46879Y542984D1*
X-46845Y542000D1*
X-46719Y541016D1*
X-46480Y540031D1*
X-46189Y539047D1*
X-45857Y538063D1*
X-45397Y537079D1*
X-44792Y536094D1*
X-44043Y535110D1*
X-43081Y534126D1*
X-41962Y533142D1*
X-37041Y556764D2*
X-35758Y555780D1*
X-34770Y554795D1*
X-34027Y553811D1*
X-33425Y552827D1*
X-32923Y551843D1*
X-32542Y550858D1*
X-32315Y549874D1*
X-32202Y548890D1*
X-32152Y547906D1*
X-32131Y546921D1*
X-32124Y545937D1*
X-32121Y544953D1*
X-32120Y543969D1*
Y542984D1*
X-32123Y542000D1*
X-32158Y541016D1*
X-32287Y540031D1*
X-32557Y539047D1*
X-32939Y538063D1*
X-33389Y537079D1*
X-33934Y536094D1*
X-34696Y535110D1*
X-35776Y534126D1*
X-37041Y533142D1*
X-23261Y556764D2*
X-24658Y555780D1*
X-25765Y554795D1*
X-26527Y553811D1*
X-27044Y552827D1*
X-27431Y551843D1*
X-27727Y550858D1*
X-27623Y549874D1*
X-27418Y548890D1*
X-27124Y547906D1*
X-26651Y546921D1*
X-25964Y545937D1*
X-25126Y544953D1*
X-24205Y543969D1*
X-23246Y542984D1*
X-22272Y542000D1*
X-21291Y541016D1*
X-20308Y540031D1*
X-19324Y539047D1*
X-18340Y538063D1*
X-17356Y537079D1*
X-16371Y536094D1*
X-15387Y535110D1*
X-18340Y556764D2*
X-16905Y555780D1*
X-15677Y554795D1*
X-14713Y553811D1*
X-13956Y552827D1*
X-13654Y551843D1*
X-13419Y550858D1*
X361Y556764D2*
X513Y555780D1*
X761Y554795D1*
X1050Y553811D1*
X1352Y552827D1*
X1714Y551843D1*
X2133Y550858D1*
X2562Y549874D1*
X2947Y548890D1*
X3288Y547906D1*
X3637Y546921D1*
X3973Y545937D1*
X4293Y544953D1*
X4662Y543969D1*
X5085Y542984D1*
X5514Y542000D1*
X5899Y541016D1*
X6245Y540031D1*
X6624Y539047D1*
X7051Y538063D1*
X7482Y537079D1*
X7871Y536094D1*
X8240Y535110D1*
X8691Y534126D1*
X9219Y533142D1*
X15125Y556764D2*
Y555780D1*
Y554795D1*
X23983Y556764D2*
X22885Y555780D1*
X21949Y554795D1*
X21168Y553811D1*
X20582Y552827D1*
X20142Y551843D1*
X19754Y550858D1*
X19436Y549874D1*
X19238Y548890D1*
X19136Y547906D1*
X19091Y546921D1*
X19073Y545937D1*
X19066Y544953D1*
X19063Y543969D1*
X19066Y542984D1*
X19100Y542000D1*
X19226Y541016D1*
X19465Y540031D1*
X19756Y539047D1*
X20088Y538063D1*
X20548Y537079D1*
X21153Y536094D1*
X21902Y535110D1*
X22864Y534126D1*
X23983Y533142D1*
X28904Y556764D2*
X30187Y555780D1*
X31175Y554795D1*
X31918Y553811D1*
X32519Y552827D1*
X33022Y551843D1*
X33403Y550858D1*
X33630Y549874D1*
X33743Y548890D1*
X33793Y547906D1*
X33814Y546921D1*
X33821Y545937D1*
X33824Y544953D1*
X33825Y543969D1*
Y542984D1*
X33822Y542000D1*
X33787Y541016D1*
X33658Y540031D1*
X33387Y539047D1*
X33006Y538063D1*
X32556Y537079D1*
X32011Y536094D1*
X31249Y535110D1*
X30169Y534126D1*
X28904Y533142D1*
X61385Y556764D2*
Y555780D1*
Y554795D1*
Y553811D1*
Y552827D1*
Y551843D1*
Y550858D1*
Y549874D1*
Y548890D1*
Y547906D1*
Y546921D1*
Y545937D1*
Y544953D1*
Y543969D1*
Y542984D1*
Y542000D1*
Y541016D1*
Y540031D1*
Y539047D1*
Y538063D1*
Y537079D1*
Y536094D1*
Y535110D1*
Y534126D1*
Y533142D1*
Y532157D1*
Y531173D1*
Y530189D1*
Y529205D1*
Y528220D1*
Y527236D1*
Y526252D1*
X63353Y556764D2*
Y555780D1*
Y554795D1*
Y553811D1*
Y552827D1*
Y551843D1*
Y550858D1*
Y549874D1*
Y548890D1*
Y547906D1*
Y546921D1*
Y545937D1*
Y544953D1*
Y543969D1*
Y542984D1*
Y542000D1*
Y541016D1*
Y540031D1*
Y539047D1*
Y538063D1*
Y537079D1*
Y536094D1*
Y535110D1*
Y534126D1*
Y533142D1*
Y532157D1*
Y531173D1*
Y530189D1*
Y529205D1*
Y528220D1*
Y527236D1*
Y526252D1*
X94849Y556764D2*
X93452Y555780D1*
X92346Y554795D1*
X91584Y553811D1*
X91066Y552827D1*
X90679Y551843D1*
X90383Y550858D1*
X90487Y549874D1*
X90692Y548890D1*
X90986Y547906D1*
X91459Y546921D1*
X92146Y545937D1*
X92984Y544953D1*
X93905Y543969D1*
X94864Y542984D1*
X95839Y542000D1*
X96819Y541016D1*
X97802Y540031D1*
X98786Y539047D1*
X99770Y538063D1*
X100755Y537079D1*
X101739Y536094D1*
X102723Y535110D1*
X99770Y556764D2*
X101205Y555780D1*
X102434Y554795D1*
X103397Y553811D1*
X104154Y552827D1*
X104456Y551843D1*
X104692Y550858D1*
X123392Y556764D2*
Y555780D1*
Y554795D1*
Y553811D1*
Y552827D1*
Y551843D1*
Y550858D1*
Y549874D1*
Y548890D1*
Y547906D1*
Y546921D1*
Y545937D1*
Y544953D1*
Y543969D1*
Y542984D1*
Y542000D1*
Y541016D1*
Y540031D1*
Y539047D1*
Y538063D1*
Y537079D1*
Y536094D1*
Y535110D1*
Y534126D1*
Y533142D1*
X125361Y556764D2*
X125507Y555780D1*
X126023Y554795D1*
X127258Y553811D1*
X128677Y552827D1*
X129886Y551843D1*
X130684Y550858D1*
X131266Y549874D1*
X136188Y556764D2*
X136562Y555780D1*
X136981Y554795D1*
X137407Y553811D1*
X137790Y552827D1*
X138131Y551843D1*
X138480Y550858D1*
X138815Y549874D1*
X139136Y548890D1*
X139505Y547906D1*
X139927Y546921D1*
X140357Y545937D1*
X140742Y544953D1*
X141087Y543969D1*
X141467Y542984D1*
X141893Y542000D1*
X142324Y541016D1*
X142710Y540031D1*
X143052Y539047D1*
X143401Y538063D1*
X143736Y537079D1*
X144054Y536094D1*
X144397Y535110D1*
X144736Y534126D1*
X145046Y533142D1*
X139140Y556764D2*
X139293Y555780D1*
X139540Y554795D1*
X139830Y553811D1*
X140131Y552827D1*
X140493Y551843D1*
X140913Y550858D1*
X141341Y549874D1*
X141726Y548890D1*
X142068Y547906D1*
X142417Y546921D1*
X142752Y545937D1*
X143069Y544953D1*
X143407Y543969D1*
X143739Y542984D1*
X144058Y542000D1*
X144434Y541016D1*
X144932Y540031D1*
X145671Y539047D1*
X146740Y538063D1*
X147999Y537079D1*
X154888Y556764D2*
X154397Y555780D1*
X153988Y554795D1*
X153605Y553811D1*
X153255Y552827D1*
X152928Y551843D1*
X152557Y550858D1*
X152134Y549874D1*
X151704Y548890D1*
X151319Y547906D1*
X150977Y546921D1*
X150628Y545937D1*
X150292Y544953D1*
X149976Y543969D1*
X149637Y542984D1*
X149306Y542000D1*
X148987Y541016D1*
X148615Y540031D1*
X148164Y539047D1*
X147622Y538063D1*
X147014Y537079D1*
X156857Y556764D2*
X156701Y555780D1*
X156422Y554795D1*
X156042Y553811D1*
X155630Y552827D1*
X155252Y551843D1*
X154913Y550858D1*
X154565Y549874D1*
X154229Y548890D1*
X153909Y547906D1*
X153540Y546921D1*
X153117Y545937D1*
X152688Y544953D1*
X152303Y543969D1*
X151958Y542984D1*
X151578Y542000D1*
X151151Y541016D1*
X150720Y540031D1*
X150335Y539047D1*
X149993Y538063D1*
X149644Y537079D1*
X149305Y536094D1*
X148961Y535110D1*
X148520Y534126D1*
X147999Y533142D1*
X179495Y556764D2*
Y555780D1*
Y554795D1*
Y553811D1*
Y552827D1*
Y551843D1*
Y550858D1*
Y549874D1*
Y548890D1*
Y547906D1*
Y546921D1*
Y545937D1*
Y544953D1*
Y543969D1*
Y542984D1*
Y542000D1*
Y541016D1*
Y540031D1*
Y539047D1*
Y538063D1*
Y537079D1*
Y536094D1*
Y535110D1*
Y534126D1*
Y533142D1*
X182448Y556764D2*
Y555780D1*
Y554795D1*
Y553811D1*
Y552827D1*
Y551843D1*
Y550858D1*
Y549874D1*
Y548890D1*
Y547906D1*
Y546921D1*
Y545937D1*
Y544953D1*
Y543969D1*
Y542984D1*
Y542000D1*
Y541016D1*
Y540031D1*
Y539047D1*
Y538063D1*
Y537079D1*
Y536094D1*
Y535110D1*
Y534126D1*
Y533142D1*
X188353Y556764D2*
Y555780D1*
Y554795D1*
Y553811D1*
Y552827D1*
Y551843D1*
Y550858D1*
Y549874D1*
Y548890D1*
Y547906D1*
Y546921D1*
Y545937D1*
Y544953D1*
Y543969D1*
Y542984D1*
Y542000D1*
Y541016D1*
Y540031D1*
Y539047D1*
Y538063D1*
Y537079D1*
Y536094D1*
Y535110D1*
Y534126D1*
Y533142D1*
X191306Y556764D2*
Y555780D1*
Y554795D1*
Y553811D1*
Y552827D1*
Y551843D1*
Y550858D1*
Y549874D1*
Y548890D1*
Y547906D1*
Y546921D1*
Y545937D1*
Y544953D1*
Y543969D1*
X191310Y542984D1*
X191347Y542000D1*
X191499Y541016D1*
X191836Y540031D1*
X192290Y539047D1*
X204101Y556764D2*
X203457Y555780D1*
X202800Y554795D1*
X202128Y553811D1*
X201480Y552827D1*
X200826Y551843D1*
X200161Y550858D1*
X199545Y549874D1*
X198982Y548890D1*
X198428Y547906D1*
X197829Y546921D1*
X197186Y545937D1*
X196550Y544953D1*
X195902Y543969D1*
X195231Y542984D1*
X194544Y542000D1*
X193707Y541016D1*
X192591Y540031D1*
X191306Y539047D1*
X207054Y556764D2*
Y555780D1*
Y554795D1*
Y553811D1*
Y552827D1*
Y551843D1*
Y550858D1*
Y549874D1*
Y548890D1*
Y547906D1*
Y546921D1*
Y545937D1*
Y544953D1*
Y543969D1*
Y542984D1*
Y542000D1*
Y541016D1*
Y540031D1*
Y539047D1*
Y538063D1*
Y537079D1*
Y536094D1*
Y535110D1*
Y534126D1*
Y533142D1*
X212959Y556764D2*
Y555780D1*
Y554795D1*
Y553811D1*
Y552827D1*
Y551843D1*
Y550858D1*
Y549874D1*
Y548890D1*
Y547906D1*
Y546921D1*
Y545937D1*
Y544953D1*
Y543969D1*
X212963Y542984D1*
X212998Y542000D1*
X213123Y541016D1*
X213363Y540031D1*
X213654Y539047D1*
X213989Y538063D1*
X214484Y537079D1*
X215215Y536094D1*
X216208Y535110D1*
X217463Y534126D1*
X218865Y533142D1*
X215912Y556764D2*
Y555780D1*
Y554795D1*
Y553811D1*
Y552827D1*
Y551843D1*
Y550858D1*
Y549874D1*
Y548890D1*
Y547906D1*
Y546921D1*
Y545937D1*
Y544953D1*
Y543969D1*
Y542984D1*
X215916Y542000D1*
X215951Y541016D1*
X216084Y540031D1*
X216322Y539047D1*
X216951Y538063D1*
X219033Y537079D1*
X222458Y536094D1*
X226739Y535110D1*
X229692Y556764D2*
Y555780D1*
Y554795D1*
Y553811D1*
Y552827D1*
Y551843D1*
Y550858D1*
Y549874D1*
Y548890D1*
Y547906D1*
Y546921D1*
Y545937D1*
X229688Y544953D1*
X229653Y543969D1*
X229528Y542984D1*
X229292Y542000D1*
X229036Y541016D1*
X228822Y540031D1*
X228607Y539047D1*
X227985Y538063D1*
X225776Y537079D1*
X222247Y536094D1*
X217881Y535110D1*
X231660Y556764D2*
Y555780D1*
Y554795D1*
Y553811D1*
Y552827D1*
Y551843D1*
Y550858D1*
Y549874D1*
Y548890D1*
Y547906D1*
Y546921D1*
Y545937D1*
Y544953D1*
Y543969D1*
Y542984D1*
X231656Y542000D1*
X231622Y541016D1*
X231492Y540031D1*
X231222Y539047D1*
X230837Y538063D1*
X230352Y537079D1*
X229681Y536094D1*
X228675Y535110D1*
X227302Y534126D1*
X225755Y533142D1*
X263156Y556764D2*
X261419Y555780D1*
X259985Y554795D1*
X258911Y553811D1*
X258057Y552827D1*
X257336Y551843D1*
X256780Y550858D1*
X256354Y549874D1*
X255971Y548890D1*
X255655Y547906D1*
X255458Y546921D1*
X255357Y545937D1*
X255315Y544953D1*
X255332Y543969D1*
X255450Y542984D1*
X255687Y542000D1*
X255977Y541016D1*
X256308Y540031D1*
X256768Y539047D1*
X257371Y538063D1*
X258106Y537079D1*
X259048Y536094D1*
X260242Y535110D1*
X261643Y534126D1*
X263156Y533142D1*
X270046Y556764D2*
X271817Y555780D1*
X273342Y554795D1*
X274527Y553811D1*
X275401Y552827D1*
X276073Y551843D1*
X276639Y550858D1*
X277126Y549874D1*
X277500Y548890D1*
X277726Y547906D1*
X277838Y546921D1*
X277888Y545937D1*
X277908Y544953D1*
X277912Y543969D1*
X277880Y542984D1*
X277752Y542000D1*
X277482Y541016D1*
X277100Y540031D1*
X276654Y539047D1*
X276143Y538063D1*
X275492Y537079D1*
X274567Y536094D1*
X273300Y535110D1*
X271737Y534126D1*
X270046Y533142D1*
X282841Y556764D2*
Y555780D1*
Y554795D1*
Y553811D1*
Y552827D1*
Y551843D1*
Y550858D1*
Y549874D1*
Y548890D1*
Y547906D1*
Y546921D1*
Y545937D1*
Y544953D1*
Y543969D1*
Y542984D1*
Y542000D1*
Y541016D1*
Y540031D1*
Y539047D1*
Y538063D1*
Y537079D1*
Y536094D1*
Y535110D1*
Y534126D1*
Y533142D1*
X285794Y556764D2*
Y555780D1*
Y554795D1*
Y553811D1*
Y552827D1*
Y551843D1*
Y550858D1*
Y549874D1*
Y548890D1*
Y547906D1*
Y546921D1*
Y545937D1*
Y544953D1*
Y543969D1*
X285798Y542984D1*
X285835Y542000D1*
X285987Y541016D1*
X286324Y540031D1*
X286778Y539047D1*
X298589Y556764D2*
X297945Y555780D1*
X297289Y554795D1*
X296616Y553811D1*
X295968Y552827D1*
X295314Y551843D1*
X294649Y550858D1*
X294033Y549874D1*
X293471Y548890D1*
X292916Y547906D1*
X292317Y546921D1*
X291674Y545937D1*
X291039Y544953D1*
X290390Y543969D1*
X289719Y542984D1*
X289032Y542000D1*
X288195Y541016D1*
X287079Y540031D1*
X285794Y539047D1*
X301542Y556764D2*
Y555780D1*
Y554795D1*
Y553811D1*
Y552827D1*
Y551843D1*
Y550858D1*
Y549874D1*
Y548890D1*
Y547906D1*
Y546921D1*
Y545937D1*
Y544953D1*
Y543969D1*
Y542984D1*
Y542000D1*
Y541016D1*
Y540031D1*
Y539047D1*
Y538063D1*
Y537079D1*
Y536094D1*
Y535110D1*
Y534126D1*
Y533142D1*
X314337Y556764D2*
X314181Y555780D1*
X313903Y554795D1*
X313522Y553811D1*
X313110Y552827D1*
X312732Y551843D1*
X312389Y550858D1*
X312010Y549874D1*
X311584Y548890D1*
X311153Y547906D1*
X310768Y546921D1*
X310422Y545937D1*
X310042Y544953D1*
X309616Y543969D1*
X309185Y542984D1*
X308799Y542000D1*
X308454Y541016D1*
X308074Y540031D1*
X307647Y539047D1*
X307216Y538063D1*
X306831Y537079D1*
X306488Y536094D1*
X306135Y535110D1*
X305791Y534126D1*
X305479Y533142D1*
X317290Y556764D2*
X317896Y555780D1*
X318427Y554795D1*
X318860Y553811D1*
X319225Y552827D1*
X319612Y551843D1*
X320041Y550858D1*
X320473Y549874D1*
X320860Y548890D1*
X321201Y547906D1*
X321550Y546921D1*
X321886Y545937D1*
X322207Y544953D1*
X322576Y543969D1*
X322998Y542984D1*
X323428Y542000D1*
X323813Y541016D1*
X324154Y540031D1*
X324503Y539047D1*
X324839Y538063D1*
X325159Y537079D1*
X325532Y536094D1*
X325983Y535110D1*
X326525Y534126D1*
X327133Y533142D1*
X330085Y556764D2*
Y555780D1*
Y554795D1*
Y553811D1*
Y552827D1*
Y551843D1*
Y550858D1*
Y549874D1*
Y548890D1*
Y547906D1*
Y546921D1*
Y545937D1*
Y544953D1*
Y543969D1*
Y542984D1*
Y542000D1*
Y541016D1*
Y540031D1*
Y539047D1*
Y538063D1*
Y537079D1*
Y536094D1*
Y535110D1*
Y534126D1*
Y533142D1*
X333038Y556764D2*
Y555780D1*
Y554795D1*
Y553811D1*
Y552827D1*
Y551843D1*
Y550858D1*
Y549874D1*
Y548890D1*
Y547906D1*
Y546921D1*
Y545937D1*
Y544953D1*
Y543969D1*
X333042Y542984D1*
X333079Y542000D1*
X333231Y541016D1*
X333568Y540031D1*
X334022Y539047D1*
X345833Y556764D2*
X345189Y555780D1*
X344533Y554795D1*
X343860Y553811D1*
X343212Y552827D1*
X342558Y551843D1*
X341893Y550858D1*
X341277Y549874D1*
X340715Y548890D1*
X340160Y547906D1*
X339561Y546921D1*
X338918Y545937D1*
X338283Y544953D1*
X337634Y543969D1*
X336963Y542984D1*
X336276Y542000D1*
X335439Y541016D1*
X334323Y540031D1*
X333038Y539047D1*
X348786Y556764D2*
Y555780D1*
Y554795D1*
Y553811D1*
Y552827D1*
Y551843D1*
Y550858D1*
Y549874D1*
Y548890D1*
Y547906D1*
Y546921D1*
Y545937D1*
Y544953D1*
Y543969D1*
Y542984D1*
Y542000D1*
Y541016D1*
Y540031D1*
Y539047D1*
Y538063D1*
Y537079D1*
Y536094D1*
Y535110D1*
Y534126D1*
Y533142D1*
X-78379Y554795D2*
X-79322Y553811D1*
X-80142Y552827D1*
X-80726Y551843D1*
X-81059Y550858D1*
X-81223Y549874D1*
X-81327Y548890D1*
X-81480Y547906D1*
X-81722Y546921D1*
X-81944Y545937D1*
X-81991Y544953D1*
X-81847Y543969D1*
X-81637Y542984D1*
X-81482Y542000D1*
X-81394Y541016D1*
X-81316Y540031D1*
X-81120Y539047D1*
X-80759Y538063D1*
X-79351Y537079D1*
X-77152Y536094D1*
X-74442Y535110D1*
X-75427Y554795D2*
X-74484Y553811D1*
X-73660Y552827D1*
X-73041Y551843D1*
X-72583Y550858D1*
X-72187Y549874D1*
X-71865Y548890D1*
X-71666Y547906D1*
X-71564Y546921D1*
X-71519Y545937D1*
X-71500Y544953D1*
X-71497Y543969D1*
X-71529Y542984D1*
X-71654Y542000D1*
X-71893Y541016D1*
X-72184Y540031D1*
X-72535Y539047D1*
X-72999Y538063D1*
X-74433Y537079D1*
X-76645Y536094D1*
X-79364Y535110D1*
X-59678Y554795D2*
X-60621Y553811D1*
X-61441Y552827D1*
X-62026Y551843D1*
X-62354Y550858D1*
X-62480Y549874D1*
X-62420Y548890D1*
X-62173Y547906D1*
X-61764Y546921D1*
X-61161Y545937D1*
X-60294Y544953D1*
X-59193Y543969D1*
X-58009Y542984D1*
X-56874Y542000D1*
X-55806Y541016D1*
X-54783Y540031D1*
X-53787Y539047D1*
X-52831Y538063D1*
X-51973Y537079D1*
X-51262Y536094D1*
X-50684Y535110D1*
X-50223Y534126D1*
X-49836Y533142D1*
X-57710Y554795D2*
X-56087Y553811D1*
X-54776Y552827D1*
X-53735Y551843D1*
X-52789Y550858D1*
X-40978Y554795D2*
X-41921Y553811D1*
X-42740Y552827D1*
X-43325Y551843D1*
X-43657Y550858D1*
X-43821Y549874D1*
X-43925Y548890D1*
X-44078Y547906D1*
X-44321Y546921D1*
X-44542Y545937D1*
X-44590Y544953D1*
X-44446Y543969D1*
X-44235Y542984D1*
X-44081Y542000D1*
X-43992Y541016D1*
X-43914Y540031D1*
X-43719Y539047D1*
X-43358Y538063D1*
X-41950Y537079D1*
X-39751Y536094D1*
X-37041Y535110D1*
X-38025Y554795D2*
X-37082Y553811D1*
X-36259Y552827D1*
X-35639Y551843D1*
X-35182Y550858D1*
X-34785Y549874D1*
X-34464Y548890D1*
X-34264Y547906D1*
X-34163Y546921D1*
X-34117Y545937D1*
X-34099Y544953D1*
X-34096Y543969D1*
X-34128Y542984D1*
X-34252Y542000D1*
X-34492Y541016D1*
X-34782Y540031D1*
X-35133Y539047D1*
X-35597Y538063D1*
X-37031Y537079D1*
X-39244Y536094D1*
X-41962Y535110D1*
X-22277Y554795D2*
X-23220Y553811D1*
X-24039Y552827D1*
X-24624Y551843D1*
X-24952Y550858D1*
X-25078Y549874D1*
X-25018Y548890D1*
X-24772Y547906D1*
X-24362Y546921D1*
X-23760Y545937D1*
X-22892Y544953D1*
X-21792Y543969D1*
X-20607Y542984D1*
X-19473Y542000D1*
X-18405Y541016D1*
X-17382Y540031D1*
X-16385Y539047D1*
X-15429Y538063D1*
X-14572Y537079D1*
X-13860Y536094D1*
X-13283Y535110D1*
X-12821Y534126D1*
X-12434Y533142D1*
X-20308Y554795D2*
X-18686Y553811D1*
X-17375Y552827D1*
X-16334Y551843D1*
X-15387Y550858D1*
X3314Y554795D2*
X3470Y553811D1*
X3748Y552827D1*
X4128Y551843D1*
X4540Y550858D1*
X4919Y549874D1*
X5262Y548890D1*
X5641Y547906D1*
X6067Y546921D1*
X6498Y545937D1*
X6883Y544953D1*
X7229Y543969D1*
X7609Y542984D1*
X8035Y542000D1*
X8466Y541016D1*
X8852Y540031D1*
X9197Y539047D1*
X9577Y538063D1*
X10004Y537079D1*
X10431Y536094D1*
X10785Y535110D1*
X11018Y534126D1*
X11188Y533142D1*
X24967Y554795D2*
X24024Y553811D1*
X23205Y552827D1*
X22620Y551843D1*
X22288Y550858D1*
X22123Y549874D1*
X22020Y548890D1*
X21866Y547906D1*
X21624Y546921D1*
X21403Y545937D1*
X21355Y544953D1*
X21499Y543969D1*
X21710Y542984D1*
X21864Y542000D1*
X21953Y541016D1*
X22030Y540031D1*
X22226Y539047D1*
X22587Y538063D1*
X23995Y537079D1*
X26194Y536094D1*
X28904Y535110D1*
X27920Y554795D2*
X28863Y553811D1*
X29686Y552827D1*
X30305Y551843D1*
X30763Y550858D1*
X31159Y549874D1*
X31481Y548890D1*
X31680Y547906D1*
X31782Y546921D1*
X31827Y545937D1*
X31846Y544953D1*
X31849Y543969D1*
X31817Y542984D1*
X31693Y542000D1*
X31453Y541016D1*
X31163Y540031D1*
X30812Y539047D1*
X30348Y538063D1*
X28914Y537079D1*
X26701Y536094D1*
X23983Y535110D1*
X95833Y554795D2*
X94890Y553811D1*
X94071Y552827D1*
X93486Y551843D1*
X93158Y550858D1*
X93032Y549874D1*
X93092Y548890D1*
X93338Y547906D1*
X93748Y546921D1*
X94350Y545937D1*
X95218Y544953D1*
X96318Y543969D1*
X97503Y542984D1*
X98638Y542000D1*
X99705Y541016D1*
X100728Y540031D1*
X101725Y539047D1*
X102681Y538063D1*
X103538Y537079D1*
X104250Y536094D1*
X104828Y535110D1*
X105289Y534126D1*
X105676Y533142D1*
X97802Y554795D2*
X99424Y553811D1*
X100735Y552827D1*
X101776Y551843D1*
X102723Y550858D1*
X265125Y554795D2*
X263353Y553811D1*
X261828Y552827D1*
X260644Y551843D1*
X259774Y550858D1*
X259136Y549874D1*
X258696Y548890D1*
X258445Y547906D1*
X258322Y546921D1*
X258269Y545937D1*
X258247Y544953D1*
X258243Y543969D1*
X258275Y542984D1*
X258403Y542000D1*
X258677Y541016D1*
X259097Y540031D1*
X259730Y539047D1*
X260587Y538063D1*
X262967Y537079D1*
X266597Y536094D1*
X271030Y535110D1*
X268077Y554795D2*
X269852Y553811D1*
X271409Y552827D1*
X272684Y551843D1*
X273664Y550858D1*
X274428Y549874D1*
X274709Y548890D1*
X274897Y547906D1*
X275117Y546921D1*
X275482Y545937D1*
X275951Y544953D1*
X275497Y543969D1*
X275211Y542984D1*
X275029Y542000D1*
X274802Y541016D1*
X274373Y540031D1*
X273649Y539047D1*
X272697Y538063D1*
X270275Y537079D1*
X266621Y536094D1*
X262172Y535110D1*
X315322Y553811D2*
X315169Y552827D1*
X314922Y551843D1*
X314632Y550858D1*
X314330Y549874D1*
X313969Y548890D1*
X313549Y547906D1*
X313121Y546921D1*
X312733Y545937D1*
X312364Y544953D1*
X311912Y543969D1*
X311385Y542984D1*
X318274Y542000D1*
X317290Y553811D2*
X317442Y552827D1*
X317690Y551843D1*
X317979Y550858D1*
X318277Y549874D1*
X318608Y548890D1*
X318937Y547906D1*
X319251Y546921D1*
X319585Y545937D1*
X319884Y544953D1*
X320090Y543969D1*
X320243Y542984D1*
X312369Y542000D1*
X204101Y551843D2*
X203269Y550858D1*
X202533Y549874D1*
X201838Y548890D1*
X201151Y547906D1*
X200498Y546921D1*
X199843Y545937D1*
X199177Y544953D1*
X198561Y543969D1*
X197998Y542984D1*
X197443Y542000D1*
X196844Y541016D1*
X196201Y540031D1*
X195566Y539047D1*
X194918Y538063D1*
X194250Y537079D1*
X193601Y536094D1*
X192916Y535110D1*
X192137Y534126D1*
X191306Y533142D1*
X205085Y551843D2*
Y550858D1*
Y549874D1*
Y548890D1*
Y547906D1*
Y546921D1*
Y545937D1*
Y544953D1*
Y543969D1*
Y542984D1*
Y542000D1*
Y541016D1*
Y540031D1*
Y539047D1*
Y538063D1*
Y537079D1*
Y536094D1*
Y535110D1*
Y534126D1*
Y533142D1*
X298589Y551843D2*
X297757Y550858D1*
X297021Y549874D1*
X296326Y548890D1*
X295639Y547906D1*
X294986Y546921D1*
X294331Y545937D1*
X293665Y544953D1*
X293049Y543969D1*
X292486Y542984D1*
X291932Y542000D1*
X291332Y541016D1*
X290690Y540031D1*
X290054Y539047D1*
X289406Y538063D1*
X288738Y537079D1*
X288089Y536094D1*
X287404Y535110D1*
X286625Y534126D1*
X285794Y533142D1*
X299573Y551843D2*
Y550858D1*
Y549874D1*
Y548890D1*
Y547906D1*
Y546921D1*
Y545937D1*
Y544953D1*
Y543969D1*
Y542984D1*
Y542000D1*
Y541016D1*
Y540031D1*
Y539047D1*
Y538063D1*
Y537079D1*
Y536094D1*
Y535110D1*
Y534126D1*
Y533142D1*
X345833Y551843D2*
X345001Y550858D1*
X344265Y549874D1*
X343570Y548890D1*
X342884Y547906D1*
X342230Y546921D1*
X341575Y545937D1*
X340909Y544953D1*
X340293Y543969D1*
X339731Y542984D1*
X339176Y542000D1*
X338577Y541016D1*
X337934Y540031D1*
X337298Y539047D1*
X336650Y538063D1*
X335982Y537079D1*
X335333Y536094D1*
X334648Y535110D1*
X333869Y534126D1*
X333038Y533142D1*
X346818Y551843D2*
Y550858D1*
Y549874D1*
Y548890D1*
Y547906D1*
Y546921D1*
Y545937D1*
Y544953D1*
Y543969D1*
Y542984D1*
Y542000D1*
Y541016D1*
Y540031D1*
Y539047D1*
Y538063D1*
Y537079D1*
Y536094D1*
Y535110D1*
Y534126D1*
Y533142D1*
X125361Y550858D2*
Y549874D1*
Y548890D1*
Y547906D1*
Y546921D1*
Y545937D1*
Y544953D1*
Y543969D1*
Y542984D1*
Y542000D1*
Y541016D1*
Y540031D1*
Y539047D1*
Y538063D1*
Y537079D1*
Y536094D1*
Y535110D1*
Y534126D1*
Y533142D1*
X127329Y550858D2*
X128314Y549874D1*
X311385Y540031D2*
X310590Y539047D1*
X309980Y538063D1*
X309525Y537079D1*
X309129Y536094D1*
X308805Y535110D1*
X308590Y534126D1*
X308432Y533142D1*
X322211Y540031D2*
X322363Y539047D1*
X322611Y538063D1*
X322901Y537079D1*
X323199Y536094D1*
X323535Y535110D1*
X323871Y534126D1*
X324180Y533142D1*
X-7513Y536094D2*
Y535110D1*
Y534126D1*
Y533142D1*
X-5545Y536094D2*
Y535110D1*
Y534126D1*
Y533142D1*
X110597Y536094D2*
Y535110D1*
Y534126D1*
Y533142D1*
X112566Y536094D2*
Y535110D1*
Y534126D1*
Y533142D1*
X-65584Y535110D2*
Y534126D1*
Y533142D1*
X-28182Y535110D2*
Y534126D1*
Y533142D1*
X89928Y535110D2*
Y534126D1*
Y533142D1*
X157841Y528220D2*
Y527236D1*
X176542Y528220D2*
Y527236D1*
X234613Y528220D2*
Y527236D1*
X253314Y528220D2*
Y527236D1*
X-481538Y-301139D2*
X-482973Y-302123D1*
X-484201Y-303108D1*
X-485165Y-304092D1*
X-485921Y-305076D1*
X-486198Y-306060D1*
X-486348Y-307045D1*
X-486416Y-308029D1*
X-486443Y-309013D1*
X-486454Y-309997D1*
X-486457Y-310982D1*
X-486459Y-311966D1*
Y-312950D1*
Y-313934D1*
Y-314919D1*
Y-315903D1*
Y-316887D1*
Y-317871D1*
Y-318856D1*
Y-319840D1*
Y-320824D1*
Y-321808D1*
Y-322793D1*
X-486455Y-323777D1*
X-486417Y-324761D1*
X-486253Y-325745D1*
X-485850Y-326730D1*
X-485160Y-327714D1*
X-484185Y-328698D1*
X-482936Y-329682D1*
X-481538Y-330667D1*
X-475633Y-301139D2*
X-474198Y-302123D1*
X-472969Y-303108D1*
X-472006Y-304092D1*
X-471250Y-305076D1*
X-470935Y-306060D1*
X-470659Y-307045D1*
X-470355Y-308029D1*
X-470075Y-309013D1*
X-469893Y-309997D1*
X-469798Y-310982D1*
X-469755Y-311966D1*
X-469738Y-312950D1*
X-469731Y-313934D1*
X-469728Y-314919D1*
X-469727Y-315903D1*
Y-316887D1*
Y-317871D1*
Y-318856D1*
X-469731Y-319840D1*
X-469765Y-320824D1*
X-469891Y-321808D1*
X-470127Y-322793D1*
X-470383Y-323777D1*
X-470593Y-324761D1*
X-470848Y-325745D1*
X-471293Y-326730D1*
X-472000Y-327714D1*
X-472982Y-328698D1*
X-474233Y-329682D1*
X-475633Y-330667D1*
X-461853Y-301139D2*
Y-302123D1*
Y-303108D1*
Y-304092D1*
Y-305076D1*
Y-306060D1*
Y-307045D1*
Y-308029D1*
Y-309013D1*
Y-309997D1*
Y-310982D1*
Y-311966D1*
Y-312950D1*
Y-313934D1*
Y-314919D1*
Y-315903D1*
Y-316887D1*
Y-317871D1*
Y-318856D1*
Y-319840D1*
Y-320824D1*
Y-321808D1*
Y-322793D1*
Y-323777D1*
Y-324761D1*
Y-325745D1*
Y-326730D1*
Y-327714D1*
Y-328698D1*
Y-329682D1*
Y-330667D1*
X-457916Y-301139D2*
X-456518Y-302123D1*
X-455403Y-303108D1*
X-454605Y-304092D1*
X-453979Y-305076D1*
X-433310Y-301139D2*
X-434744Y-302123D1*
X-435973Y-303108D1*
X-436936Y-304092D1*
X-437692Y-305076D1*
X-437969Y-306060D1*
X-438120Y-307045D1*
X-438187Y-308029D1*
X-438215Y-309013D1*
X-438225Y-309997D1*
X-438229Y-310982D1*
X-438230Y-311966D1*
X-438231Y-312950D1*
Y-313934D1*
Y-314919D1*
Y-315903D1*
Y-316887D1*
Y-317871D1*
Y-318856D1*
Y-319840D1*
Y-320824D1*
Y-321808D1*
Y-322793D1*
X-438227Y-323777D1*
X-438189Y-324761D1*
X-438025Y-325745D1*
X-437621Y-326730D1*
X-436932Y-327714D1*
X-435956Y-328698D1*
X-434708Y-329682D1*
X-433310Y-330667D1*
X-427404Y-301139D2*
X-425969Y-302123D1*
X-424741Y-303108D1*
X-423778Y-304092D1*
X-423021Y-305076D1*
X-422707Y-306060D1*
X-422431Y-307045D1*
X-422127Y-308029D1*
X-421847Y-309013D1*
X-421665Y-309997D1*
X-421570Y-310982D1*
X-421527Y-311966D1*
X-421509Y-312950D1*
X-421502Y-313934D1*
X-421500Y-314919D1*
X-421499Y-315903D1*
Y-316887D1*
Y-317871D1*
Y-318856D1*
X-421503Y-319840D1*
X-421537Y-320824D1*
X-421663Y-321808D1*
X-421898Y-322793D1*
X-422155Y-323777D1*
X-422365Y-324761D1*
X-422620Y-325745D1*
X-423065Y-326730D1*
X-423772Y-327714D1*
X-424754Y-328698D1*
X-426005Y-329682D1*
X-427404Y-330667D1*
X-481538Y-303108D2*
X-482481Y-304092D1*
X-483301Y-305076D1*
X-483885Y-306060D1*
X-484217Y-307045D1*
X-484378Y-308029D1*
X-484447Y-309013D1*
X-484475Y-309997D1*
X-484485Y-310982D1*
X-484489Y-311966D1*
X-484490Y-312950D1*
X-484491Y-313934D1*
Y-314919D1*
Y-315903D1*
Y-316887D1*
Y-317871D1*
Y-318856D1*
Y-319840D1*
Y-320824D1*
Y-321808D1*
X-484487Y-322793D1*
X-484449Y-323777D1*
X-484356Y-324761D1*
X-483870Y-325745D1*
X-481949Y-326730D1*
X-478726Y-327714D1*
X-474648Y-328698D1*
X-475633Y-303108D2*
X-474690Y-304092D1*
X-473870Y-305076D1*
X-473286Y-306060D1*
X-472953Y-307045D1*
X-472793Y-308029D1*
X-472723Y-309013D1*
X-472696Y-309997D1*
X-472685Y-310982D1*
X-472682Y-311966D1*
X-472680Y-312950D1*
Y-313934D1*
Y-314919D1*
Y-315903D1*
Y-316887D1*
Y-317871D1*
Y-318856D1*
Y-319840D1*
Y-320824D1*
Y-321808D1*
X-472684Y-322793D1*
X-472722Y-323777D1*
X-472814Y-324761D1*
X-473301Y-325745D1*
X-475222Y-326730D1*
X-478445Y-327714D1*
X-482522Y-328698D1*
X-459885Y-303108D2*
Y-304092D1*
Y-305076D1*
Y-306060D1*
Y-307045D1*
Y-308029D1*
Y-309013D1*
Y-309997D1*
Y-310982D1*
Y-311966D1*
Y-312950D1*
Y-313934D1*
Y-314919D1*
Y-315903D1*
Y-316887D1*
Y-317871D1*
Y-318856D1*
Y-319840D1*
Y-320824D1*
Y-321808D1*
Y-322793D1*
Y-323777D1*
Y-324761D1*
Y-325745D1*
Y-326730D1*
Y-327714D1*
Y-328698D1*
Y-329682D1*
Y-330667D1*
Y-303108D2*
X-457916Y-304092D1*
X-455948Y-305076D1*
X-433310Y-303108D2*
X-434253Y-304092D1*
X-435072Y-305076D1*
X-435657Y-306060D1*
X-435989Y-307045D1*
X-436150Y-308029D1*
X-436219Y-309013D1*
X-436247Y-309997D1*
X-436257Y-310982D1*
X-436261Y-311966D1*
X-436262Y-312950D1*
Y-313934D1*
Y-314919D1*
Y-315903D1*
Y-316887D1*
Y-317871D1*
Y-318856D1*
Y-319840D1*
Y-320824D1*
Y-321808D1*
X-436259Y-322793D1*
X-436220Y-323777D1*
X-436128Y-324761D1*
X-435642Y-325745D1*
X-433720Y-326730D1*
X-430498Y-327714D1*
X-426420Y-328698D1*
X-427404Y-303108D2*
X-426461Y-304092D1*
X-425642Y-305076D1*
X-425057Y-306060D1*
X-424725Y-307045D1*
X-424564Y-308029D1*
X-424495Y-309013D1*
X-424467Y-309997D1*
X-424457Y-310982D1*
X-424453Y-311966D1*
X-424452Y-312950D1*
Y-313934D1*
Y-314919D1*
X-424451Y-315903D1*
Y-316887D1*
Y-317871D1*
Y-318856D1*
Y-319840D1*
Y-320824D1*
Y-321808D1*
X-424455Y-322793D1*
X-424494Y-323777D1*
X-424586Y-324761D1*
X-425072Y-325745D1*
X-426994Y-326730D1*
X-430216Y-327714D1*
X-434294Y-328698D1*
X-448073Y-327714D2*
Y-328698D1*
Y-329682D1*
Y-330667D1*
X-446105Y-327714D2*
X-445647Y-328698D1*
X-445343Y-329682D1*
X-445121Y-330667D1*
X-482719Y-247990D2*
X-484120Y-248974D1*
X-485257Y-249958D1*
X-486110Y-250942D1*
X-486742Y-251927D1*
X-487180Y-252911D1*
X-487431Y-253895D1*
X-487553Y-254879D1*
X-487607Y-255864D1*
X-487628Y-256848D1*
X-487636Y-257832D1*
X-487635Y-258816D1*
X-487601Y-259801D1*
X-487473Y-260785D1*
X-487202Y-261769D1*
X-486821Y-262753D1*
X-486379Y-263738D1*
X-485906Y-264722D1*
X-485422Y-265706D1*
X-484932Y-266690D1*
X-484442Y-267675D1*
X-483949Y-268659D1*
X-483458Y-269643D1*
X-482965Y-270627D1*
X-482473Y-271612D1*
X-481981Y-272596D1*
X-481489Y-273580D1*
X-480999Y-274564D1*
X-480534Y-275549D1*
X-480124Y-276533D1*
X-479766Y-277517D1*
X-476814Y-247990D2*
X-475413Y-248974D1*
X-474276Y-249958D1*
X-473423Y-250942D1*
X-472791Y-251927D1*
X-472353Y-252911D1*
X-472102Y-253895D1*
X-471979Y-254879D1*
X-471926Y-255864D1*
X-471909Y-256848D1*
X-471935Y-257832D1*
X-472062Y-258816D1*
X-472335Y-259801D1*
X-472755Y-260785D1*
X-473380Y-261769D1*
X-474214Y-262753D1*
X-476250Y-263738D1*
X-479198Y-264722D1*
X-482719Y-265706D1*
X-482345Y-266690D1*
X-481922Y-267675D1*
X-481465Y-268659D1*
X-480987Y-269643D1*
X-480502Y-270627D1*
X-480011Y-271612D1*
X-479520Y-272596D1*
X-479028Y-273580D1*
X-478533Y-274564D1*
X-478015Y-275549D1*
X-477441Y-276533D1*
X-476814Y-277517D1*
X-460081Y-247990D2*
X-461516Y-248974D1*
X-462745Y-249958D1*
X-463708Y-250942D1*
X-464464Y-251927D1*
X-464741Y-252911D1*
X-464891Y-253895D1*
X-464959Y-254879D1*
X-464987Y-255864D1*
X-464997Y-256848D1*
X-465001Y-257832D1*
X-465002Y-258816D1*
Y-259801D1*
X-465003Y-260785D1*
Y-261769D1*
Y-262753D1*
Y-263738D1*
Y-264722D1*
Y-265706D1*
Y-266690D1*
Y-267675D1*
Y-268659D1*
Y-269643D1*
X-464999Y-270627D1*
X-464960Y-271612D1*
X-464796Y-272596D1*
X-464393Y-273580D1*
X-463704Y-274564D1*
X-462728Y-275549D1*
X-461479Y-276533D1*
X-460081Y-277517D1*
X-454176Y-247990D2*
X-452741Y-248974D1*
X-451513Y-249958D1*
X-450549Y-250942D1*
X-449793Y-251927D1*
X-449479Y-252911D1*
X-449202Y-253895D1*
X-448899Y-254879D1*
X-448619Y-255864D1*
X-448437Y-256848D1*
X-448342Y-257832D1*
X-448299Y-258816D1*
X-448281Y-259801D1*
X-448274Y-260785D1*
X-448272Y-261769D1*
X-448271Y-262753D1*
X-448270Y-263738D1*
Y-264722D1*
Y-265706D1*
X-448274Y-266690D1*
X-448309Y-267675D1*
X-448434Y-268659D1*
X-448670Y-269643D1*
X-448926Y-270627D1*
X-449136Y-271612D1*
X-449391Y-272596D1*
X-449837Y-273580D1*
X-450543Y-274564D1*
X-451525Y-275549D1*
X-452777Y-276533D1*
X-454176Y-277517D1*
X-426617Y-247990D2*
X-428052Y-248974D1*
X-429280Y-249958D1*
X-430243Y-250942D1*
X-431000Y-251927D1*
X-431277Y-252911D1*
X-431427Y-253895D1*
X-431494Y-254879D1*
X-431522Y-255864D1*
X-431532Y-256848D1*
X-431536Y-257832D1*
X-431537Y-258816D1*
X-431538Y-259801D1*
Y-260785D1*
Y-261769D1*
Y-262753D1*
Y-263738D1*
Y-264722D1*
Y-265706D1*
Y-266690D1*
Y-267675D1*
Y-268659D1*
Y-269643D1*
X-431534Y-270627D1*
X-431496Y-271612D1*
X-431332Y-272596D1*
X-430928Y-273580D1*
X-430239Y-274564D1*
X-429264Y-275549D1*
X-428015Y-276533D1*
X-426617Y-277517D1*
X-420711Y-247990D2*
X-419277Y-248974D1*
X-418048Y-249958D1*
X-417085Y-250942D1*
X-416328Y-251927D1*
X-416014Y-252911D1*
X-415738Y-253895D1*
X-415434Y-254879D1*
X-415154Y-255864D1*
X-414972Y-256848D1*
X-414877Y-257832D1*
X-414834Y-258816D1*
X-414816Y-259801D1*
X-414810Y-260785D1*
X-414807Y-261769D1*
X-414806Y-262753D1*
Y-263738D1*
Y-264722D1*
Y-265706D1*
X-414810Y-266690D1*
X-414844Y-267675D1*
X-414970Y-268659D1*
X-415205Y-269643D1*
X-415462Y-270627D1*
X-415672Y-271612D1*
X-415927Y-272596D1*
X-416372Y-273580D1*
X-417079Y-274564D1*
X-418061Y-275549D1*
X-419312Y-276533D1*
X-420711Y-277517D1*
X-480751Y-249958D2*
X-482370Y-250942D1*
X-483647Y-251927D1*
X-484542Y-252911D1*
X-485213Y-253895D1*
X-485449Y-254879D1*
X-485573Y-255864D1*
X-485596Y-256848D1*
X-485487Y-257832D1*
X-485260Y-258816D1*
X-484648Y-259801D1*
X-482738Y-260785D1*
X-479654Y-261769D1*
X-475829Y-262753D1*
X-477798Y-249958D2*
X-476817Y-250942D1*
X-475872Y-251927D1*
X-475051Y-252911D1*
X-474467Y-253895D1*
X-474134Y-254879D1*
X-473978Y-255864D1*
X-473947Y-256848D1*
X-474083Y-257832D1*
X-474377Y-258816D1*
X-475299Y-259801D1*
X-476903Y-260785D1*
X-479502Y-261769D1*
X-482719Y-262753D1*
X-460081Y-249958D2*
X-461024Y-250942D1*
X-461844Y-251927D1*
X-462428Y-252911D1*
X-462761Y-253895D1*
X-462921Y-254879D1*
X-462991Y-255864D1*
X-463018Y-256848D1*
X-463029Y-257832D1*
X-463032Y-258816D1*
X-463033Y-259801D1*
X-463034Y-260785D1*
Y-261769D1*
Y-262753D1*
Y-263738D1*
Y-264722D1*
Y-265706D1*
Y-266690D1*
Y-267675D1*
Y-268659D1*
X-463030Y-269643D1*
X-462992Y-270627D1*
X-462900Y-271612D1*
X-462413Y-272596D1*
X-460492Y-273580D1*
X-457269Y-274564D1*
X-453192Y-275549D1*
X-454176Y-249958D2*
X-453233Y-250942D1*
X-452413Y-251927D1*
X-451829Y-252911D1*
X-451497Y-253895D1*
X-451336Y-254879D1*
X-451267Y-255864D1*
X-451239Y-256848D1*
X-451229Y-257832D1*
X-451225Y-258816D1*
X-451224Y-259801D1*
X-451223Y-260785D1*
Y-261769D1*
Y-262753D1*
Y-263738D1*
Y-264722D1*
Y-265706D1*
Y-266690D1*
Y-267675D1*
Y-268659D1*
X-451227Y-269643D1*
X-451265Y-270627D1*
X-451358Y-271612D1*
X-451844Y-272596D1*
X-453765Y-273580D1*
X-456988Y-274564D1*
X-461066Y-275549D1*
X-426617Y-249958D2*
X-427560Y-250942D1*
X-428379Y-251927D1*
X-428964Y-252911D1*
X-429296Y-253895D1*
X-429457Y-254879D1*
X-429526Y-255864D1*
X-429554Y-256848D1*
X-429564Y-257832D1*
X-429568Y-258816D1*
X-429569Y-259801D1*
Y-260785D1*
Y-261769D1*
X-429570Y-262753D1*
Y-263738D1*
Y-264722D1*
Y-265706D1*
Y-266690D1*
Y-267675D1*
Y-268659D1*
X-429566Y-269643D1*
X-429527Y-270627D1*
X-429435Y-271612D1*
X-428949Y-272596D1*
X-427027Y-273580D1*
X-423805Y-274564D1*
X-419727Y-275549D1*
X-420711Y-249958D2*
X-419768Y-250942D1*
X-418949Y-251927D1*
X-418364Y-252911D1*
X-418032Y-253895D1*
X-417871Y-254879D1*
X-417802Y-255864D1*
X-417774Y-256848D1*
X-417764Y-257832D1*
X-417760Y-258816D1*
X-417759Y-259801D1*
Y-260785D1*
Y-261769D1*
Y-262753D1*
Y-263738D1*
Y-264722D1*
Y-265706D1*
Y-266690D1*
Y-267675D1*
Y-268659D1*
X-417762Y-269643D1*
X-417801Y-270627D1*
X-417893Y-271612D1*
X-418379Y-272596D1*
X-420301Y-273580D1*
X-423523Y-274564D1*
X-427601Y-275549D1*
X-441381Y-274564D2*
Y-275549D1*
Y-276533D1*
Y-277517D1*
X-439412Y-274564D2*
X-438954Y-275549D1*
X-438650Y-276533D1*
X-438428Y-277517D1*
X3370Y289685D2*
D12*
X-5400Y286685D1*
X-13111Y283685D1*
X-19866Y280685D1*
X-25765Y277685D1*
X-30809Y274685D1*
X-35263Y271685D1*
X-39481Y268685D1*
X-43364Y265685D1*
X-46591Y262685D1*
X-49183Y259685D1*
X-51541Y256685D1*
X-53969Y253685D1*
X-56318Y250685D1*
X-58375Y247685D1*
X-60162Y244685D1*
X-61783Y241685D1*
X-63241Y238685D1*
X-64476Y235685D1*
X-65516Y232685D1*
X-66348Y229685D1*
X-66839Y226685D1*
X-65052Y223685D1*
X-62630Y220685D1*
X-68630Y217685D1*
X-74630Y214685D1*
X-80630Y211685D1*
X-86618Y208685D1*
X-92504Y205685D1*
X-98040Y202685D1*
X-103015Y199685D1*
X-107630Y196685D1*
X-104630Y193685D1*
X39370Y289685D2*
X47769Y286685D1*
X55406Y283685D1*
X61911Y280685D1*
X67192Y277685D1*
X71509Y274685D1*
X75360Y271685D1*
X78939Y268685D1*
X82085Y265685D1*
X84874Y262685D1*
X87630Y259685D1*
X90378Y256685D1*
X92911Y253685D1*
X95055Y250685D1*
X96879Y247685D1*
X98515Y244685D1*
X99978Y241685D1*
X101215Y238685D1*
X102279Y235685D1*
X103339Y232685D1*
X104272Y229685D1*
X104973Y226685D1*
X105786Y223685D1*
X106926Y220685D1*
X109716Y217685D1*
X113540Y214685D1*
X118433Y211685D1*
X124119Y208685D1*
X129980Y205685D1*
X134938Y202685D1*
X138794Y199685D1*
X140251Y196685D1*
X141370Y193685D1*
X18370Y283685D2*
X7200Y280685D1*
X-2668Y277685D1*
X-10724Y274685D1*
X-17337Y271685D1*
X-23015Y268685D1*
X-27814Y265685D1*
X-31815Y262685D1*
X-35295Y259685D1*
X-38501Y256685D1*
X-41583Y253685D1*
X-44602Y250685D1*
X-47507Y247685D1*
X-50117Y244685D1*
X-52294Y241685D1*
X-54131Y238685D1*
X-55784Y235685D1*
X-57352Y232685D1*
X-58956Y229685D1*
X-60715Y226685D1*
X-62630Y223685D1*
X27370Y283685D2*
X36244Y280685D1*
X44731Y277685D1*
X52407Y274685D1*
X59014Y271685D1*
X64574Y268685D1*
X69228Y265685D1*
X73129Y262685D1*
X76462Y259685D1*
X79363Y256685D1*
X81990Y253685D1*
X84577Y250685D1*
X87004Y247685D1*
X89094Y244685D1*
X90894Y241685D1*
X92521Y238685D1*
X93980Y235685D1*
X95215Y232685D1*
X96279Y229685D1*
X97340Y226685D1*
X98272Y223685D1*
X98962Y220685D1*
X99645Y217685D1*
X100500Y214685D1*
X101324Y211685D1*
X101869Y208685D1*
X102143Y205685D1*
X102167Y202685D1*
X101839Y199685D1*
X101141Y196685D1*
X100367Y193685D1*
X99741Y190685D1*
X99082Y187685D1*
X98224Y184685D1*
X97297Y181685D1*
X96360Y178685D1*
X95250Y175685D1*
X93957Y172685D1*
X92545Y169685D1*
X90977Y166685D1*
X89101Y163685D1*
X86781Y160685D1*
X84122Y157685D1*
X81273Y154685D1*
X78334Y151685D1*
X75357Y148685D1*
X72366Y145685D1*
X69380Y142685D1*
X66499Y139685D1*
X63998Y136685D1*
X62205Y133685D1*
X61124Y130685D1*
X60370Y127685D1*
X15370Y256685D2*
X7985Y253685D1*
X1124Y250685D1*
X-5312Y247685D1*
X-11506Y244685D1*
X-17584Y241685D1*
X-23625Y238685D1*
X-29742Y235685D1*
X-36130Y232685D1*
X-42875Y229685D1*
X-49768Y226685D1*
X-56630Y223685D1*
X21370Y256685D2*
X28755Y253685D1*
X35617Y250685D1*
X42053Y247685D1*
X48258Y244685D1*
X54441Y241685D1*
X60853Y238685D1*
X67583Y235685D1*
X74332Y232685D1*
X80622Y229685D1*
X85902Y226685D1*
X90188Y223685D1*
X91826Y220685D1*
X92761Y217685D1*
X93370Y214685D1*
X21370Y250685D2*
X15009Y247685D1*
X8544Y244685D1*
X2104Y241685D1*
X-4370Y238685D1*
X-10895Y235685D1*
X-17268Y232685D1*
X-23471Y229685D1*
X-29566Y226685D1*
X-35606Y223685D1*
X-41610Y220685D1*
X-47486Y217685D1*
X-52872Y214685D1*
X-57155Y211685D1*
X-60437Y208685D1*
X-61574Y205685D1*
X-62184Y202685D1*
X-62456Y199685D1*
X-62555Y196685D1*
X-62490Y193685D1*
X-62123Y190685D1*
X-61398Y187685D1*
X-60525Y184685D1*
X-59608Y181685D1*
X-58506Y178685D1*
X-57216Y175685D1*
X-55816Y172685D1*
X-54354Y169685D1*
X-52861Y166685D1*
X-51258Y163685D1*
X-49369Y160685D1*
X-47043Y157685D1*
X-44383Y154685D1*
X-41521Y151685D1*
X-38489Y148685D1*
X-35235Y145685D1*
X-31907Y142685D1*
X-28859Y139685D1*
X-26106Y136685D1*
X-23353Y133685D1*
X-20515Y130685D1*
X-17630Y127685D1*
X15370Y250685D2*
X21834Y247685D1*
X28577Y244685D1*
X35354Y241685D1*
X41880Y238685D1*
X48158Y235685D1*
X54286Y232685D1*
X60339Y229685D1*
X66359Y226685D1*
X72366Y223685D1*
X78369Y220685D1*
X84370Y217685D1*
X90370Y214685D1*
X-5630D2*
Y211685D1*
Y208685D1*
Y205685D1*
Y202685D1*
Y199685D1*
Y196685D1*
X12370Y214685D2*
Y211685D1*
Y208685D1*
Y205685D1*
Y202685D1*
Y199685D1*
Y196685D1*
X24370Y214685D2*
Y211685D1*
Y208685D1*
Y205685D1*
Y202685D1*
Y199685D1*
Y196685D1*
X42370Y214685D2*
Y211685D1*
Y208685D1*
Y205685D1*
Y202685D1*
Y199685D1*
Y196685D1*
X370Y208685D2*
Y205685D1*
Y202685D1*
X9370Y208685D2*
Y205685D1*
Y202685D1*
X27370Y208685D2*
Y205685D1*
Y202685D1*
X36370Y208685D2*
Y205685D1*
Y202685D1*
X-74630Y205685D2*
X-80630Y202685D1*
X-86630Y199685D1*
X-92630Y196685D1*
X-98630Y193685D1*
X-71630Y205685D2*
X-71516Y202685D1*
X-71131Y199685D1*
X-70412Y196685D1*
X-69643Y193685D1*
X-69108Y190685D1*
X-68724Y187685D1*
X-68215Y184685D1*
X-67432Y181685D1*
X-66537Y178685D1*
X-65612Y175685D1*
X-64507Y172685D1*
X-63216Y169685D1*
X-61816Y166685D1*
X-60354Y163685D1*
X-58861Y160685D1*
X-57258Y157685D1*
X-55369Y154685D1*
X-53043Y151685D1*
X-50383Y148685D1*
X-47533Y145685D1*
X-44594Y142685D1*
X-41617Y139685D1*
X-38626Y136685D1*
X-35640Y133685D1*
X-32755Y130685D1*
X-30219Y127685D1*
X-28245Y124685D1*
X-26630Y121685D1*
X108370Y205685D2*
X108358Y202685D1*
X108253Y199685D1*
X107871Y196685D1*
X107152Y193685D1*
X106383Y190685D1*
X105848Y187685D1*
X105464Y184685D1*
X104955Y181685D1*
X104172Y178685D1*
X103277Y175685D1*
X102352Y172685D1*
X101248Y169685D1*
X99956Y166685D1*
X98544Y163685D1*
X96977Y160685D1*
X95101Y157685D1*
X92781Y154685D1*
X90122Y151685D1*
X87273Y148685D1*
X84334Y145685D1*
X81357Y142685D1*
X78366Y139685D1*
X75369Y136685D1*
X72381Y133685D1*
X69496Y130685D1*
X66960Y127685D1*
X64985Y124685D1*
X63370Y121685D1*
X111370Y205685D2*
X117370Y202685D1*
X123370Y199685D1*
X129370Y196685D1*
X135370Y193685D1*
X-5630Y184685D2*
Y181685D1*
Y178685D1*
Y175685D1*
Y172685D1*
Y169685D1*
Y166685D1*
X12370Y184685D2*
Y181685D1*
Y178685D1*
Y175685D1*
Y172685D1*
Y169685D1*
Y166685D1*
X24370Y184685D2*
Y181685D1*
Y178685D1*
Y175685D1*
Y172685D1*
Y169685D1*
Y166685D1*
X42370Y184685D2*
Y181685D1*
Y178685D1*
Y175685D1*
Y172685D1*
Y169685D1*
Y166685D1*
X370Y181685D2*
Y178685D1*
Y175685D1*
X9370Y181685D2*
Y178685D1*
Y175685D1*
X33370Y181685D2*
X30370Y178685D1*
X27370Y175685D1*
X36370Y181685D2*
Y178685D1*
Y175685D1*
X-23630Y106685D2*
X-23078Y103685D1*
X-22026Y100685D1*
X-20630Y97685D1*
X60370Y106685D2*
X59819Y103685D1*
X58766Y100685D1*
X57370Y97685D1*
X-8630Y85685D2*
Y82685D1*
Y79685D1*
X45370Y85685D2*
X48370Y82685D1*
X45370Y79685D1*
X255978Y180584D2*
D114*
X257404Y183436D1*
X260289Y186321D1*
X263141Y187747D1*
X268878D1*
X271763Y186321D1*
X274615Y183436D1*
X276074Y180584D1*
X277500Y176273D1*
Y169077D1*
X276074Y164799D1*
X274615Y161914D1*
X271763Y159062D1*
X268878Y157603D1*
X263141D1*
X260289Y159062D1*
X257404Y161914D1*
X255978Y164799D1*
X249416Y181976D2*
X246531Y183436D1*
X242220Y187713D1*
Y157603D1*
X216988Y177699D2*
X218447Y173388D1*
X221299Y170502D1*
X225610Y169077D1*
X227036D1*
X231347Y170502D1*
X234199Y173388D1*
X235658Y177699D1*
Y179125D1*
X234199Y183436D1*
X231347Y186287D1*
X227036Y187713D1*
X225610D1*
X221299Y186287D1*
X218447Y183436D1*
X216988Y177699D1*
Y170502D1*
X218447Y163340D1*
X221299Y159029D1*
X225610Y157603D1*
X228462D1*
X232773Y159029D1*
X234199Y161914D1*
X237527Y18259D2*
X234675Y19685D1*
X231790Y22570D1*
X230364Y25422D1*
Y31159D1*
X231790Y34044D1*
X234675Y36896D1*
X237527Y38355D1*
X241838Y39781D1*
X249034D1*
X253312Y38355D1*
X256197Y36896D1*
X259049Y34044D1*
X260508Y31159D1*
Y25422D1*
X259049Y22570D1*
X256197Y19685D1*
X253312Y18259D1*
X237560Y10238D2*
X236134D1*
X233249Y8812D1*
X231823Y7386D1*
X230397Y4501D1*
Y-1236D1*
X231823Y-4088D1*
X233249Y-5514D1*
X236134Y-6973D1*
X238986D1*
X241871Y-5514D1*
X246149Y-2662D1*
X260508Y11697D1*
Y-8399D1*
X230397Y-23582D2*
X231823Y-19271D1*
X236134Y-16386D1*
X243297Y-14960D1*
X247608D1*
X254771Y-16386D1*
X259082Y-19271D1*
X260508Y-23582D1*
Y-26434D1*
X259082Y-30745D1*
X254771Y-33597D1*
X247608Y-35056D1*
X243297D1*
X236134Y-33597D1*
X231823Y-30745D1*
X230397Y-26434D1*
Y-23582D1*
X236134Y-33597D2*
X254771Y-16386D1*
X338187Y-159968D2*
X339613Y-157116D1*
X342498Y-154231D1*
X345350Y-152805D1*
X351087D1*
X353972Y-154231D1*
X356824Y-157116D1*
X358283Y-159968D1*
X359709Y-164279D1*
Y-171475D1*
X358283Y-175753D1*
X356824Y-178638D1*
X353972Y-181490D1*
X351087Y-182949D1*
X345350D1*
X342498Y-181490D1*
X339613Y-178638D1*
X338187Y-175753D1*
X330166Y-160001D2*
Y-158575D1*
X328740Y-155690D1*
X327314Y-154264D1*
X324429Y-152838D1*
X318692D1*
X315840Y-154264D1*
X314414Y-155690D1*
X312955Y-158575D1*
Y-161427D1*
X314414Y-164312D1*
X317266Y-168590D1*
X331625Y-182949D1*
X311529D1*
X304968Y-158575D2*
X302082Y-157116D1*
X297771Y-152838D1*
Y-182949D1*
X-465907Y363141D2*
Y350241D1*
X-467366Y345930D1*
X-468792Y344471D1*
X-471644Y343045D1*
X-474529D1*
X-477381Y344471D1*
X-478840Y345930D1*
X-480266Y350241D1*
Y363141D1*
X-450122D1*
X-465907Y353093D2*
X-450122Y343045D1*
Y330746D2*
X-480233Y316387D1*
Y336483D1*
X-79396Y456065D2*
X-92296D1*
X-96607Y457524D1*
X-98066Y458950D1*
X-99492Y461802D1*
Y464687D1*
X-98066Y467539D1*
X-96607Y468998D1*
X-92296Y470424D1*
X-79396D1*
Y440280D1*
X-89444Y456065D2*
X-99492Y440280D1*
X-113216Y470391D2*
X-108938Y468965D1*
X-107479Y466113D1*
Y463228D1*
X-108938Y460376D1*
X-111790Y458917D1*
X-117527Y457491D1*
X-121838Y456065D1*
X-124690Y453180D1*
X-126116Y450328D1*
Y446017D1*
X-124690Y443165D1*
X-123264Y441706D1*
X-118953Y440280D1*
X-113216D1*
X-108938Y441706D1*
X-107479Y443165D1*
X-106053Y446017D1*
Y450328D1*
X-107479Y453180D1*
X-110364Y456065D1*
X-114642Y457491D1*
X-120379Y458917D1*
X-123264Y460376D1*
X-124690Y463228D1*
Y466113D1*
X-123264Y468965D1*
X-118953Y470391D1*
X-113216D1*
X-395840Y340317D2*
X-408740D1*
X-413051Y341776D1*
X-414510Y343202D1*
X-415936Y346054D1*
Y348939D1*
X-414510Y351791D1*
X-413051Y353250D1*
X-408740Y354676D1*
X-395840D1*
Y324532D1*
X-405888Y340317D2*
X-415936Y324532D1*
X-441168Y344628D2*
X-439709Y340317D1*
X-436857Y337432D1*
X-432546Y336006D1*
X-431120D1*
X-426809Y337432D1*
X-423957Y340317D1*
X-422498Y344628D1*
Y346054D1*
X-423957Y350365D1*
X-426809Y353217D1*
X-431120Y354643D1*
X-432546D1*
X-436857Y353217D1*
X-439709Y350365D1*
X-441168Y344628D1*
Y337432D1*
X-439709Y330269D1*
X-436857Y325958D1*
X-432546Y324532D1*
X-429694D1*
X-425383Y325958D1*
X-423957Y328843D1*
X274350Y234805D2*
X261450D1*
X257139Y236264D1*
X255680Y237690D1*
X254254Y240542D1*
Y243427D1*
X255680Y246279D1*
X257139Y247738D1*
X261450Y249164D1*
X274350D1*
Y219020D1*
X264302Y234805D2*
X254254Y219020D1*
X247693Y243394D2*
X244807Y244853D1*
X240496Y249131D1*
Y219020D1*
X225313Y249131D2*
X229624Y247705D1*
X232509Y243394D1*
X233935Y236231D1*
Y231920D1*
X232509Y224757D1*
X229624Y220446D1*
X225313Y219020D1*
X222461D1*
X218150Y220446D1*
X215298Y224757D1*
X213839Y231920D1*
Y236231D1*
X215298Y243394D1*
X218150Y247705D1*
X222461Y249131D1*
X225313D1*
X215298Y243394D2*
X232509Y224757D1*
X-16352Y-458109D2*
X-29252D1*
X-33563Y-456649D1*
X-35022Y-455223D1*
X-36448Y-452372D1*
Y-449486D1*
X-35022Y-446635D1*
X-33563Y-445175D1*
X-29252Y-443749D1*
X-16352D1*
Y-473893D1*
X-26400Y-458109D2*
X-36448Y-473893D1*
X-43009Y-449520D2*
X-45894Y-448061D1*
X-50205Y-443783D1*
Y-473893D1*
X-56767Y-449520D2*
X-59652Y-448061D1*
X-63963Y-443783D1*
Y-473893D1*
X-196139Y504306D2*
X-209039D1*
X-213350Y505765D1*
X-214809Y507191D1*
X-216235Y510043D1*
Y512928D1*
X-214809Y515780D1*
X-213350Y517239D1*
X-209039Y518665D1*
X-196139D1*
Y488521D1*
X-206187Y504306D2*
X-216235Y488521D1*
X-244319Y511502D2*
X-242893Y514354D1*
X-240008Y517239D1*
X-237156Y518665D1*
X-231419D1*
X-228534Y517239D1*
X-225682Y514354D1*
X-224223Y511502D1*
X-222797Y507191D1*
Y499995D1*
X-224223Y495717D1*
X-225682Y492832D1*
X-228534Y489980D1*
X-231419Y488521D1*
X-237156D1*
X-240008Y489980D1*
X-242893Y492832D1*
X-244319Y495717D1*
Y499995D1*
X-237156D1*
X-250880Y518665D2*
Y488521D1*
X-263813D1*
X-268124Y489980D1*
X-269550Y491406D1*
X-270976Y494258D1*
Y498569D1*
X-269550Y501454D1*
X-268124Y502880D1*
X-263813Y504306D1*
X-268124Y505765D1*
X-269550Y507191D1*
X-270976Y510043D1*
Y512928D1*
X-269550Y515780D1*
X-268124Y517239D1*
X-263813Y518665D1*
X-250880D1*
Y504306D2*
X-263813D1*
X240994Y393445D2*
X262516D1*
X266827Y392019D1*
X269679Y389134D1*
X271138Y384823D1*
Y381971D1*
X269679Y377660D1*
X266827Y374775D1*
X262516Y373349D1*
X240994D1*
X246764Y366787D2*
X245305Y363902D1*
X241027Y359591D1*
X271138D1*
X241027Y335818D2*
Y350144D1*
X253927Y351570D1*
X252501Y350144D1*
X251042Y345833D1*
Y341555D1*
X252501Y337244D1*
X255353Y334359D1*
X259664Y332933D1*
X262516D1*
X266827Y334359D1*
X269712Y337244D1*
X271138Y341555D1*
Y345833D1*
X269712Y350144D1*
X268253Y351570D1*
X265401Y353029D1*
X396505Y-333327D2*
X418027D1*
X422338Y-334753D1*
X425190Y-337638D1*
X426649Y-341949D1*
Y-344801D1*
X425190Y-349112D1*
X422338Y-351997D1*
X418027Y-353423D1*
X396505D1*
X402276Y-359985D2*
X400816Y-362870D1*
X396539Y-367181D1*
X426649D1*
Y-379479D2*
X396539Y-393838D1*
Y-373742D1*
X-527427Y-95045D2*
D115*
X-542725D1*
X-545599Y-95996D1*
X-546550Y-96969D1*
X-547523Y-98870D1*
Y-100793D1*
X-546550Y-102695D1*
X-545599Y-103645D1*
X-542725Y-104618D1*
X-540824D1*
X-527427Y-88870D2*
X-547523D1*
Y-77396D1*
X-532202Y-56872D2*
X-530301Y-57823D1*
X-528377Y-59746D1*
X-527427Y-61647D1*
Y-65472D1*
X-528377Y-67395D1*
X-530301Y-69297D1*
X-532202Y-70269D1*
X-535076Y-71220D1*
X-539873D1*
X-542725Y-70269D1*
X-544649Y-69297D1*
X-546550Y-67395D1*
X-547523Y-65472D1*
Y-61647D1*
X-546550Y-59746D1*
X-544649Y-57823D1*
X-542725Y-56872D1*
X-527427Y-41124D2*
X-542725D1*
X-545599Y-42074D1*
X-546550Y-43047D1*
X-547523Y-44948D1*
Y-46872D1*
X-546550Y-48773D1*
X-545599Y-49724D1*
X-542725Y-50696D1*
X-540824D1*
X-527427Y-34948D2*
X-547523D1*
Y-23474D1*
X-532202Y-2950D2*
X-530301Y-3901D1*
X-528377Y-5824D1*
X-527427Y-7726D1*
Y-11550D1*
X-528377Y-13474D1*
X-530301Y-15375D1*
X-532202Y-16348D1*
X-535076Y-17298D1*
X-539873D1*
X-542725Y-16348D1*
X-544649Y-15375D1*
X-546550Y-13474D1*
X-547523Y-11550D1*
Y-7726D1*
X-546550Y-5824D1*
X-544649Y-3901D1*
X-542725Y-2950D1*
X-527427Y12798D2*
X-542725D1*
X-545599Y11847D1*
X-546550Y10875D1*
X-547523Y8973D1*
Y7050D1*
X-546550Y5149D1*
X-545599Y4198D1*
X-542725Y3225D1*
X-540824D1*
X-527427Y18974D2*
X-547523D1*
Y30448D1*
X-532202Y50971D2*
X-530301Y50021D1*
X-528377Y48097D1*
X-527427Y46196D1*
Y42371D1*
X-528377Y40448D1*
X-530301Y38547D1*
X-532202Y37574D1*
X-535076Y36623D1*
X-539873D1*
X-542725Y37574D1*
X-544649Y38547D1*
X-546550Y40448D1*
X-547523Y42371D1*
Y46196D1*
X-546550Y48097D1*
X-544649Y50021D1*
X-542725Y50971D1*
X-527427Y66720D2*
X-542725D1*
X-545599Y65769D1*
X-546550Y64796D1*
X-547523Y62895D1*
Y60972D1*
X-546550Y59070D1*
X-545599Y58120D1*
X-542725Y57147D1*
X-540824D1*
X-527427Y72895D2*
X-547523D1*
Y84369D1*
X-532202Y104893D2*
X-530301Y103942D1*
X-528377Y102019D1*
X-527427Y100118D1*
Y96293D1*
X-528377Y94370D1*
X-530301Y92468D1*
X-532202Y91496D1*
X-535076Y90545D1*
X-539873D1*
X-542725Y91496D1*
X-544649Y92468D1*
X-546550Y94370D1*
X-547523Y96293D1*
Y100118D1*
X-546550Y102019D1*
X-544649Y103942D1*
X-542725Y104893D1*
M02*
