M48
INCH
T01C0.0118
T02C0.013
T03C0.0157
T04C0.0256
T05C0.0394
%
T05
X-001181Y+005118
X+001280Y-005118
T01
X+003945Y+005453
X+003567Y+005280
X+000173Y+005197
X-000413Y+005181
X+004185Y+005165
X-000417Y+004732
X-004173Y+004728
X-001394Y+004602
X+000768Y+004547
X-004476Y+004295
X-001083Y+004039
X-000240Y+003937
X+004252Y+003717
X-003567Y+003535
X+004272Y+003346
X+002331Y+003307
X-004319Y+003248
X+001878Y+003067
X+003508Y+003024
T03
X-003902Y+002961
T01
X+002421Y+002843
X+000854Y+002823
X+004287Y+002559
X-003807Y+002496
X-000835Y+002165
X-004126Y+002161
X+004295Y+001972
X-003504Y+001913
X-000843Y+001862
X-004280Y+001681
X-004547Y+001453
X+004295Y+001327
X+003890Y+001264
X+003303Y+001260
X-003536Y+001106
X-004555Y+000874
X+002760Y+000780
X-003850Y+000098
X-002752Y-000024
X+004079Y-000035
X+003437Y-000043
X+003004Y-000047
X+004102Y-001378
X+003437Y-001386
X+002917Y-001394
X-005209Y-001496
X-002083Y-001571
X+002390Y-001748
X+003815Y-001768
X+005429Y-001776
X+005059Y-001874
X+004287Y-001890
X+004650Y-001898
X+000709Y-001941
X+001614Y-001906
X-002866Y-001980
X-005469Y-001984
X+000992Y-002228
X-005449Y-002224
X-002067Y-002248
X-002839Y-002433
X+000126Y-002736
X-003634Y-002720
X-004614Y-002791
X+001496Y-002748
X-000169Y-002953
X+001976Y-003142
X+001807Y-002772
X+003472Y-002772
X-001874Y-004988
X+001614Y-003472
X+001043Y-003728
X-000465Y-003689
X-001276Y-003701
X+003839Y-003709
X-005063Y-003898
X-001283Y-004043
X+001626Y-003988
X+001043Y-004130
X-004984Y-004146
X-004701Y-004150
X-002276Y-004240
X-004142Y-004406
X-001102Y-004713
X-001272Y-005008
X-000402Y-004988
X-003949Y-005094
X+004028Y-005382
X+000831Y-005413
X+000012Y-005449
X-000154Y-004543
T04
X-005299Y+002980
X-005299Y+003480
X-005299Y+002480
X-005299Y+003980
X+005327Y-003465
X+005327Y-002965
X+005327Y-003965
X+005327Y-002465
X+004713Y-003469
X+004713Y-002969
X+004713Y-003969
X+004713Y-002469
X-005291Y-003154
X-005291Y-002654
T02
X-000461Y+000630
X+000197Y+000626
X-001181Y+000618
X-001173Y+000000
X-000457Y+000000
X+000189Y-000008
X-001185Y-000622
X+000197Y-000642
X-000461Y-000646
T00
M30
