G04 DipTrace 3.2.0.1*
G04 Top.gbr*
%MOIN*%
G04 #@! TF.FileFunction,Copper,L1,Top*
G04 #@! TF.Part,Single*
%AMOUTLINE0*
4,1,4,
-0.018755,-0.019634,
-0.018647,0.019736,
0.018755,0.019634,
0.018647,-0.019736,
-0.018755,-0.019634,
0*%
%AMOUTLINE3*
4,1,4,
0.039302,0.027655,
0.039437,-0.027462,
-0.039302,-0.027655,
-0.039437,0.027462,
0.039302,0.027655,
0*%
%AMOUTLINE6*
4,1,5,
0.029528,-0.047244,
-0.029528,-0.047244,
-0.029528,0.037402,
-0.019685,0.047244,
0.029528,0.047244,
0.029528,-0.047244,
0*%
G04 #@! TA.AperFunction,CopperBalancing*
%ADD10C,0.009843*%
G04 #@! TA.AperFunction,Conductor*
%ADD15C,0.007874*%
%ADD16C,0.015748*%
%ADD17C,0.006299*%
%ADD18C,0.009055*%
%ADD19C,0.020079*%
%ADD20C,0.025591*%
%ADD21C,0.030315*%
G04 #@! TA.AperFunction,ViaPad*
%ADD22C,0.031496*%
G04 #@! TA.AperFunction,Conductor*
%ADD23C,0.010236*%
%ADD25C,0.017717*%
%ADD26C,0.01378*%
G04 #@! TA.AperFunction,ViaPad*
%ADD28C,0.023622*%
G04 #@! TA.AperFunction,Conductor*
%ADD29C,0.005906*%
G04 #@! TA.AperFunction,CopperBalancing*
%ADD30C,0.008661*%
%ADD32R,0.051181X0.059055*%
%ADD33R,0.03937X0.043307*%
%ADD34R,0.043307X0.03937*%
%ADD36R,0.059055X0.051181*%
%ADD37R,0.057087X0.047244*%
%ADD38R,0.037402X0.03937*%
%ADD39R,0.03X0.03*%
%ADD42R,0.025591X0.041339*%
%ADD43R,0.03937X0.070866*%
G04 #@! TA.AperFunction,ComponentPad*
%ADD44C,0.041339*%
%ADD46R,0.055118X0.047244*%
%ADD47R,0.185039X0.185039*%
%ADD48O,0.007874X0.025591*%
%ADD49O,0.025591X0.007874*%
%ADD50R,0.070866X0.03937*%
%ADD51R,0.019685X0.01378*%
%ADD53R,0.031496X0.011811*%
%ADD54R,0.025591X0.05315*%
%ADD55R,0.031496X0.015748*%
%ADD57R,0.012795X0.011811*%
%ADD58R,0.011811X0.012795*%
G04 #@! TA.AperFunction,ViaPad*
%ADD61C,0.025984*%
%ADD116OUTLINE0*%
%ADD119OUTLINE3*%
%ADD122OUTLINE6*%
%FSLAX26Y26*%
G04*
G70*
G90*
G75*
G01*
G04 Top*
%LPD*%
X73634Y38976D2*
D15*
X138180D1*
X172432Y73228D1*
Y77165D1*
X73634Y7480D2*
X98031D1*
X110236Y19685D1*
X175975D1*
D10*
X168888Y12598D1*
X388976Y126378D2*
X389764D1*
Y177953D1*
X383465D1*
X330315Y125984D2*
X321260D1*
X310630Y136614D1*
Y180315D1*
X-84252Y186220D2*
D15*
Y118701D1*
X-84831D1*
Y38976D1*
D10*
X-45461Y-394D1*
X73634Y7480D2*
D15*
X-37587D1*
D10*
X-45461Y-394D1*
X242126Y284252D2*
Y265354D1*
X224016Y247244D1*
X85433Y282283D2*
Y257087D1*
X75984Y247638D1*
X275984Y77953D2*
X239361D1*
Y77165D1*
X-208268Y-157087D2*
Y-187411D1*
X-205521Y-190157D1*
X-350394Y191339D2*
D16*
X-313395D1*
D10*
X-310639Y194094D1*
X-353552Y110630D2*
X-317332D1*
X-315364Y112598D1*
X-385039Y9843D2*
X-331496D1*
X-306299Y-15354D1*
X-385039Y9843D2*
X-418504D1*
X-462992Y54331D1*
Y51181D1*
X-455512Y87402D2*
Y58661D1*
X-462992Y51181D1*
X-275197Y-2362D2*
X-287017D1*
X-300009Y-15354D1*
X-306299D1*
X-356693Y353543D2*
X-320088D1*
X-311820Y361811D1*
X381496Y-176772D2*
X383858D1*
X395276Y-165354D1*
X487008D1*
X507480Y-185827D1*
X539764Y-218110D1*
Y-239370D1*
X532677Y-246457D1*
X322835Y528740D2*
X321654D1*
Y537402D1*
X325591D1*
Y527953D1*
X356693D1*
X-414173Y-440551D2*
X-387008D1*
X-386614Y-440157D1*
X-470079Y-414961D2*
Y-390945D1*
X-459055Y-379921D1*
X-404724Y-274016D2*
X-381102D1*
X-371260Y-264173D1*
X-354331Y-247244D1*
X-325197D1*
X-324016Y-248425D1*
X-288976D1*
X-283858Y-243307D1*
X-286614Y-198031D2*
X-323622D1*
X-328740Y-192913D1*
X-206693Y-224803D2*
Y-191329D1*
X-205521Y-190157D1*
X-110236Y-471260D2*
Y-462205D1*
X-117717Y-454724D1*
X-151575D1*
X-153150Y-453150D1*
X229528Y-501969D2*
Y-521260D1*
X236614Y-528346D1*
X249213D1*
Y-501969D1*
X268898Y-482283D2*
X285039D1*
X291732Y-488976D1*
Y-501969D1*
X268898D1*
X249213Y-528346D2*
X291732D1*
Y-501969D1*
X403543Y-528346D2*
X291732D1*
X403543D2*
Y-497244D1*
X399606Y-493307D1*
X329528Y-379134D2*
X375197D1*
Y-377953D1*
X383071D1*
X391732Y-386614D1*
Y-429134D1*
X397244Y-434646D1*
Y-493307D1*
X399606D1*
X-363386Y-272047D2*
X-371260Y-264173D1*
X407874Y-3543D2*
Y107480D1*
X388976Y126378D1*
X505906Y-187402D2*
X507480Y-185827D1*
X150394Y246850D2*
X223622D1*
X224016Y247244D1*
X-63386Y372835D2*
X-77165D1*
X-108268Y403937D1*
X106299Y-365748D2*
X102362Y-369685D1*
X74803D1*
X-15748Y-344094D2*
Y-296457D1*
X-16929Y-295276D1*
X-110236Y-471260D2*
Y-465354D1*
X-78740Y-433858D1*
X73634Y54724D2*
D17*
X122432D1*
X135030Y67323D1*
Y109440D1*
X147638Y122047D1*
X252756D1*
X267717Y137008D1*
Y211811D1*
X303150Y247244D1*
X310630D1*
X381102D1*
D10*
X383465Y244882D1*
X41154Y-119488D2*
D17*
Y-149421D1*
X46063Y-154331D1*
X68504D1*
X204331Y-290157D1*
X281890D1*
X311024Y-319291D1*
X73634Y70472D2*
X112589D1*
X120079Y77962D1*
Y117323D1*
X141339Y138583D1*
Y179921D1*
X150394D1*
X223622D1*
D10*
X224016Y180315D1*
X-164555Y86220D2*
D15*
X-198434D1*
D10*
X-224812Y112598D1*
X-248434D1*
X-164555Y-71260D2*
D17*
X-202756D1*
X-272441Y-140945D1*
X-442126D1*
X-517323Y-216142D1*
Y-253543D1*
X-529134Y-265354D1*
X296850Y373228D2*
Y374803D1*
X72047D1*
X-16535Y286220D1*
Y257087D1*
X-6091Y246642D1*
Y118701D1*
X-25984Y282283D2*
D10*
Y266535D1*
D17*
X-16535Y257087D1*
X464961Y-189764D2*
X458661D1*
X433465Y-214961D1*
X221260D1*
X198425Y-192126D1*
Y-175197D1*
X116142Y-92913D1*
Y-73228D1*
X98425Y-55512D1*
X73634D1*
Y-39764D2*
X101181D1*
X129134Y-67717D1*
Y-85433D1*
X213386Y-169685D1*
Y-187008D1*
X226772Y-200394D1*
X417323D1*
X428740Y-188976D1*
X532677Y-346457D2*
Y-345669D1*
X503150Y-316142D1*
Y-221654D1*
X496457Y-214961D1*
X452756D1*
X438189Y-229528D1*
X215354D1*
X183071Y-197244D1*
Y-179921D1*
X170866Y-167717D1*
X141732D1*
X102362Y-128346D1*
Y-80315D1*
X93307Y-71260D1*
X73634D1*
X355118Y-320079D2*
X311024Y-275984D1*
X209843D1*
X114173Y-180315D1*
Y-162598D1*
X82677Y-131102D1*
Y-87008D1*
X73634D1*
X-164555Y70472D2*
X-240945D1*
X-249213Y62205D1*
X-310639D1*
Y55915D1*
X-306299Y51575D1*
Y57874D1*
X-383071D1*
X-384252Y56693D1*
X-164555Y54724D2*
X-216535D1*
X-252756Y18504D1*
Y-22047D1*
X-282677Y-51969D1*
X-358671D1*
X-387017Y-23622D1*
Y-38967D1*
X-384252Y-41732D1*
X-437008D1*
X-462992Y-15748D1*
X-116327Y118701D2*
D15*
Y145058D1*
D10*
X-157490Y186220D1*
Y192913D1*
X-225197Y286047D2*
X-183694D1*
X-157490Y259843D1*
X-288189Y286220D2*
Y290954D1*
X-237017Y342126D1*
Y361811D1*
X-100579Y118701D2*
D15*
Y151751D1*
D18*
X-110245Y161417D1*
D10*
Y290157D1*
X-151584Y331496D1*
X-206702D1*
D18*
X-237017Y361811D1*
X73634Y-8268D2*
D15*
X107480D1*
D18*
X153543Y-54331D1*
X168888D1*
D19*
X231890D1*
Y-58268D1*
X294882D2*
D20*
X516929D1*
D21*
Y-66142D1*
D22*
X508787D1*
D10*
Y-68898D1*
X73634Y86220D2*
D15*
X100787D1*
X105118Y90551D1*
Y145669D1*
D23*
X70079Y180709D1*
X75984D1*
D10*
X102362D1*
X112992Y191339D1*
Y300394D1*
X119291Y306693D1*
X187795D1*
X-127559Y-370079D2*
Y-274016D1*
Y-271907D1*
Y-201190D1*
X-138592Y-190157D1*
X-134251D1*
X-132075Y-187982D1*
D15*
Y-119488D1*
X-390157Y296063D2*
D25*
X-387795D1*
X-338583Y246850D1*
X-288592D1*
D26*
X-235836Y194094D1*
D10*
Y187402D1*
X-174812Y126378D1*
X-133071D1*
D15*
Y122047D1*
X-132075D1*
Y118701D1*
X161417Y-190551D2*
D10*
X164567D1*
Y-203150D1*
X209055Y-247638D1*
X412205D1*
X444948Y-280381D1*
X461417Y-296850D1*
X471260D1*
X76772Y454724D2*
X79134D1*
X95276Y438583D1*
X130315D1*
X-227559Y-424016D2*
Y-445669D1*
X-220079Y-453150D1*
X-272441Y-440157D2*
X-233071D1*
X-220079Y-453150D1*
X-75197Y-274016D2*
X-127559D1*
Y-271907D2*
X-172975D1*
X-173228Y-271654D1*
X-231890Y-272047D2*
Y-274016D1*
X-175591D1*
X-173228Y-271654D1*
X-461417Y-279134D2*
Y-310630D1*
X-459055Y-312992D1*
X-404724Y-325197D2*
X-446850D1*
X-459055Y-312992D1*
X-404724Y-299606D2*
X-445669D1*
X-459055Y-312992D1*
X-404724Y-248425D2*
Y-194094D1*
X-396850D1*
X-395669Y-192913D1*
X-461417Y-279134D2*
Y-219291D1*
X-436220Y-194094D1*
X-404724D1*
X-324016Y-274016D2*
D15*
X-233858D1*
X-231890Y-272047D1*
X262598Y-379134D2*
D10*
Y-352756D1*
X272047Y-343307D1*
X382021D1*
X444948Y-280381D1*
X268898Y-442913D2*
Y-418269D1*
Y-385433D1*
X262598Y-379134D1*
X268898Y-418269D2*
X313938D1*
X330315Y-434646D1*
X-46457Y-368898D2*
X-15748D1*
Y-369685D1*
X-46457Y-368898D2*
X-76772D1*
X-78740Y-366929D1*
X41154Y118701D2*
D17*
Y276587D1*
X96063Y331496D1*
X200000D1*
X229134Y302362D1*
X350787D1*
X-417323Y472835D2*
X-241732D1*
X-76772Y307874D1*
Y264173D1*
X-37587Y224988D1*
Y118701D1*
X-447638Y429528D2*
X-218898D1*
X-92126Y302756D1*
Y260236D1*
X-53335Y221445D1*
Y118701D1*
X-139370Y460236D2*
Y392913D1*
X-61024Y314567D1*
Y268110D1*
X-21839Y228925D1*
Y118701D1*
X-164555Y38976D2*
X-208661D1*
X-238189Y9449D1*
Y-25197D1*
X-290551Y-77559D1*
X-481496D1*
X-501969Y-57087D1*
Y157480D1*
X-461417Y198031D1*
Y329528D1*
X-529921Y398031D1*
X255906Y528740D2*
D10*
X242520D1*
Y439370D1*
X231890Y450000D1*
D17*
Y429921D1*
X190157Y388189D1*
X55512D1*
X40157Y372835D1*
X11417D1*
X9657Y118701D2*
Y290366D1*
X81890Y362598D1*
X238189D1*
X261417Y339370D1*
X353543D1*
X372441Y358268D1*
Y373228D1*
X371260D1*
Y437008D1*
X358268Y450000D1*
X330315D1*
X363780Y373228D2*
D10*
X371260D1*
X-41732Y473228D2*
Y440551D1*
X-56299D1*
Y438189D1*
X-44488D1*
X25406Y118701D2*
D17*
Y283673D1*
X88976Y347244D1*
X216535D1*
X233071Y330709D1*
X22441Y438189D2*
D10*
X29921D1*
Y480709D1*
X66929Y517717D1*
X125984D1*
X130315Y513386D1*
X-164555Y23228D2*
D17*
X-204724D1*
X-224803Y3150D1*
Y-29134D1*
X-285433Y-89764D1*
X-490157D1*
X-514961Y-64961D1*
Y167717D1*
X-477953Y204724D1*
Y290945D1*
X-532480Y345472D1*
X-529921Y348031D1*
X-164555Y7480D2*
X-197244D1*
X-212205Y-7480D1*
Y-34646D1*
X-280709Y-103150D1*
X-498819D1*
X-528346Y-73622D1*
Y176772D1*
X-495276Y209843D1*
Y257087D1*
X-530709Y292520D1*
Y297244D1*
X-529921Y298031D1*
X-164555Y-8268D2*
X-187795D1*
X-198425Y-18898D1*
Y-38189D1*
X-276772Y-116535D1*
X-505906D1*
X-541732Y-80709D1*
Y186220D1*
X-529921Y198031D1*
Y248031D1*
X-100575Y-119488D2*
Y-160449D1*
X-72835Y-188189D1*
Y-207087D1*
X-75197D1*
X-8661D1*
X76772Y-292520D1*
Y-344094D1*
X74803D1*
X-164555Y-87008D2*
X-198819D1*
X-266535Y-154724D1*
X-435039D1*
X-495669Y-215354D1*
Y-281890D1*
X-529134Y-315354D1*
X-324016Y-299606D2*
X-342913D1*
X-364173Y-320866D1*
Y-353150D1*
X-369685Y-358661D1*
X-406693D1*
X-412598Y-364567D1*
Y-400787D1*
X-386614D1*
X-412598D2*
X-414567D1*
X-439370Y-425591D1*
Y-456299D1*
X-423228Y-472441D1*
Y-513386D1*
X-406299Y-530315D1*
X-244488D1*
X-235827Y-521654D1*
X-74803D1*
Y-497244D1*
X-16535Y-438976D1*
Y-395276D1*
X-15748D1*
X209843Y-501969D2*
X181496D1*
X158661Y-479134D1*
X109449D1*
X66929Y-521654D1*
X-74803D1*
X-16535Y-438976D2*
Y-441339D1*
X114961D1*
X130315Y-425984D1*
Y-324409D1*
X-20866Y-173228D1*
X-61417D1*
X-84827Y-149819D1*
Y-119488D1*
X-324016Y-299606D2*
D15*
X-282677D1*
X-243307Y-338976D1*
X-231890D1*
X-6091Y-119488D2*
D17*
Y-149028D1*
X157480Y-312598D1*
Y-318110D1*
X192126Y-352756D1*
Y-377165D1*
X229528Y-414567D1*
Y-442913D1*
X-324016Y-325197D2*
X-289764D1*
X-273228Y-341732D1*
Y-400787D1*
X-272441D1*
D10*
X-250394D1*
X-241732Y-392126D1*
X-173336D1*
D17*
Y-338690D1*
D10*
X-173228Y-338583D1*
X209843Y-442913D2*
D17*
X187795D1*
X175984Y-431102D1*
Y-367717D1*
X159339Y-351071D1*
X144488Y-336220D1*
Y-318504D1*
X-14961Y-159055D1*
X-59055D1*
X-69079Y-149032D1*
Y-119488D1*
X-40157Y-498819D2*
X66142D1*
X100000Y-464961D1*
X142126D1*
X175984Y-431102D1*
X-173336Y-392126D2*
D10*
X-148031D1*
X-135827Y-404331D1*
X-128346D1*
X157480Y-351969D2*
X159339Y-351071D1*
X74803Y-395276D2*
X87795D1*
X105906Y-413386D1*
X209843Y-462598D2*
D29*
Y-464173D1*
X268898D1*
Y-462598D1*
D10*
X293701D1*
X324409Y-493307D1*
X332677D1*
D28*
X394488Y545276D3*
X356693Y527953D3*
X17323Y519685D3*
X-41339Y518110D3*
X-24016Y393701D3*
X418504Y516535D3*
X-41732Y473228D3*
X-417323Y472835D3*
X-139370Y460236D3*
X76772Y454724D3*
X-447638Y429528D3*
X233071Y330709D3*
X425197Y371654D3*
X350787Y302362D3*
X-356693Y353543D3*
X427165Y334646D3*
X-108268Y403937D3*
X-431890Y324803D3*
X187795Y306693D3*
D22*
X-390157Y296063D3*
D28*
X242126Y284252D3*
X85433Y282283D3*
X428740Y255906D3*
X-380709Y249606D3*
X-83465Y216535D3*
X-412598Y216142D3*
X429528Y197244D3*
X-350394Y191339D3*
X-84252Y186220D3*
X-427953Y168110D3*
X-454724Y145276D3*
X429528Y132677D3*
X388976Y126378D3*
X330315Y125984D3*
X-353552Y110630D3*
X-455512Y87402D3*
X275984Y77953D3*
X-385039Y9843D3*
X-275197Y-2362D3*
X407874Y-3543D3*
X343701Y-4331D3*
X300394Y-4724D3*
X410236Y-137795D3*
X343701Y-138583D3*
X291732Y-139370D3*
X-520866Y-149606D3*
X-208268Y-157087D3*
X238976Y-174803D3*
X381496Y-176772D3*
X542913Y-177559D3*
X505906Y-187402D3*
X428740Y-188976D3*
X69685Y-190551D3*
X464961Y-189764D3*
X161417Y-190551D3*
X-286614Y-198031D3*
X-540551Y-180315D3*
X-540945Y-212598D3*
X97638Y-217323D3*
X-206693Y-224803D3*
X-283858Y-243307D3*
X16142Y-267717D3*
X-363386Y-272047D3*
X-461417Y-279134D3*
X158661Y-280709D3*
X-16929Y-295276D3*
X186614Y-310630D3*
X311024Y-319291D3*
X355118Y-320079D3*
X220866Y-329134D3*
X106299Y-365748D3*
X-127559Y-370079D3*
X375197Y-379921D3*
X-507874Y-385433D3*
X154331Y-405118D3*
X-498425Y-414567D3*
X-470079Y-414961D3*
X-128346Y-404331D3*
X-227559Y-424016D3*
X-46457Y-368898D3*
X-414173Y-440551D3*
X-110236Y-471260D3*
X-40157Y-498819D3*
X-393701Y-507874D3*
X83071Y-541339D3*
X1181Y-544882D3*
X403543Y-528346D3*
X-111811Y-498425D3*
D61*
X-46072Y62992D3*
X19676Y62598D3*
X-118110Y61811D3*
X-117323Y0D3*
X-45678D3*
X18888Y-787D3*
X-118504Y-62205D3*
X19676Y-64173D3*
X-46072Y-64567D3*
D28*
X105906Y-413386D3*
X157480Y-351969D3*
X-424783Y546982D2*
D30*
X-246538D1*
X-186730D2*
X86588D1*
X174055D2*
X220046D1*
X358685D2*
X422760D1*
X-424835Y538451D2*
X-246538D1*
X-186594D2*
X-138490D1*
X-97731D2*
X86588D1*
X174055D2*
X220046D1*
X358685D2*
X422760D1*
X-424885Y529921D2*
X-146593D1*
X-89627D2*
X52450D1*
X174055D2*
X220046D1*
X358685D2*
X422760D1*
X-424919Y521391D2*
X-150585D1*
X-85635D2*
X43907D1*
X174055D2*
X220046D1*
X358685D2*
X422760D1*
X-424970Y512861D2*
X-151990D1*
X-84231D2*
X35382D1*
X174055D2*
X220046D1*
X358685D2*
X422760D1*
X-425021Y504331D2*
X-151144D1*
X-85076D2*
X26856D1*
X174055D2*
X220046D1*
X358685D2*
X422760D1*
X-406209Y495801D2*
X-147862D1*
X-88358D2*
X-53686D1*
X-29776D2*
X18329D1*
X174055D2*
X198003D1*
X364201D2*
X422760D1*
X-232896Y487270D2*
X-141079D1*
X-95142D2*
X-63463D1*
X-19997D2*
X12020D1*
X174055D2*
X198003D1*
X364201D2*
X422946D1*
X-223457Y478740D2*
X-157268D1*
X-121465D2*
X-67135D1*
X-16327D2*
X10801D1*
X174055D2*
X198003D1*
X364201D2*
X426413D1*
X-214930Y470210D2*
X-163324D1*
X-115408D2*
X-80346D1*
X174055D2*
X198003D1*
X364201D2*
X429882D1*
X-206387Y461680D2*
X-165337D1*
X-113395D2*
X-80346D1*
X174055D2*
X198003D1*
X370764D2*
X433096D1*
X-197861Y453150D2*
X-164373D1*
X-114377D2*
X-80346D1*
X174055D2*
X198003D1*
X379307D2*
X433705D1*
X-189335Y444619D2*
X-159958D1*
X-118791D2*
X-80346D1*
X174055D2*
X198003D1*
X386751D2*
X434314D1*
X-180810Y436089D2*
X-156726D1*
X-122024D2*
X-80346D1*
X174055D2*
X198003D1*
X388612D2*
X434923D1*
X-493888Y427559D2*
X-473579D1*
X-172266D2*
X-156726D1*
X-122024D2*
X-80346D1*
X174055D2*
X198003D1*
X388612D2*
X435531D1*
X-502297Y419029D2*
X-471362D1*
X-163740D2*
X-156726D1*
X-122024D2*
X-80346D1*
X174055D2*
X196819D1*
X388612D2*
X435752D1*
X-497408Y410499D2*
X-464951D1*
X-430332D2*
X-224055D1*
X-122024D2*
X-80346D1*
X174055D2*
X188276D1*
X388612D2*
X435752D1*
X-495276Y401969D2*
X-351608D1*
X-122024D2*
X-90378D1*
X-36390D2*
X-15589D1*
X399642D2*
X435769D1*
X-495361Y393438D2*
X-351608D1*
X-115713D2*
X-90378D1*
X-36390D2*
X-15589D1*
X399642D2*
X435769D1*
X-492621Y384908D2*
X-351608D1*
X-107188D2*
X-90378D1*
X-36390D2*
X-15589D1*
X399642D2*
X435769D1*
X-484077Y376378D2*
X-351608D1*
X-98644D2*
X-90378D1*
X-36390D2*
X-15589D1*
X399642D2*
X435786D1*
X-475551Y367848D2*
X-351608D1*
X-36390D2*
X-15589D1*
X399642D2*
X435786D1*
X-467025Y359318D2*
X-351608D1*
X-36390D2*
X-15589D1*
X399642D2*
X435803D1*
X-458499Y350787D2*
X-351608D1*
X-36390D2*
X-15589D1*
X399642D2*
X435803D1*
X-449955Y342257D2*
X-351608D1*
X-36390D2*
X-15589D1*
X399642D2*
X435803D1*
X-444610Y333727D2*
X-351608D1*
X-55996D2*
X6791D1*
X372084D2*
X435819D1*
X-444068Y325197D2*
X-351608D1*
X-47555D2*
X-1751D1*
X362831D2*
X435819D1*
X-444068Y316667D2*
X-411562D1*
X-368755D2*
X-315660D1*
X-43799D2*
X-10277D1*
X372337D2*
X435819D1*
X-444068Y308136D2*
X-417483D1*
X-362835D2*
X-320853D1*
X376127D2*
X435836D1*
X-444068Y299606D2*
X-419902D1*
X-359079D2*
X-321056D1*
X88354D2*
X93862D1*
X376651D2*
X435836D1*
X-444068Y291076D2*
X-419681D1*
X-350552D2*
X-321073D1*
X79828D2*
X93862D1*
X208379D2*
X216239D1*
X374131D2*
X435836D1*
X-444068Y282546D2*
X-416772D1*
X-342026D2*
X-321108D1*
X132118D2*
X179902D1*
X367144D2*
X435853D1*
X-444068Y274016D2*
X-409988D1*
X-333483D2*
X-321125D1*
X417353D2*
X435853D1*
X-444068Y265486D2*
X-389469D1*
X417353D2*
X435853D1*
X-444068Y256955D2*
X-380942D1*
X417353D2*
X435870D1*
X-444068Y248425D2*
X-372416D1*
X417353D2*
X435870D1*
X-444068Y239895D2*
X-363890D1*
X417353D2*
X435887D1*
X-444068Y231365D2*
X-355346D1*
X417353D2*
X435887D1*
X-444068Y222835D2*
X-350441D1*
X-91115D2*
X-78909D1*
X417353D2*
X435887D1*
X-444068Y214304D2*
X-350441D1*
X-91115D2*
X-70688D1*
X417353D2*
X435904D1*
X-444068Y205774D2*
X-350441D1*
X-91115D2*
X-70688D1*
X417353D2*
X435904D1*
X-444085Y197244D2*
X-350441D1*
X-91115D2*
X-70688D1*
X417353D2*
X435904D1*
X-446945Y188714D2*
X-350441D1*
X-91115D2*
X-70688D1*
X417353D2*
X435921D1*
X-455081Y180184D2*
X-350441D1*
X-91115D2*
X-70688D1*
X417353D2*
X435921D1*
X-463608Y171654D2*
X-350441D1*
X-91115D2*
X-70688D1*
X417353D2*
X435921D1*
X-472134Y163123D2*
X-350441D1*
X-85940D2*
X-70688D1*
X417353D2*
X435938D1*
X-480677Y154593D2*
X-350441D1*
X417353D2*
X435938D1*
X-484618Y146063D2*
X-221180D1*
X417353D2*
X435955D1*
X-484618Y137533D2*
X-351219D1*
X285063D2*
X435955D1*
X-484618Y129003D2*
X-351219D1*
X283000D2*
X435955D1*
X-484618Y120472D2*
X-351219D1*
X275370D2*
X435972D1*
X-484618Y111942D2*
X-351219D1*
X266827D2*
X435972D1*
X-484618Y103412D2*
X-351219D1*
X275218D2*
X435972D1*
X-484618Y94882D2*
X-351219D1*
X275218D2*
X435988D1*
X-484618Y86352D2*
X-433891D1*
X275218D2*
X435988D1*
X275218Y77822D2*
X435988D1*
X275218Y69291D2*
X436005D1*
X275218Y60761D2*
X436005D1*
X275218Y52231D2*
X436005D1*
X-272413Y43701D2*
X-251748D1*
X270938D2*
X436022D1*
X-272413Y35171D2*
X-260274D1*
X270938D2*
X436022D1*
X-272413Y26640D2*
X-267970D1*
X270938D2*
X436039D1*
X-429097Y18110D2*
X-340189D1*
X270938D2*
X436039D1*
X-429097Y9580D2*
X-340189D1*
X270938D2*
X436039D1*
X-429097Y1050D2*
X-340189D1*
X270938D2*
X436056D1*
X-429097Y-7480D2*
X-391244D1*
X-382793D2*
X-340189D1*
X270938D2*
X436056D1*
X270938Y-16010D2*
X436056D1*
X270938Y-24541D2*
X436073D1*
X270938Y-92782D2*
X436125D1*
X-553909Y-101312D2*
X-545306D1*
X270938D2*
X436125D1*
X-553892Y-109843D2*
X-536780D1*
X270938D2*
X436125D1*
X-553892Y-118373D2*
X-528253D1*
X-205999D2*
X-200980D1*
X270938D2*
X436140D1*
X-553875Y-126903D2*
X-519727D1*
X-214525D2*
X-200913D1*
X270938D2*
X436140D1*
X-553860Y-135433D2*
X-460806D1*
X-223067D2*
X-200862D1*
X270938D2*
X451079D1*
X-553860Y-143963D2*
X-469332D1*
X-231593D2*
X-201878D1*
X270938D2*
X478213D1*
X-553843Y-152493D2*
X-477858D1*
X-240119D2*
X-197056D1*
X220374D2*
X505348D1*
X-553825Y-161024D2*
X-486385D1*
X-248646D2*
X-241378D1*
X228274D2*
X532483D1*
X-553825Y-169554D2*
X-494911D1*
X-258457D2*
X-241378D1*
X230744D2*
X411899D1*
X480791D2*
X553848D1*
X-553808Y-178084D2*
X-503454D1*
X-292883D2*
X-241378D1*
X47146D2*
X68081D1*
X230744D2*
X405199D1*
X488100D2*
X553815D1*
X-553791Y-186614D2*
X-511980D1*
X-292883D2*
X-241378D1*
X55688D2*
X76608D1*
X490772D2*
X553798D1*
X-553791Y-195144D2*
X-520505D1*
X-292883D2*
X-241378D1*
X64214D2*
X85134D1*
X490400D2*
X553764D1*
X-553774Y-203675D2*
X-529031D1*
X-292883D2*
X-241378D1*
X72740D2*
X93660D1*
X509346D2*
X553747D1*
X-553757Y-212205D2*
X-534209D1*
X-292883D2*
X-241378D1*
X81266D2*
X102186D1*
X517534D2*
X553713D1*
X-553740Y-220735D2*
X-534682D1*
X-436169D2*
X-431524D1*
X-292883D2*
X-241378D1*
X89793D2*
X110728D1*
X-553740Y-229265D2*
X-534682D1*
X-442293D2*
X-428766D1*
X-380681D2*
X-348055D1*
X-299971D2*
X-146677D1*
X-41312D2*
X-10667D1*
X98336D2*
X119255D1*
X-442293Y-237795D2*
X-428766D1*
X-380681D2*
X-348055D1*
X-299971D2*
X-265772D1*
X-41312D2*
X-2140D1*
X106862D2*
X127781D1*
X-442293Y-246325D2*
X-428766D1*
X-380681D2*
X-348055D1*
X-299971D2*
X-265772D1*
X-41312D2*
X6386D1*
X115387D2*
X136307D1*
X-442293Y-254856D2*
X-428766D1*
X-380681D2*
X-348055D1*
X-299971D2*
X-265772D1*
X-41312D2*
X14929D1*
X123913D2*
X144850D1*
X-440940Y-263386D2*
X-428766D1*
X-380681D2*
X-348055D1*
X-41312D2*
X23455D1*
X132457D2*
X153377D1*
X-436457Y-271916D2*
X-428766D1*
X-380681D2*
X-348055D1*
X-41312D2*
X31980D1*
X140983D2*
X161902D1*
X-380681Y-280446D2*
X-348055D1*
X-41312D2*
X40507D1*
X149509D2*
X170428D1*
X-380681Y-288976D2*
X-356463D1*
X-41312D2*
X49050D1*
X158035D2*
X178971D1*
X-380681Y-297507D2*
X-364990D1*
X-41312D2*
X57576D1*
X166577D2*
X187497D1*
X-380681Y-306037D2*
X-373533D1*
X-41312D2*
X59420D1*
X173480D2*
X199018D1*
X-108438Y-314567D2*
X59420D1*
X178115D2*
X282113D1*
X-108438Y-323097D2*
X59420D1*
X94123D2*
X104825D1*
X186659D2*
X285294D1*
X428924D2*
X446054D1*
X-498406Y-331627D2*
X-492949D1*
X-108438D2*
X-45701D1*
X104764D2*
X112962D1*
X195185D2*
X257042D1*
X420398D2*
X439982D1*
X-505003Y-340157D2*
X-492949D1*
X104764D2*
X112962D1*
X203710D2*
X248516D1*
X411856D2*
X437055D1*
X-553571Y-348688D2*
X-536745D1*
X-521531D2*
X-492949D1*
X104764D2*
X112962D1*
X208971D2*
X226744D1*
X403329D2*
X436429D1*
X-553555Y-357218D2*
X-492949D1*
X104764D2*
X112962D1*
X209479D2*
X226744D1*
X394718D2*
X438001D1*
X-553555Y-365748D2*
X-492949D1*
X104764D2*
X112962D1*
X209479D2*
X226744D1*
X365385D2*
X442113D1*
X-553538Y-374278D2*
X-492949D1*
X104764D2*
X112962D1*
X213421D2*
X226744D1*
X365385D2*
X444954D1*
X-553521Y-382808D2*
X-492949D1*
X104764D2*
X112962D1*
X147665D2*
X158638D1*
X221946D2*
X226728D1*
X365385D2*
X439423D1*
X-553521Y-391339D2*
X-492949D1*
X147665D2*
X158638D1*
X365385D2*
X436835D1*
X-553504Y-399869D2*
X-492949D1*
X147665D2*
X158638D1*
X365385D2*
X436513D1*
X-553487Y-408399D2*
X-492949D1*
X147665D2*
X158638D1*
X433102D2*
X438402D1*
X-553470Y-416929D2*
X-454260D1*
X-202564D2*
X-150975D1*
X-44849D2*
X-33894D1*
X147665D2*
X158638D1*
X433102D2*
X442941D1*
X-471948Y-425459D2*
X-456730D1*
X-44849D2*
X-33894D1*
X147665D2*
X157436D1*
X433102D2*
X452009D1*
X-422009Y-433990D2*
X-416568D1*
X-117286D2*
X-112625D1*
X-44849D2*
X-35738D1*
X433102D2*
X451755D1*
X-422009Y-442520D2*
X-416568D1*
X-117286D2*
X-112625D1*
X433102D2*
X444921D1*
X-117286Y-451050D2*
X-112625D1*
X433102D2*
X438110D1*
X-117286Y-459580D2*
X-112625D1*
X-117286Y-468110D2*
X-112625D1*
X-117286Y-476640D2*
X-78385D1*
X-117286Y-485171D2*
X-86911D1*
X-242488Y-493701D2*
X-91765D1*
X-405870Y-502231D2*
X-92155D1*
X-401676Y-510761D2*
X-249126D1*
X160979Y-519291D2*
X183675D1*
X84937Y-527822D2*
X98210D1*
X157697D2*
X262845D1*
X284252D2*
X421186D1*
X75261Y-536352D2*
X104993D1*
X150913D2*
X421186D1*
X-185325Y-544882D2*
X421186D1*
X-185106Y-553412D2*
X421186D1*
X-349883Y404677D2*
X-217364D1*
X-225738Y413050D1*
X-428650Y413039D1*
X-431304Y410404D1*
X-434497Y408084D1*
X-438013Y406293D1*
X-441766Y405073D1*
X-445664Y404455D1*
X-449612D1*
X-453509Y405073D1*
X-457262Y406293D1*
X-460778Y408084D1*
X-463971Y410404D1*
X-466761Y413194D1*
X-469081Y416387D1*
X-470873Y419903D1*
X-472092Y423656D1*
X-472710Y427554D1*
X-472705Y431539D1*
X-476466Y429668D1*
X-501823Y426774D1*
X-511633Y426706D1*
X-507835Y423891D1*
X-504062Y420118D1*
X-500925Y415801D1*
X-498503Y411046D1*
X-496853Y405971D1*
X-496018Y400699D1*
Y395364D1*
X-496853Y390092D1*
X-497252Y388677D1*
X-448879Y340236D1*
X-447358Y338143D1*
X-446184Y335837D1*
X-445385Y333377D1*
X-444980Y330822D1*
X-444929Y303543D1*
X-444980Y196738D1*
X-445385Y194182D1*
X-446184Y191722D1*
X-447358Y189416D1*
X-448879Y187323D1*
X-468133Y167999D1*
X-485490Y150642D1*
X-485480Y86176D1*
X-433021Y86173D1*
X-433024Y89717D1*
X-350350D1*
X-350356Y145622D1*
X-219870D1*
X-225488Y151231D1*
X-349568Y151228D1*
Y227560D1*
X-351630Y228892D1*
X-354283Y231160D1*
X-390157Y266976D1*
X-394707Y267335D1*
X-399146Y268400D1*
X-403362Y270147D1*
X-407255Y272531D1*
X-410724Y275496D1*
X-413689Y278966D1*
X-416073Y282858D1*
X-417820Y287075D1*
X-418886Y291513D1*
X-419244Y296063D1*
X-418886Y300613D1*
X-417820Y305051D1*
X-416073Y309268D1*
X-413689Y313160D1*
X-410724Y316630D1*
X-407255Y319594D1*
X-403362Y321979D1*
X-399146Y323726D1*
X-394707Y324791D1*
X-390157Y325150D1*
X-385608Y324791D1*
X-381169Y323726D1*
X-376953Y321979D1*
X-373060Y319594D1*
X-369591Y316630D1*
X-366626Y313160D1*
X-364241Y309268D1*
X-362495Y305051D1*
X-361546Y301199D1*
X-329383Y269042D1*
X-320261Y269047D1*
X-320131Y307039D1*
X-319798Y309106D1*
X-319146Y311094D1*
X-318190Y312957D1*
X-316955Y314647D1*
X-315471Y316123D1*
X-313774Y317349D1*
X-311907Y318294D1*
X-309911Y318936D1*
X-350749Y318945D1*
Y404677D1*
X-349883D1*
X70512Y282630D2*
X94730D1*
X94789Y301827D1*
X95236Y304656D1*
X96122Y307382D1*
X96726Y308689D1*
X92411Y304526D1*
X70508Y282623D1*
X131252Y281843D2*
X183119D1*
X180024Y282774D1*
X176378Y284285D1*
X173013Y286346D1*
X170472Y288433D1*
X131243D1*
X131252Y281836D1*
X362063Y279874D2*
X416488D1*
Y142961D1*
X350441D1*
Y143357D1*
X284202Y143354D1*
X284154Y135714D1*
X283749Y133159D1*
X282950Y130698D1*
X281776Y128392D1*
X280255Y126299D1*
X264411Y110385D1*
X264999Y110189D1*
X274353D1*
Y44142D1*
X270080D1*
X270079Y-25241D1*
X326921Y-25244D1*
Y-32130D1*
X436933Y-32134D1*
X436614Y424643D1*
X433917Y462402D1*
X423741Y487572D1*
X423622Y488583D1*
Y555522D1*
X357835Y555467D1*
X357827Y498769D1*
X363339Y498772D1*
X363364Y465681D1*
X365753Y464692D1*
X367959Y463340D1*
X369927Y461659D1*
X383798Y447717D1*
X385319Y445623D1*
X386493Y443318D1*
X387293Y440857D1*
X387697Y438302D1*
X387748Y411024D1*
Y406236D1*
X398772Y406252D1*
Y340205D1*
X377710D1*
X364252Y326832D1*
X362154Y325308D1*
X362205Y324770D1*
X365570Y322709D1*
X368571Y320146D1*
X371134Y317144D1*
X373196Y313780D1*
X374706Y310134D1*
X375627Y306297D1*
X375937Y302362D1*
X375627Y298428D1*
X374706Y294591D1*
X373196Y290945D1*
X371134Y287580D1*
X368571Y284579D1*
X365570Y282016D1*
X362030Y279873D1*
X-273276Y16583D2*
Y-19248D1*
X-269252Y-15226D1*
X-269193Y19798D1*
X-268789Y22353D1*
X-267990Y24814D1*
X-266815Y27119D1*
X-265294Y29213D1*
X-248852Y45726D1*
X-273285Y45717D1*
X-273293Y16583D1*
X-339323Y-8707D2*
Y23671D1*
X-429961Y23669D1*
X-429969Y-8719D1*
X-394064Y-8709D1*
X-390866Y-7589D1*
X-388311Y-7185D1*
X-385723D1*
X-383168Y-7589D1*
X-380702Y-8391D1*
X-376724Y-8709D1*
X-339322D1*
X-239647Y-157134D2*
X-149343D1*
X-149902Y-155203D1*
X-189377Y-155370D1*
X-191429Y-154961D1*
X-193392Y-154234D1*
X-195218Y-153209D1*
X-196860Y-151912D1*
X-198280Y-150373D1*
X-199440Y-148631D1*
X-200315Y-146730D1*
X-200881Y-144714D1*
X-201125Y-142635D1*
X-201039Y-140545D1*
X-200630Y-138492D1*
X-200303Y-137492D1*
X-200013Y-132770D1*
X-200159Y-111676D1*
X-255827Y-167262D1*
X-257920Y-168783D1*
X-260226Y-169958D1*
X-262686Y-170757D1*
X-265241Y-171161D1*
X-292520Y-171213D1*
X-293755D1*
X-293748Y-225937D1*
X-386475D1*
X-384598Y-228197D1*
X-381543D1*
Y-342169D1*
X-380657Y-342173D1*
X-380610Y-319572D1*
X-380206Y-317017D1*
X-379407Y-314556D1*
X-378232Y-312251D1*
X-376711Y-310157D1*
X-357458Y-290833D1*
X-353622Y-287068D1*
X-351529Y-285547D1*
X-349223Y-284373D1*
X-348004Y-283924D1*
X-347197Y-280858D1*
Y-228197D1*
X-300835D1*
Y-256743D1*
X-264925Y-256740D1*
X-264913Y-237055D1*
X-206262D1*
X-206252Y-236661D1*
X-145808D1*
X-145819Y-223169D1*
X-240513Y-223181D1*
Y-157134D1*
X-239647D1*
X-422982Y-225937D2*
X-430661D1*
Y-214349D1*
X-443154Y-226852D1*
X-443157Y-261837D1*
X-441071Y-264352D1*
X-439009Y-267717D1*
X-437499Y-271362D1*
X-436577Y-275199D1*
X-436312Y-278001D1*
X-427913Y-278000D1*
X-427906Y-228197D1*
X-422983D1*
X-422984Y-225942D1*
X-451930Y-414913D2*
X-492079D1*
Y-301615D1*
X-496438Y-305978D1*
X-495545Y-310034D1*
X-495126Y-315354D1*
X-495545Y-320675D1*
X-496790Y-325864D1*
X-498832Y-330794D1*
X-501621Y-335344D1*
X-505087Y-339402D1*
X-509144Y-342867D1*
X-513694Y-345656D1*
X-518625Y-347698D1*
X-523814Y-348944D1*
X-529134Y-349362D1*
X-534454Y-348944D1*
X-539643Y-347698D1*
X-544573Y-345656D1*
X-549123Y-342867D1*
X-553181Y-339402D1*
X-554449Y-338030D1*
X-554331Y-422441D1*
X-478850Y-422495D1*
X-477560Y-422913D1*
X-455864Y-434535D1*
X-455807Y-424297D1*
X-455403Y-421741D1*
X-454604Y-419281D1*
X-453429Y-416975D1*
X-452706Y-415895D1*
X-45717Y-401921D2*
Y-444836D1*
X-33028Y-432151D1*
X-33024Y-414531D1*
X-44835Y-414520D1*
Y-394000D1*
X-45717Y-396898D1*
X-45734Y-401921D1*
X-69728Y-468850D2*
X-111764D1*
Y-423239D1*
X-115206Y-425774D1*
X-118155Y-427304D1*
X-118157Y-486173D1*
X-243365D1*
X-243354Y-500740D1*
X-406739D1*
X-406740Y-506562D1*
X-399476Y-513820D1*
X-251324Y-513827D1*
X-246535Y-509115D1*
X-244442Y-507594D1*
X-242136Y-506420D1*
X-239676Y-505621D1*
X-237121Y-505217D1*
X-209843Y-505165D1*
X-91306D1*
X-91240Y-495950D1*
X-90836Y-493395D1*
X-90037Y-490934D1*
X-88862Y-488629D1*
X-87341Y-486535D1*
X-69727Y-468850D1*
X-109311Y-331937D2*
X-45717D1*
Y-343762D1*
X-44835Y-343417D1*
Y-324850D1*
X13339D1*
Y-329773D1*
X45702Y-329772D1*
X45717Y-324850D1*
X60282D1*
X60283Y-299349D1*
X-15499Y-223567D1*
X-42173Y-223575D1*
Y-309008D1*
X-108220D1*
Y-292277D1*
X-109299Y-295669D1*
Y-331923D1*
X364520Y-361570D2*
X364614Y-401622D1*
X432236D1*
Y-460286D1*
X433766Y-460283D1*
X437407Y-453013D1*
X453776Y-432626D1*
X454908Y-431881D1*
X462753Y-429770D1*
X458245Y-428269D1*
X453491Y-425846D1*
X449173Y-422710D1*
X445400Y-418937D1*
X442264Y-414619D1*
X439841Y-409865D1*
X438192Y-404790D1*
X437357Y-399518D1*
Y-394182D1*
X438192Y-388911D1*
X439841Y-383836D1*
X442264Y-379081D1*
X445400Y-374764D1*
X448231Y-371861D1*
X445400Y-368937D1*
X442264Y-364619D1*
X439841Y-359865D1*
X438192Y-354790D1*
X437357Y-349518D1*
Y-344182D1*
X438192Y-338911D1*
X439841Y-333836D1*
X442264Y-329081D1*
X445400Y-324764D1*
X448231Y-321861D1*
X445400Y-318937D1*
X442264Y-314619D1*
X440299Y-310860D1*
X393879Y-357192D1*
X391562Y-358877D1*
X389009Y-360177D1*
X386283Y-361063D1*
X383454Y-361510D1*
X364512Y-361567D1*
X231937Y-346110D2*
X245589D1*
X247029Y-343215D1*
X248714Y-340898D1*
X259135Y-330395D1*
X261315Y-328534D1*
X263757Y-327038D1*
X266404Y-325941D1*
X269190Y-325272D1*
X272047Y-325047D1*
X286545D1*
X285951Y-321265D1*
X285944Y-317526D1*
X275070Y-306655D1*
X203037Y-306594D1*
X200482Y-306190D1*
X198021Y-305391D1*
X195715Y-304217D1*
X193622Y-302696D1*
X174298Y-283442D1*
X61676Y-170820D1*
X44769Y-170768D1*
X42214Y-170364D1*
X39753Y-169564D1*
X37448Y-168390D1*
X35354Y-166869D1*
X29495Y-161080D1*
X27815Y-159113D1*
X26462Y-156907D1*
X25471Y-154512D1*
X23323Y-154005D1*
X22223Y-154013D1*
X170018Y-301890D1*
X171539Y-303983D1*
X172714Y-306289D1*
X173513Y-308749D1*
X173766Y-310024D1*
X175264Y-312576D1*
X204664Y-342047D1*
X206185Y-344140D1*
X207360Y-346446D1*
X208159Y-348907D1*
X208563Y-351462D1*
X208614Y-370332D1*
X227601Y-389323D1*
X227606Y-346110D1*
X231937D1*
X-202713Y-420126D2*
X-147917D1*
X-149790Y-417471D1*
X-151203Y-414774D1*
X-155593Y-410388D1*
X-206408Y-410386D1*
X-204324Y-414391D1*
X-203105Y-418144D1*
X-202714Y-420119D1*
X364608Y-526331D2*
X297685D1*
Y-492412D1*
X295122Y-489843D1*
X295192Y-515551D1*
X294874Y-517621D1*
X294236Y-519614D1*
X293295Y-521483D1*
X292073Y-523182D1*
X290600Y-524669D1*
X288912Y-525907D1*
X287051Y-526866D1*
X285064Y-527522D1*
X282999Y-527860D1*
X260175Y-527806D1*
X195743Y-527466D1*
X193677Y-527129D1*
X191689Y-526472D1*
X189828Y-525514D1*
X188140Y-524276D1*
X186668Y-522789D1*
X185445Y-521091D1*
X184503Y-519217D1*
X183858Y-518457D1*
X180202Y-518406D1*
X177647Y-518001D1*
X175186Y-517202D1*
X172881Y-516028D1*
X170787Y-514507D1*
X159992Y-503782D1*
X160570Y-506644D1*
X160976Y-511811D1*
X160570Y-516978D1*
X159360Y-522016D1*
X157377Y-526803D1*
X154669Y-531222D1*
X151304Y-535163D1*
X147364Y-538528D1*
X142945Y-541235D1*
X138157Y-543218D1*
X133119Y-544428D1*
X127953Y-544835D1*
X122786Y-544428D1*
X117748Y-543218D1*
X112961Y-541235D1*
X108542Y-538528D1*
X104601Y-535163D1*
X101236Y-531222D1*
X98529Y-526803D1*
X96546Y-522016D1*
X95336Y-516978D1*
X95291Y-516605D1*
X77638Y-534192D1*
X75545Y-535713D1*
X73239Y-536887D1*
X70778Y-537686D1*
X68223Y-538091D1*
X40945Y-538142D1*
X-186370D1*
X-185941Y-554333D1*
X422046Y-554331D1*
X422047Y-526333D1*
X364614Y-526328D1*
X91780Y552315D2*
X173181D1*
Y404685D1*
X183319Y404677D1*
X198870Y420219D1*
X198866Y498772D1*
X220909D1*
X220913Y555382D1*
X-187732Y555121D1*
X-187445Y534037D1*
X-187843Y532741D1*
X-188622Y531633D1*
X-189705Y530819D1*
X-190987Y530379D1*
X-200394Y530315D1*
X-242016Y530369D1*
X-243304Y530787D1*
X-244402Y531583D1*
X-245197Y532680D1*
X-245615Y533969D1*
X-245669Y547638D1*
Y553913D1*
X-425614Y553520D1*
X-425932Y496459D1*
X-423194Y497289D1*
X-419297Y497907D1*
X-415349D1*
X-411451Y497289D1*
X-407698Y496070D1*
X-404182Y494278D1*
X-400990Y491958D1*
X-398340Y489322D1*
X-240438Y489272D1*
X-237883Y488867D1*
X-235423Y488068D1*
X-233117Y486894D1*
X-231024Y485373D1*
X-211699Y466119D1*
X-155849Y410269D1*
X-155858Y441245D1*
X-158493Y443903D1*
X-160814Y447096D1*
X-162605Y450612D1*
X-163824Y454365D1*
X-164442Y458262D1*
Y462210D1*
X-163824Y466108D1*
X-162605Y469861D1*
X-160814Y473377D1*
X-158493Y476570D1*
X-155703Y479360D1*
X-152510Y481680D1*
X-148995Y483471D1*
X-145241Y484690D1*
X-141344Y485308D1*
X-137836Y485325D1*
X-141462Y488459D1*
X-144827Y492400D1*
X-147534Y496819D1*
X-149517Y501606D1*
X-150727Y506644D1*
X-151134Y511811D1*
X-150727Y516978D1*
X-149517Y522016D1*
X-147534Y526803D1*
X-144827Y531222D1*
X-141462Y535163D1*
X-137521Y538528D1*
X-133102Y541235D1*
X-128315Y543218D1*
X-123277Y544428D1*
X-118110Y544835D1*
X-112944Y544428D1*
X-107906Y543218D1*
X-103118Y541235D1*
X-98699Y538528D1*
X-94759Y535163D1*
X-91394Y531222D1*
X-88686Y526803D1*
X-86703Y522016D1*
X-85493Y516978D1*
X-85087Y511811D1*
X-85493Y506644D1*
X-86703Y501606D1*
X-88686Y496819D1*
X-91394Y492400D1*
X-94759Y488459D1*
X-98699Y485094D1*
X-103118Y482387D1*
X-107906Y480404D1*
X-112944Y479194D1*
X-118110Y478787D1*
X-122783Y479135D1*
X-120247Y476570D1*
X-117927Y473377D1*
X-116135Y469861D1*
X-114916Y466108D1*
X-114298Y462210D1*
Y458262D1*
X-114916Y454365D1*
X-116135Y450612D1*
X-117927Y447096D1*
X-120247Y443903D1*
X-122883Y441253D1*
X-122882Y399759D1*
X-89517Y366378D1*
X-89520Y406843D1*
X-79482D1*
X-79480Y471213D1*
X-66804Y471255D1*
Y475202D1*
X-66186Y479100D1*
X-64967Y482853D1*
X-63176Y486369D1*
X-60856Y489562D1*
X-58066Y492352D1*
X-54873Y494672D1*
X-51357Y496463D1*
X-47604Y497682D1*
X-43706Y498301D1*
X-39759D1*
X-35861Y497682D1*
X-32108Y496463D1*
X-28592Y494672D1*
X-25399Y492352D1*
X-22609Y489562D1*
X-20289Y486369D1*
X-18497Y482853D1*
X-17278Y479100D1*
X-16660Y475202D1*
X-16665Y471217D1*
X11657Y471213D1*
X11718Y482142D1*
X12165Y484971D1*
X13051Y487697D1*
X14352Y490249D1*
X16037Y492567D1*
X32322Y508932D1*
X55071Y531601D1*
X57388Y533286D1*
X59941Y534587D1*
X62667Y535472D1*
X65496Y535920D1*
X87449Y535976D1*
Y552315D1*
X91780D1*
X326921Y-84403D2*
Y-91291D1*
X270064D1*
X270079Y-144882D1*
X211902D1*
X225924Y-158976D1*
X227445Y-161070D1*
X228619Y-163375D1*
X229419Y-165836D1*
X229823Y-168391D1*
X229874Y-180190D1*
X233597Y-183902D1*
X404110Y-183906D1*
X404822Y-181205D1*
X406332Y-177559D1*
X408394Y-174194D1*
X410957Y-171193D1*
X413958Y-168630D1*
X417323Y-166568D1*
X420969Y-165058D1*
X424806Y-164136D1*
X428740Y-163827D1*
X432675Y-164136D1*
X436512Y-165058D1*
X440157Y-166568D1*
X443522Y-168630D1*
X446524Y-171193D1*
X447220Y-171946D1*
X450178Y-169417D1*
X453543Y-167356D1*
X457189Y-165845D1*
X461026Y-164924D1*
X464961Y-164614D1*
X468895Y-164924D1*
X472732Y-165845D1*
X476378Y-167356D1*
X479743Y-169417D1*
X482744Y-171980D1*
X485307Y-174982D1*
X487369Y-178346D1*
X488879Y-181992D1*
X489801Y-185829D1*
X490110Y-189764D1*
X489801Y-193698D1*
X488879Y-197535D1*
X488535Y-198469D1*
X497751Y-198524D1*
X500306Y-198928D1*
X502766Y-199727D1*
X505072Y-200902D1*
X507165Y-202423D1*
X514808Y-209995D1*
X516490Y-211962D1*
X517841Y-214168D1*
X518385Y-215349D1*
X519178Y-215243D1*
X522424Y-214031D1*
X525774Y-213156D1*
X529197Y-212627D1*
X532655Y-212449D1*
X536114Y-212623D1*
X539537Y-213148D1*
X542888Y-214018D1*
X546135Y-215224D1*
X549241Y-216756D1*
X552176Y-218594D1*
X554559Y-220428D1*
X554715Y-167752D1*
X439409Y-131437D1*
X438306Y-130651D1*
X437499Y-129562D1*
X437068Y-128277D1*
X437001Y-118900D1*
X436978Y-84407D1*
X326936Y-84402D1*
X-14723Y405165D2*
X-37252Y405110D1*
Y338827D1*
X-61967D1*
X-48486Y325276D1*
X-46965Y323182D1*
X-45790Y320877D1*
X-44991Y318416D1*
X-44738Y317142D1*
X-43457Y316291D1*
X-9776D1*
X12752Y338825D1*
X-14717Y338827D1*
Y405160D1*
X333406Y284207D2*
X331804Y285875D1*
X227840Y285925D1*
X225285Y286329D1*
X222824Y287129D1*
X220518Y288303D1*
X218425Y289824D1*
X211051Y297127D1*
X209239Y293552D1*
X206919Y290360D1*
X204129Y287570D1*
X200936Y285249D1*
X199038Y284203D1*
X264913Y284205D1*
Y232327D1*
X269730Y237143D1*
X269732Y284205D1*
X333391D1*
X437255Y-246866D2*
X437265Y-246014D1*
X-554591Y-242832D2*
X-551220Y-239495D1*
X-546903Y-236358D1*
X-542148Y-233936D1*
X-537073Y-232286D1*
X-533802Y-231688D1*
X-533760Y-214848D1*
X-533356Y-212293D1*
X-532556Y-209832D1*
X-531382Y-207526D1*
X-529861Y-205433D1*
X-510608Y-186109D1*
X-457533Y-133034D1*
X-507199Y-132972D1*
X-509755Y-132568D1*
X-512215Y-131769D1*
X-514521Y-130594D1*
X-516614Y-129073D1*
X-535938Y-109820D1*
X-554273Y-91413D1*
X-554790Y-93301D1*
X-554584Y-242794D1*
X103890Y-363343D2*
Y-385543D1*
X107879Y-388314D1*
X111777Y-388932D1*
X113829Y-389524D1*
X113827Y-331234D1*
X93261Y-310673D1*
X93354Y-324850D1*
X103890D1*
X103873Y-363339D1*
X-415701Y-456651D2*
Y-425239D1*
X-422873Y-432411D1*
X-422882Y-449461D1*
X-415689Y-456661D1*
X159492Y-377035D2*
X155507Y-377041D1*
X151609Y-376423D1*
X147856Y-375203D1*
X146798Y-374717D1*
X146752Y-427278D1*
X146348Y-429833D1*
X145549Y-432294D1*
X144374Y-434600D1*
X142853Y-436693D1*
X131148Y-448469D1*
X135306Y-448472D1*
X159499Y-424270D1*
X159496Y-377052D1*
X-83076Y155364D2*
X-69814Y155400D1*
X-69823Y214602D1*
X-91992Y236783D1*
X-91986Y168441D1*
X-86993Y163353D1*
X-85345Y161085D1*
X-84072Y158588D1*
X-83206Y155921D1*
X-83096Y155367D1*
X-311820Y404660D2*
D10*
Y318962D1*
X-350732Y361811D2*
X-311820D1*
X75984Y282613D2*
Y247638D1*
X150394Y281825D2*
Y246850D1*
X383465Y177953D2*
Y142978D1*
Y177953D2*
X416471D1*
X-310639Y194094D2*
Y151245D1*
X-349551Y194094D2*
X-310639D1*
X-315364Y145605D2*
Y112598D1*
X-350339D2*
X-315364D1*
X239361Y77165D2*
X274336D1*
X-306299Y-15354D2*
X-273293D1*
X-462992Y86156D2*
Y51181D1*
X-205521Y-157151D2*
Y-223164D1*
X-240496Y-190157D2*
X-205521D1*
X-328740Y-192913D2*
Y-225920D1*
Y-192913D2*
X-293765D1*
X-459055Y-379921D2*
Y-414896D1*
X-492062Y-379921D2*
X-459055D1*
X-78740Y-433858D2*
Y-468833D1*
X-111747Y-433858D2*
X-45734D1*
X329528Y-379134D2*
X364503D1*
X397244Y-401639D2*
Y-434646D1*
X432219D1*
X-153150Y-420143D2*
Y-486156D1*
Y-453150D2*
X-118175D1*
X399606Y-493307D2*
Y-526314D1*
X322835Y528740D2*
X357810D1*
X-63386Y372835D2*
Y338844D1*
X-89503Y372835D2*
X-37269D1*
X310630Y180315D2*
Y143371D1*
X224016Y284188D2*
Y247244D1*
X264896D1*
X532677Y-212466D2*
Y-246457D1*
X437269Y-246850D2*
X471260D1*
X-427888Y-274016D2*
X-381560D1*
X-324016Y-228214D2*
Y-248425D1*
X-347180D2*
X-300852D1*
X74803Y-369685D2*
X103873D1*
X-15748Y-324867D2*
Y-344094D1*
X-44818D2*
X-15748D1*
X-415684Y-440157D2*
X-386614D1*
D32*
X-311820Y361811D3*
X-237017D3*
D33*
X75984Y180709D3*
Y247638D3*
X150394Y246850D3*
Y179921D3*
X383465Y244882D3*
Y177953D3*
D32*
X-310639Y194094D3*
X-235836D3*
D34*
X-315364Y112598D3*
X-248434D3*
X172432Y77165D3*
X239361D3*
D33*
X-306299Y-15354D3*
Y51575D3*
X-462992Y-15748D3*
Y51181D3*
X168888Y-54331D3*
Y12598D3*
D34*
X-205521Y-190157D3*
X-138592D3*
X-395669Y-192913D3*
X-328740D3*
D33*
X-459055Y-379921D3*
Y-312992D3*
X-78740Y-433858D3*
Y-366929D3*
D34*
X329528Y-379134D3*
X262598D3*
X330315Y-434646D3*
X397244D3*
X-220079Y-453150D3*
X-153150D3*
X332677Y-493307D3*
X399606D3*
D36*
X130315Y513386D3*
Y438583D3*
D116*
X-288189Y286220D3*
X-225197Y286047D3*
D37*
X-157490Y192913D3*
Y259843D3*
D38*
X231890Y-58268D3*
X294882D3*
D39*
X516929Y-66142D3*
D34*
X255906Y528740D3*
X322835D3*
X-44488Y438189D3*
X22441D3*
D33*
X-75197Y-274016D3*
Y-207087D3*
X-231890Y-338976D3*
Y-272047D3*
X-173228Y-338583D3*
Y-271654D3*
D42*
X11417Y372835D3*
X-63386D3*
X-25984Y282283D3*
D43*
X330315Y450000D3*
X231890D3*
D44*
X-529921Y298031D3*
Y348031D3*
Y248031D3*
Y398031D3*
D119*
X507874Y305118D3*
X508787Y-68898D3*
D46*
X310630Y180315D3*
X224016D3*
Y247244D3*
X310630D3*
D47*
X-45456Y-394D3*
D48*
X-132071Y118701D3*
X-116323D3*
X-100575D3*
X-84827D3*
X-69079D3*
X-53330D3*
X-37582D3*
X-21834D3*
X-6086D3*
X9662D3*
X25410D3*
X41158D3*
D49*
X73638Y86220D3*
Y70472D3*
Y54724D3*
Y38976D3*
Y23228D3*
Y7480D3*
Y-8268D3*
Y-24016D3*
Y-39764D3*
Y-55512D3*
Y-71260D3*
Y-87008D3*
D48*
X41158Y-119488D3*
X25410D3*
X9662D3*
X-6086D3*
X-21834D3*
X-37582D3*
X-53330D3*
X-69079D3*
X-84827D3*
X-100575D3*
X-116323D3*
X-132071D3*
D49*
X-164551Y-87008D3*
Y-71260D3*
Y-55512D3*
Y-39764D3*
Y-24016D3*
Y-8268D3*
Y7480D3*
Y23228D3*
Y38976D3*
Y54724D3*
Y70472D3*
Y86220D3*
D50*
X-384252Y56693D3*
Y-41732D3*
D44*
X532677Y-346457D3*
Y-296457D3*
Y-396457D3*
Y-246457D3*
X471260Y-346850D3*
Y-296850D3*
Y-396850D3*
Y-246850D3*
D51*
X-404724Y-274016D3*
Y-299606D3*
X-324016D3*
Y-274016D3*
X-404724Y-248425D3*
Y-325197D3*
X-324016D3*
Y-248425D3*
D44*
X-529134Y-315354D3*
Y-265354D3*
D53*
X74803Y-395276D3*
Y-369685D3*
Y-344094D3*
X-15748D3*
Y-369685D3*
Y-395276D3*
D54*
X29528Y-369685D3*
D55*
X-272441Y-400787D3*
Y-440157D3*
Y-479528D3*
X-386614Y-400787D3*
Y-440157D3*
Y-479528D3*
D122*
X-329528Y-440157D3*
D57*
X209843Y-442913D3*
Y-462598D3*
Y-482283D3*
Y-501969D3*
D58*
X229528D3*
X249213D3*
D57*
X268898D3*
Y-482283D3*
Y-462598D3*
Y-442913D3*
D58*
X249213D3*
X229528D3*
D34*
X296850Y373228D3*
X363780D3*
M02*
