G04 DipTrace 3.2.0.1*
G04 TopMask.gbr*
%MOIN*%
G04 #@! TF.FileFunction,Soldermask,Top*
G04 #@! TF.Part,Single*
%AMOUTLINE1*
4,1,4,
-0.022702,-0.02356,
-0.022573,0.023684,
0.022702,0.02356,
0.022573,-0.023684,
-0.022702,-0.02356,
0*%
%AMOUTLINE4*
4,1,4,
0.043229,0.031601,
0.043384,-0.031389,
-0.043229,-0.031601,
-0.043384,0.031389,
0.043229,0.031601,
0*%
%AMOUTLINE7*
4,1,5,
0.033465,-0.051181,
-0.033465,-0.051181,
-0.033465,0.039032,
-0.021316,0.051181,
0.033465,0.051181,
0.033465,-0.051181,
0*%
%ADD63C,0.03937*%
%ADD72R,0.03937X0.023622*%
%ADD74R,0.033465X0.061024*%
%ADD76R,0.03937X0.019685*%
%ADD78R,0.027559X0.021654*%
%ADD80R,0.07874X0.047244*%
%ADD82O,0.033465X0.015748*%
%ADD84O,0.015748X0.033465*%
%ADD86R,0.192913X0.192913*%
%ADD88R,0.062992X0.055118*%
%ADD90C,0.049213*%
%ADD92R,0.047244X0.07874*%
%ADD94R,0.033465X0.049213*%
%ADD98R,0.037874X0.037874*%
%ADD100R,0.045276X0.047244*%
%ADD102R,0.064961X0.055118*%
%ADD104R,0.066929X0.059055*%
%ADD108R,0.051181X0.047244*%
%ADD110R,0.047244X0.051181*%
%ADD112R,0.059055X0.066929*%
%ADD117OUTLINE1*%
%ADD120OUTLINE4*%
%ADD123OUTLINE7*%
%FSLAX26Y26*%
G04*
G70*
G90*
G75*
G01*
G04 TopMask*
%LPD*%
D112*
X-311820Y361811D3*
X-237017D3*
D110*
X75984Y180709D3*
Y247638D3*
X150394Y246850D3*
Y179921D3*
X383465Y244882D3*
Y177953D3*
D112*
X-310639Y194094D3*
X-235836D3*
D108*
X-315364Y112598D3*
X-248434D3*
X172432Y77165D3*
X239361D3*
D110*
X-306299Y-15354D3*
Y51575D3*
X-462992Y-15748D3*
Y51181D3*
X168888Y-54331D3*
Y12598D3*
D108*
X-205521Y-190157D3*
X-138592D3*
X-395669Y-192913D3*
X-328740D3*
D110*
X-459055Y-379921D3*
Y-312992D3*
X-78740Y-433858D3*
Y-366929D3*
D108*
X330709Y-356299D3*
X263780D3*
D112*
X329134Y-424409D3*
X403937D3*
D108*
X-220079Y-453150D3*
X-153150D3*
X333465Y-497244D3*
X400394D3*
D104*
X130315Y513386D3*
Y438583D3*
D63*
X-118110Y511811D3*
X127953Y-511811D3*
D117*
X-288189Y286220D3*
X-225197Y286047D3*
D102*
X-157490Y192913D3*
Y259843D3*
D100*
X231890Y-58268D3*
X294882D3*
D98*
X516929Y-66142D3*
D108*
X255906Y528740D3*
X322835D3*
X-44488Y438189D3*
X22441D3*
D110*
X-75197Y-274016D3*
Y-207087D3*
X-231890Y-338976D3*
Y-272047D3*
X-173228Y-338583D3*
Y-271654D3*
D94*
X11417Y372835D3*
X-63386D3*
X-25984Y282283D3*
D92*
X330315Y450000D3*
X231890D3*
D90*
X-529921Y298031D3*
Y348031D3*
Y248031D3*
Y398031D3*
D120*
X507874Y305118D3*
X508787Y-68898D3*
D88*
X310630Y180315D3*
X224016D3*
Y247244D3*
X310630D3*
D86*
X-45449Y-394D3*
D84*
X-132063Y118701D3*
X-116315D3*
X-100567D3*
X-84819D3*
X-69071D3*
X-53323D3*
X-37575D3*
X-21827D3*
X-6079D3*
X9670D3*
X25418D3*
X41166D3*
D82*
X73646Y86220D3*
Y70472D3*
Y54724D3*
Y38976D3*
Y23228D3*
Y7480D3*
Y-8268D3*
Y-24016D3*
Y-39764D3*
Y-55512D3*
Y-71260D3*
Y-87008D3*
D84*
X41166Y-119488D3*
X25418D3*
X9670D3*
X-6079D3*
X-21827D3*
X-37575D3*
X-53323D3*
X-69071D3*
X-84819D3*
X-100567D3*
X-116315D3*
X-132063D3*
D82*
X-164543Y-87008D3*
Y-71260D3*
Y-55512D3*
Y-39764D3*
Y-24016D3*
Y-8268D3*
Y7480D3*
Y23228D3*
Y38976D3*
Y54724D3*
Y70472D3*
Y86220D3*
D80*
X-384252Y56693D3*
Y-41732D3*
D90*
X532677Y-346457D3*
Y-296457D3*
Y-396457D3*
Y-246457D3*
X471260Y-346850D3*
Y-296850D3*
Y-396850D3*
Y-246850D3*
D78*
X-404724Y-274016D3*
Y-299606D3*
X-324016D3*
Y-274016D3*
X-404724Y-248425D3*
Y-325197D3*
X-324016D3*
Y-248425D3*
D90*
X-529134Y-315354D3*
Y-265354D3*
D76*
X74803Y-395276D3*
Y-369685D3*
Y-344094D3*
X-15748D3*
Y-369685D3*
Y-395276D3*
D74*
X29528Y-369685D3*
D72*
X-272441Y-400787D3*
Y-440157D3*
Y-479528D3*
X-386614Y-400787D3*
Y-440157D3*
Y-479528D3*
D123*
X-329528Y-440157D3*
G36*
X188175Y-449997D2*
X208662D1*
Y-433466D1*
X188175D1*
Y-449997D1*
G37*
G36*
X188156Y-469685D2*
X208662D1*
Y-453146D1*
X188156D1*
Y-469685D1*
G37*
G36*
X188175Y-489374D2*
X208662D1*
Y-472834D1*
X188175D1*
Y-489374D1*
G37*
G36*
X188156Y-509088D2*
X208662D1*
Y-492514D1*
X188156D1*
Y-509088D1*
G37*
G36*
X248246Y-449988D2*
X268703D1*
Y-433466D1*
X248246D1*
Y-449988D1*
G37*
G36*
X248236Y-469685D2*
X268703D1*
Y-453146D1*
X248236D1*
Y-469685D1*
G37*
G36*
X248265Y-489408D2*
X268703D1*
Y-472834D1*
X248265D1*
Y-489408D1*
G37*
G36*
X248236Y-509054D2*
X268703D1*
Y-492514D1*
X248236D1*
Y-509054D1*
G37*
G36*
X210237Y-451571D2*
X226771D1*
Y-431104D1*
X210237D1*
Y-451571D1*
G37*
G36*
X229921Y-451554D2*
X246455D1*
Y-431104D1*
X229921D1*
Y-451554D1*
G37*
G36*
X210237Y-511416D2*
X226771D1*
Y-490940D1*
X210237D1*
Y-511416D1*
G37*
G36*
X229921Y-511433D2*
X246455D1*
Y-490940D1*
X229921D1*
Y-511433D1*
G37*
D108*
X296850Y373228D3*
X363780D3*
M02*
