G04 DipTrace 3.2.0.1*
G04 TopPaste.gbr*
%MOIN*%
G04 #@! TF.FileFunction,Paste,Top*
G04 #@! TF.Part,Single*
%AMOUTLINE2*
4,1,4,
-0.014807,-0.015708,
-0.014721,0.015788,
0.014807,0.015708,
0.014721,-0.015788,
-0.014807,-0.015708,
0*%
%AMOUTLINE5*
4,1,4,
0.035375,0.023708,
0.03549,-0.023535,
-0.035375,-0.023708,
-0.03549,0.023535,
0.035375,0.023708,
0*%
%AMOUTLINE8*
4,1,5,
0.025591,-0.043307,
-0.025591,-0.043307,
-0.025591,0.035771,
-0.018054,0.043307,
0.025591,0.043307,
0.025591,-0.043307,
0*%
%ADD69R,0.003937X0.004921*%
%ADD71R,0.004921X0.003937*%
%ADD73R,0.023622X0.007874*%
%ADD75R,0.017717X0.045276*%
%ADD77R,0.023622X0.003937*%
%ADD79R,0.011811X0.005906*%
%ADD81R,0.062992X0.031496*%
%ADD83O,0.017717X0.0*%
%ADD85O,0.0X0.017717*%
%ADD87R,0.177165X0.177165*%
%ADD89R,0.047244X0.03937*%
%ADD93R,0.031496X0.062992*%
%ADD95R,0.017717X0.033465*%
%ADD97R,0.022126X0.022126*%
%ADD99R,0.029528X0.031496*%
%ADD101R,0.049213X0.03937*%
%ADD105R,0.051181X0.043307*%
%ADD109R,0.035433X0.031496*%
%ADD111R,0.031496X0.035433*%
%ADD113R,0.043307X0.051181*%
%ADD118OUTLINE2*%
%ADD121OUTLINE5*%
%ADD124OUTLINE8*%
%FSLAX26Y26*%
G04*
G70*
G90*
G75*
G01*
G04 TopPaste*
%LPD*%
D113*
X-311820Y361811D3*
X-237017D3*
D111*
X75984Y180709D3*
Y247638D3*
X150394Y246850D3*
Y179921D3*
X383465Y244882D3*
Y177953D3*
D113*
X-310639Y194094D3*
X-235836D3*
D109*
X-315364Y112598D3*
X-248434D3*
X172432Y77165D3*
X239361D3*
D111*
X-306299Y-15354D3*
Y51575D3*
X-462992Y-15748D3*
Y51181D3*
X168888Y-54331D3*
Y12598D3*
D109*
X-205521Y-190157D3*
X-138592D3*
X-395669Y-192913D3*
X-328740D3*
D111*
X-459055Y-379921D3*
Y-312992D3*
X-78740Y-433858D3*
Y-366929D3*
D109*
X330709Y-356299D3*
X263780D3*
D113*
X329134Y-424409D3*
X403937D3*
D109*
X-220079Y-453150D3*
X-153150D3*
X333465Y-494882D3*
X400394D3*
D105*
X130315Y513386D3*
Y438583D3*
D118*
X-288189Y286220D3*
X-225197Y286047D3*
D101*
X-157490Y192913D3*
Y259843D3*
D99*
X231890Y-58268D3*
X294882D3*
D97*
X516929Y-66142D3*
D95*
X11417Y372835D3*
X-63386D3*
X-25984Y282283D3*
D109*
X255906Y528740D3*
X322835D3*
X-44488Y438189D3*
X22441D3*
X296850Y373228D3*
X363780D3*
D111*
X-75197Y-274016D3*
Y-207087D3*
X-173228Y-338583D3*
Y-271654D3*
X-231890Y-338976D3*
Y-272047D3*
D93*
X330315Y450000D3*
X231890D3*
D121*
X507874Y305118D3*
X508787Y-68898D3*
D89*
X310630Y180315D3*
X224016D3*
Y247244D3*
X310630D3*
D87*
X-45437Y-394D3*
D85*
X-132051Y118701D3*
X-116303D3*
X-100555D3*
X-84807D3*
X-69059D3*
X-53311D3*
X-37563D3*
X-21815D3*
X-6067D3*
X9681D3*
X25429D3*
X41177D3*
D83*
X73658Y86220D3*
Y70472D3*
Y54724D3*
Y38976D3*
Y23228D3*
Y7480D3*
Y-8268D3*
Y-24016D3*
Y-39764D3*
Y-55512D3*
Y-71260D3*
Y-87008D3*
D85*
X41177Y-119488D3*
X25429D3*
X9681D3*
X-6067D3*
X-21815D3*
X-37563D3*
X-53311D3*
X-69059D3*
X-84807D3*
X-100555D3*
X-116303D3*
X-132051D3*
D83*
X-164531Y-87008D3*
Y-71260D3*
Y-55512D3*
Y-39764D3*
Y-24016D3*
Y-8268D3*
Y7480D3*
Y23228D3*
Y38976D3*
Y54724D3*
Y70472D3*
Y86220D3*
D81*
X-384252Y56693D3*
Y-41732D3*
D79*
X-404724Y-274016D3*
Y-299606D3*
X-324016D3*
Y-274016D3*
X-404724Y-248425D3*
Y-325197D3*
X-324016D3*
Y-248425D3*
D77*
X74803Y-395276D3*
Y-369685D3*
Y-344094D3*
X-15748D3*
Y-369685D3*
Y-395276D3*
D75*
X29528Y-369685D3*
D73*
X-272441Y-400787D3*
Y-440157D3*
Y-479528D3*
X-386614Y-400787D3*
Y-440157D3*
Y-479528D3*
D124*
X-329528Y-440157D3*
D71*
X198819Y-441732D3*
Y-461417D3*
Y-481102D3*
Y-500787D3*
D69*
X218504D3*
X238189D3*
D71*
X257874D3*
Y-481102D3*
Y-461417D3*
Y-441732D3*
D69*
X238189D3*
X218504D3*
M02*
