G04 DipTrace 3.2.0.1*
G04 TopSilk.gbr*
%MOIN*%
G04 #@! TF.FileFunction,Legend,Top*
G04 #@! TF.Part,Single*
%ADD10C,0.009843*%
%ADD13C,0.001969*%
%ADD15C,0.007874*%
%ADD29C,0.005906*%
%ADD31C,0.003937*%
%ADD41C,0.015404*%
%ADD45O,0.019297X0.018904*%
%ADD52C,0.011817*%
%ADD56C,0.007876*%
%ADD114C,0.003281*%
%FSLAX26Y26*%
G04*
G70*
G90*
G75*
G01*
G04 TopSilk*
%LPD*%
X-353180Y336240D2*
D10*
Y387382D1*
X-351999Y168524D2*
Y219665D1*
X287774Y-449980D2*
Y-398839D1*
X104744Y554745D2*
X155886D1*
D41*
X42266Y387544D3*
X33066Y337402D2*
D10*
X-85039D1*
Y317716D1*
X33066D1*
Y337402D1*
X351181Y143701D2*
D29*
X184252D1*
Y284258D1*
X351181D1*
Y143701D1*
D45*
X311218Y295272D3*
X-200425Y74809D2*
D10*
G03X-198678Y74413I-95J-4462D01*
G01*
X-163612Y-118513D2*
D15*
Y-98813D1*
Y-118513D2*
X-143940D1*
X52959D2*
X72661D1*
Y-98813D1*
Y98025D2*
Y117726D1*
X52959D2*
X72661D1*
X-163612Y98025D2*
X-143940Y117726D1*
X-187260Y-142126D2*
D31*
X96279D1*
X-187260Y141339D2*
X96279D1*
Y-142126D2*
Y141339D1*
X-187260Y-142126D2*
Y141339D1*
X-423425Y-227756D2*
D29*
X-305315D1*
Y-345866D1*
X-423425D1*
Y-227756D1*
D52*
X105312Y-395275D3*
X68891Y-326378D2*
D10*
X-9846D1*
X68891Y-412992D2*
X-9846D1*
X-272440Y-373228D2*
X-386615D1*
X-272440Y-507087D2*
X-386615D1*
X186023Y-428937D2*
D29*
X270669D1*
Y-513583D1*
X186023D1*
Y-428937D1*
D56*
X176772Y-441338D3*
X-346072Y231102D2*
D31*
X-202756D1*
Y155906D1*
X-346072D1*
Y231102D1*
X-192913Y289764D2*
X-122047D1*
Y163386D1*
X-192913D1*
Y289764D1*
X-346860Y398819D2*
X-203543D1*
Y325984D1*
X-346860D1*
Y398819D1*
X-426378Y82283D2*
X-342913D1*
Y-67323D1*
X-426378D1*
Y82283D1*
X-557480Y426772D2*
X-503150D1*
Y219685D1*
X-557480D1*
Y426772D1*
X-489768Y80123D2*
X-437602D1*
Y-44886D1*
X-489768D1*
Y80123D1*
X-425009Y-166535D2*
X-300000D1*
Y-218701D1*
X-425009D1*
Y-166535D1*
X-332287Y80911D2*
X-280122D1*
Y-44098D1*
X-332287D1*
Y80911D1*
X-344694Y138976D2*
X-219685D1*
Y86811D1*
X-344694D1*
Y138976D1*
X-73434Y463387D2*
X51575D1*
Y411222D1*
X-73434D1*
Y463387D1*
X226566Y554724D2*
X351575D1*
Y502559D1*
X226566D1*
Y554724D1*
X124406Y275005D2*
X176571D1*
Y149996D1*
X124406D1*
Y275005D1*
X204715Y491339D2*
X357087D1*
Y408661D1*
X204715D1*
Y491339D1*
X49602Y276580D2*
X101768D1*
Y151571D1*
X49602D1*
Y276580D1*
X357476Y273037D2*
X409642D1*
Y148028D1*
X357476D1*
Y273037D1*
X234440Y-331101D2*
X359449D1*
Y-383266D1*
X234440D1*
Y-331101D1*
X297432Y-388976D2*
X435433D1*
Y-461024D1*
X297432D1*
Y-388976D1*
X242913Y-122441D2*
X343307D1*
Y-325591D1*
X242913D1*
Y-122441D1*
X345276Y-163386D2*
X511417D1*
X542520Y-193701D2*
Y-213780D1*
X512598Y-163780D2*
X542520Y-193307D1*
X346850Y-162205D2*
X368898Y-153937D1*
X346063Y-163386D2*
X367323Y-171654D1*
X-485831Y-283262D2*
X-433665D1*
Y-408272D1*
X-485831D1*
Y-283262D1*
X-234852Y-164961D2*
X-109843D1*
Y-217126D1*
X-234852D1*
Y-164961D1*
X-257486Y-242318D2*
X-205320D1*
Y-367327D1*
X-257486D1*
Y-242318D1*
X304518Y-470471D2*
X429528D1*
Y-522636D1*
X304518D1*
Y-470471D1*
X-104335Y-337987D2*
X-52169D1*
Y-462996D1*
X-104335D1*
Y-337987D1*
X-199218Y-243105D2*
X-147052D1*
Y-368114D1*
X-199218D1*
Y-243105D1*
X-249419Y-428346D2*
X-124409D1*
Y-480512D1*
X-249419D1*
Y-428346D1*
X-101185Y-178932D2*
X-49020D1*
Y-303941D1*
X-101185D1*
Y-178932D1*
X-314961Y312205D2*
X-198819D1*
Y260039D1*
X-314961D1*
Y312205D1*
X505512Y-218504D2*
X559843D1*
Y-425591D1*
X505512D1*
Y-218504D1*
X444488Y-218110D2*
X498819D1*
Y-425197D1*
X444488D1*
Y-218110D1*
X-555512Y-235039D2*
X-501181D1*
Y-346850D1*
X-555512D1*
Y-235039D1*
X207274Y-32677D2*
X320472D1*
Y-84448D1*
X207274D1*
Y-32677D1*
X143303Y41541D2*
X195469D1*
Y-83469D1*
X143303D1*
Y41541D1*
X143101Y102757D2*
X268110D1*
Y50592D1*
X143101D1*
Y102757D1*
X268692Y399606D2*
X393701D1*
Y347441D1*
X268692D1*
Y399606D1*
X-487444Y362247D2*
D13*
X-481538D1*
X-453979D2*
X-448073D1*
X-431341D2*
X-425436D1*
X-488878Y361262D2*
X-480103D1*
X-455414D2*
X-446639D1*
X-432742D2*
X-424001D1*
X-490107Y360278D2*
X-478875D1*
X-456642D2*
X-445410D1*
X-433879D2*
X-422772D1*
X-491070Y359294D2*
X-488386D1*
X-480595D2*
X-477911D1*
X-457606D2*
X-454922D1*
X-447131D2*
X-444447D1*
X-434732D2*
X-431337D1*
X-425785D2*
X-421809D1*
X-491826Y358310D2*
X-489206D1*
X-479775D2*
X-477155D1*
X-458362D2*
X-455742D1*
X-446311D2*
X-443691D1*
X-435364D2*
X-432284D1*
X-424508D2*
X-421053D1*
X-492141Y357325D2*
X-489791D1*
X-479191D2*
X-476878D1*
X-458676D2*
X-456326D1*
X-445726D2*
X-443414D1*
X-435805D2*
X-433116D1*
X-423613D2*
X-420776D1*
X-492417Y356341D2*
X-490123D1*
X-478859D2*
X-476728D1*
X-458952D2*
X-456658D1*
X-445394D2*
X-443264D1*
X-436074D2*
X-433764D1*
X-422942D2*
X-420626D1*
X-492721Y355357D2*
X-490283D1*
X-478698D2*
X-476660D1*
X-459256D2*
X-456819D1*
X-445234D2*
X-443196D1*
X-436262D2*
X-434294D1*
X-422710D2*
X-420558D1*
X-493001Y354373D2*
X-490353D1*
X-478629D2*
X-476633D1*
X-459536D2*
X-456888D1*
X-445164D2*
X-443168D1*
X-422620D2*
X-420534D1*
X-493183Y353388D2*
X-490380D1*
X-478601D2*
X-476622D1*
X-459718D2*
X-456916D1*
X-445137D2*
X-443158D1*
X-422641D2*
X-420562D1*
X-493278Y352404D2*
X-490391D1*
X-478591D2*
X-476619D1*
X-459813D2*
X-456926D1*
X-445126D2*
X-443154D1*
X-423065D2*
X-420723D1*
X-493321Y351420D2*
X-490394D1*
X-478587D2*
X-476617D1*
X-459856D2*
X-456930D1*
X-445123D2*
X-443153D1*
X-424312D2*
X-421121D1*
X-493339Y350436D2*
X-490396D1*
X-478586D2*
X-476617D1*
X-459874D2*
X-456931D1*
X-445121D2*
X-443152D1*
X-425948D2*
X-421771D1*
X-493345Y349451D2*
X-490396D1*
X-478586D2*
X-476617D1*
X-459881D2*
X-456932D1*
X-445121D2*
X-443152D1*
X-427493D2*
X-422587D1*
X-493348Y348467D2*
X-490396D1*
X-478585D2*
X-476617D1*
X-459883D2*
X-456932D1*
X-445121D2*
X-443152D1*
X-428568D2*
X-423467D1*
X-493349Y347483D2*
X-490396D1*
X-478585D2*
X-476617D1*
X-459884D2*
X-456932D1*
X-445121D2*
X-443152D1*
X-429373D2*
X-422520D1*
X-493349Y346499D2*
X-490396D1*
X-478585D2*
X-476617D1*
X-459884D2*
X-456932D1*
X-445121D2*
X-443152D1*
X-426730D2*
X-421666D1*
X-493349Y345514D2*
X-490396D1*
X-478585D2*
X-476617D1*
X-459884D2*
X-456932D1*
X-445121D2*
X-443152D1*
X-424770D2*
X-420956D1*
X-493349Y344530D2*
X-490396D1*
X-478585D2*
X-476617D1*
X-459885D2*
X-456932D1*
X-445121D2*
X-443152D1*
X-423346D2*
X-420388D1*
X-493345Y343546D2*
X-490396D1*
X-478585D2*
X-476617D1*
X-459881D2*
X-456932D1*
X-445121D2*
X-443152D1*
X-422895D2*
X-419975D1*
X-493311Y342562D2*
X-490396D1*
X-478585D2*
X-476617D1*
X-459846D2*
X-456932D1*
X-445121D2*
X-443152D1*
X-422655D2*
X-419734D1*
X-493185Y341577D2*
X-490396D1*
X-478585D2*
X-476617D1*
X-459721D2*
X-456932D1*
X-445121D2*
X-443152D1*
X-422550D2*
X-419619D1*
X-492949Y340593D2*
X-490392D1*
X-478589D2*
X-476617D1*
X-459485D2*
X-456928D1*
X-445125D2*
X-443152D1*
X-422511D2*
X-419602D1*
X-492693Y339609D2*
X-490354D1*
X-478628D2*
X-476621D1*
X-459229D2*
X-456889D1*
X-445163D2*
X-443156D1*
X-437247D2*
X-434294D1*
X-422538D2*
X-419710D1*
X-492483Y338625D2*
X-490262D1*
X-478720D2*
X-476659D1*
X-459019D2*
X-456797D1*
X-445255D2*
X-443195D1*
X-436869D2*
X-434148D1*
X-422634D2*
X-419973D1*
X-492228Y337640D2*
X-489775D1*
X-479206D2*
X-476823D1*
X-458763D2*
X-456311D1*
X-445742D2*
X-443358D1*
X-436411D2*
X-433570D1*
X-423208D2*
X-420355D1*
X-491783Y336656D2*
X-487854D1*
X-481128D2*
X-477226D1*
X-458318D2*
X-454390D1*
X-447663D2*
X-443762D1*
X-435821D2*
X-431542D1*
X-425236D2*
X-420838D1*
X-491076Y335672D2*
X-484631D1*
X-484350D2*
X-477916D1*
X-468743D2*
X-466774D1*
X-457612D2*
X-451167D1*
X-450886D2*
X-444451D1*
X-435035D2*
X-428359D1*
X-428418D2*
X-421509D1*
X-490094Y334688D2*
X-478891D1*
X-469201D2*
X-466774D1*
X-456629D2*
X-445427D1*
X-434016D2*
X-422515D1*
X-488843Y333703D2*
X-480140D1*
X-469505D2*
X-466774D1*
X-455378D2*
X-446676D1*
X-432749D2*
X-423889D1*
X-487444Y332719D2*
X-481538D1*
X-469727D2*
X-466774D1*
X-453979D2*
X-448073D1*
X-431341D2*
X-425436D1*
X258816Y-141297D2*
X266690D1*
X280470D2*
X283423D1*
X300155D2*
X302123D1*
X310982D2*
X324761D1*
X257378Y-142281D2*
X268125D1*
X280470D2*
X283915D1*
X300155D2*
X302123D1*
X310982D2*
X326532D1*
X256115Y-143265D2*
X269357D1*
X280470D2*
X284490D1*
X300155D2*
X302123D1*
X310982D2*
X328054D1*
X255026Y-144249D2*
X259047D1*
X266686D2*
X270355D1*
X280470D2*
X285092D1*
X300155D2*
X302123D1*
X310982D2*
X312950D1*
X324564D2*
X329208D1*
X254142Y-145234D2*
X257617D1*
X267636D2*
X271129D1*
X280470D2*
X285726D1*
X300155D2*
X302123D1*
X310982D2*
X312950D1*
X326089D2*
X329987D1*
X253532Y-146218D2*
X256578D1*
X268494D2*
X271723D1*
X280470D2*
X286387D1*
X300155D2*
X302123D1*
X310982D2*
X312950D1*
X327274D2*
X330514D1*
X253186Y-147202D2*
X255850D1*
X269234D2*
X272148D1*
X280470D2*
X282438D1*
X284255D2*
X287031D1*
X300155D2*
X302123D1*
X310982D2*
X312950D1*
X328144D2*
X330937D1*
X252987Y-148186D2*
X255368D1*
X269926D2*
X272410D1*
X280470D2*
X282438D1*
X284991D2*
X287683D1*
X300155D2*
X302123D1*
X310982D2*
X312950D1*
X328781D2*
X331270D1*
X252791Y-149171D2*
X255099D1*
X270627D2*
X272596D1*
X280470D2*
X282438D1*
X285686D2*
X288352D1*
X300155D2*
X302123D1*
X310982D2*
X312950D1*
X329221D2*
X331472D1*
X252527Y-150155D2*
X254970D1*
X280470D2*
X282438D1*
X286372D2*
X288998D1*
X300155D2*
X302123D1*
X310982D2*
X312950D1*
X329473D2*
X331575D1*
X252264Y-151139D2*
X254914D1*
X280470D2*
X282438D1*
X287026D2*
X289651D1*
X300155D2*
X302123D1*
X310982D2*
X312950D1*
X329595D2*
X331621D1*
X252089Y-152123D2*
X254892D1*
X280470D2*
X282438D1*
X287681D2*
X290316D1*
X300155D2*
X302123D1*
X310982D2*
X312950D1*
X329649D2*
X331640D1*
X251996Y-153108D2*
X254884D1*
X280470D2*
X282438D1*
X288351D2*
X290932D1*
X300155D2*
X302123D1*
X310982D2*
X312950D1*
X329670D2*
X331647D1*
X251954Y-154092D2*
X254881D1*
X280470D2*
X282438D1*
X288998D2*
X291494D1*
X300155D2*
X302123D1*
X310982D2*
X312950D1*
X329678D2*
X331650D1*
X251937Y-155076D2*
X254880D1*
X280470D2*
X282438D1*
X289651D2*
X292049D1*
X300155D2*
X302123D1*
X310982D2*
X312950D1*
X329681D2*
X331650D1*
X251930Y-156060D2*
X254879D1*
X263738D2*
X273580D1*
X280470D2*
X282438D1*
X290316D2*
X292648D1*
X300155D2*
X302123D1*
X310982D2*
X312950D1*
X329682D2*
X331651D1*
X251928Y-157045D2*
X254879D1*
X263738D2*
X273580D1*
X280470D2*
X282438D1*
X290932D2*
X293291D1*
X300155D2*
X302123D1*
X310982D2*
X312950D1*
X329682D2*
X331651D1*
X251931Y-158029D2*
X254879D1*
X263738D2*
X273580D1*
X280470D2*
X282438D1*
X291494D2*
X293926D1*
X300155D2*
X302123D1*
X310982D2*
X312950D1*
X329682D2*
X331651D1*
X251965Y-159013D2*
X254879D1*
X270627D2*
X273576D1*
X280470D2*
X282438D1*
X292049D2*
X294575D1*
X300155D2*
X302123D1*
X310982D2*
X312950D1*
X329682D2*
X331651D1*
X252090Y-159997D2*
X254879D1*
X270627D2*
X273542D1*
X280470D2*
X282438D1*
X292648D2*
X295242D1*
X300155D2*
X302123D1*
X310982D2*
X312950D1*
X329679D2*
X331651D1*
X252326Y-160982D2*
X254883D1*
X270623D2*
X273416D1*
X280470D2*
X282438D1*
X293291D2*
X295888D1*
X300155D2*
X302123D1*
X310982D2*
X312950D1*
X329644D2*
X331647D1*
X252578Y-161966D2*
X254918D1*
X270589D2*
X273180D1*
X280470D2*
X282438D1*
X293926D2*
X296541D1*
X300151D2*
X302123D1*
X310982D2*
X312950D1*
X329515D2*
X331612D1*
X252754Y-162950D2*
X255047D1*
X270460D2*
X272924D1*
X280470D2*
X282438D1*
X294575D2*
X297209D1*
X300114D2*
X302123D1*
X310982D2*
X312950D1*
X329241D2*
X331487D1*
X252880Y-163934D2*
X255325D1*
X270182D2*
X272714D1*
X280470D2*
X282438D1*
X295242D2*
X297851D1*
X299961D2*
X302123D1*
X310982D2*
X312950D1*
X328820D2*
X331247D1*
X253051Y-164919D2*
X255807D1*
X269700D2*
X272463D1*
X280470D2*
X282438D1*
X295888D2*
X298496D1*
X299625D2*
X302123D1*
X310982D2*
X312950D1*
X328300D2*
X330957D1*
X253346Y-165903D2*
X256489D1*
X269018D2*
X272052D1*
X280470D2*
X282438D1*
X296541D2*
X302123D1*
X310982D2*
X312950D1*
X327254D2*
X330617D1*
X253808Y-166887D2*
X258928D1*
X266578D2*
X271470D1*
X280470D2*
X282438D1*
X297210D2*
X302123D1*
X310982D2*
X312950D1*
X324016D2*
X330088D1*
X254545Y-167871D2*
X262832D1*
X262675D2*
X270712D1*
X280470D2*
X282438D1*
X297860D2*
X302123D1*
X310982D2*
X312950D1*
X318679D2*
X329231D1*
X255684Y-168856D2*
X269653D1*
X280470D2*
X282438D1*
X298545D2*
X302123D1*
X310982D2*
X327994D1*
X257173Y-169840D2*
X268254D1*
X280470D2*
X282438D1*
X299324D2*
X302123D1*
X310982D2*
X326445D1*
X258816Y-170824D2*
X266690D1*
X280470D2*
X282438D1*
X300155D2*
X302123D1*
X310982D2*
X324761D1*
X254289Y-187360D2*
X256257D1*
X274958D2*
X276927D1*
X282832D2*
X296612D1*
X311375D2*
X325155D1*
X254629Y-188344D2*
X256864D1*
X274618D2*
X276774D1*
X282832D2*
X298383D1*
X311375D2*
X326926D1*
X254957Y-189328D2*
X257394D1*
X274290D2*
X276527D1*
X282832D2*
X299904D1*
X311375D2*
X328448D1*
X255272Y-190312D2*
X257827D1*
X273978D2*
X276237D1*
X282832D2*
X284801D1*
X296414D2*
X301058D1*
X311375D2*
X313344D1*
X324958D2*
X329601D1*
X255639Y-191297D2*
X258188D1*
X273642D2*
X275939D1*
X282832D2*
X284801D1*
X297940D2*
X301837D1*
X311375D2*
X313344D1*
X326483D2*
X330380D1*
X256060Y-192281D2*
X258545D1*
X273312D2*
X275608D1*
X282832D2*
X284801D1*
X299124D2*
X302364D1*
X311375D2*
X313344D1*
X327667D2*
X330907D1*
X256489Y-193265D2*
X258883D1*
X272997D2*
X275279D1*
X282832D2*
X284801D1*
X299994D2*
X302788D1*
X311375D2*
X313344D1*
X328537D2*
X331331D1*
X256875Y-194249D2*
X259201D1*
X272659D2*
X274965D1*
X282832D2*
X284801D1*
X300631D2*
X303120D1*
X311375D2*
X313344D1*
X329175D2*
X331663D1*
X257216Y-195234D2*
X259540D1*
X272328D2*
X274628D1*
X282832D2*
X284801D1*
X301072D2*
X303323D1*
X311375D2*
X313344D1*
X329615D2*
X331866D1*
X257565Y-196218D2*
X259871D1*
X272013D2*
X274296D1*
X282832D2*
X284801D1*
X301323D2*
X303426D1*
X311375D2*
X313344D1*
X329866D2*
X331969D1*
X257900Y-197202D2*
X260187D1*
X271675D2*
X273981D1*
X282832D2*
X284801D1*
X301446D2*
X303472D1*
X311375D2*
X313344D1*
X329989D2*
X332015D1*
X258217Y-198186D2*
X260524D1*
X271344D2*
X273643D1*
X282832D2*
X284801D1*
X301499D2*
X303490D1*
X311375D2*
X313344D1*
X330042D2*
X332034D1*
X258556Y-199171D2*
X260856D1*
X271029D2*
X273312D1*
X282832D2*
X284801D1*
X301520D2*
X303497D1*
X311375D2*
X313344D1*
X330064D2*
X332041D1*
X258887Y-200155D2*
X261171D1*
X270691D2*
X272993D1*
X282832D2*
X284801D1*
X301528D2*
X303500D1*
X311375D2*
X313344D1*
X330072D2*
X332043D1*
X259202Y-201139D2*
X261509D1*
X270360D2*
X272625D1*
X282832D2*
X284801D1*
X301531D2*
X303501D1*
X311375D2*
X313344D1*
X330075D2*
X332044D1*
X259540Y-202123D2*
X261840D1*
X270044D2*
X272203D1*
X282832D2*
X284801D1*
X301532D2*
X303501D1*
X311375D2*
X313344D1*
X330076D2*
X332044D1*
X259871Y-203108D2*
X262155D1*
X269706D2*
X271773D1*
X282832D2*
X284801D1*
X301533D2*
X303501D1*
X311375D2*
X313344D1*
X330076D2*
X332045D1*
X260187Y-204092D2*
X262493D1*
X269375D2*
X271388D1*
X282832D2*
X284801D1*
X301533D2*
X303501D1*
X311375D2*
X313344D1*
X330076D2*
X332045D1*
X260524Y-205076D2*
X262824D1*
X269060D2*
X271047D1*
X282832D2*
X284801D1*
X301533D2*
X303501D1*
X311375D2*
X313344D1*
X330076D2*
X332045D1*
X260856Y-206060D2*
X263139D1*
X268722D2*
X270698D1*
X282832D2*
X284801D1*
X301529D2*
X303501D1*
X311375D2*
X313344D1*
X330072D2*
X332045D1*
X261171Y-207045D2*
X263477D1*
X268391D2*
X270362D1*
X282832D2*
X284801D1*
X301494D2*
X303497D1*
X311375D2*
X313344D1*
X330038D2*
X332041D1*
X261509Y-208029D2*
X263808D1*
X268076D2*
X270045D1*
X282832D2*
X284801D1*
X301365D2*
X303463D1*
X311375D2*
X313344D1*
X329908D2*
X332006D1*
X261840Y-209013D2*
X264128D1*
X267738D2*
X269707D1*
X282832D2*
X284801D1*
X301091D2*
X303337D1*
X311375D2*
X313344D1*
X329634D2*
X331881D1*
X262155Y-209997D2*
X264499D1*
X267404D2*
X269375D1*
X282832D2*
X284801D1*
X300671D2*
X303098D1*
X311375D2*
X313344D1*
X329214D2*
X331641D1*
X262493Y-210982D2*
X264950D1*
X267061D2*
X269060D1*
X282832D2*
X284801D1*
X300150D2*
X302807D1*
X311375D2*
X313344D1*
X328694D2*
X331350D1*
X262824Y-211966D2*
X265492D1*
X266621D2*
X268722D1*
X282832D2*
X284801D1*
X299104D2*
X302468D1*
X311375D2*
X313344D1*
X327647D2*
X331011D1*
X263143Y-212950D2*
X268391D1*
X282832D2*
X284801D1*
X295866D2*
X301938D1*
X311375D2*
X313344D1*
X324410D2*
X330482D1*
X263515Y-213934D2*
X268075D1*
X282832D2*
X284801D1*
X290530D2*
X301081D1*
X311375D2*
X313344D1*
X319073D2*
X329624D1*
X263966Y-214919D2*
X267733D1*
X282832D2*
X299844D1*
X311375D2*
X328388D1*
X264508Y-215903D2*
X267394D1*
X282832D2*
X298296D1*
X311375D2*
X326839D1*
X265115Y-216887D2*
X267084D1*
X282832D2*
X296612D1*
X311375D2*
X325155D1*
X262163Y-278150D2*
X268068D1*
X281848D2*
X283816D1*
X306454D2*
X308423D1*
X324171D2*
X327123D1*
X260274Y-279134D2*
X269806D1*
X281848D2*
X283816D1*
X306454D2*
X308423D1*
X323641D2*
X326593D1*
X258759Y-280118D2*
X271240D1*
X281848D2*
X283816D1*
X306454D2*
X308423D1*
X322943D2*
X325896D1*
X257618Y-281102D2*
X261178D1*
X267871D2*
X272314D1*
X281848D2*
X283816D1*
X306454D2*
X308423D1*
X322136D2*
X325089D1*
X256781Y-282087D2*
X260198D1*
X269396D2*
X273167D1*
X281848D2*
X283816D1*
X306454D2*
X308423D1*
X321341D2*
X324294D1*
X256161Y-283071D2*
X259252D1*
X270584D2*
X273885D1*
X281848D2*
X283816D1*
X306454D2*
X308423D1*
X320618D2*
X323571D1*
X255725Y-284055D2*
X258432D1*
X271484D2*
X274409D1*
X281848D2*
X283816D1*
X306454D2*
X308423D1*
X319896D2*
X322849D1*
X255442Y-285039D2*
X257847D1*
X272247D2*
X274731D1*
X281848D2*
X283816D1*
X306454D2*
X308423D1*
X319091D2*
X322040D1*
X255196Y-286024D2*
X257515D1*
X272990D2*
X274958D1*
X281848D2*
X283816D1*
X306454D2*
X308423D1*
X318234D2*
X321152D1*
X254907Y-287008D2*
X257354D1*
X281848D2*
X283816D1*
X306454D2*
X308423D1*
X317417D2*
X320252D1*
X254633Y-287992D2*
X257285D1*
X281848D2*
X283816D1*
X306454D2*
X308423D1*
X316686D2*
X319484D1*
X254454Y-288976D2*
X257257D1*
X281848D2*
X283816D1*
X306454D2*
X308423D1*
X315961D2*
X318896D1*
X254360Y-289961D2*
X257247D1*
X281848D2*
X283816D1*
X306454D2*
X308423D1*
X315154D2*
X318944D1*
X254317Y-290945D2*
X257243D1*
X281848D2*
X283816D1*
X306454D2*
X308423D1*
X314297D2*
X319223D1*
X254299Y-291929D2*
X257242D1*
X281848D2*
X283816D1*
X306454D2*
X308423D1*
X313480D2*
X319697D1*
X254292Y-292913D2*
X257242D1*
X281848D2*
X283816D1*
X306454D2*
X308426D1*
X312745D2*
X315350D1*
X317125D2*
X320285D1*
X254290Y-293898D2*
X257242D1*
X281848D2*
X283816D1*
X306454D2*
X308464D1*
X311982D2*
X314492D1*
X317831D2*
X320871D1*
X254293Y-294882D2*
X257241D1*
X281848D2*
X283816D1*
X306454D2*
X308616D1*
X311021D2*
X313743D1*
X318435D2*
X321421D1*
X254327Y-295866D2*
X257241D1*
X281848D2*
X283816D1*
X306454D2*
X308952D1*
X309797D2*
X313012D1*
X319007D2*
X321972D1*
X254453Y-296850D2*
X257241D1*
X281848D2*
X283816D1*
X306454D2*
X312199D1*
X319613D2*
X322570D1*
X254688Y-297835D2*
X257245D1*
X281848D2*
X283816D1*
X306454D2*
X311310D1*
X320254D2*
X323208D1*
X254945Y-298819D2*
X257284D1*
X281848D2*
X283816D1*
X306454D2*
X310406D1*
X320859D2*
X323813D1*
X255151Y-299803D2*
X257448D1*
X272990D2*
X274958D1*
X281848D2*
X283816D1*
X306454D2*
X309603D1*
X321418D2*
X324370D1*
X255371Y-300787D2*
X257847D1*
X272342D2*
X274768D1*
X281848D2*
X283816D1*
X306454D2*
X309025D1*
X321971D2*
X324924D1*
X255687Y-301772D2*
X258526D1*
X271624D2*
X274394D1*
X281848D2*
X283816D1*
X306454D2*
X308695D1*
X322569D2*
X325522D1*
X256121Y-302756D2*
X259393D1*
X270780D2*
X273861D1*
X281848D2*
X283816D1*
X306454D2*
X308535D1*
X323208D2*
X326161D1*
X256706Y-303740D2*
X261537D1*
X268665D2*
X273234D1*
X281848D2*
X283816D1*
X306454D2*
X308466D1*
X323813D2*
X326765D1*
X257527Y-304724D2*
X264889D1*
X265330D2*
X272408D1*
X281848D2*
X283816D1*
X306454D2*
X308438D1*
X324370D2*
X327322D1*
X258697Y-305709D2*
X271227D1*
X281848D2*
X300549D1*
X306454D2*
X308428D1*
X324918D2*
X327870D1*
X260301Y-306693D2*
X269721D1*
X281848D2*
X300549D1*
X306454D2*
X308424D1*
X325505D2*
X328458D1*
X262163Y-307677D2*
X268068D1*
X281848D2*
X300549D1*
X306454D2*
X308423D1*
X326139D2*
X329092D1*
X360391Y-218068D2*
X368265D1*
X382045D2*
X384997D1*
X401730D2*
X403698D1*
X412556D2*
X426336D1*
X358952Y-219052D2*
X369700D1*
X382045D2*
X385490D1*
X401730D2*
X403698D1*
X412556D2*
X428107D1*
X357689Y-220037D2*
X370932D1*
X382045D2*
X386065D1*
X401730D2*
X403698D1*
X412556D2*
X429629D1*
X356601Y-221021D2*
X360622D1*
X368261D2*
X371930D1*
X382045D2*
X386667D1*
X401730D2*
X403698D1*
X412556D2*
X414525D1*
X426139D2*
X430782D1*
X355717Y-222005D2*
X359192D1*
X369211D2*
X372704D1*
X382045D2*
X387300D1*
X401730D2*
X403698D1*
X412556D2*
X414525D1*
X427664D2*
X431562D1*
X355106Y-222990D2*
X358153D1*
X370069D2*
X373298D1*
X382045D2*
X387962D1*
X401730D2*
X403698D1*
X412556D2*
X414525D1*
X428849D2*
X432088D1*
X354761Y-223974D2*
X357425D1*
X370809D2*
X373723D1*
X382045D2*
X384013D1*
X385830D2*
X388606D1*
X401730D2*
X403698D1*
X412556D2*
X414525D1*
X429718D2*
X432512D1*
X354562Y-224958D2*
X356943D1*
X371501D2*
X373985D1*
X382045D2*
X384013D1*
X386566D2*
X389258D1*
X401730D2*
X403698D1*
X412556D2*
X414525D1*
X430356D2*
X432844D1*
X354366Y-225942D2*
X356674D1*
X372202D2*
X374171D1*
X382045D2*
X384013D1*
X387261D2*
X389926D1*
X401730D2*
X403698D1*
X412556D2*
X414525D1*
X430796D2*
X433047D1*
X354102Y-226927D2*
X356545D1*
X382045D2*
X384013D1*
X387947D2*
X390573D1*
X401730D2*
X403698D1*
X412556D2*
X414525D1*
X431047D2*
X433150D1*
X353839Y-227911D2*
X356489D1*
X382045D2*
X384013D1*
X388600D2*
X391226D1*
X401730D2*
X403698D1*
X412556D2*
X414525D1*
X431170D2*
X433196D1*
X353664Y-228895D2*
X356467D1*
X382045D2*
X384013D1*
X389256D2*
X391891D1*
X401730D2*
X403698D1*
X412556D2*
X414525D1*
X431223D2*
X433215D1*
X353571Y-229879D2*
X356459D1*
X382045D2*
X384013D1*
X389926D2*
X392507D1*
X401730D2*
X403698D1*
X412556D2*
X414525D1*
X431245D2*
X433222D1*
X353529Y-230864D2*
X356456D1*
X382045D2*
X384013D1*
X390572D2*
X393069D1*
X401730D2*
X403698D1*
X412556D2*
X414525D1*
X431253D2*
X433224D1*
X353512Y-231848D2*
X356455D1*
X382045D2*
X384013D1*
X391226D2*
X393624D1*
X401730D2*
X403698D1*
X412556D2*
X414525D1*
X431256D2*
X433225D1*
X353505Y-232832D2*
X356454D1*
X365312D2*
X375155D1*
X382045D2*
X384013D1*
X391891D2*
X394223D1*
X401730D2*
X403698D1*
X412556D2*
X414525D1*
X431257D2*
X433226D1*
X353503Y-233816D2*
X356454D1*
X365312D2*
X375155D1*
X382045D2*
X384013D1*
X392507D2*
X394866D1*
X401730D2*
X403698D1*
X412556D2*
X414525D1*
X431257D2*
X433226D1*
X353506Y-234801D2*
X356454D1*
X365312D2*
X375155D1*
X382045D2*
X384013D1*
X393069D2*
X395501D1*
X401730D2*
X403698D1*
X412556D2*
X414525D1*
X431257D2*
X433226D1*
X353540Y-235785D2*
X356454D1*
X372202D2*
X375151D1*
X382045D2*
X384013D1*
X393624D2*
X396149D1*
X401730D2*
X403698D1*
X412556D2*
X414525D1*
X431257D2*
X433226D1*
X353665Y-236769D2*
X356454D1*
X372202D2*
X375116D1*
X382045D2*
X384013D1*
X394223D2*
X396817D1*
X401730D2*
X403698D1*
X412556D2*
X414525D1*
X431253D2*
X433226D1*
X353901Y-237753D2*
X356458D1*
X372198D2*
X374991D1*
X382045D2*
X384013D1*
X394866D2*
X397463D1*
X401730D2*
X403698D1*
X412556D2*
X414525D1*
X431219D2*
X433222D1*
X354153Y-238738D2*
X356493D1*
X372164D2*
X374755D1*
X382045D2*
X384013D1*
X395501D2*
X398116D1*
X401726D2*
X403698D1*
X412556D2*
X414525D1*
X431089D2*
X433187D1*
X354329Y-239722D2*
X356622D1*
X372034D2*
X374499D1*
X382045D2*
X384013D1*
X396149D2*
X398784D1*
X401688D2*
X403698D1*
X412556D2*
X414525D1*
X430815D2*
X433062D1*
X354455Y-240706D2*
X356900D1*
X371756D2*
X374289D1*
X382045D2*
X384013D1*
X396817D2*
X399426D1*
X401536D2*
X403698D1*
X412556D2*
X414525D1*
X430395D2*
X432822D1*
X354626Y-241690D2*
X357381D1*
X371275D2*
X374038D1*
X382045D2*
X384013D1*
X397463D2*
X400071D1*
X401200D2*
X403698D1*
X412556D2*
X414525D1*
X429875D2*
X432531D1*
X354921Y-242675D2*
X358064D1*
X370593D2*
X373627D1*
X382045D2*
X384013D1*
X398116D2*
X403698D1*
X412556D2*
X414525D1*
X428828D2*
X432192D1*
X355382Y-243659D2*
X360503D1*
X368153D2*
X373045D1*
X382045D2*
X384013D1*
X398784D2*
X403698D1*
X412556D2*
X414525D1*
X425591D2*
X431663D1*
X356120Y-244643D2*
X364406D1*
X364250D2*
X372287D1*
X382045D2*
X384013D1*
X399435D2*
X403698D1*
X412556D2*
X414525D1*
X420254D2*
X430805D1*
X357259Y-245627D2*
X371228D1*
X382045D2*
X384013D1*
X400120D2*
X403698D1*
X412556D2*
X429569D1*
X358748Y-246612D2*
X369829D1*
X382045D2*
X384013D1*
X400899D2*
X403698D1*
X412556D2*
X428020D1*
X360391Y-247596D2*
X368265D1*
X382045D2*
X384013D1*
X401730D2*
X403698D1*
X412556D2*
X426336D1*
X356257Y-264131D2*
X358226D1*
X376927D2*
X378895D1*
X384801D2*
X398580D1*
X413344D2*
X427123D1*
X356598Y-265115D2*
X358832D1*
X376586D2*
X378743D1*
X384801D2*
X400351D1*
X413344D2*
X428895D1*
X356925Y-266100D2*
X359363D1*
X376259D2*
X378495D1*
X384801D2*
X401873D1*
X413344D2*
X430416D1*
X357241Y-267084D2*
X359795D1*
X375947D2*
X378206D1*
X384801D2*
X386769D1*
X398383D2*
X403027D1*
X413344D2*
X415312D1*
X426926D2*
X431570D1*
X357608Y-268068D2*
X360156D1*
X375611D2*
X377908D1*
X384801D2*
X386769D1*
X399908D2*
X403806D1*
X413344D2*
X415312D1*
X428451D2*
X432349D1*
X358029Y-269052D2*
X360513D1*
X375280D2*
X377577D1*
X384801D2*
X386769D1*
X401093D2*
X404333D1*
X413344D2*
X415312D1*
X429636D2*
X432876D1*
X358458Y-270037D2*
X360852D1*
X374965D2*
X377248D1*
X384801D2*
X386769D1*
X401963D2*
X404756D1*
X413344D2*
X415312D1*
X430506D2*
X433300D1*
X358843Y-271021D2*
X361170D1*
X374628D2*
X376934D1*
X384801D2*
X386769D1*
X402600D2*
X405088D1*
X413344D2*
X415312D1*
X431143D2*
X433632D1*
X359184Y-272005D2*
X361508D1*
X374296D2*
X376596D1*
X384801D2*
X386769D1*
X403040D2*
X405291D1*
X413344D2*
X415312D1*
X431584D2*
X433835D1*
X359533Y-272990D2*
X361840D1*
X373981D2*
X376265D1*
X384801D2*
X386769D1*
X403292D2*
X405394D1*
X413344D2*
X415312D1*
X431835D2*
X433938D1*
X359869Y-273974D2*
X362155D1*
X373643D2*
X375950D1*
X384801D2*
X386769D1*
X403414D2*
X405440D1*
X413344D2*
X415312D1*
X431957D2*
X433983D1*
X360186Y-274958D2*
X362493D1*
X373312D2*
X375612D1*
X384801D2*
X386769D1*
X403467D2*
X405459D1*
X413344D2*
X415312D1*
X432011D2*
X434002D1*
X360524Y-275942D2*
X362824D1*
X372997D2*
X375281D1*
X384801D2*
X386769D1*
X403489D2*
X405466D1*
X413344D2*
X415312D1*
X432032D2*
X434009D1*
X360856Y-276927D2*
X363139D1*
X372659D2*
X374962D1*
X384801D2*
X386769D1*
X403497D2*
X405468D1*
X413344D2*
X415312D1*
X432040D2*
X434012D1*
X361171Y-277911D2*
X363477D1*
X372328D2*
X374593D1*
X384801D2*
X386769D1*
X403500D2*
X405469D1*
X413344D2*
X415312D1*
X432043D2*
X434013D1*
X361509Y-278895D2*
X363808D1*
X372013D2*
X374171D1*
X384801D2*
X386769D1*
X403501D2*
X405470D1*
X413344D2*
X415312D1*
X432044D2*
X434013D1*
X361840Y-279879D2*
X364124D1*
X371675D2*
X373742D1*
X384801D2*
X386769D1*
X403501D2*
X405470D1*
X413344D2*
X415312D1*
X432044D2*
X434013D1*
X362155Y-280864D2*
X364462D1*
X371344D2*
X373357D1*
X384801D2*
X386769D1*
X403501D2*
X405470D1*
X413344D2*
X415312D1*
X432045D2*
X434013D1*
X362493Y-281848D2*
X364793D1*
X371029D2*
X373015D1*
X384801D2*
X386769D1*
X403501D2*
X405470D1*
X413344D2*
X415312D1*
X432045D2*
X434013D1*
X362824Y-282832D2*
X365108D1*
X370691D2*
X372666D1*
X384801D2*
X386769D1*
X403497D2*
X405470D1*
X413344D2*
X415312D1*
X432041D2*
X434013D1*
X363139Y-283816D2*
X365446D1*
X370360D2*
X372331D1*
X384801D2*
X386769D1*
X403463D2*
X405466D1*
X413344D2*
X415312D1*
X432006D2*
X434009D1*
X363477Y-284801D2*
X365777D1*
X370044D2*
X372014D1*
X384801D2*
X386769D1*
X403334D2*
X405431D1*
X413344D2*
X415312D1*
X431877D2*
X433975D1*
X363808Y-285785D2*
X366096D1*
X369706D2*
X371675D1*
X384801D2*
X386769D1*
X403059D2*
X405306D1*
X413344D2*
X415312D1*
X431603D2*
X433849D1*
X364124Y-286769D2*
X366468D1*
X369372D2*
X371344D1*
X384801D2*
X386769D1*
X402639D2*
X405066D1*
X413344D2*
X415312D1*
X431183D2*
X433610D1*
X364462Y-287753D2*
X366919D1*
X369030D2*
X371029D1*
X384801D2*
X386769D1*
X402119D2*
X404776D1*
X413344D2*
X415312D1*
X430662D2*
X433319D1*
X364793Y-288738D2*
X367461D1*
X368590D2*
X370691D1*
X384801D2*
X386769D1*
X401073D2*
X404436D1*
X413344D2*
X415312D1*
X429616D2*
X432979D1*
X365112Y-289722D2*
X370360D1*
X384801D2*
X386769D1*
X397835D2*
X403907D1*
X413344D2*
X415312D1*
X426378D2*
X432450D1*
X365483Y-290706D2*
X370044D1*
X384801D2*
X386769D1*
X392498D2*
X403049D1*
X413344D2*
X415312D1*
X421041D2*
X431593D1*
X365935Y-291690D2*
X369701D1*
X384801D2*
X401813D1*
X413344D2*
X430356D1*
X366476Y-292675D2*
X369362D1*
X384801D2*
X400264D1*
X413344D2*
X428807D1*
X367084Y-293659D2*
X369052D1*
X384801D2*
X398580D1*
X413344D2*
X427123D1*
X366493Y-305864D2*
X372399D1*
X398974D2*
X405864D1*
X421612D2*
X428501D1*
X365059Y-306848D2*
X373834D1*
X397573D2*
X407146D1*
X420210D2*
X429784D1*
X363830Y-307832D2*
X375062D1*
X396436D2*
X408134D1*
X419074D2*
X430772D1*
X362867Y-308816D2*
X365551D1*
X373342D2*
X376026D1*
X395583D2*
X398978D1*
X405822D2*
X408878D1*
X418221D2*
X421615D1*
X428460D2*
X431515D1*
X362111Y-309801D2*
X364731D1*
X374162D2*
X376782D1*
X394951D2*
X398031D1*
X406642D2*
X409479D1*
X417589D2*
X420669D1*
X429280D2*
X432117D1*
X361796Y-310785D2*
X364146D1*
X374746D2*
X377059D1*
X394510D2*
X397199D1*
X407226D2*
X409977D1*
X417148D2*
X419836D1*
X429864D2*
X432615D1*
X361520Y-311769D2*
X363814D1*
X375078D2*
X377209D1*
X394241D2*
X396551D1*
X407559D2*
X410323D1*
X416879D2*
X419189D1*
X430196D2*
X432961D1*
X361216Y-312753D2*
X363654D1*
X375239D2*
X377277D1*
X394052D2*
X396021D1*
X407715D2*
X410514D1*
X416690D2*
X418659D1*
X430353D2*
X433152D1*
X360936Y-313738D2*
X363584D1*
X375308D2*
X377304D1*
X407746D2*
X410321D1*
X430384D2*
X432959D1*
X360754Y-314722D2*
X363557D1*
X375336D2*
X377315D1*
X407614D2*
X410068D1*
X430252D2*
X432706D1*
X360659Y-315706D2*
X363546D1*
X375346D2*
X377318D1*
X407259D2*
X409783D1*
X429897D2*
X432421D1*
X360616Y-316690D2*
X363543D1*
X375350D2*
X377320D1*
X406736D2*
X409424D1*
X429374D2*
X432062D1*
X360598Y-317675D2*
X363541D1*
X375351D2*
X377320D1*
X406150D2*
X408969D1*
X428787D2*
X431606D1*
X360592Y-318659D2*
X363541D1*
X375352D2*
X377320D1*
X405491D2*
X408385D1*
X428129D2*
X431023D1*
X360589Y-319643D2*
X363541D1*
X375352D2*
X377320D1*
X404741D2*
X407670D1*
X427379D2*
X430308D1*
X360588Y-320627D2*
X363541D1*
X375352D2*
X377320D1*
X403984D2*
X406928D1*
X426622D2*
X429565D1*
X360588Y-321612D2*
X363541D1*
X375352D2*
X377320D1*
X403281D2*
X406230D1*
X425919D2*
X428868D1*
X360588Y-322596D2*
X363541D1*
X375352D2*
X377320D1*
X402568D2*
X405519D1*
X425205D2*
X428157D1*
X360588Y-323580D2*
X363541D1*
X375352D2*
X377320D1*
X401766D2*
X404718D1*
X424404D2*
X427356D1*
X360592Y-324564D2*
X363541D1*
X375352D2*
X377320D1*
X400910D2*
X403863D1*
X423548D2*
X426500D1*
X360626Y-325549D2*
X363541D1*
X375352D2*
X377320D1*
X400094D2*
X403047D1*
X422732D2*
X425684D1*
X360752Y-326533D2*
X363541D1*
X375352D2*
X377320D1*
X399363D2*
X402316D1*
X422001D2*
X424953D1*
X360988Y-327517D2*
X363545D1*
X375348D2*
X377320D1*
X398642D2*
X401590D1*
X421279D2*
X424228D1*
X361244Y-328501D2*
X363583D1*
X375309D2*
X377316D1*
X397866D2*
X400784D1*
X420504D2*
X423422D1*
X361454Y-329486D2*
X363675D1*
X375217D2*
X377278D1*
X397099D2*
X399931D1*
X419737D2*
X422568D1*
X361709Y-330470D2*
X364162D1*
X374731D2*
X377114D1*
X396397D2*
X399152D1*
X419035D2*
X421790D1*
X362154Y-331454D2*
X366083D1*
X372809D2*
X376711D1*
X395721D2*
X398581D1*
X418358D2*
X421219D1*
X362861Y-332438D2*
X369306D1*
X369587D2*
X376021D1*
X385194D2*
X387163D1*
X395078D2*
X398233D1*
X417716D2*
X420871D1*
X363843Y-333423D2*
X375046D1*
X384736D2*
X387163D1*
X394584D2*
X410785D1*
X417222D2*
X433423D1*
X365094Y-334407D2*
X373797D1*
X384432D2*
X387163D1*
X394274D2*
X410785D1*
X416911D2*
X433423D1*
X366493Y-335391D2*
X372399D1*
X384210D2*
X387163D1*
X394052D2*
X410785D1*
X416690D2*
X433423D1*
X368856Y-348383D2*
X374761D1*
X401336D2*
X408226D1*
X423974D2*
X429879D1*
X367421Y-349367D2*
X376196D1*
X399935D2*
X409508D1*
X422573D2*
X431314D1*
X366192Y-350352D2*
X377424D1*
X398798D2*
X410497D1*
X421436D2*
X432542D1*
X365229Y-351336D2*
X367913D1*
X375704D2*
X378388D1*
X397945D2*
X401340D1*
X408184D2*
X411240D1*
X420583D2*
X423978D1*
X429530D2*
X433506D1*
X364473Y-352320D2*
X367093D1*
X376524D2*
X379144D1*
X397313D2*
X400393D1*
X409004D2*
X411841D1*
X419951D2*
X423031D1*
X430807D2*
X434262D1*
X364158Y-353304D2*
X366509D1*
X377108D2*
X379421D1*
X396872D2*
X399561D1*
X409588D2*
X412339D1*
X419510D2*
X422199D1*
X431702D2*
X434539D1*
X363882Y-354289D2*
X366176D1*
X377440D2*
X379571D1*
X396604D2*
X398913D1*
X409921D2*
X412686D1*
X419241D2*
X421551D1*
X432373D2*
X434689D1*
X363578Y-355273D2*
X366016D1*
X377601D2*
X379639D1*
X396415D2*
X398383D1*
X410078D2*
X412876D1*
X419052D2*
X421021D1*
X432605D2*
X434757D1*
X363299Y-356257D2*
X365946D1*
X377670D2*
X379666D1*
X410108D2*
X412684D1*
X432695D2*
X434781D1*
X363116Y-357241D2*
X365919D1*
X377698D2*
X379677D1*
X409976D2*
X412430D1*
X432674D2*
X434753D1*
X363021Y-358226D2*
X365908D1*
X377708D2*
X379680D1*
X409621D2*
X412145D1*
X432250D2*
X434592D1*
X362978Y-359210D2*
X365905D1*
X377712D2*
X379682D1*
X409098D2*
X411786D1*
X431003D2*
X434194D1*
X362961Y-360194D2*
X365904D1*
X377713D2*
X379682D1*
X408512D2*
X411331D1*
X429367D2*
X433544D1*
X362954Y-361178D2*
X365903D1*
X377714D2*
X379682D1*
X407854D2*
X410747D1*
X427822D2*
X432728D1*
X362951Y-362163D2*
X365903D1*
X377714D2*
X379682D1*
X407103D2*
X410032D1*
X426747D2*
X431848D1*
X362951Y-363147D2*
X365903D1*
X377714D2*
X379682D1*
X406346D2*
X409290D1*
X425942D2*
X432795D1*
X362950Y-364131D2*
X365903D1*
X377714D2*
X379682D1*
X405643D2*
X408593D1*
X428585D2*
X433649D1*
X362950Y-365115D2*
X365903D1*
X377714D2*
X379682D1*
X404930D2*
X407881D1*
X430545D2*
X434359D1*
X362950Y-366100D2*
X365903D1*
X377714D2*
X379682D1*
X404128D2*
X407080D1*
X431969D2*
X434927D1*
X362954Y-367084D2*
X365903D1*
X377714D2*
X379682D1*
X403272D2*
X406225D1*
X432420D2*
X435340D1*
X362989Y-368068D2*
X365903D1*
X377714D2*
X379682D1*
X402456D2*
X405409D1*
X432660D2*
X435581D1*
X363114Y-369052D2*
X365903D1*
X377714D2*
X379682D1*
X401725D2*
X404678D1*
X432765D2*
X435696D1*
X363350Y-370037D2*
X365907D1*
X377710D2*
X379682D1*
X401004D2*
X403953D1*
X432804D2*
X435713D1*
X363606Y-371021D2*
X365945D1*
X377672D2*
X379679D1*
X400228D2*
X403146D1*
X418068D2*
X421021D1*
X432777D2*
X435605D1*
X363816Y-372005D2*
X366037D1*
X377579D2*
X379640D1*
X399462D2*
X402293D1*
X418446D2*
X421167D1*
X432681D2*
X435342D1*
X364071Y-372990D2*
X366524D1*
X377093D2*
X379476D1*
X398759D2*
X401514D1*
X418904D2*
X421745D1*
X432107D2*
X434960D1*
X364516Y-373974D2*
X368445D1*
X375172D2*
X379073D1*
X398083D2*
X400943D1*
X419494D2*
X423773D1*
X430079D2*
X434476D1*
X365223Y-374958D2*
X371668D1*
X371949D2*
X378383D1*
X387556D2*
X389525D1*
X397441D2*
X400595D1*
X420280D2*
X426956D1*
X426897D2*
X433806D1*
X366205Y-375942D2*
X377408D1*
X387098D2*
X389525D1*
X396946D2*
X413147D1*
X421299D2*
X432799D1*
X367457Y-376927D2*
X376159D1*
X386794D2*
X389525D1*
X396636D2*
X413147D1*
X422566D2*
X431426D1*
X368856Y-377911D2*
X374761D1*
X386572D2*
X389525D1*
X396415D2*
X413147D1*
X423974D2*
X429879D1*
X-488231Y411853D2*
X-482325D1*
X-454766D2*
X-448861D1*
X-432129D2*
X-425239D1*
X-489666Y410869D2*
X-480891D1*
X-456201D2*
X-447426D1*
X-433530D2*
X-423956D1*
X-490894Y409885D2*
X-479662D1*
X-457430D2*
X-446198D1*
X-434667D2*
X-422968D1*
X-491858Y408900D2*
X-489174D1*
X-481383D2*
X-478699D1*
X-458393D2*
X-455709D1*
X-447918D2*
X-445234D1*
X-435520D2*
X-432125D1*
X-425280D2*
X-422225D1*
X-492614Y407916D2*
X-489994D1*
X-480563D2*
X-477943D1*
X-459149D2*
X-456529D1*
X-447098D2*
X-444478D1*
X-436151D2*
X-433072D1*
X-424461D2*
X-421624D1*
X-492928Y406932D2*
X-490578D1*
X-479978D2*
X-477666D1*
X-459464D2*
X-457113D1*
X-446514D2*
X-444201D1*
X-436593D2*
X-433904D1*
X-423876D2*
X-421125D1*
X-493204Y405948D2*
X-490910D1*
X-479646D2*
X-477516D1*
X-459740D2*
X-457446D1*
X-446182D2*
X-444051D1*
X-436861D2*
X-434551D1*
X-423544D2*
X-420779D1*
X-493508Y404963D2*
X-491071D1*
X-479486D2*
X-477448D1*
X-460044D2*
X-457606D1*
X-446021D2*
X-443983D1*
X-437050D2*
X-435081D1*
X-423387D2*
X-420588D1*
X-493788Y403979D2*
X-491140D1*
X-479416D2*
X-477420D1*
X-460324D2*
X-457676D1*
X-445952D2*
X-443956D1*
X-423356D2*
X-420781D1*
X-493970Y402995D2*
X-491168D1*
X-479389D2*
X-477410D1*
X-460506D2*
X-457703D1*
X-445924D2*
X-443945D1*
X-423489D2*
X-421035D1*
X-494065Y402010D2*
X-491178D1*
X-479378D2*
X-477406D1*
X-460601D2*
X-457714D1*
X-445914D2*
X-443942D1*
X-423843D2*
X-421319D1*
X-494108Y401026D2*
X-491182D1*
X-479375D2*
X-477405D1*
X-460644D2*
X-457717D1*
X-445910D2*
X-443940D1*
X-424366D2*
X-421678D1*
X-494126Y400042D2*
X-491183D1*
X-479373D2*
X-477404D1*
X-460661D2*
X-457719D1*
X-445909D2*
X-443940D1*
X-424953D2*
X-422134D1*
X-494133Y399058D2*
X-491184D1*
X-479373D2*
X-477404D1*
X-460668D2*
X-457719D1*
X-445908D2*
X-443940D1*
X-425611D2*
X-422718D1*
X-494135Y398073D2*
X-491184D1*
X-479373D2*
X-477404D1*
X-460671D2*
X-457719D1*
X-445908D2*
X-443940D1*
X-426361D2*
X-423433D1*
X-494136Y397089D2*
X-491184D1*
X-479373D2*
X-477404D1*
X-460671D2*
X-457719D1*
X-445908D2*
X-443940D1*
X-427118D2*
X-424175D1*
X-494136Y396105D2*
X-491184D1*
X-479373D2*
X-477404D1*
X-460672D2*
X-457719D1*
X-445908D2*
X-443940D1*
X-427821D2*
X-424872D1*
X-494136Y395121D2*
X-491184D1*
X-479373D2*
X-477404D1*
X-460672D2*
X-457719D1*
X-445908D2*
X-443940D1*
X-428535D2*
X-425583D1*
X-494136Y394136D2*
X-491184D1*
X-479373D2*
X-477404D1*
X-460672D2*
X-457719D1*
X-445908D2*
X-443940D1*
X-429337D2*
X-426384D1*
X-494133Y393152D2*
X-491184D1*
X-479373D2*
X-477404D1*
X-460668D2*
X-457719D1*
X-445908D2*
X-443940D1*
X-430192D2*
X-427240D1*
X-494098Y392168D2*
X-491184D1*
X-479373D2*
X-477404D1*
X-460633D2*
X-457719D1*
X-445908D2*
X-443940D1*
X-431009D2*
X-428056D1*
X-493973Y391184D2*
X-491184D1*
X-479373D2*
X-477404D1*
X-460508D2*
X-457719D1*
X-445908D2*
X-443940D1*
X-431739D2*
X-428787D1*
X-493737Y390199D2*
X-491180D1*
X-479377D2*
X-477404D1*
X-460272D2*
X-457715D1*
X-445912D2*
X-443940D1*
X-432461D2*
X-429512D1*
X-493481Y389215D2*
X-491141D1*
X-479415D2*
X-477408D1*
X-460016D2*
X-457677D1*
X-445950D2*
X-443943D1*
X-433236D2*
X-430318D1*
X-493271Y388231D2*
X-491049D1*
X-479507D2*
X-477446D1*
X-459806D2*
X-457585D1*
X-446043D2*
X-443982D1*
X-434003D2*
X-431172D1*
X-493015Y387247D2*
X-490563D1*
X-479994D2*
X-477610D1*
X-459551D2*
X-457098D1*
X-446529D2*
X-444146D1*
X-434706D2*
X-431950D1*
X-492570Y386262D2*
X-488642D1*
X-481915D2*
X-478014D1*
X-459106D2*
X-455177D1*
X-448450D2*
X-444549D1*
X-435382D2*
X-432521D1*
X-491863Y385278D2*
X-485419D1*
X-485138D2*
X-478703D1*
X-469530D2*
X-467562D1*
X-458399D2*
X-451954D1*
X-451673D2*
X-445239D1*
X-436024D2*
X-432869D1*
X-490881Y384294D2*
X-479679D1*
X-469988D2*
X-467562D1*
X-457417D2*
X-446214D1*
X-436518D2*
X-420318D1*
X-489630Y383310D2*
X-480928D1*
X-470292D2*
X-467562D1*
X-456165D2*
X-447463D1*
X-436829D2*
X-420318D1*
X-488231Y382325D2*
X-482325D1*
X-470514D2*
X-467562D1*
X-454766D2*
X-448861D1*
X-437050D2*
X-420318D1*
X-487837Y311853D2*
X-481932D1*
X-454373D2*
X-448467D1*
X-426814D2*
X-423861D1*
X-489272Y310869D2*
X-480497D1*
X-455807D2*
X-447032D1*
X-427154D2*
X-424471D1*
X-490500Y309885D2*
X-479269D1*
X-457036D2*
X-445804D1*
X-427482D2*
X-425032D1*
X-491464Y308900D2*
X-488780D1*
X-480989D2*
X-478305D1*
X-457999D2*
X-455316D1*
X-447524D2*
X-444841D1*
X-427797D2*
X-425556D1*
X-492220Y307916D2*
X-489600D1*
X-480169D2*
X-477549D1*
X-458755D2*
X-456135D1*
X-446705D2*
X-444084D1*
X-428164D2*
X-426031D1*
X-492534Y306932D2*
X-490184D1*
X-479585D2*
X-477272D1*
X-459070D2*
X-456720D1*
X-446120D2*
X-443807D1*
X-428589D2*
X-426435D1*
X-492811Y305948D2*
X-490517D1*
X-479252D2*
X-477122D1*
X-459346D2*
X-457052D1*
X-445788D2*
X-443657D1*
X-429049D2*
X-426788D1*
X-493114Y304963D2*
X-490677D1*
X-479092D2*
X-477054D1*
X-459650D2*
X-457213D1*
X-445627D2*
X-443590D1*
X-429529D2*
X-427170D1*
X-493394Y303979D2*
X-490746D1*
X-479023D2*
X-477027D1*
X-459930D2*
X-457282D1*
X-445558D2*
X-443562D1*
X-430015D2*
X-427601D1*
X-493576Y302995D2*
X-490774D1*
X-478995D2*
X-477016D1*
X-460112D2*
X-457310D1*
X-445530D2*
X-443552D1*
X-430502D2*
X-428064D1*
X-493671Y302010D2*
X-490784D1*
X-478985D2*
X-477012D1*
X-460207D2*
X-457320D1*
X-445520D2*
X-443548D1*
X-430962D2*
X-428540D1*
X-493715Y301026D2*
X-490788D1*
X-478981D2*
X-477011D1*
X-460250D2*
X-457324D1*
X-445516D2*
X-443547D1*
X-431360D2*
X-428996D1*
X-493732Y300042D2*
X-490789D1*
X-478980D2*
X-477011D1*
X-460268D2*
X-457325D1*
X-445515D2*
X-443546D1*
X-431710D2*
X-429392D1*
X-422877D2*
X-420908D1*
X-493739Y299058D2*
X-490790D1*
X-478979D2*
X-477011D1*
X-460274D2*
X-457325D1*
X-445515D2*
X-443546D1*
X-432092D2*
X-429742D1*
X-422877D2*
X-420908D1*
X-493741Y298073D2*
X-490790D1*
X-478979D2*
X-477011D1*
X-460277D2*
X-457325D1*
X-445514D2*
X-443546D1*
X-432523D2*
X-430123D1*
X-422877D2*
X-420908D1*
X-493742Y297089D2*
X-490790D1*
X-478979D2*
X-477011D1*
X-460278D2*
X-457325D1*
X-445514D2*
X-443546D1*
X-432985D2*
X-430554D1*
X-422877D2*
X-420908D1*
X-493743Y296105D2*
X-490790D1*
X-478979D2*
X-477011D1*
X-460278D2*
X-457325D1*
X-445514D2*
X-443546D1*
X-433465D2*
X-431016D1*
X-422877D2*
X-420908D1*
X-493743Y295121D2*
X-490790D1*
X-478979D2*
X-477010D1*
X-460278D2*
X-457325D1*
X-445514D2*
X-443546D1*
X-433952D2*
X-431497D1*
X-422877D2*
X-420908D1*
X-493743Y294136D2*
X-490790D1*
X-478979D2*
X-477010D1*
X-460278D2*
X-457325D1*
X-445514D2*
X-443546D1*
X-434439D2*
X-431983D1*
X-422877D2*
X-420908D1*
X-493739Y293152D2*
X-490790D1*
X-478979D2*
X-477010D1*
X-460274D2*
X-457325D1*
X-445514D2*
X-443546D1*
X-434899D2*
X-432471D1*
X-422877D2*
X-420908D1*
X-493704Y292168D2*
X-490790D1*
X-478979D2*
X-477010D1*
X-460240D2*
X-457325D1*
X-445514D2*
X-443546D1*
X-435297D2*
X-432937D1*
X-422877D2*
X-420908D1*
X-493579Y291184D2*
X-490790D1*
X-478979D2*
X-477010D1*
X-460114D2*
X-457325D1*
X-445514D2*
X-443546D1*
X-435643D2*
X-433346D1*
X-422877D2*
X-420908D1*
X-493343Y290199D2*
X-490786D1*
X-478983D2*
X-477010D1*
X-459879D2*
X-457322D1*
X-445518D2*
X-443546D1*
X-435991D2*
X-433703D1*
X-422877D2*
X-420908D1*
X-493087Y289215D2*
X-490748D1*
X-479021D2*
X-477014D1*
X-459622D2*
X-457283D1*
X-445557D2*
X-443550D1*
X-436295D2*
X-417955D1*
X-492877Y288231D2*
X-490655D1*
X-479114D2*
X-477053D1*
X-459412D2*
X-457191D1*
X-445649D2*
X-443588D1*
X-436502D2*
X-417955D1*
X-492622Y287247D2*
X-490169D1*
X-479600D2*
X-477217D1*
X-459157D2*
X-456705D1*
X-446135D2*
X-443752D1*
X-436656D2*
X-417955D1*
X-492177Y286262D2*
X-488248D1*
X-481521D2*
X-477620D1*
X-458712D2*
X-454783D1*
X-448057D2*
X-444156D1*
X-422877D2*
X-420908D1*
X-491470Y285278D2*
X-485025D1*
X-484744D2*
X-478310D1*
X-469136D2*
X-467168D1*
X-458005D2*
X-451561D1*
X-451279D2*
X-444845D1*
X-422877D2*
X-420908D1*
X-490488Y284294D2*
X-479285D1*
X-469594D2*
X-467168D1*
X-457023D2*
X-445820D1*
X-422877D2*
X-420908D1*
X-489236Y283310D2*
X-480534D1*
X-469899D2*
X-467168D1*
X-455772D2*
X-447069D1*
X-422877D2*
X-420908D1*
X-487837Y282325D2*
X-481932D1*
X-470121D2*
X-467168D1*
X-454373D2*
X-448467D1*
X-422877D2*
X-420908D1*
X-488231Y262247D2*
X-482325D1*
X-454766D2*
X-448861D1*
X-436066D2*
X-421302D1*
X-489666Y261262D2*
X-480891D1*
X-456201D2*
X-447426D1*
X-436066D2*
X-421302D1*
X-490894Y260278D2*
X-479662D1*
X-457430D2*
X-446198D1*
X-436066D2*
X-421302D1*
X-491858Y259294D2*
X-489174D1*
X-481383D2*
X-478699D1*
X-458393D2*
X-455709D1*
X-447918D2*
X-445234D1*
X-436066D2*
X-434097D1*
X-492614Y258310D2*
X-489994D1*
X-480563D2*
X-477943D1*
X-459149D2*
X-456529D1*
X-447098D2*
X-444478D1*
X-436066D2*
X-434097D1*
X-492928Y257325D2*
X-490578D1*
X-479978D2*
X-477666D1*
X-459464D2*
X-457113D1*
X-446514D2*
X-444201D1*
X-436066D2*
X-434097D1*
X-493204Y256341D2*
X-490910D1*
X-479646D2*
X-477516D1*
X-459740D2*
X-457446D1*
X-446182D2*
X-444051D1*
X-436066D2*
X-434097D1*
X-493508Y255357D2*
X-491071D1*
X-479486D2*
X-477448D1*
X-460044D2*
X-457606D1*
X-446021D2*
X-443983D1*
X-436066D2*
X-434097D1*
X-493788Y254373D2*
X-491140D1*
X-479416D2*
X-477420D1*
X-460324D2*
X-457676D1*
X-445952D2*
X-443956D1*
X-436066D2*
X-434093D1*
X-493970Y253388D2*
X-491168D1*
X-479389D2*
X-477410D1*
X-460506D2*
X-457703D1*
X-445924D2*
X-443945D1*
X-436066D2*
X-434056D1*
X-494065Y252404D2*
X-491178D1*
X-479378D2*
X-477406D1*
X-460601D2*
X-457714D1*
X-445914D2*
X-443942D1*
X-436066D2*
X-433904D1*
X-430160D2*
X-425239D1*
X-494108Y251420D2*
X-491182D1*
X-479375D2*
X-477405D1*
X-460644D2*
X-457717D1*
X-445910D2*
X-443940D1*
X-436066D2*
X-433567D1*
X-432590D2*
X-423804D1*
X-494126Y250436D2*
X-491183D1*
X-479373D2*
X-477404D1*
X-460661D2*
X-457719D1*
X-445909D2*
X-443940D1*
X-436066D2*
X-422576D1*
X-494133Y249451D2*
X-491184D1*
X-479373D2*
X-477404D1*
X-460668D2*
X-457719D1*
X-445908D2*
X-443940D1*
X-436066D2*
X-429967D1*
X-425588D2*
X-421612D1*
X-494135Y248467D2*
X-491184D1*
X-479373D2*
X-477404D1*
X-460671D2*
X-457719D1*
X-445908D2*
X-443940D1*
X-436066D2*
X-431530D1*
X-424311D2*
X-420856D1*
X-494136Y247483D2*
X-491184D1*
X-479373D2*
X-477404D1*
X-460671D2*
X-457719D1*
X-445908D2*
X-443940D1*
X-436066D2*
X-432867D1*
X-423416D2*
X-420579D1*
X-494136Y246499D2*
X-491184D1*
X-479373D2*
X-477404D1*
X-460672D2*
X-457719D1*
X-445908D2*
X-443940D1*
X-436066D2*
X-434097D1*
X-422745D2*
X-420429D1*
X-494136Y245514D2*
X-491184D1*
X-479373D2*
X-477404D1*
X-460672D2*
X-457719D1*
X-445908D2*
X-443940D1*
X-422509D2*
X-420361D1*
X-494136Y244530D2*
X-491184D1*
X-479373D2*
X-477404D1*
X-460672D2*
X-457719D1*
X-445908D2*
X-443940D1*
X-422381D2*
X-420334D1*
X-494133Y243546D2*
X-491184D1*
X-479373D2*
X-477404D1*
X-460668D2*
X-457719D1*
X-445908D2*
X-443940D1*
X-422323D2*
X-420323D1*
X-494098Y242562D2*
X-491184D1*
X-479373D2*
X-477404D1*
X-460633D2*
X-457719D1*
X-445908D2*
X-443940D1*
X-422300D2*
X-420320D1*
X-493973Y241577D2*
X-491184D1*
X-479373D2*
X-477404D1*
X-460508D2*
X-457719D1*
X-445908D2*
X-443940D1*
X-422295D2*
X-420318D1*
X-493737Y240593D2*
X-491180D1*
X-479377D2*
X-477404D1*
X-460272D2*
X-457715D1*
X-445912D2*
X-443940D1*
X-422330D2*
X-420322D1*
X-493481Y239609D2*
X-491141D1*
X-479415D2*
X-477408D1*
X-460016D2*
X-457677D1*
X-445950D2*
X-443943D1*
X-436066D2*
X-434097D1*
X-422493D2*
X-420356D1*
X-493271Y238625D2*
X-491049D1*
X-479507D2*
X-477446D1*
X-459806D2*
X-457585D1*
X-446043D2*
X-443982D1*
X-435910D2*
X-433659D1*
X-422799D2*
X-420485D1*
X-493015Y237640D2*
X-490563D1*
X-479994D2*
X-477610D1*
X-459551D2*
X-457098D1*
X-446529D2*
X-444146D1*
X-435627D2*
X-433086D1*
X-423723D2*
X-420759D1*
X-492570Y236656D2*
X-488642D1*
X-481915D2*
X-478014D1*
X-459106D2*
X-455177D1*
X-448450D2*
X-444549D1*
X-435205D2*
X-431168D1*
X-425327D2*
X-421180D1*
X-491863Y235672D2*
X-485419D1*
X-485138D2*
X-478703D1*
X-469530D2*
X-467562D1*
X-458399D2*
X-451954D1*
X-451673D2*
X-445239D1*
X-434595D2*
X-428081D1*
X-427927D2*
X-421788D1*
X-490881Y234688D2*
X-479679D1*
X-469988D2*
X-467562D1*
X-457417D2*
X-446214D1*
X-433700D2*
X-422683D1*
X-489630Y233703D2*
X-480928D1*
X-470292D2*
X-467562D1*
X-456165D2*
X-447463D1*
X-432504D2*
X-423879D1*
X-488231Y232719D2*
X-482325D1*
X-470514D2*
X-467562D1*
X-454766D2*
X-448861D1*
X-431144D2*
X-425239D1*
X263934Y-230906D2*
X277714D1*
X293462D2*
X295430D1*
X310194D2*
X318068D1*
X263934Y-231890D2*
X279485D1*
X293462D2*
X295430D1*
X308759D2*
X319503D1*
X263934Y-232874D2*
X281007D1*
X293462D2*
X295430D1*
X307527D2*
X320735D1*
X263934Y-233858D2*
X265903D1*
X277517D2*
X282160D1*
X293462D2*
X295430D1*
X306529D2*
X310425D1*
X317837D2*
X321733D1*
X263934Y-234843D2*
X265903D1*
X279042D2*
X282940D1*
X293462D2*
X295430D1*
X305756D2*
X308995D1*
X319267D2*
X322507D1*
X263934Y-235827D2*
X265903D1*
X280227D2*
X283466D1*
X293462D2*
X295430D1*
X305162D2*
X307956D1*
X320307D2*
X323104D1*
X263934Y-236811D2*
X265903D1*
X281096D2*
X283890D1*
X293462D2*
X295430D1*
X304735D2*
X307228D1*
X321035D2*
X323562D1*
X263934Y-237795D2*
X265903D1*
X281734D2*
X284222D1*
X293462D2*
X295430D1*
X304456D2*
X306746D1*
X321517D2*
X323932D1*
X263934Y-238780D2*
X265903D1*
X282174D2*
X284425D1*
X293462D2*
X295430D1*
X304211D2*
X306477D1*
X321785D2*
X324287D1*
X263934Y-239764D2*
X265903D1*
X282425D2*
X284528D1*
X293462D2*
X295430D1*
X303922D2*
X306348D1*
X321914D2*
X324592D1*
X263934Y-240748D2*
X265903D1*
X282548D2*
X284574D1*
X293462D2*
X295430D1*
X303649D2*
X306292D1*
X321970D2*
X324785D1*
X263934Y-241732D2*
X265903D1*
X282601D2*
X284593D1*
X293462D2*
X295430D1*
X303469D2*
X306270D1*
X321992D2*
X324884D1*
X263934Y-242717D2*
X265903D1*
X282623D2*
X284600D1*
X293462D2*
X295430D1*
X303375D2*
X306262D1*
X322001D2*
X324929D1*
X263934Y-243701D2*
X265903D1*
X282631D2*
X284602D1*
X293462D2*
X295430D1*
X303333D2*
X306259D1*
X322004D2*
X324947D1*
X263934Y-244685D2*
X265903D1*
X282634D2*
X284603D1*
X293462D2*
X295430D1*
X303315D2*
X306258D1*
X322005D2*
X324954D1*
X263934Y-245669D2*
X265903D1*
X282635D2*
X284604D1*
X293462D2*
X295430D1*
X303308D2*
X306257D1*
X322005D2*
X324957D1*
X263934Y-246654D2*
X265903D1*
X282635D2*
X284604D1*
X293462D2*
X295430D1*
X303306D2*
X306257D1*
X322005D2*
X324958D1*
X263934Y-247638D2*
X265903D1*
X282635D2*
X284604D1*
X293462D2*
X295430D1*
X303309D2*
X306257D1*
X322005D2*
X324958D1*
X263934Y-248622D2*
X265903D1*
X282635D2*
X284604D1*
X293462D2*
X295430D1*
X303343D2*
X306257D1*
X322005D2*
X324954D1*
X263934Y-249606D2*
X265903D1*
X282631D2*
X284604D1*
X293462D2*
X295430D1*
X303468D2*
X306257D1*
X322005D2*
X324920D1*
X263934Y-250591D2*
X265903D1*
X282597D2*
X284600D1*
X293462D2*
X295430D1*
X303704D2*
X306261D1*
X322001D2*
X324794D1*
X263934Y-251575D2*
X265903D1*
X282467D2*
X284565D1*
X293462D2*
X295430D1*
X303960D2*
X306296D1*
X321967D2*
X324555D1*
X263934Y-252559D2*
X265903D1*
X282193D2*
X284440D1*
X293462D2*
X295430D1*
X304167D2*
X306425D1*
X321838D2*
X324268D1*
X263934Y-253543D2*
X265903D1*
X281773D2*
X284200D1*
X293462D2*
X295430D1*
X304387D2*
X306703D1*
X321560D2*
X323967D1*
X263934Y-254528D2*
X265903D1*
X281253D2*
X283909D1*
X293462D2*
X295430D1*
X304703D2*
X307185D1*
X321078D2*
X323601D1*
X263934Y-255512D2*
X265903D1*
X280206D2*
X283570D1*
X293462D2*
X295430D1*
X305137D2*
X307867D1*
X320396D2*
X323143D1*
X263934Y-256496D2*
X265903D1*
X276969D2*
X283041D1*
X293462D2*
X295430D1*
X305718D2*
X310306D1*
X317956D2*
X322551D1*
X263934Y-257480D2*
X265903D1*
X271632D2*
X282183D1*
X293462D2*
X295430D1*
X306501D2*
X314210D1*
X314053D2*
X321763D1*
X263934Y-258465D2*
X280947D1*
X293462D2*
X295430D1*
X307520D2*
X320744D1*
X263934Y-259449D2*
X279398D1*
X293462D2*
X295430D1*
X308787D2*
X319476D1*
X263934Y-260433D2*
X277714D1*
X293462D2*
X295430D1*
X310194D2*
X318068D1*
X-487444Y362247D2*
X-488878Y361262D1*
X-490107Y360278D1*
X-491070Y359294D1*
X-491826Y358310D1*
X-492141Y357325D1*
X-492417Y356341D1*
X-492721Y355357D1*
X-493001Y354373D1*
X-493183Y353388D1*
X-493278Y352404D1*
X-493321Y351420D1*
X-493339Y350436D1*
X-493345Y349451D1*
X-493348Y348467D1*
X-493349Y347483D1*
Y346499D1*
Y345514D1*
Y344530D1*
X-493345Y343546D1*
X-493311Y342562D1*
X-493185Y341577D1*
X-492949Y340593D1*
X-492693Y339609D1*
X-492483Y338625D1*
X-492228Y337640D1*
X-491783Y336656D1*
X-491076Y335672D1*
X-490094Y334688D1*
X-488843Y333703D1*
X-487444Y332719D1*
X-481538Y362247D2*
X-480103Y361262D1*
X-478875Y360278D1*
X-477911Y359294D1*
X-477155Y358310D1*
X-476878Y357325D1*
X-476728Y356341D1*
X-476660Y355357D1*
X-476633Y354373D1*
X-476622Y353388D1*
X-476619Y352404D1*
X-476617Y351420D1*
Y350436D1*
Y349451D1*
Y348467D1*
Y347483D1*
Y346499D1*
Y345514D1*
Y344530D1*
Y343546D1*
Y342562D1*
Y341577D1*
Y340593D1*
X-476621Y339609D1*
X-476659Y338625D1*
X-476823Y337640D1*
X-477226Y336656D1*
X-477916Y335672D1*
X-478891Y334688D1*
X-480140Y333703D1*
X-481538Y332719D1*
X-453979Y362247D2*
X-455414Y361262D1*
X-456642Y360278D1*
X-457606Y359294D1*
X-458362Y358310D1*
X-458676Y357325D1*
X-458952Y356341D1*
X-459256Y355357D1*
X-459536Y354373D1*
X-459718Y353388D1*
X-459813Y352404D1*
X-459856Y351420D1*
X-459874Y350436D1*
X-459881Y349451D1*
X-459883Y348467D1*
X-459884Y347483D1*
Y346499D1*
Y345514D1*
X-459885Y344530D1*
X-459881Y343546D1*
X-459846Y342562D1*
X-459721Y341577D1*
X-459485Y340593D1*
X-459229Y339609D1*
X-459019Y338625D1*
X-458763Y337640D1*
X-458318Y336656D1*
X-457612Y335672D1*
X-456629Y334688D1*
X-455378Y333703D1*
X-453979Y332719D1*
X-448073Y362247D2*
X-446639Y361262D1*
X-445410Y360278D1*
X-444447Y359294D1*
X-443691Y358310D1*
X-443414Y357325D1*
X-443264Y356341D1*
X-443196Y355357D1*
X-443168Y354373D1*
X-443158Y353388D1*
X-443154Y352404D1*
X-443153Y351420D1*
X-443152Y350436D1*
Y349451D1*
Y348467D1*
Y347483D1*
Y346499D1*
Y345514D1*
Y344530D1*
Y343546D1*
Y342562D1*
Y341577D1*
Y340593D1*
X-443156Y339609D1*
X-443195Y338625D1*
X-443358Y337640D1*
X-443762Y336656D1*
X-444451Y335672D1*
X-445427Y334688D1*
X-446676Y333703D1*
X-448073Y332719D1*
X-431341Y362247D2*
X-432742Y361262D1*
X-433879Y360278D1*
X-434732Y359294D1*
X-435364Y358310D1*
X-435805Y357325D1*
X-436074Y356341D1*
X-436262Y355357D1*
X-425436Y362247D2*
X-424001Y361262D1*
X-422772Y360278D1*
X-421809Y359294D1*
X-421053Y358310D1*
X-420776Y357325D1*
X-420626Y356341D1*
X-420558Y355357D1*
X-420534Y354373D1*
X-420562Y353388D1*
X-420723Y352404D1*
X-421121Y351420D1*
X-421771Y350436D1*
X-422587Y349451D1*
X-423467Y348467D1*
X-422520Y347483D1*
X-421666Y346499D1*
X-420956Y345514D1*
X-420388Y344530D1*
X-419975Y343546D1*
X-419734Y342562D1*
X-419619Y341577D1*
X-419602Y340593D1*
X-419710Y339609D1*
X-419973Y338625D1*
X-420355Y337640D1*
X-420838Y336656D1*
X-421509Y335672D1*
X-422515Y334688D1*
X-423889Y333703D1*
X-425436Y332719D1*
X-487444Y360278D2*
X-488386Y359294D1*
X-489206Y358310D1*
X-489791Y357325D1*
X-490123Y356341D1*
X-490283Y355357D1*
X-490353Y354373D1*
X-490380Y353388D1*
X-490391Y352404D1*
X-490394Y351420D1*
X-490396Y350436D1*
Y349451D1*
Y348467D1*
Y347483D1*
Y346499D1*
Y345514D1*
Y344530D1*
Y343546D1*
Y342562D1*
Y341577D1*
X-490392Y340593D1*
X-490354Y339609D1*
X-490262Y338625D1*
X-489775Y337640D1*
X-487854Y336656D1*
X-484631Y335672D1*
X-480554Y334688D1*
X-481538Y360278D2*
X-480595Y359294D1*
X-479775Y358310D1*
X-479191Y357325D1*
X-478859Y356341D1*
X-478698Y355357D1*
X-478629Y354373D1*
X-478601Y353388D1*
X-478591Y352404D1*
X-478587Y351420D1*
X-478586Y350436D1*
Y349451D1*
X-478585Y348467D1*
Y347483D1*
Y346499D1*
Y345514D1*
Y344530D1*
Y343546D1*
Y342562D1*
Y341577D1*
X-478589Y340593D1*
X-478628Y339609D1*
X-478720Y338625D1*
X-479206Y337640D1*
X-481128Y336656D1*
X-484350Y335672D1*
X-488428Y334688D1*
X-453979Y360278D2*
X-454922Y359294D1*
X-455742Y358310D1*
X-456326Y357325D1*
X-456658Y356341D1*
X-456819Y355357D1*
X-456888Y354373D1*
X-456916Y353388D1*
X-456926Y352404D1*
X-456930Y351420D1*
X-456931Y350436D1*
X-456932Y349451D1*
Y348467D1*
Y347483D1*
Y346499D1*
Y345514D1*
Y344530D1*
Y343546D1*
Y342562D1*
Y341577D1*
X-456928Y340593D1*
X-456889Y339609D1*
X-456797Y338625D1*
X-456311Y337640D1*
X-454390Y336656D1*
X-451167Y335672D1*
X-447089Y334688D1*
X-448073Y360278D2*
X-447131Y359294D1*
X-446311Y358310D1*
X-445726Y357325D1*
X-445394Y356341D1*
X-445234Y355357D1*
X-445164Y354373D1*
X-445137Y353388D1*
X-445126Y352404D1*
X-445123Y351420D1*
X-445121Y350436D1*
Y349451D1*
Y348467D1*
Y347483D1*
Y346499D1*
Y345514D1*
Y344530D1*
Y343546D1*
Y342562D1*
Y341577D1*
X-445125Y340593D1*
X-445163Y339609D1*
X-445255Y338625D1*
X-445742Y337640D1*
X-447663Y336656D1*
X-450886Y335672D1*
X-454963Y334688D1*
X-430357Y360278D2*
X-431337Y359294D1*
X-432284Y358310D1*
X-433116Y357325D1*
X-433764Y356341D1*
X-434294Y355357D1*
X-427404Y360278D2*
X-425785Y359294D1*
X-424508Y358310D1*
X-423613Y357325D1*
X-422942Y356341D1*
X-422710Y355357D1*
X-422620Y354373D1*
X-422641Y353388D1*
X-423065Y352404D1*
X-424312Y351420D1*
X-425948Y350436D1*
X-427493Y349451D1*
X-428568Y348467D1*
X-429373Y347483D1*
X-426730Y346499D1*
X-424770Y345514D1*
X-423346Y344530D1*
X-422895Y343546D1*
X-422655Y342562D1*
X-422550Y341577D1*
X-422511Y340593D1*
X-422538Y339609D1*
X-422634Y338625D1*
X-423208Y337640D1*
X-425236Y336656D1*
X-428418Y335672D1*
X-432325Y334688D1*
X-437247Y339609D2*
X-436869Y338625D1*
X-436411Y337640D1*
X-435821Y336656D1*
X-435035Y335672D1*
X-434016Y334688D1*
X-432749Y333703D1*
X-431341Y332719D1*
X-434294Y339609D2*
X-434148Y338625D1*
X-433570Y337640D1*
X-431542Y336656D1*
X-428359Y335672D1*
X-424451Y334688D1*
X-468743Y335672D2*
X-469201Y334688D1*
X-469505Y333703D1*
X-469727Y332719D1*
X-466774Y335672D2*
Y334688D1*
Y333703D1*
Y332719D1*
X258816Y-141297D2*
X257378Y-142281D1*
X256115Y-143265D1*
X255026Y-144249D1*
X254142Y-145234D1*
X253532Y-146218D1*
X253186Y-147202D1*
X252987Y-148186D1*
X252791Y-149171D1*
X252527Y-150155D1*
X252264Y-151139D1*
X252089Y-152123D1*
X251996Y-153108D1*
X251954Y-154092D1*
X251937Y-155076D1*
X251930Y-156060D1*
X251928Y-157045D1*
X251931Y-158029D1*
X251965Y-159013D1*
X252090Y-159997D1*
X252326Y-160982D1*
X252578Y-161966D1*
X252754Y-162950D1*
X252880Y-163934D1*
X253051Y-164919D1*
X253346Y-165903D1*
X253808Y-166887D1*
X254545Y-167871D1*
X255684Y-168856D1*
X257173Y-169840D1*
X258816Y-170824D1*
X266690Y-141297D2*
X268125Y-142281D1*
X269357Y-143265D1*
X270355Y-144249D1*
X271129Y-145234D1*
X271723Y-146218D1*
X272148Y-147202D1*
X272410Y-148186D1*
X272596Y-149171D1*
X280470Y-141297D2*
Y-142281D1*
Y-143265D1*
Y-144249D1*
Y-145234D1*
Y-146218D1*
Y-147202D1*
Y-148186D1*
Y-149171D1*
Y-150155D1*
Y-151139D1*
Y-152123D1*
Y-153108D1*
Y-154092D1*
Y-155076D1*
Y-156060D1*
Y-157045D1*
Y-158029D1*
Y-159013D1*
Y-159997D1*
Y-160982D1*
Y-161966D1*
Y-162950D1*
Y-163934D1*
Y-164919D1*
Y-165903D1*
Y-166887D1*
Y-167871D1*
Y-168856D1*
Y-169840D1*
Y-170824D1*
X283423Y-141297D2*
X283915Y-142281D1*
X284490Y-143265D1*
X285092Y-144249D1*
X285726Y-145234D1*
X286387Y-146218D1*
X287031Y-147202D1*
X287683Y-148186D1*
X288352Y-149171D1*
X288998Y-150155D1*
X289651Y-151139D1*
X290316Y-152123D1*
X290932Y-153108D1*
X291494Y-154092D1*
X292049Y-155076D1*
X292648Y-156060D1*
X293291Y-157045D1*
X293926Y-158029D1*
X294575Y-159013D1*
X295242Y-159997D1*
X295888Y-160982D1*
X296541Y-161966D1*
X297209Y-162950D1*
X297851Y-163934D1*
X298496Y-164919D1*
X299171Y-165903D1*
X300155Y-141297D2*
Y-142281D1*
Y-143265D1*
Y-144249D1*
Y-145234D1*
Y-146218D1*
Y-147202D1*
Y-148186D1*
Y-149171D1*
Y-150155D1*
Y-151139D1*
Y-152123D1*
Y-153108D1*
Y-154092D1*
Y-155076D1*
Y-156060D1*
Y-157045D1*
Y-158029D1*
Y-159013D1*
Y-159997D1*
Y-160982D1*
X300151Y-161966D1*
X300114Y-162950D1*
X299961Y-163934D1*
X299625Y-164919D1*
X299171Y-165903D1*
X302123Y-141297D2*
Y-142281D1*
Y-143265D1*
Y-144249D1*
Y-145234D1*
Y-146218D1*
Y-147202D1*
Y-148186D1*
Y-149171D1*
Y-150155D1*
Y-151139D1*
Y-152123D1*
Y-153108D1*
Y-154092D1*
Y-155076D1*
Y-156060D1*
Y-157045D1*
Y-158029D1*
Y-159013D1*
Y-159997D1*
Y-160982D1*
Y-161966D1*
Y-162950D1*
Y-163934D1*
Y-164919D1*
Y-165903D1*
Y-166887D1*
Y-167871D1*
Y-168856D1*
Y-169840D1*
Y-170824D1*
X310982Y-141297D2*
Y-142281D1*
Y-143265D1*
Y-144249D1*
Y-145234D1*
Y-146218D1*
Y-147202D1*
Y-148186D1*
Y-149171D1*
Y-150155D1*
Y-151139D1*
Y-152123D1*
Y-153108D1*
Y-154092D1*
Y-155076D1*
Y-156060D1*
Y-157045D1*
Y-158029D1*
Y-159013D1*
Y-159997D1*
Y-160982D1*
Y-161966D1*
Y-162950D1*
Y-163934D1*
Y-164919D1*
Y-165903D1*
Y-166887D1*
Y-167871D1*
Y-168856D1*
Y-169840D1*
Y-170824D1*
X324761Y-141297D2*
X326532Y-142281D1*
X328054Y-143265D1*
X329208Y-144249D1*
X329987Y-145234D1*
X330514Y-146218D1*
X330937Y-147202D1*
X331270Y-148186D1*
X331472Y-149171D1*
X331575Y-150155D1*
X331621Y-151139D1*
X331640Y-152123D1*
X331647Y-153108D1*
X331650Y-154092D1*
Y-155076D1*
X331651Y-156060D1*
Y-157045D1*
Y-158029D1*
Y-159013D1*
Y-159997D1*
X331647Y-160982D1*
X331612Y-161966D1*
X331487Y-162950D1*
X331247Y-163934D1*
X330957Y-164919D1*
X330617Y-165903D1*
X330088Y-166887D1*
X329231Y-167871D1*
X327994Y-168856D1*
X326445Y-169840D1*
X324761Y-170824D1*
X260785Y-143265D2*
X259047Y-144249D1*
X257617Y-145234D1*
X256578Y-146218D1*
X255850Y-147202D1*
X255368Y-148186D1*
X255099Y-149171D1*
X254970Y-150155D1*
X254914Y-151139D1*
X254892Y-152123D1*
X254884Y-153108D1*
X254881Y-154092D1*
X254880Y-155076D1*
X254879Y-156060D1*
Y-157045D1*
Y-158029D1*
Y-159013D1*
Y-159997D1*
X254883Y-160982D1*
X254918Y-161966D1*
X255047Y-162950D1*
X255325Y-163934D1*
X255807Y-164919D1*
X256489Y-165903D1*
X258928Y-166887D1*
X262832Y-167871D1*
X267675Y-168856D1*
X265706Y-143265D2*
X266686Y-144249D1*
X267636Y-145234D1*
X268494Y-146218D1*
X269234Y-147202D1*
X269926Y-148186D1*
X270627Y-149171D1*
X312950Y-143265D2*
Y-144249D1*
Y-145234D1*
Y-146218D1*
Y-147202D1*
Y-148186D1*
Y-149171D1*
Y-150155D1*
Y-151139D1*
Y-152123D1*
Y-153108D1*
Y-154092D1*
Y-155076D1*
Y-156060D1*
Y-157045D1*
Y-158029D1*
Y-159013D1*
Y-159997D1*
Y-160982D1*
Y-161966D1*
Y-162950D1*
Y-163934D1*
Y-164919D1*
Y-165903D1*
Y-166887D1*
Y-167871D1*
X323777Y-168856D1*
X322793Y-143265D2*
X324564Y-144249D1*
X326089Y-145234D1*
X327274Y-146218D1*
X328144Y-147202D1*
X328781Y-148186D1*
X329221Y-149171D1*
X329473Y-150155D1*
X329595Y-151139D1*
X329649Y-152123D1*
X329670Y-153108D1*
X329678Y-154092D1*
X329681Y-155076D1*
X329682Y-156060D1*
Y-157045D1*
Y-158029D1*
Y-159013D1*
X329679Y-159997D1*
X329644Y-160982D1*
X329515Y-161966D1*
X329241Y-162950D1*
X328820Y-163934D1*
X328300Y-164919D1*
X327254Y-165903D1*
X324016Y-166887D1*
X318679Y-167871D1*
X311966Y-168856D1*
X282438Y-146218D2*
Y-147202D1*
Y-148186D1*
Y-149171D1*
Y-150155D1*
Y-151139D1*
Y-152123D1*
Y-153108D1*
Y-154092D1*
Y-155076D1*
Y-156060D1*
Y-157045D1*
Y-158029D1*
Y-159013D1*
Y-159997D1*
Y-160982D1*
Y-161966D1*
Y-162950D1*
Y-163934D1*
Y-164919D1*
Y-165903D1*
Y-166887D1*
Y-167871D1*
Y-168856D1*
Y-169840D1*
Y-170824D1*
X283423Y-146218D2*
X284255Y-147202D1*
X284991Y-148186D1*
X285686Y-149171D1*
X286372Y-150155D1*
X287026Y-151139D1*
X287681Y-152123D1*
X288351Y-153108D1*
X288998Y-154092D1*
X289651Y-155076D1*
X290316Y-156060D1*
X290932Y-157045D1*
X291494Y-158029D1*
X292049Y-159013D1*
X292648Y-159997D1*
X293291Y-160982D1*
X293926Y-161966D1*
X294575Y-162950D1*
X295242Y-163934D1*
X295888Y-164919D1*
X296541Y-165903D1*
X297210Y-166887D1*
X297860Y-167871D1*
X298545Y-168856D1*
X299324Y-169840D1*
X300155Y-170824D1*
X263738Y-156060D2*
Y-157045D1*
Y-158029D1*
Y-159013D1*
X270627D1*
Y-159997D1*
X270623Y-160982D1*
X270589Y-161966D1*
X270460Y-162950D1*
X270182Y-163934D1*
X269700Y-164919D1*
X269018Y-165903D1*
X266578Y-166887D1*
X262675Y-167871D1*
X257832Y-168856D1*
X273580Y-156060D2*
Y-157045D1*
Y-158029D1*
X273576Y-159013D1*
X273542Y-159997D1*
X273416Y-160982D1*
X273180Y-161966D1*
X272924Y-162950D1*
X272714Y-163934D1*
X272463Y-164919D1*
X272052Y-165903D1*
X271470Y-166887D1*
X270712Y-167871D1*
X269653Y-168856D1*
X268254Y-169840D1*
X266690Y-170824D1*
X254289Y-187360D2*
X254629Y-188344D1*
X254957Y-189328D1*
X255272Y-190312D1*
X255639Y-191297D1*
X256060Y-192281D1*
X256489Y-193265D1*
X256875Y-194249D1*
X257216Y-195234D1*
X257565Y-196218D1*
X257900Y-197202D1*
X258217Y-198186D1*
X258556Y-199171D1*
X258887Y-200155D1*
X259202Y-201139D1*
X259540Y-202123D1*
X259871Y-203108D1*
X260187Y-204092D1*
X260524Y-205076D1*
X260856Y-206060D1*
X261171Y-207045D1*
X261509Y-208029D1*
X261840Y-209013D1*
X262155Y-209997D1*
X262493Y-210982D1*
X262824Y-211966D1*
X263143Y-212950D1*
X263515Y-213934D1*
X263966Y-214919D1*
X264508Y-215903D1*
X265115Y-216887D1*
X256257Y-187360D2*
X256864Y-188344D1*
X257394Y-189328D1*
X257827Y-190312D1*
X258188Y-191297D1*
X258545Y-192281D1*
X258883Y-193265D1*
X259201Y-194249D1*
X259540Y-195234D1*
X259871Y-196218D1*
X260187Y-197202D1*
X260524Y-198186D1*
X260856Y-199171D1*
X261171Y-200155D1*
X261509Y-201139D1*
X261840Y-202123D1*
X262155Y-203108D1*
X262493Y-204092D1*
X262824Y-205076D1*
X263139Y-206060D1*
X263477Y-207045D1*
X263808Y-208029D1*
X264128Y-209013D1*
X264499Y-209997D1*
X264950Y-210982D1*
X265492Y-211966D1*
X266100Y-212950D1*
X274958Y-187360D2*
X274618Y-188344D1*
X274290Y-189328D1*
X273978Y-190312D1*
X273642Y-191297D1*
X273312Y-192281D1*
X272997Y-193265D1*
X272659Y-194249D1*
X272328Y-195234D1*
X272013Y-196218D1*
X271675Y-197202D1*
X271344Y-198186D1*
X271029Y-199171D1*
X270691Y-200155D1*
X270360Y-201139D1*
X270044Y-202123D1*
X269706Y-203108D1*
X269375Y-204092D1*
X269060Y-205076D1*
X268722Y-206060D1*
X268391Y-207045D1*
X268076Y-208029D1*
X267738Y-209013D1*
X267404Y-209997D1*
X267061Y-210982D1*
X266621Y-211966D1*
X266100Y-212950D1*
X276927Y-187360D2*
X276774Y-188344D1*
X276527Y-189328D1*
X276237Y-190312D1*
X275939Y-191297D1*
X275608Y-192281D1*
X275279Y-193265D1*
X274965Y-194249D1*
X274628Y-195234D1*
X274296Y-196218D1*
X273981Y-197202D1*
X273643Y-198186D1*
X273312Y-199171D1*
X272993Y-200155D1*
X272625Y-201139D1*
X272203Y-202123D1*
X271773Y-203108D1*
X271388Y-204092D1*
X271047Y-205076D1*
X270698Y-206060D1*
X270362Y-207045D1*
X270045Y-208029D1*
X269707Y-209013D1*
X269375Y-209997D1*
X269060Y-210982D1*
X268722Y-211966D1*
X268391Y-212950D1*
X268075Y-213934D1*
X267733Y-214919D1*
X267394Y-215903D1*
X267084Y-216887D1*
X282832Y-187360D2*
Y-188344D1*
Y-189328D1*
Y-190312D1*
Y-191297D1*
Y-192281D1*
Y-193265D1*
Y-194249D1*
Y-195234D1*
Y-196218D1*
Y-197202D1*
Y-198186D1*
Y-199171D1*
Y-200155D1*
Y-201139D1*
Y-202123D1*
Y-203108D1*
Y-204092D1*
Y-205076D1*
Y-206060D1*
Y-207045D1*
Y-208029D1*
Y-209013D1*
Y-209997D1*
Y-210982D1*
Y-211966D1*
Y-212950D1*
Y-213934D1*
Y-214919D1*
Y-215903D1*
Y-216887D1*
X296612Y-187360D2*
X298383Y-188344D1*
X299904Y-189328D1*
X301058Y-190312D1*
X301837Y-191297D1*
X302364Y-192281D1*
X302788Y-193265D1*
X303120Y-194249D1*
X303323Y-195234D1*
X303426Y-196218D1*
X303472Y-197202D1*
X303490Y-198186D1*
X303497Y-199171D1*
X303500Y-200155D1*
X303501Y-201139D1*
Y-202123D1*
Y-203108D1*
Y-204092D1*
Y-205076D1*
Y-206060D1*
X303497Y-207045D1*
X303463Y-208029D1*
X303337Y-209013D1*
X303098Y-209997D1*
X302807Y-210982D1*
X302468Y-211966D1*
X301938Y-212950D1*
X301081Y-213934D1*
X299844Y-214919D1*
X298296Y-215903D1*
X296612Y-216887D1*
X311375Y-187360D2*
Y-188344D1*
Y-189328D1*
Y-190312D1*
Y-191297D1*
Y-192281D1*
Y-193265D1*
Y-194249D1*
Y-195234D1*
Y-196218D1*
Y-197202D1*
Y-198186D1*
Y-199171D1*
Y-200155D1*
Y-201139D1*
Y-202123D1*
Y-203108D1*
Y-204092D1*
Y-205076D1*
Y-206060D1*
Y-207045D1*
Y-208029D1*
Y-209013D1*
Y-209997D1*
Y-210982D1*
Y-211966D1*
Y-212950D1*
Y-213934D1*
Y-214919D1*
Y-215903D1*
Y-216887D1*
X325155Y-187360D2*
X326926Y-188344D1*
X328448Y-189328D1*
X329601Y-190312D1*
X330380Y-191297D1*
X330907Y-192281D1*
X331331Y-193265D1*
X331663Y-194249D1*
X331866Y-195234D1*
X331969Y-196218D1*
X332015Y-197202D1*
X332034Y-198186D1*
X332041Y-199171D1*
X332043Y-200155D1*
X332044Y-201139D1*
Y-202123D1*
X332045Y-203108D1*
Y-204092D1*
Y-205076D1*
Y-206060D1*
X332041Y-207045D1*
X332006Y-208029D1*
X331881Y-209013D1*
X331641Y-209997D1*
X331350Y-210982D1*
X331011Y-211966D1*
X330482Y-212950D1*
X329624Y-213934D1*
X328388Y-214919D1*
X326839Y-215903D1*
X325155Y-216887D1*
X284801Y-189328D2*
Y-190312D1*
Y-191297D1*
Y-192281D1*
Y-193265D1*
Y-194249D1*
Y-195234D1*
Y-196218D1*
Y-197202D1*
Y-198186D1*
Y-199171D1*
Y-200155D1*
Y-201139D1*
Y-202123D1*
Y-203108D1*
Y-204092D1*
Y-205076D1*
Y-206060D1*
Y-207045D1*
Y-208029D1*
Y-209013D1*
Y-209997D1*
Y-210982D1*
Y-211966D1*
Y-212950D1*
Y-213934D1*
X295627Y-214919D1*
X294643Y-189328D2*
X296414Y-190312D1*
X297940Y-191297D1*
X299124Y-192281D1*
X299994Y-193265D1*
X300631Y-194249D1*
X301072Y-195234D1*
X301323Y-196218D1*
X301446Y-197202D1*
X301499Y-198186D1*
X301520Y-199171D1*
X301528Y-200155D1*
X301531Y-201139D1*
X301532Y-202123D1*
X301533Y-203108D1*
Y-204092D1*
Y-205076D1*
X301529Y-206060D1*
X301494Y-207045D1*
X301365Y-208029D1*
X301091Y-209013D1*
X300671Y-209997D1*
X300150Y-210982D1*
X299104Y-211966D1*
X295866Y-212950D1*
X290530Y-213934D1*
X283816Y-214919D1*
X313344Y-189328D2*
Y-190312D1*
Y-191297D1*
Y-192281D1*
Y-193265D1*
Y-194249D1*
Y-195234D1*
Y-196218D1*
Y-197202D1*
Y-198186D1*
Y-199171D1*
Y-200155D1*
Y-201139D1*
Y-202123D1*
Y-203108D1*
Y-204092D1*
Y-205076D1*
Y-206060D1*
Y-207045D1*
Y-208029D1*
Y-209013D1*
Y-209997D1*
Y-210982D1*
Y-211966D1*
Y-212950D1*
Y-213934D1*
X324171Y-214919D1*
X323186Y-189328D2*
X324958Y-190312D1*
X326483Y-191297D1*
X327667Y-192281D1*
X328537Y-193265D1*
X329175Y-194249D1*
X329615Y-195234D1*
X329866Y-196218D1*
X329989Y-197202D1*
X330042Y-198186D1*
X330064Y-199171D1*
X330072Y-200155D1*
X330075Y-201139D1*
X330076Y-202123D1*
Y-203108D1*
Y-204092D1*
Y-205076D1*
X330072Y-206060D1*
X330038Y-207045D1*
X329908Y-208029D1*
X329634Y-209013D1*
X329214Y-209997D1*
X328694Y-210982D1*
X327647Y-211966D1*
X324410Y-212950D1*
X319073Y-213934D1*
X312360Y-214919D1*
X262163Y-278150D2*
X260274Y-279134D1*
X258759Y-280118D1*
X257618Y-281102D1*
X256781Y-282087D1*
X256161Y-283071D1*
X255725Y-284055D1*
X255442Y-285039D1*
X255196Y-286024D1*
X254907Y-287008D1*
X254633Y-287992D1*
X254454Y-288976D1*
X254360Y-289961D1*
X254317Y-290945D1*
X254299Y-291929D1*
X254292Y-292913D1*
X254290Y-293898D1*
X254293Y-294882D1*
X254327Y-295866D1*
X254453Y-296850D1*
X254688Y-297835D1*
X254945Y-298819D1*
X255151Y-299803D1*
X255371Y-300787D1*
X255687Y-301772D1*
X256121Y-302756D1*
X256706Y-303740D1*
X257527Y-304724D1*
X258697Y-305709D1*
X260301Y-306693D1*
X262163Y-307677D1*
X268068Y-278150D2*
X269806Y-279134D1*
X271240Y-280118D1*
X272314Y-281102D1*
X273167Y-282087D1*
X273885Y-283071D1*
X274409Y-284055D1*
X274731Y-285039D1*
X274958Y-286024D1*
X281848Y-278150D2*
Y-279134D1*
Y-280118D1*
Y-281102D1*
Y-282087D1*
Y-283071D1*
Y-284055D1*
Y-285039D1*
Y-286024D1*
Y-287008D1*
Y-287992D1*
Y-288976D1*
Y-289961D1*
Y-290945D1*
Y-291929D1*
Y-292913D1*
Y-293898D1*
Y-294882D1*
Y-295866D1*
Y-296850D1*
Y-297835D1*
Y-298819D1*
Y-299803D1*
Y-300787D1*
Y-301772D1*
Y-302756D1*
Y-303740D1*
Y-304724D1*
Y-305709D1*
Y-306693D1*
Y-307677D1*
X283816Y-278150D2*
Y-279134D1*
Y-280118D1*
Y-281102D1*
Y-282087D1*
Y-283071D1*
Y-284055D1*
Y-285039D1*
Y-286024D1*
Y-287008D1*
Y-287992D1*
Y-288976D1*
Y-289961D1*
Y-290945D1*
Y-291929D1*
Y-292913D1*
Y-293898D1*
Y-294882D1*
Y-295866D1*
Y-296850D1*
Y-297835D1*
Y-298819D1*
Y-299803D1*
Y-300787D1*
Y-301772D1*
Y-302756D1*
Y-303740D1*
Y-304724D1*
Y-305709D1*
X306454Y-278150D2*
Y-279134D1*
Y-280118D1*
Y-281102D1*
Y-282087D1*
Y-283071D1*
Y-284055D1*
Y-285039D1*
Y-286024D1*
Y-287008D1*
Y-287992D1*
Y-288976D1*
Y-289961D1*
Y-290945D1*
Y-291929D1*
Y-292913D1*
Y-293898D1*
Y-294882D1*
Y-295866D1*
Y-296850D1*
Y-297835D1*
Y-298819D1*
Y-299803D1*
Y-300787D1*
Y-301772D1*
Y-302756D1*
Y-303740D1*
Y-304724D1*
Y-305709D1*
Y-306693D1*
Y-307677D1*
X308423Y-278150D2*
Y-279134D1*
Y-280118D1*
Y-281102D1*
Y-282087D1*
Y-283071D1*
Y-284055D1*
Y-285039D1*
Y-286024D1*
Y-287008D1*
Y-287992D1*
Y-288976D1*
Y-289961D1*
Y-290945D1*
Y-291929D1*
X308426Y-292913D1*
X308464Y-293898D1*
X308616Y-294882D1*
X308952Y-295866D1*
X309407Y-296850D1*
X324171Y-278150D2*
X323641Y-279134D1*
X322943Y-280118D1*
X322136Y-281102D1*
X321341Y-282087D1*
X320618Y-283071D1*
X319896Y-284055D1*
X319091Y-285039D1*
X318234Y-286024D1*
X317417Y-287008D1*
X316686Y-287992D1*
X315961Y-288976D1*
X315154Y-289961D1*
X314297Y-290945D1*
X313480Y-291929D1*
X312745Y-292913D1*
X311982Y-293898D1*
X311021Y-294882D1*
X309797Y-295866D1*
X308423Y-296850D1*
X327123Y-278150D2*
X326593Y-279134D1*
X325896Y-280118D1*
X325089Y-281102D1*
X324294Y-282087D1*
X323571Y-283071D1*
X322849Y-284055D1*
X322040Y-285039D1*
X321152Y-286024D1*
X320252Y-287008D1*
X319484Y-287992D1*
X318896Y-288976D1*
X318944Y-289961D1*
X319223Y-290945D1*
X319697Y-291929D1*
X320285Y-292913D1*
X320871Y-293898D1*
X321421Y-294882D1*
X321972Y-295866D1*
X322570Y-296850D1*
X323208Y-297835D1*
X323813Y-298819D1*
X324370Y-299803D1*
X324924Y-300787D1*
X325522Y-301772D1*
X326161Y-302756D1*
X326765Y-303740D1*
X327322Y-304724D1*
X327870Y-305709D1*
X328458Y-306693D1*
X329092Y-307677D1*
X262163Y-280118D2*
X261178Y-281102D1*
X260198Y-282087D1*
X259252Y-283071D1*
X258432Y-284055D1*
X257847Y-285039D1*
X257515Y-286024D1*
X257354Y-287008D1*
X257285Y-287992D1*
X257257Y-288976D1*
X257247Y-289961D1*
X257243Y-290945D1*
X257242Y-291929D1*
Y-292913D1*
Y-293898D1*
X257241Y-294882D1*
Y-295866D1*
Y-296850D1*
X257245Y-297835D1*
X257284Y-298819D1*
X257448Y-299803D1*
X257847Y-300787D1*
X258526Y-301772D1*
X259393Y-302756D1*
X261537Y-303740D1*
X264889Y-304724D1*
X269052Y-305709D1*
X266100Y-280118D2*
X267871Y-281102D1*
X269396Y-282087D1*
X270584Y-283071D1*
X271484Y-284055D1*
X272247Y-285039D1*
X272990Y-286024D1*
X316297Y-291929D2*
X315350Y-292913D1*
X314492Y-293898D1*
X313743Y-294882D1*
X313012Y-295866D1*
X312199Y-296850D1*
X311310Y-297835D1*
X310406Y-298819D1*
X309603Y-299803D1*
X309025Y-300787D1*
X308695Y-301772D1*
X308535Y-302756D1*
X308466Y-303740D1*
X308438Y-304724D1*
X308428Y-305709D1*
X308424Y-306693D1*
X308423Y-307677D1*
X316297Y-291929D2*
X317125Y-292913D1*
X317831Y-293898D1*
X318435Y-294882D1*
X319007Y-295866D1*
X319613Y-296850D1*
X320254Y-297835D1*
X320859Y-298819D1*
X321418Y-299803D1*
X321971Y-300787D1*
X322569Y-301772D1*
X323208Y-302756D1*
X323813Y-303740D1*
X324370Y-304724D1*
X324918Y-305709D1*
X325505Y-306693D1*
X326139Y-307677D1*
X272990Y-299803D2*
X272342Y-300787D1*
X271624Y-301772D1*
X270780Y-302756D1*
X268665Y-303740D1*
X265330Y-304724D1*
X261178Y-305709D1*
X274958Y-299803D2*
X274768Y-300787D1*
X274394Y-301772D1*
X273861Y-302756D1*
X273234Y-303740D1*
X272408Y-304724D1*
X271227Y-305709D1*
X269721Y-306693D1*
X268068Y-307677D1*
X300549Y-305709D2*
Y-306693D1*
Y-307677D1*
X360391Y-218068D2*
X358952Y-219052D1*
X357689Y-220037D1*
X356601Y-221021D1*
X355717Y-222005D1*
X355106Y-222990D1*
X354761Y-223974D1*
X354562Y-224958D1*
X354366Y-225942D1*
X354102Y-226927D1*
X353839Y-227911D1*
X353664Y-228895D1*
X353571Y-229879D1*
X353529Y-230864D1*
X353512Y-231848D1*
X353505Y-232832D1*
X353503Y-233816D1*
X353506Y-234801D1*
X353540Y-235785D1*
X353665Y-236769D1*
X353901Y-237753D1*
X354153Y-238738D1*
X354329Y-239722D1*
X354455Y-240706D1*
X354626Y-241690D1*
X354921Y-242675D1*
X355382Y-243659D1*
X356120Y-244643D1*
X357259Y-245627D1*
X358748Y-246612D1*
X360391Y-247596D1*
X368265Y-218068D2*
X369700Y-219052D1*
X370932Y-220037D1*
X371930Y-221021D1*
X372704Y-222005D1*
X373298Y-222990D1*
X373723Y-223974D1*
X373985Y-224958D1*
X374171Y-225942D1*
X382045Y-218068D2*
Y-219052D1*
Y-220037D1*
Y-221021D1*
Y-222005D1*
Y-222990D1*
Y-223974D1*
Y-224958D1*
Y-225942D1*
Y-226927D1*
Y-227911D1*
Y-228895D1*
Y-229879D1*
Y-230864D1*
Y-231848D1*
Y-232832D1*
Y-233816D1*
Y-234801D1*
Y-235785D1*
Y-236769D1*
Y-237753D1*
Y-238738D1*
Y-239722D1*
Y-240706D1*
Y-241690D1*
Y-242675D1*
Y-243659D1*
Y-244643D1*
Y-245627D1*
Y-246612D1*
Y-247596D1*
X384997Y-218068D2*
X385490Y-219052D1*
X386065Y-220037D1*
X386667Y-221021D1*
X387300Y-222005D1*
X387962Y-222990D1*
X388606Y-223974D1*
X389258Y-224958D1*
X389926Y-225942D1*
X390573Y-226927D1*
X391226Y-227911D1*
X391891Y-228895D1*
X392507Y-229879D1*
X393069Y-230864D1*
X393624Y-231848D1*
X394223Y-232832D1*
X394866Y-233816D1*
X395501Y-234801D1*
X396149Y-235785D1*
X396817Y-236769D1*
X397463Y-237753D1*
X398116Y-238738D1*
X398784Y-239722D1*
X399426Y-240706D1*
X400071Y-241690D1*
X400745Y-242675D1*
X401730Y-218068D2*
Y-219052D1*
Y-220037D1*
Y-221021D1*
Y-222005D1*
Y-222990D1*
Y-223974D1*
Y-224958D1*
Y-225942D1*
Y-226927D1*
Y-227911D1*
Y-228895D1*
Y-229879D1*
Y-230864D1*
Y-231848D1*
Y-232832D1*
Y-233816D1*
Y-234801D1*
Y-235785D1*
Y-236769D1*
Y-237753D1*
X401726Y-238738D1*
X401688Y-239722D1*
X401536Y-240706D1*
X401200Y-241690D1*
X400745Y-242675D1*
X403698Y-218068D2*
Y-219052D1*
Y-220037D1*
Y-221021D1*
Y-222005D1*
Y-222990D1*
Y-223974D1*
Y-224958D1*
Y-225942D1*
Y-226927D1*
Y-227911D1*
Y-228895D1*
Y-229879D1*
Y-230864D1*
Y-231848D1*
Y-232832D1*
Y-233816D1*
Y-234801D1*
Y-235785D1*
Y-236769D1*
Y-237753D1*
Y-238738D1*
Y-239722D1*
Y-240706D1*
Y-241690D1*
Y-242675D1*
Y-243659D1*
Y-244643D1*
Y-245627D1*
Y-246612D1*
Y-247596D1*
X412556Y-218068D2*
Y-219052D1*
Y-220037D1*
Y-221021D1*
Y-222005D1*
Y-222990D1*
Y-223974D1*
Y-224958D1*
Y-225942D1*
Y-226927D1*
Y-227911D1*
Y-228895D1*
Y-229879D1*
Y-230864D1*
Y-231848D1*
Y-232832D1*
Y-233816D1*
Y-234801D1*
Y-235785D1*
Y-236769D1*
Y-237753D1*
Y-238738D1*
Y-239722D1*
Y-240706D1*
Y-241690D1*
Y-242675D1*
Y-243659D1*
Y-244643D1*
Y-245627D1*
Y-246612D1*
Y-247596D1*
X426336Y-218068D2*
X428107Y-219052D1*
X429629Y-220037D1*
X430782Y-221021D1*
X431562Y-222005D1*
X432088Y-222990D1*
X432512Y-223974D1*
X432844Y-224958D1*
X433047Y-225942D1*
X433150Y-226927D1*
X433196Y-227911D1*
X433215Y-228895D1*
X433222Y-229879D1*
X433224Y-230864D1*
X433225Y-231848D1*
X433226Y-232832D1*
Y-233816D1*
Y-234801D1*
Y-235785D1*
Y-236769D1*
X433222Y-237753D1*
X433187Y-238738D1*
X433062Y-239722D1*
X432822Y-240706D1*
X432531Y-241690D1*
X432192Y-242675D1*
X431663Y-243659D1*
X430805Y-244643D1*
X429569Y-245627D1*
X428020Y-246612D1*
X426336Y-247596D1*
X362360Y-220037D2*
X360622Y-221021D1*
X359192Y-222005D1*
X358153Y-222990D1*
X357425Y-223974D1*
X356943Y-224958D1*
X356674Y-225942D1*
X356545Y-226927D1*
X356489Y-227911D1*
X356467Y-228895D1*
X356459Y-229879D1*
X356456Y-230864D1*
X356455Y-231848D1*
X356454Y-232832D1*
Y-233816D1*
Y-234801D1*
Y-235785D1*
Y-236769D1*
X356458Y-237753D1*
X356493Y-238738D1*
X356622Y-239722D1*
X356900Y-240706D1*
X357381Y-241690D1*
X358064Y-242675D1*
X360503Y-243659D1*
X364406Y-244643D1*
X369249Y-245627D1*
X367281Y-220037D2*
X368261Y-221021D1*
X369211Y-222005D1*
X370069Y-222990D1*
X370809Y-223974D1*
X371501Y-224958D1*
X372202Y-225942D1*
X414525Y-220037D2*
Y-221021D1*
Y-222005D1*
Y-222990D1*
Y-223974D1*
Y-224958D1*
Y-225942D1*
Y-226927D1*
Y-227911D1*
Y-228895D1*
Y-229879D1*
Y-230864D1*
Y-231848D1*
Y-232832D1*
Y-233816D1*
Y-234801D1*
Y-235785D1*
Y-236769D1*
Y-237753D1*
Y-238738D1*
Y-239722D1*
Y-240706D1*
Y-241690D1*
Y-242675D1*
Y-243659D1*
Y-244643D1*
X425352Y-245627D1*
X424367Y-220037D2*
X426139Y-221021D1*
X427664Y-222005D1*
X428849Y-222990D1*
X429718Y-223974D1*
X430356Y-224958D1*
X430796Y-225942D1*
X431047Y-226927D1*
X431170Y-227911D1*
X431223Y-228895D1*
X431245Y-229879D1*
X431253Y-230864D1*
X431256Y-231848D1*
X431257Y-232832D1*
Y-233816D1*
Y-234801D1*
Y-235785D1*
X431253Y-236769D1*
X431219Y-237753D1*
X431089Y-238738D1*
X430815Y-239722D1*
X430395Y-240706D1*
X429875Y-241690D1*
X428828Y-242675D1*
X425591Y-243659D1*
X420254Y-244643D1*
X413541Y-245627D1*
X384013Y-222990D2*
Y-223974D1*
Y-224958D1*
Y-225942D1*
Y-226927D1*
Y-227911D1*
Y-228895D1*
Y-229879D1*
Y-230864D1*
Y-231848D1*
Y-232832D1*
Y-233816D1*
Y-234801D1*
Y-235785D1*
Y-236769D1*
Y-237753D1*
Y-238738D1*
Y-239722D1*
Y-240706D1*
Y-241690D1*
Y-242675D1*
Y-243659D1*
Y-244643D1*
Y-245627D1*
Y-246612D1*
Y-247596D1*
X384997Y-222990D2*
X385830Y-223974D1*
X386566Y-224958D1*
X387261Y-225942D1*
X387947Y-226927D1*
X388600Y-227911D1*
X389256Y-228895D1*
X389926Y-229879D1*
X390572Y-230864D1*
X391226Y-231848D1*
X391891Y-232832D1*
X392507Y-233816D1*
X393069Y-234801D1*
X393624Y-235785D1*
X394223Y-236769D1*
X394866Y-237753D1*
X395501Y-238738D1*
X396149Y-239722D1*
X396817Y-240706D1*
X397463Y-241690D1*
X398116Y-242675D1*
X398784Y-243659D1*
X399435Y-244643D1*
X400120Y-245627D1*
X400899Y-246612D1*
X401730Y-247596D1*
X365312Y-232832D2*
Y-233816D1*
Y-234801D1*
Y-235785D1*
X372202D1*
Y-236769D1*
X372198Y-237753D1*
X372164Y-238738D1*
X372034Y-239722D1*
X371756Y-240706D1*
X371275Y-241690D1*
X370593Y-242675D1*
X368153Y-243659D1*
X364250Y-244643D1*
X359407Y-245627D1*
X375155Y-232832D2*
Y-233816D1*
Y-234801D1*
X375151Y-235785D1*
X375116Y-236769D1*
X374991Y-237753D1*
X374755Y-238738D1*
X374499Y-239722D1*
X374289Y-240706D1*
X374038Y-241690D1*
X373627Y-242675D1*
X373045Y-243659D1*
X372287Y-244643D1*
X371228Y-245627D1*
X369829Y-246612D1*
X368265Y-247596D1*
X356257Y-264131D2*
X356598Y-265115D1*
X356925Y-266100D1*
X357241Y-267084D1*
X357608Y-268068D1*
X358029Y-269052D1*
X358458Y-270037D1*
X358843Y-271021D1*
X359184Y-272005D1*
X359533Y-272990D1*
X359869Y-273974D1*
X360186Y-274958D1*
X360524Y-275942D1*
X360856Y-276927D1*
X361171Y-277911D1*
X361509Y-278895D1*
X361840Y-279879D1*
X362155Y-280864D1*
X362493Y-281848D1*
X362824Y-282832D1*
X363139Y-283816D1*
X363477Y-284801D1*
X363808Y-285785D1*
X364124Y-286769D1*
X364462Y-287753D1*
X364793Y-288738D1*
X365112Y-289722D1*
X365483Y-290706D1*
X365935Y-291690D1*
X366476Y-292675D1*
X367084Y-293659D1*
X358226Y-264131D2*
X358832Y-265115D1*
X359363Y-266100D1*
X359795Y-267084D1*
X360156Y-268068D1*
X360513Y-269052D1*
X360852Y-270037D1*
X361170Y-271021D1*
X361508Y-272005D1*
X361840Y-272990D1*
X362155Y-273974D1*
X362493Y-274958D1*
X362824Y-275942D1*
X363139Y-276927D1*
X363477Y-277911D1*
X363808Y-278895D1*
X364124Y-279879D1*
X364462Y-280864D1*
X364793Y-281848D1*
X365108Y-282832D1*
X365446Y-283816D1*
X365777Y-284801D1*
X366096Y-285785D1*
X366468Y-286769D1*
X366919Y-287753D1*
X367461Y-288738D1*
X368068Y-289722D1*
X376927Y-264131D2*
X376586Y-265115D1*
X376259Y-266100D1*
X375947Y-267084D1*
X375611Y-268068D1*
X375280Y-269052D1*
X374965Y-270037D1*
X374628Y-271021D1*
X374296Y-272005D1*
X373981Y-272990D1*
X373643Y-273974D1*
X373312Y-274958D1*
X372997Y-275942D1*
X372659Y-276927D1*
X372328Y-277911D1*
X372013Y-278895D1*
X371675Y-279879D1*
X371344Y-280864D1*
X371029Y-281848D1*
X370691Y-282832D1*
X370360Y-283816D1*
X370044Y-284801D1*
X369706Y-285785D1*
X369372Y-286769D1*
X369030Y-287753D1*
X368590Y-288738D1*
X368068Y-289722D1*
X378895Y-264131D2*
X378743Y-265115D1*
X378495Y-266100D1*
X378206Y-267084D1*
X377908Y-268068D1*
X377577Y-269052D1*
X377248Y-270037D1*
X376934Y-271021D1*
X376596Y-272005D1*
X376265Y-272990D1*
X375950Y-273974D1*
X375612Y-274958D1*
X375281Y-275942D1*
X374962Y-276927D1*
X374593Y-277911D1*
X374171Y-278895D1*
X373742Y-279879D1*
X373357Y-280864D1*
X373015Y-281848D1*
X372666Y-282832D1*
X372331Y-283816D1*
X372014Y-284801D1*
X371675Y-285785D1*
X371344Y-286769D1*
X371029Y-287753D1*
X370691Y-288738D1*
X370360Y-289722D1*
X370044Y-290706D1*
X369701Y-291690D1*
X369362Y-292675D1*
X369052Y-293659D1*
X384801Y-264131D2*
Y-265115D1*
Y-266100D1*
Y-267084D1*
Y-268068D1*
Y-269052D1*
Y-270037D1*
Y-271021D1*
Y-272005D1*
Y-272990D1*
Y-273974D1*
Y-274958D1*
Y-275942D1*
Y-276927D1*
Y-277911D1*
Y-278895D1*
Y-279879D1*
Y-280864D1*
Y-281848D1*
Y-282832D1*
Y-283816D1*
Y-284801D1*
Y-285785D1*
Y-286769D1*
Y-287753D1*
Y-288738D1*
Y-289722D1*
Y-290706D1*
Y-291690D1*
Y-292675D1*
Y-293659D1*
X398580Y-264131D2*
X400351Y-265115D1*
X401873Y-266100D1*
X403027Y-267084D1*
X403806Y-268068D1*
X404333Y-269052D1*
X404756Y-270037D1*
X405088Y-271021D1*
X405291Y-272005D1*
X405394Y-272990D1*
X405440Y-273974D1*
X405459Y-274958D1*
X405466Y-275942D1*
X405468Y-276927D1*
X405469Y-277911D1*
X405470Y-278895D1*
Y-279879D1*
Y-280864D1*
Y-281848D1*
Y-282832D1*
X405466Y-283816D1*
X405431Y-284801D1*
X405306Y-285785D1*
X405066Y-286769D1*
X404776Y-287753D1*
X404436Y-288738D1*
X403907Y-289722D1*
X403049Y-290706D1*
X401813Y-291690D1*
X400264Y-292675D1*
X398580Y-293659D1*
X413344Y-264131D2*
Y-265115D1*
Y-266100D1*
Y-267084D1*
Y-268068D1*
Y-269052D1*
Y-270037D1*
Y-271021D1*
Y-272005D1*
Y-272990D1*
Y-273974D1*
Y-274958D1*
Y-275942D1*
Y-276927D1*
Y-277911D1*
Y-278895D1*
Y-279879D1*
Y-280864D1*
Y-281848D1*
Y-282832D1*
Y-283816D1*
Y-284801D1*
Y-285785D1*
Y-286769D1*
Y-287753D1*
Y-288738D1*
Y-289722D1*
Y-290706D1*
Y-291690D1*
Y-292675D1*
Y-293659D1*
X427123Y-264131D2*
X428895Y-265115D1*
X430416Y-266100D1*
X431570Y-267084D1*
X432349Y-268068D1*
X432876Y-269052D1*
X433300Y-270037D1*
X433632Y-271021D1*
X433835Y-272005D1*
X433938Y-272990D1*
X433983Y-273974D1*
X434002Y-274958D1*
X434009Y-275942D1*
X434012Y-276927D1*
X434013Y-277911D1*
Y-278895D1*
Y-279879D1*
Y-280864D1*
Y-281848D1*
Y-282832D1*
X434009Y-283816D1*
X433975Y-284801D1*
X433849Y-285785D1*
X433610Y-286769D1*
X433319Y-287753D1*
X432979Y-288738D1*
X432450Y-289722D1*
X431593Y-290706D1*
X430356Y-291690D1*
X428807Y-292675D1*
X427123Y-293659D1*
X386769Y-266100D2*
Y-267084D1*
Y-268068D1*
Y-269052D1*
Y-270037D1*
Y-271021D1*
Y-272005D1*
Y-272990D1*
Y-273974D1*
Y-274958D1*
Y-275942D1*
Y-276927D1*
Y-277911D1*
Y-278895D1*
Y-279879D1*
Y-280864D1*
Y-281848D1*
Y-282832D1*
Y-283816D1*
Y-284801D1*
Y-285785D1*
Y-286769D1*
Y-287753D1*
Y-288738D1*
Y-289722D1*
Y-290706D1*
X397596Y-291690D1*
X396612Y-266100D2*
X398383Y-267084D1*
X399908Y-268068D1*
X401093Y-269052D1*
X401963Y-270037D1*
X402600Y-271021D1*
X403040Y-272005D1*
X403292Y-272990D1*
X403414Y-273974D1*
X403467Y-274958D1*
X403489Y-275942D1*
X403497Y-276927D1*
X403500Y-277911D1*
X403501Y-278895D1*
Y-279879D1*
Y-280864D1*
Y-281848D1*
X403497Y-282832D1*
X403463Y-283816D1*
X403334Y-284801D1*
X403059Y-285785D1*
X402639Y-286769D1*
X402119Y-287753D1*
X401073Y-288738D1*
X397835Y-289722D1*
X392498Y-290706D1*
X385785Y-291690D1*
X415312Y-266100D2*
Y-267084D1*
Y-268068D1*
Y-269052D1*
Y-270037D1*
Y-271021D1*
Y-272005D1*
Y-272990D1*
Y-273974D1*
Y-274958D1*
Y-275942D1*
Y-276927D1*
Y-277911D1*
Y-278895D1*
Y-279879D1*
Y-280864D1*
Y-281848D1*
Y-282832D1*
Y-283816D1*
Y-284801D1*
Y-285785D1*
Y-286769D1*
Y-287753D1*
Y-288738D1*
Y-289722D1*
Y-290706D1*
X426139Y-291690D1*
X425155Y-266100D2*
X426926Y-267084D1*
X428451Y-268068D1*
X429636Y-269052D1*
X430506Y-270037D1*
X431143Y-271021D1*
X431584Y-272005D1*
X431835Y-272990D1*
X431957Y-273974D1*
X432011Y-274958D1*
X432032Y-275942D1*
X432040Y-276927D1*
X432043Y-277911D1*
X432044Y-278895D1*
Y-279879D1*
X432045Y-280864D1*
Y-281848D1*
X432041Y-282832D1*
X432006Y-283816D1*
X431877Y-284801D1*
X431603Y-285785D1*
X431183Y-286769D1*
X430662Y-287753D1*
X429616Y-288738D1*
X426378Y-289722D1*
X421041Y-290706D1*
X414328Y-291690D1*
X366493Y-305864D2*
X365059Y-306848D1*
X363830Y-307832D1*
X362867Y-308816D1*
X362111Y-309801D1*
X361796Y-310785D1*
X361520Y-311769D1*
X361216Y-312753D1*
X360936Y-313738D1*
X360754Y-314722D1*
X360659Y-315706D1*
X360616Y-316690D1*
X360598Y-317675D1*
X360592Y-318659D1*
X360589Y-319643D1*
X360588Y-320627D1*
Y-321612D1*
Y-322596D1*
Y-323580D1*
X360592Y-324564D1*
X360626Y-325549D1*
X360752Y-326533D1*
X360988Y-327517D1*
X361244Y-328501D1*
X361454Y-329486D1*
X361709Y-330470D1*
X362154Y-331454D1*
X362861Y-332438D1*
X363843Y-333423D1*
X365094Y-334407D1*
X366493Y-335391D1*
X372399Y-305864D2*
X373834Y-306848D1*
X375062Y-307832D1*
X376026Y-308816D1*
X376782Y-309801D1*
X377059Y-310785D1*
X377209Y-311769D1*
X377277Y-312753D1*
X377304Y-313738D1*
X377315Y-314722D1*
X377318Y-315706D1*
X377320Y-316690D1*
Y-317675D1*
Y-318659D1*
Y-319643D1*
Y-320627D1*
Y-321612D1*
Y-322596D1*
Y-323580D1*
Y-324564D1*
Y-325549D1*
Y-326533D1*
Y-327517D1*
X377316Y-328501D1*
X377278Y-329486D1*
X377114Y-330470D1*
X376711Y-331454D1*
X376021Y-332438D1*
X375046Y-333423D1*
X373797Y-334407D1*
X372399Y-335391D1*
X398974Y-305864D2*
X397573Y-306848D1*
X396436Y-307832D1*
X395583Y-308816D1*
X394951Y-309801D1*
X394510Y-310785D1*
X394241Y-311769D1*
X394052Y-312753D1*
X405864Y-305864D2*
X407146Y-306848D1*
X408134Y-307832D1*
X408878Y-308816D1*
X409479Y-309801D1*
X409977Y-310785D1*
X410323Y-311769D1*
X410514Y-312753D1*
X410321Y-313738D1*
X410068Y-314722D1*
X409783Y-315706D1*
X409424Y-316690D1*
X408969Y-317675D1*
X408385Y-318659D1*
X407670Y-319643D1*
X406928Y-320627D1*
X406230Y-321612D1*
X405519Y-322596D1*
X404718Y-323580D1*
X403863Y-324564D1*
X403047Y-325549D1*
X402316Y-326533D1*
X401590Y-327517D1*
X400784Y-328501D1*
X399931Y-329486D1*
X399152Y-330470D1*
X398581Y-331454D1*
X398233Y-332438D1*
X397990Y-333423D1*
X421612Y-305864D2*
X420210Y-306848D1*
X419074Y-307832D1*
X418221Y-308816D1*
X417589Y-309801D1*
X417148Y-310785D1*
X416879Y-311769D1*
X416690Y-312753D1*
X428501Y-305864D2*
X429784Y-306848D1*
X430772Y-307832D1*
X431515Y-308816D1*
X432117Y-309801D1*
X432615Y-310785D1*
X432961Y-311769D1*
X433152Y-312753D1*
X432959Y-313738D1*
X432706Y-314722D1*
X432421Y-315706D1*
X432062Y-316690D1*
X431606Y-317675D1*
X431023Y-318659D1*
X430308Y-319643D1*
X429565Y-320627D1*
X428868Y-321612D1*
X428157Y-322596D1*
X427356Y-323580D1*
X426500Y-324564D1*
X425684Y-325549D1*
X424953Y-326533D1*
X424228Y-327517D1*
X423422Y-328501D1*
X422568Y-329486D1*
X421790Y-330470D1*
X421219Y-331454D1*
X420871Y-332438D1*
X420627Y-333423D1*
X366493Y-307832D2*
X365551Y-308816D1*
X364731Y-309801D1*
X364146Y-310785D1*
X363814Y-311769D1*
X363654Y-312753D1*
X363584Y-313738D1*
X363557Y-314722D1*
X363546Y-315706D1*
X363543Y-316690D1*
X363541Y-317675D1*
Y-318659D1*
Y-319643D1*
Y-320627D1*
Y-321612D1*
Y-322596D1*
Y-323580D1*
Y-324564D1*
Y-325549D1*
Y-326533D1*
X363545Y-327517D1*
X363583Y-328501D1*
X363675Y-329486D1*
X364162Y-330470D1*
X366083Y-331454D1*
X369306Y-332438D1*
X373383Y-333423D1*
X372399Y-307832D2*
X373342Y-308816D1*
X374162Y-309801D1*
X374746Y-310785D1*
X375078Y-311769D1*
X375239Y-312753D1*
X375308Y-313738D1*
X375336Y-314722D1*
X375346Y-315706D1*
X375350Y-316690D1*
X375351Y-317675D1*
X375352Y-318659D1*
Y-319643D1*
Y-320627D1*
Y-321612D1*
Y-322596D1*
Y-323580D1*
Y-324564D1*
Y-325549D1*
Y-326533D1*
X375348Y-327517D1*
X375309Y-328501D1*
X375217Y-329486D1*
X374731Y-330470D1*
X372809Y-331454D1*
X369587Y-332438D1*
X365509Y-333423D1*
X399958Y-307832D2*
X398978Y-308816D1*
X398031Y-309801D1*
X397199Y-310785D1*
X396551Y-311769D1*
X396021Y-312753D1*
X404879Y-307832D2*
X405822Y-308816D1*
X406642Y-309801D1*
X407226Y-310785D1*
X407559Y-311769D1*
X407715Y-312753D1*
X407746Y-313738D1*
X407614Y-314722D1*
X407259Y-315706D1*
X406736Y-316690D1*
X406150Y-317675D1*
X405491Y-318659D1*
X404741Y-319643D1*
X403984Y-320627D1*
X403281Y-321612D1*
X402568Y-322596D1*
X401766Y-323580D1*
X400910Y-324564D1*
X400094Y-325549D1*
X399363Y-326533D1*
X398642Y-327517D1*
X397866Y-328501D1*
X397099Y-329486D1*
X396397Y-330470D1*
X395721Y-331454D1*
X395078Y-332438D1*
X394584Y-333423D1*
X394274Y-334407D1*
X394052Y-335391D1*
X422596Y-307832D2*
X421615Y-308816D1*
X420669Y-309801D1*
X419836Y-310785D1*
X419189Y-311769D1*
X418659Y-312753D1*
X427517Y-307832D2*
X428460Y-308816D1*
X429280Y-309801D1*
X429864Y-310785D1*
X430196Y-311769D1*
X430353Y-312753D1*
X430384Y-313738D1*
X430252Y-314722D1*
X429897Y-315706D1*
X429374Y-316690D1*
X428787Y-317675D1*
X428129Y-318659D1*
X427379Y-319643D1*
X426622Y-320627D1*
X425919Y-321612D1*
X425205Y-322596D1*
X424404Y-323580D1*
X423548Y-324564D1*
X422732Y-325549D1*
X422001Y-326533D1*
X421279Y-327517D1*
X420504Y-328501D1*
X419737Y-329486D1*
X419035Y-330470D1*
X418358Y-331454D1*
X417716Y-332438D1*
X417222Y-333423D1*
X416911Y-334407D1*
X416690Y-335391D1*
X385194Y-332438D2*
X384736Y-333423D1*
X384432Y-334407D1*
X384210Y-335391D1*
X387163Y-332438D2*
Y-333423D1*
Y-334407D1*
Y-335391D1*
X410785Y-333423D2*
Y-334407D1*
Y-335391D1*
X433423Y-333423D2*
Y-334407D1*
Y-335391D1*
X368856Y-348383D2*
X367421Y-349367D1*
X366192Y-350352D1*
X365229Y-351336D1*
X364473Y-352320D1*
X364158Y-353304D1*
X363882Y-354289D1*
X363578Y-355273D1*
X363299Y-356257D1*
X363116Y-357241D1*
X363021Y-358226D1*
X362978Y-359210D1*
X362961Y-360194D1*
X362954Y-361178D1*
X362951Y-362163D1*
Y-363147D1*
X362950Y-364131D1*
Y-365115D1*
Y-366100D1*
X362954Y-367084D1*
X362989Y-368068D1*
X363114Y-369052D1*
X363350Y-370037D1*
X363606Y-371021D1*
X363816Y-372005D1*
X364071Y-372990D1*
X364516Y-373974D1*
X365223Y-374958D1*
X366205Y-375942D1*
X367457Y-376927D1*
X368856Y-377911D1*
X374761Y-348383D2*
X376196Y-349367D1*
X377424Y-350352D1*
X378388Y-351336D1*
X379144Y-352320D1*
X379421Y-353304D1*
X379571Y-354289D1*
X379639Y-355273D1*
X379666Y-356257D1*
X379677Y-357241D1*
X379680Y-358226D1*
X379682Y-359210D1*
Y-360194D1*
Y-361178D1*
Y-362163D1*
Y-363147D1*
Y-364131D1*
Y-365115D1*
Y-366100D1*
Y-367084D1*
Y-368068D1*
Y-369052D1*
Y-370037D1*
X379679Y-371021D1*
X379640Y-372005D1*
X379476Y-372990D1*
X379073Y-373974D1*
X378383Y-374958D1*
X377408Y-375942D1*
X376159Y-376927D1*
X374761Y-377911D1*
X401336Y-348383D2*
X399935Y-349367D1*
X398798Y-350352D1*
X397945Y-351336D1*
X397313Y-352320D1*
X396872Y-353304D1*
X396604Y-354289D1*
X396415Y-355273D1*
X408226Y-348383D2*
X409508Y-349367D1*
X410497Y-350352D1*
X411240Y-351336D1*
X411841Y-352320D1*
X412339Y-353304D1*
X412686Y-354289D1*
X412876Y-355273D1*
X412684Y-356257D1*
X412430Y-357241D1*
X412145Y-358226D1*
X411786Y-359210D1*
X411331Y-360194D1*
X410747Y-361178D1*
X410032Y-362163D1*
X409290Y-363147D1*
X408593Y-364131D1*
X407881Y-365115D1*
X407080Y-366100D1*
X406225Y-367084D1*
X405409Y-368068D1*
X404678Y-369052D1*
X403953Y-370037D1*
X403146Y-371021D1*
X402293Y-372005D1*
X401514Y-372990D1*
X400943Y-373974D1*
X400595Y-374958D1*
X400352Y-375942D1*
X423974Y-348383D2*
X422573Y-349367D1*
X421436Y-350352D1*
X420583Y-351336D1*
X419951Y-352320D1*
X419510Y-353304D1*
X419241Y-354289D1*
X419052Y-355273D1*
X429879Y-348383D2*
X431314Y-349367D1*
X432542Y-350352D1*
X433506Y-351336D1*
X434262Y-352320D1*
X434539Y-353304D1*
X434689Y-354289D1*
X434757Y-355273D1*
X434781Y-356257D1*
X434753Y-357241D1*
X434592Y-358226D1*
X434194Y-359210D1*
X433544Y-360194D1*
X432728Y-361178D1*
X431848Y-362163D1*
X432795Y-363147D1*
X433649Y-364131D1*
X434359Y-365115D1*
X434927Y-366100D1*
X435340Y-367084D1*
X435581Y-368068D1*
X435696Y-369052D1*
X435713Y-370037D1*
X435605Y-371021D1*
X435342Y-372005D1*
X434960Y-372990D1*
X434476Y-373974D1*
X433806Y-374958D1*
X432799Y-375942D1*
X431426Y-376927D1*
X429879Y-377911D1*
X368856Y-350352D2*
X367913Y-351336D1*
X367093Y-352320D1*
X366509Y-353304D1*
X366176Y-354289D1*
X366016Y-355273D1*
X365946Y-356257D1*
X365919Y-357241D1*
X365908Y-358226D1*
X365905Y-359210D1*
X365904Y-360194D1*
X365903Y-361178D1*
Y-362163D1*
Y-363147D1*
Y-364131D1*
Y-365115D1*
Y-366100D1*
Y-367084D1*
Y-368068D1*
Y-369052D1*
X365907Y-370037D1*
X365945Y-371021D1*
X366037Y-372005D1*
X366524Y-372990D1*
X368445Y-373974D1*
X371668Y-374958D1*
X375745Y-375942D1*
X374761Y-350352D2*
X375704Y-351336D1*
X376524Y-352320D1*
X377108Y-353304D1*
X377440Y-354289D1*
X377601Y-355273D1*
X377670Y-356257D1*
X377698Y-357241D1*
X377708Y-358226D1*
X377712Y-359210D1*
X377713Y-360194D1*
X377714Y-361178D1*
Y-362163D1*
Y-363147D1*
Y-364131D1*
Y-365115D1*
Y-366100D1*
Y-367084D1*
Y-368068D1*
Y-369052D1*
X377710Y-370037D1*
X377672Y-371021D1*
X377579Y-372005D1*
X377093Y-372990D1*
X375172Y-373974D1*
X371949Y-374958D1*
X367871Y-375942D1*
X402320Y-350352D2*
X401340Y-351336D1*
X400393Y-352320D1*
X399561Y-353304D1*
X398913Y-354289D1*
X398383Y-355273D1*
X407241Y-350352D2*
X408184Y-351336D1*
X409004Y-352320D1*
X409588Y-353304D1*
X409921Y-354289D1*
X410078Y-355273D1*
X410108Y-356257D1*
X409976Y-357241D1*
X409621Y-358226D1*
X409098Y-359210D1*
X408512Y-360194D1*
X407854Y-361178D1*
X407103Y-362163D1*
X406346Y-363147D1*
X405643Y-364131D1*
X404930Y-365115D1*
X404128Y-366100D1*
X403272Y-367084D1*
X402456Y-368068D1*
X401725Y-369052D1*
X401004Y-370037D1*
X400228Y-371021D1*
X399462Y-372005D1*
X398759Y-372990D1*
X398083Y-373974D1*
X397441Y-374958D1*
X396946Y-375942D1*
X396636Y-376927D1*
X396415Y-377911D1*
X424958Y-350352D2*
X423978Y-351336D1*
X423031Y-352320D1*
X422199Y-353304D1*
X421551Y-354289D1*
X421021Y-355273D1*
X427911Y-350352D2*
X429530Y-351336D1*
X430807Y-352320D1*
X431702Y-353304D1*
X432373Y-354289D1*
X432605Y-355273D1*
X432695Y-356257D1*
X432674Y-357241D1*
X432250Y-358226D1*
X431003Y-359210D1*
X429367Y-360194D1*
X427822Y-361178D1*
X426747Y-362163D1*
X425942Y-363147D1*
X428585Y-364131D1*
X430545Y-365115D1*
X431969Y-366100D1*
X432420Y-367084D1*
X432660Y-368068D1*
X432765Y-369052D1*
X432804Y-370037D1*
X432777Y-371021D1*
X432681Y-372005D1*
X432107Y-372990D1*
X430079Y-373974D1*
X426897Y-374958D1*
X422990Y-375942D1*
X418068Y-371021D2*
X418446Y-372005D1*
X418904Y-372990D1*
X419494Y-373974D1*
X420280Y-374958D1*
X421299Y-375942D1*
X422566Y-376927D1*
X423974Y-377911D1*
X421021Y-371021D2*
X421167Y-372005D1*
X421745Y-372990D1*
X423773Y-373974D1*
X426956Y-374958D1*
X430864Y-375942D1*
X387556Y-374958D2*
X387098Y-375942D1*
X386794Y-376927D1*
X386572Y-377911D1*
X389525Y-374958D2*
Y-375942D1*
Y-376927D1*
Y-377911D1*
X413147Y-375942D2*
Y-376927D1*
Y-377911D1*
X-488231Y411853D2*
X-489666Y410869D1*
X-490894Y409885D1*
X-491858Y408900D1*
X-492614Y407916D1*
X-492928Y406932D1*
X-493204Y405948D1*
X-493508Y404963D1*
X-493788Y403979D1*
X-493970Y402995D1*
X-494065Y402010D1*
X-494108Y401026D1*
X-494126Y400042D1*
X-494133Y399058D1*
X-494135Y398073D1*
X-494136Y397089D1*
Y396105D1*
Y395121D1*
Y394136D1*
X-494133Y393152D1*
X-494098Y392168D1*
X-493973Y391184D1*
X-493737Y390199D1*
X-493481Y389215D1*
X-493271Y388231D1*
X-493015Y387247D1*
X-492570Y386262D1*
X-491863Y385278D1*
X-490881Y384294D1*
X-489630Y383310D1*
X-488231Y382325D1*
X-482325Y411853D2*
X-480891Y410869D1*
X-479662Y409885D1*
X-478699Y408900D1*
X-477943Y407916D1*
X-477666Y406932D1*
X-477516Y405948D1*
X-477448Y404963D1*
X-477420Y403979D1*
X-477410Y402995D1*
X-477406Y402010D1*
X-477405Y401026D1*
X-477404Y400042D1*
Y399058D1*
Y398073D1*
Y397089D1*
Y396105D1*
Y395121D1*
Y394136D1*
Y393152D1*
Y392168D1*
Y391184D1*
Y390199D1*
X-477408Y389215D1*
X-477446Y388231D1*
X-477610Y387247D1*
X-478014Y386262D1*
X-478703Y385278D1*
X-479679Y384294D1*
X-480928Y383310D1*
X-482325Y382325D1*
X-454766Y411853D2*
X-456201Y410869D1*
X-457430Y409885D1*
X-458393Y408900D1*
X-459149Y407916D1*
X-459464Y406932D1*
X-459740Y405948D1*
X-460044Y404963D1*
X-460324Y403979D1*
X-460506Y402995D1*
X-460601Y402010D1*
X-460644Y401026D1*
X-460661Y400042D1*
X-460668Y399058D1*
X-460671Y398073D1*
Y397089D1*
X-460672Y396105D1*
Y395121D1*
Y394136D1*
X-460668Y393152D1*
X-460633Y392168D1*
X-460508Y391184D1*
X-460272Y390199D1*
X-460016Y389215D1*
X-459806Y388231D1*
X-459551Y387247D1*
X-459106Y386262D1*
X-458399Y385278D1*
X-457417Y384294D1*
X-456165Y383310D1*
X-454766Y382325D1*
X-448861Y411853D2*
X-447426Y410869D1*
X-446198Y409885D1*
X-445234Y408900D1*
X-444478Y407916D1*
X-444201Y406932D1*
X-444051Y405948D1*
X-443983Y404963D1*
X-443956Y403979D1*
X-443945Y402995D1*
X-443942Y402010D1*
X-443940Y401026D1*
Y400042D1*
Y399058D1*
Y398073D1*
Y397089D1*
Y396105D1*
Y395121D1*
Y394136D1*
Y393152D1*
Y392168D1*
Y391184D1*
Y390199D1*
X-443943Y389215D1*
X-443982Y388231D1*
X-444146Y387247D1*
X-444549Y386262D1*
X-445239Y385278D1*
X-446214Y384294D1*
X-447463Y383310D1*
X-448861Y382325D1*
X-432129Y411853D2*
X-433530Y410869D1*
X-434667Y409885D1*
X-435520Y408900D1*
X-436151Y407916D1*
X-436593Y406932D1*
X-436861Y405948D1*
X-437050Y404963D1*
X-425239Y411853D2*
X-423956Y410869D1*
X-422968Y409885D1*
X-422225Y408900D1*
X-421624Y407916D1*
X-421125Y406932D1*
X-420779Y405948D1*
X-420588Y404963D1*
X-420781Y403979D1*
X-421035Y402995D1*
X-421319Y402010D1*
X-421678Y401026D1*
X-422134Y400042D1*
X-422718Y399058D1*
X-423433Y398073D1*
X-424175Y397089D1*
X-424872Y396105D1*
X-425583Y395121D1*
X-426384Y394136D1*
X-427240Y393152D1*
X-428056Y392168D1*
X-428787Y391184D1*
X-429512Y390199D1*
X-430318Y389215D1*
X-431172Y388231D1*
X-431950Y387247D1*
X-432521Y386262D1*
X-432869Y385278D1*
X-433113Y384294D1*
X-488231Y409885D2*
X-489174Y408900D1*
X-489994Y407916D1*
X-490578Y406932D1*
X-490910Y405948D1*
X-491071Y404963D1*
X-491140Y403979D1*
X-491168Y402995D1*
X-491178Y402010D1*
X-491182Y401026D1*
X-491183Y400042D1*
X-491184Y399058D1*
Y398073D1*
Y397089D1*
Y396105D1*
Y395121D1*
Y394136D1*
Y393152D1*
Y392168D1*
Y391184D1*
X-491180Y390199D1*
X-491141Y389215D1*
X-491049Y388231D1*
X-490563Y387247D1*
X-488642Y386262D1*
X-485419Y385278D1*
X-481341Y384294D1*
X-482325Y409885D2*
X-481383Y408900D1*
X-480563Y407916D1*
X-479978Y406932D1*
X-479646Y405948D1*
X-479486Y404963D1*
X-479416Y403979D1*
X-479389Y402995D1*
X-479378Y402010D1*
X-479375Y401026D1*
X-479373Y400042D1*
Y399058D1*
Y398073D1*
Y397089D1*
Y396105D1*
Y395121D1*
Y394136D1*
Y393152D1*
Y392168D1*
Y391184D1*
X-479377Y390199D1*
X-479415Y389215D1*
X-479507Y388231D1*
X-479994Y387247D1*
X-481915Y386262D1*
X-485138Y385278D1*
X-489215Y384294D1*
X-454766Y409885D2*
X-455709Y408900D1*
X-456529Y407916D1*
X-457113Y406932D1*
X-457446Y405948D1*
X-457606Y404963D1*
X-457676Y403979D1*
X-457703Y402995D1*
X-457714Y402010D1*
X-457717Y401026D1*
X-457719Y400042D1*
Y399058D1*
Y398073D1*
Y397089D1*
Y396105D1*
Y395121D1*
Y394136D1*
Y393152D1*
Y392168D1*
Y391184D1*
X-457715Y390199D1*
X-457677Y389215D1*
X-457585Y388231D1*
X-457098Y387247D1*
X-455177Y386262D1*
X-451954Y385278D1*
X-447877Y384294D1*
X-448861Y409885D2*
X-447918Y408900D1*
X-447098Y407916D1*
X-446514Y406932D1*
X-446182Y405948D1*
X-446021Y404963D1*
X-445952Y403979D1*
X-445924Y402995D1*
X-445914Y402010D1*
X-445910Y401026D1*
X-445909Y400042D1*
X-445908Y399058D1*
Y398073D1*
Y397089D1*
Y396105D1*
Y395121D1*
Y394136D1*
Y393152D1*
Y392168D1*
Y391184D1*
X-445912Y390199D1*
X-445950Y389215D1*
X-446043Y388231D1*
X-446529Y387247D1*
X-448450Y386262D1*
X-451673Y385278D1*
X-455751Y384294D1*
X-431144Y409885D2*
X-432125Y408900D1*
X-433072Y407916D1*
X-433904Y406932D1*
X-434551Y405948D1*
X-435081Y404963D1*
X-426223Y409885D2*
X-425280Y408900D1*
X-424461Y407916D1*
X-423876Y406932D1*
X-423544Y405948D1*
X-423387Y404963D1*
X-423356Y403979D1*
X-423489Y402995D1*
X-423843Y402010D1*
X-424366Y401026D1*
X-424953Y400042D1*
X-425611Y399058D1*
X-426361Y398073D1*
X-427118Y397089D1*
X-427821Y396105D1*
X-428535Y395121D1*
X-429337Y394136D1*
X-430192Y393152D1*
X-431009Y392168D1*
X-431739Y391184D1*
X-432461Y390199D1*
X-433236Y389215D1*
X-434003Y388231D1*
X-434706Y387247D1*
X-435382Y386262D1*
X-436024Y385278D1*
X-436518Y384294D1*
X-436829Y383310D1*
X-437050Y382325D1*
X-469530Y385278D2*
X-469988Y384294D1*
X-470292Y383310D1*
X-470514Y382325D1*
X-467562Y385278D2*
Y384294D1*
Y383310D1*
Y382325D1*
X-420318Y384294D2*
Y383310D1*
Y382325D1*
X-487837Y311853D2*
X-489272Y310869D1*
X-490500Y309885D1*
X-491464Y308900D1*
X-492220Y307916D1*
X-492534Y306932D1*
X-492811Y305948D1*
X-493114Y304963D1*
X-493394Y303979D1*
X-493576Y302995D1*
X-493671Y302010D1*
X-493715Y301026D1*
X-493732Y300042D1*
X-493739Y299058D1*
X-493741Y298073D1*
X-493742Y297089D1*
X-493743Y296105D1*
Y295121D1*
Y294136D1*
X-493739Y293152D1*
X-493704Y292168D1*
X-493579Y291184D1*
X-493343Y290199D1*
X-493087Y289215D1*
X-492877Y288231D1*
X-492622Y287247D1*
X-492177Y286262D1*
X-491470Y285278D1*
X-490488Y284294D1*
X-489236Y283310D1*
X-487837Y282325D1*
X-481932Y311853D2*
X-480497Y310869D1*
X-479269Y309885D1*
X-478305Y308900D1*
X-477549Y307916D1*
X-477272Y306932D1*
X-477122Y305948D1*
X-477054Y304963D1*
X-477027Y303979D1*
X-477016Y302995D1*
X-477012Y302010D1*
X-477011Y301026D1*
Y300042D1*
Y299058D1*
Y298073D1*
Y297089D1*
Y296105D1*
X-477010Y295121D1*
Y294136D1*
Y293152D1*
Y292168D1*
Y291184D1*
Y290199D1*
X-477014Y289215D1*
X-477053Y288231D1*
X-477217Y287247D1*
X-477620Y286262D1*
X-478310Y285278D1*
X-479285Y284294D1*
X-480534Y283310D1*
X-481932Y282325D1*
X-454373Y311853D2*
X-455807Y310869D1*
X-457036Y309885D1*
X-457999Y308900D1*
X-458755Y307916D1*
X-459070Y306932D1*
X-459346Y305948D1*
X-459650Y304963D1*
X-459930Y303979D1*
X-460112Y302995D1*
X-460207Y302010D1*
X-460250Y301026D1*
X-460268Y300042D1*
X-460274Y299058D1*
X-460277Y298073D1*
X-460278Y297089D1*
Y296105D1*
Y295121D1*
Y294136D1*
X-460274Y293152D1*
X-460240Y292168D1*
X-460114Y291184D1*
X-459879Y290199D1*
X-459622Y289215D1*
X-459412Y288231D1*
X-459157Y287247D1*
X-458712Y286262D1*
X-458005Y285278D1*
X-457023Y284294D1*
X-455772Y283310D1*
X-454373Y282325D1*
X-448467Y311853D2*
X-447032Y310869D1*
X-445804Y309885D1*
X-444841Y308900D1*
X-444084Y307916D1*
X-443807Y306932D1*
X-443657Y305948D1*
X-443590Y304963D1*
X-443562Y303979D1*
X-443552Y302995D1*
X-443548Y302010D1*
X-443547Y301026D1*
X-443546Y300042D1*
Y299058D1*
Y298073D1*
Y297089D1*
Y296105D1*
Y295121D1*
Y294136D1*
Y293152D1*
Y292168D1*
Y291184D1*
Y290199D1*
X-443550Y289215D1*
X-443588Y288231D1*
X-443752Y287247D1*
X-444156Y286262D1*
X-444845Y285278D1*
X-445820Y284294D1*
X-447069Y283310D1*
X-448467Y282325D1*
X-426814Y311853D2*
X-427154Y310869D1*
X-427482Y309885D1*
X-427797Y308900D1*
X-428164Y307916D1*
X-428589Y306932D1*
X-429049Y305948D1*
X-429529Y304963D1*
X-430015Y303979D1*
X-430502Y302995D1*
X-430962Y302010D1*
X-431360Y301026D1*
X-431710Y300042D1*
X-432092Y299058D1*
X-432523Y298073D1*
X-432985Y297089D1*
X-433465Y296105D1*
X-433952Y295121D1*
X-434439Y294136D1*
X-434899Y293152D1*
X-435297Y292168D1*
X-435643Y291184D1*
X-435991Y290199D1*
X-436295Y289215D1*
X-436502Y288231D1*
X-436656Y287247D1*
X-423861Y311853D2*
X-424471Y310869D1*
X-425032Y309885D1*
X-425556Y308900D1*
X-426031Y307916D1*
X-426435Y306932D1*
X-426788Y305948D1*
X-427170Y304963D1*
X-427601Y303979D1*
X-428064Y302995D1*
X-428540Y302010D1*
X-428996Y301026D1*
X-429392Y300042D1*
X-429742Y299058D1*
X-430123Y298073D1*
X-430554Y297089D1*
X-431016Y296105D1*
X-431497Y295121D1*
X-431983Y294136D1*
X-432471Y293152D1*
X-432937Y292168D1*
X-433346Y291184D1*
X-433703Y290199D1*
X-423861Y289215D1*
X-487837Y309885D2*
X-488780Y308900D1*
X-489600Y307916D1*
X-490184Y306932D1*
X-490517Y305948D1*
X-490677Y304963D1*
X-490746Y303979D1*
X-490774Y302995D1*
X-490784Y302010D1*
X-490788Y301026D1*
X-490789Y300042D1*
X-490790Y299058D1*
Y298073D1*
Y297089D1*
Y296105D1*
Y295121D1*
Y294136D1*
Y293152D1*
Y292168D1*
Y291184D1*
X-490786Y290199D1*
X-490748Y289215D1*
X-490655Y288231D1*
X-490169Y287247D1*
X-488248Y286262D1*
X-485025Y285278D1*
X-480948Y284294D1*
X-481932Y309885D2*
X-480989Y308900D1*
X-480169Y307916D1*
X-479585Y306932D1*
X-479252Y305948D1*
X-479092Y304963D1*
X-479023Y303979D1*
X-478995Y302995D1*
X-478985Y302010D1*
X-478981Y301026D1*
X-478980Y300042D1*
X-478979Y299058D1*
Y298073D1*
Y297089D1*
Y296105D1*
Y295121D1*
Y294136D1*
Y293152D1*
Y292168D1*
Y291184D1*
X-478983Y290199D1*
X-479021Y289215D1*
X-479114Y288231D1*
X-479600Y287247D1*
X-481521Y286262D1*
X-484744Y285278D1*
X-488822Y284294D1*
X-454373Y309885D2*
X-455316Y308900D1*
X-456135Y307916D1*
X-456720Y306932D1*
X-457052Y305948D1*
X-457213Y304963D1*
X-457282Y303979D1*
X-457310Y302995D1*
X-457320Y302010D1*
X-457324Y301026D1*
X-457325Y300042D1*
Y299058D1*
Y298073D1*
Y297089D1*
Y296105D1*
Y295121D1*
Y294136D1*
Y293152D1*
Y292168D1*
Y291184D1*
X-457322Y290199D1*
X-457283Y289215D1*
X-457191Y288231D1*
X-456705Y287247D1*
X-454783Y286262D1*
X-451561Y285278D1*
X-447483Y284294D1*
X-448467Y309885D2*
X-447524Y308900D1*
X-446705Y307916D1*
X-446120Y306932D1*
X-445788Y305948D1*
X-445627Y304963D1*
X-445558Y303979D1*
X-445530Y302995D1*
X-445520Y302010D1*
X-445516Y301026D1*
X-445515Y300042D1*
Y299058D1*
X-445514Y298073D1*
Y297089D1*
Y296105D1*
Y295121D1*
Y294136D1*
Y293152D1*
Y292168D1*
Y291184D1*
X-445518Y290199D1*
X-445557Y289215D1*
X-445649Y288231D1*
X-446135Y287247D1*
X-448057Y286262D1*
X-451279Y285278D1*
X-455357Y284294D1*
X-422877Y300042D2*
Y299058D1*
Y298073D1*
Y297089D1*
Y296105D1*
Y295121D1*
Y294136D1*
Y293152D1*
Y292168D1*
Y291184D1*
Y290199D1*
X-432719Y289215D1*
X-420908Y300042D2*
Y299058D1*
Y298073D1*
Y297089D1*
Y296105D1*
Y295121D1*
Y294136D1*
Y293152D1*
Y292168D1*
Y291184D1*
Y290199D1*
Y289215D1*
X-417955D1*
Y288231D1*
Y287247D1*
Y286262D1*
X-420908D1*
Y285278D1*
Y284294D1*
Y283310D1*
Y282325D1*
X-422877Y287247D2*
Y286262D1*
Y285278D1*
Y284294D1*
Y283310D1*
Y282325D1*
X-469136Y285278D2*
X-469594Y284294D1*
X-469899Y283310D1*
X-470121Y282325D1*
X-467168Y285278D2*
Y284294D1*
Y283310D1*
Y282325D1*
X-488231Y262247D2*
X-489666Y261262D1*
X-490894Y260278D1*
X-491858Y259294D1*
X-492614Y258310D1*
X-492928Y257325D1*
X-493204Y256341D1*
X-493508Y255357D1*
X-493788Y254373D1*
X-493970Y253388D1*
X-494065Y252404D1*
X-494108Y251420D1*
X-494126Y250436D1*
X-494133Y249451D1*
X-494135Y248467D1*
X-494136Y247483D1*
Y246499D1*
Y245514D1*
Y244530D1*
X-494133Y243546D1*
X-494098Y242562D1*
X-493973Y241577D1*
X-493737Y240593D1*
X-493481Y239609D1*
X-493271Y238625D1*
X-493015Y237640D1*
X-492570Y236656D1*
X-491863Y235672D1*
X-490881Y234688D1*
X-489630Y233703D1*
X-488231Y232719D1*
X-482325Y262247D2*
X-480891Y261262D1*
X-479662Y260278D1*
X-478699Y259294D1*
X-477943Y258310D1*
X-477666Y257325D1*
X-477516Y256341D1*
X-477448Y255357D1*
X-477420Y254373D1*
X-477410Y253388D1*
X-477406Y252404D1*
X-477405Y251420D1*
X-477404Y250436D1*
Y249451D1*
Y248467D1*
Y247483D1*
Y246499D1*
Y245514D1*
Y244530D1*
Y243546D1*
Y242562D1*
Y241577D1*
Y240593D1*
X-477408Y239609D1*
X-477446Y238625D1*
X-477610Y237640D1*
X-478014Y236656D1*
X-478703Y235672D1*
X-479679Y234688D1*
X-480928Y233703D1*
X-482325Y232719D1*
X-454766Y262247D2*
X-456201Y261262D1*
X-457430Y260278D1*
X-458393Y259294D1*
X-459149Y258310D1*
X-459464Y257325D1*
X-459740Y256341D1*
X-460044Y255357D1*
X-460324Y254373D1*
X-460506Y253388D1*
X-460601Y252404D1*
X-460644Y251420D1*
X-460661Y250436D1*
X-460668Y249451D1*
X-460671Y248467D1*
Y247483D1*
X-460672Y246499D1*
Y245514D1*
Y244530D1*
X-460668Y243546D1*
X-460633Y242562D1*
X-460508Y241577D1*
X-460272Y240593D1*
X-460016Y239609D1*
X-459806Y238625D1*
X-459551Y237640D1*
X-459106Y236656D1*
X-458399Y235672D1*
X-457417Y234688D1*
X-456165Y233703D1*
X-454766Y232719D1*
X-448861Y262247D2*
X-447426Y261262D1*
X-446198Y260278D1*
X-445234Y259294D1*
X-444478Y258310D1*
X-444201Y257325D1*
X-444051Y256341D1*
X-443983Y255357D1*
X-443956Y254373D1*
X-443945Y253388D1*
X-443942Y252404D1*
X-443940Y251420D1*
Y250436D1*
Y249451D1*
Y248467D1*
Y247483D1*
Y246499D1*
Y245514D1*
Y244530D1*
Y243546D1*
Y242562D1*
Y241577D1*
Y240593D1*
X-443943Y239609D1*
X-443982Y238625D1*
X-444146Y237640D1*
X-444549Y236656D1*
X-445239Y235672D1*
X-446214Y234688D1*
X-447463Y233703D1*
X-448861Y232719D1*
X-436066Y262247D2*
Y261262D1*
Y260278D1*
Y259294D1*
Y258310D1*
Y257325D1*
Y256341D1*
Y255357D1*
Y254373D1*
Y253388D1*
Y252404D1*
Y251420D1*
Y250436D1*
Y249451D1*
Y248467D1*
Y247483D1*
Y246499D1*
X-421302Y262247D2*
Y261262D1*
Y260278D1*
X-488231D2*
X-489174Y259294D1*
X-489994Y258310D1*
X-490578Y257325D1*
X-490910Y256341D1*
X-491071Y255357D1*
X-491140Y254373D1*
X-491168Y253388D1*
X-491178Y252404D1*
X-491182Y251420D1*
X-491183Y250436D1*
X-491184Y249451D1*
Y248467D1*
Y247483D1*
Y246499D1*
Y245514D1*
Y244530D1*
Y243546D1*
Y242562D1*
Y241577D1*
X-491180Y240593D1*
X-491141Y239609D1*
X-491049Y238625D1*
X-490563Y237640D1*
X-488642Y236656D1*
X-485419Y235672D1*
X-481341Y234688D1*
X-482325Y260278D2*
X-481383Y259294D1*
X-480563Y258310D1*
X-479978Y257325D1*
X-479646Y256341D1*
X-479486Y255357D1*
X-479416Y254373D1*
X-479389Y253388D1*
X-479378Y252404D1*
X-479375Y251420D1*
X-479373Y250436D1*
Y249451D1*
Y248467D1*
Y247483D1*
Y246499D1*
Y245514D1*
Y244530D1*
Y243546D1*
Y242562D1*
Y241577D1*
X-479377Y240593D1*
X-479415Y239609D1*
X-479507Y238625D1*
X-479994Y237640D1*
X-481915Y236656D1*
X-485138Y235672D1*
X-489215Y234688D1*
X-454766Y260278D2*
X-455709Y259294D1*
X-456529Y258310D1*
X-457113Y257325D1*
X-457446Y256341D1*
X-457606Y255357D1*
X-457676Y254373D1*
X-457703Y253388D1*
X-457714Y252404D1*
X-457717Y251420D1*
X-457719Y250436D1*
Y249451D1*
Y248467D1*
Y247483D1*
Y246499D1*
Y245514D1*
Y244530D1*
Y243546D1*
Y242562D1*
Y241577D1*
X-457715Y240593D1*
X-457677Y239609D1*
X-457585Y238625D1*
X-457098Y237640D1*
X-455177Y236656D1*
X-451954Y235672D1*
X-447877Y234688D1*
X-448861Y260278D2*
X-447918Y259294D1*
X-447098Y258310D1*
X-446514Y257325D1*
X-446182Y256341D1*
X-446021Y255357D1*
X-445952Y254373D1*
X-445924Y253388D1*
X-445914Y252404D1*
X-445910Y251420D1*
X-445909Y250436D1*
X-445908Y249451D1*
Y248467D1*
Y247483D1*
Y246499D1*
Y245514D1*
Y244530D1*
Y243546D1*
Y242562D1*
Y241577D1*
X-445912Y240593D1*
X-445950Y239609D1*
X-446043Y238625D1*
X-446529Y237640D1*
X-448450Y236656D1*
X-451673Y235672D1*
X-455751Y234688D1*
X-434097Y260278D2*
Y259294D1*
Y258310D1*
Y257325D1*
Y256341D1*
Y255357D1*
X-434093Y254373D1*
X-434056Y253388D1*
X-433904Y252404D1*
X-433567Y251420D1*
X-433113Y250436D1*
X-430160Y252404D2*
X-432590Y251420D1*
X-435081Y250436D1*
X-425239Y252404D2*
X-423804Y251420D1*
X-422576Y250436D1*
X-421612Y249451D1*
X-420856Y248467D1*
X-420579Y247483D1*
X-420429Y246499D1*
X-420361Y245514D1*
X-420334Y244530D1*
X-420323Y243546D1*
X-420320Y242562D1*
X-420318Y241577D1*
X-420322Y240593D1*
X-420356Y239609D1*
X-420485Y238625D1*
X-420759Y237640D1*
X-421180Y236656D1*
X-421788Y235672D1*
X-422683Y234688D1*
X-423879Y233703D1*
X-425239Y232719D1*
X-428192Y250436D2*
X-429967Y249451D1*
X-431530Y248467D1*
X-432867Y247483D1*
X-434097Y246499D1*
X-427207Y250436D2*
X-425588Y249451D1*
X-424311Y248467D1*
X-423416Y247483D1*
X-422745Y246499D1*
X-422509Y245514D1*
X-422381Y244530D1*
X-422323Y243546D1*
X-422300Y242562D1*
X-422295Y241577D1*
X-422330Y240593D1*
X-422493Y239609D1*
X-422799Y238625D1*
X-423723Y237640D1*
X-425327Y236656D1*
X-427927Y235672D1*
X-431144Y234688D1*
X-436066Y239609D2*
X-435910Y238625D1*
X-435627Y237640D1*
X-435205Y236656D1*
X-434595Y235672D1*
X-433700Y234688D1*
X-432504Y233703D1*
X-431144Y232719D1*
X-434097Y239609D2*
X-433659Y238625D1*
X-433086Y237640D1*
X-431168Y236656D1*
X-428081Y235672D1*
X-424255Y234688D1*
X-469530Y235672D2*
X-469988Y234688D1*
X-470292Y233703D1*
X-470514Y232719D1*
X-467562Y235672D2*
Y234688D1*
Y233703D1*
Y232719D1*
X263934Y-230906D2*
Y-231890D1*
Y-232874D1*
Y-233858D1*
Y-234843D1*
Y-235827D1*
Y-236811D1*
Y-237795D1*
Y-238780D1*
Y-239764D1*
Y-240748D1*
Y-241732D1*
Y-242717D1*
Y-243701D1*
Y-244685D1*
Y-245669D1*
Y-246654D1*
Y-247638D1*
Y-248622D1*
Y-249606D1*
Y-250591D1*
Y-251575D1*
Y-252559D1*
Y-253543D1*
Y-254528D1*
Y-255512D1*
Y-256496D1*
Y-257480D1*
Y-258465D1*
Y-259449D1*
Y-260433D1*
X277714Y-230906D2*
X279485Y-231890D1*
X281007Y-232874D1*
X282160Y-233858D1*
X282940Y-234843D1*
X283466Y-235827D1*
X283890Y-236811D1*
X284222Y-237795D1*
X284425Y-238780D1*
X284528Y-239764D1*
X284574Y-240748D1*
X284593Y-241732D1*
X284600Y-242717D1*
X284602Y-243701D1*
X284603Y-244685D1*
X284604Y-245669D1*
Y-246654D1*
Y-247638D1*
Y-248622D1*
Y-249606D1*
X284600Y-250591D1*
X284565Y-251575D1*
X284440Y-252559D1*
X284200Y-253543D1*
X283909Y-254528D1*
X283570Y-255512D1*
X283041Y-256496D1*
X282183Y-257480D1*
X280947Y-258465D1*
X279398Y-259449D1*
X277714Y-260433D1*
X293462Y-230906D2*
Y-231890D1*
Y-232874D1*
Y-233858D1*
Y-234843D1*
Y-235827D1*
Y-236811D1*
Y-237795D1*
Y-238780D1*
Y-239764D1*
Y-240748D1*
Y-241732D1*
Y-242717D1*
Y-243701D1*
Y-244685D1*
Y-245669D1*
Y-246654D1*
Y-247638D1*
Y-248622D1*
Y-249606D1*
Y-250591D1*
Y-251575D1*
Y-252559D1*
Y-253543D1*
Y-254528D1*
Y-255512D1*
Y-256496D1*
Y-257480D1*
Y-258465D1*
Y-259449D1*
Y-260433D1*
X295430Y-230906D2*
Y-231890D1*
Y-232874D1*
Y-233858D1*
Y-234843D1*
Y-235827D1*
Y-236811D1*
Y-237795D1*
Y-238780D1*
Y-239764D1*
Y-240748D1*
Y-241732D1*
Y-242717D1*
Y-243701D1*
Y-244685D1*
Y-245669D1*
Y-246654D1*
Y-247638D1*
Y-248622D1*
Y-249606D1*
Y-250591D1*
Y-251575D1*
Y-252559D1*
Y-253543D1*
Y-254528D1*
Y-255512D1*
Y-256496D1*
Y-257480D1*
Y-258465D1*
Y-259449D1*
Y-260433D1*
X310194Y-230906D2*
X308759Y-231890D1*
X307527Y-232874D1*
X306529Y-233858D1*
X305756Y-234843D1*
X305162Y-235827D1*
X304735Y-236811D1*
X304456Y-237795D1*
X304211Y-238780D1*
X303922Y-239764D1*
X303649Y-240748D1*
X303469Y-241732D1*
X303375Y-242717D1*
X303333Y-243701D1*
X303315Y-244685D1*
X303308Y-245669D1*
X303306Y-246654D1*
X303309Y-247638D1*
X303343Y-248622D1*
X303468Y-249606D1*
X303704Y-250591D1*
X303960Y-251575D1*
X304167Y-252559D1*
X304387Y-253543D1*
X304703Y-254528D1*
X305137Y-255512D1*
X305718Y-256496D1*
X306501Y-257480D1*
X307520Y-258465D1*
X308787Y-259449D1*
X310194Y-260433D1*
X318068Y-230906D2*
X319503Y-231890D1*
X320735Y-232874D1*
X321733Y-233858D1*
X322507Y-234843D1*
X323104Y-235827D1*
X323562Y-236811D1*
X323932Y-237795D1*
X324287Y-238780D1*
X324592Y-239764D1*
X324785Y-240748D1*
X324884Y-241732D1*
X324929Y-242717D1*
X324947Y-243701D1*
X324954Y-244685D1*
X324957Y-245669D1*
X324958Y-246654D1*
Y-247638D1*
X324954Y-248622D1*
X324920Y-249606D1*
X324794Y-250591D1*
X324555Y-251575D1*
X324268Y-252559D1*
X323967Y-253543D1*
X323601Y-254528D1*
X323143Y-255512D1*
X322551Y-256496D1*
X321763Y-257480D1*
X320744Y-258465D1*
X319476Y-259449D1*
X318068Y-260433D1*
X265903Y-232874D2*
Y-233858D1*
Y-234843D1*
Y-235827D1*
Y-236811D1*
Y-237795D1*
Y-238780D1*
Y-239764D1*
Y-240748D1*
Y-241732D1*
Y-242717D1*
Y-243701D1*
Y-244685D1*
Y-245669D1*
Y-246654D1*
Y-247638D1*
Y-248622D1*
Y-249606D1*
Y-250591D1*
Y-251575D1*
Y-252559D1*
Y-253543D1*
Y-254528D1*
Y-255512D1*
Y-256496D1*
Y-257480D1*
X276730Y-258465D1*
X275745Y-232874D2*
X277517Y-233858D1*
X279042Y-234843D1*
X280227Y-235827D1*
X281096Y-236811D1*
X281734Y-237795D1*
X282174Y-238780D1*
X282425Y-239764D1*
X282548Y-240748D1*
X282601Y-241732D1*
X282623Y-242717D1*
X282631Y-243701D1*
X282634Y-244685D1*
X282635Y-245669D1*
Y-246654D1*
Y-247638D1*
Y-248622D1*
X282631Y-249606D1*
X282597Y-250591D1*
X282467Y-251575D1*
X282193Y-252559D1*
X281773Y-253543D1*
X281253Y-254528D1*
X280206Y-255512D1*
X276969Y-256496D1*
X271632Y-257480D1*
X264919Y-258465D1*
X312163Y-232874D2*
X310425Y-233858D1*
X308995Y-234843D1*
X307956Y-235827D1*
X307228Y-236811D1*
X306746Y-237795D1*
X306477Y-238780D1*
X306348Y-239764D1*
X306292Y-240748D1*
X306270Y-241732D1*
X306262Y-242717D1*
X306259Y-243701D1*
X306258Y-244685D1*
X306257Y-245669D1*
Y-246654D1*
Y-247638D1*
Y-248622D1*
Y-249606D1*
X306261Y-250591D1*
X306296Y-251575D1*
X306425Y-252559D1*
X306703Y-253543D1*
X307185Y-254528D1*
X307867Y-255512D1*
X310306Y-256496D1*
X314210Y-257480D1*
X319052Y-258465D1*
X316100Y-232874D2*
X317837Y-233858D1*
X319267Y-234843D1*
X320307Y-235827D1*
X321035Y-236811D1*
X321517Y-237795D1*
X321785Y-238780D1*
X321914Y-239764D1*
X321970Y-240748D1*
X321992Y-241732D1*
X322001Y-242717D1*
X322004Y-243701D1*
X322005Y-244685D1*
Y-245669D1*
Y-246654D1*
Y-247638D1*
Y-248622D1*
Y-249606D1*
X322001Y-250591D1*
X321967Y-251575D1*
X321838Y-252559D1*
X321560Y-253543D1*
X321078Y-254528D1*
X320396Y-255512D1*
X317956Y-256496D1*
X314053Y-257480D1*
X309210Y-258465D1*
X-276453Y436095D2*
D114*
X-277879Y438947D1*
X-280764Y441832D1*
X-283615Y443258D1*
X-289352D1*
X-292238Y441832D1*
X-295089Y438947D1*
X-296549Y436095D1*
X-297975Y431784D1*
Y424588D1*
X-296549Y420310D1*
X-295089Y417425D1*
X-292238Y414573D1*
X-289352Y413114D1*
X-283615D1*
X-280764Y414573D1*
X-277879Y417425D1*
X-276453Y420310D1*
X-269891Y437488D2*
X-267006Y438947D1*
X-262695Y443225D1*
Y413114D1*
X67511Y319560D2*
X66085Y322412D1*
X63200Y325297D1*
X60348Y326723D1*
X54611D1*
X51726Y325297D1*
X48874Y322412D1*
X47415Y319560D1*
X45989Y315249D1*
Y308053D1*
X47415Y303775D1*
X48874Y300890D1*
X51726Y298038D1*
X54611Y296579D1*
X60348D1*
X63200Y298038D1*
X66085Y300890D1*
X67511Y303775D1*
X75532Y319527D2*
Y320953D1*
X76958Y323838D1*
X78384Y325264D1*
X81269Y326690D1*
X87006D1*
X89858Y325264D1*
X91283Y323838D1*
X92743Y320953D1*
Y318101D1*
X91283Y315216D1*
X88432Y310938D1*
X74073Y296579D1*
X94169D1*
X153338Y323103D2*
X151912Y325955D1*
X149027Y328840D1*
X146175Y330266D1*
X140438D1*
X137553Y328840D1*
X134701Y325955D1*
X133242Y323103D1*
X131816Y318792D1*
Y311596D1*
X133242Y307318D1*
X134701Y304433D1*
X137553Y301581D1*
X140438Y300122D1*
X146175D1*
X149027Y301581D1*
X151912Y304433D1*
X153338Y307318D1*
X162784Y330233D2*
X178536D1*
X169947Y318759D1*
X174258D1*
X177110Y317333D1*
X178536Y315907D1*
X179995Y311596D1*
Y308744D1*
X178536Y304433D1*
X175684Y301548D1*
X171373Y300122D1*
X167062D1*
X162784Y301548D1*
X161358Y303007D1*
X159899Y305859D1*
X375853Y318773D2*
X374427Y321625D1*
X371542Y324510D1*
X368690Y325936D1*
X362953D1*
X360068Y324510D1*
X357216Y321625D1*
X355757Y318773D1*
X354331Y314462D1*
Y307265D1*
X355757Y302988D1*
X357216Y300103D1*
X360068Y297251D1*
X362953Y295792D1*
X368690D1*
X371542Y297251D1*
X374427Y300103D1*
X375853Y302988D1*
X396774Y295792D2*
Y325902D1*
X382415Y305840D1*
X403937D1*
X-398257Y198300D2*
X-399683Y201152D1*
X-402568Y204037D1*
X-405420Y205463D1*
X-411157D1*
X-414042Y204037D1*
X-416894Y201152D1*
X-418353Y198300D1*
X-419779Y193989D1*
Y186793D1*
X-418353Y182515D1*
X-416894Y179630D1*
X-414042Y176778D1*
X-411157Y175319D1*
X-405420D1*
X-402568Y176778D1*
X-399683Y179630D1*
X-398257Y182515D1*
X-374484Y205430D2*
X-388810D1*
X-390236Y192530D1*
X-388810Y193956D1*
X-384499Y195415D1*
X-380221D1*
X-375910Y193956D1*
X-373025Y191104D1*
X-371599Y186793D1*
Y183941D1*
X-373025Y179630D1*
X-375910Y176745D1*
X-380221Y175319D1*
X-384499D1*
X-388810Y176745D1*
X-390236Y178204D1*
X-391695Y181056D1*
X-389249Y123891D2*
X-390675Y126743D1*
X-393560Y129628D1*
X-396412Y131054D1*
X-402149D1*
X-405034Y129628D1*
X-407886Y126743D1*
X-409345Y123891D1*
X-410771Y119580D1*
Y112384D1*
X-409345Y108106D1*
X-407886Y105221D1*
X-405034Y102369D1*
X-402149Y100910D1*
X-396412D1*
X-393560Y102369D1*
X-390675Y105221D1*
X-389249Y108106D1*
X-365476Y126743D2*
X-366902Y129595D1*
X-371213Y131020D1*
X-374065D1*
X-378376Y129595D1*
X-381261Y125284D1*
X-382687Y118121D1*
Y110958D1*
X-381261Y105221D1*
X-378376Y102336D1*
X-374065Y100910D1*
X-372639D1*
X-368362Y102336D1*
X-365476Y105221D1*
X-364050Y109532D1*
Y110958D1*
X-365476Y115269D1*
X-368362Y118121D1*
X-372639Y119547D1*
X-374065D1*
X-378376Y118121D1*
X-381261Y115269D1*
X-382687Y110958D1*
X296573Y76566D2*
X293721Y75140D1*
X290836Y72255D1*
X289410Y69403D1*
Y63666D1*
X290836Y60781D1*
X293721Y57929D1*
X296573Y56470D1*
X300884Y55044D1*
X308080D1*
X312358Y56470D1*
X315243Y57929D1*
X318095Y60781D1*
X319554Y63666D1*
Y69403D1*
X318095Y72255D1*
X315243Y75140D1*
X312358Y76566D1*
X319554Y88865D2*
X289443Y103224D1*
Y83128D1*
X-255387Y11622D2*
X-258239Y10196D1*
X-261124Y7311D1*
X-262550Y4459D1*
Y-1278D1*
X-261124Y-4163D1*
X-258239Y-7015D1*
X-255387Y-8474D1*
X-251076Y-9900D1*
X-243880D1*
X-239602Y-8474D1*
X-236717Y-7015D1*
X-233865Y-4163D1*
X-232406Y-1278D1*
Y4459D1*
X-233865Y7311D1*
X-236717Y10196D1*
X-239602Y11622D1*
X-262516Y25347D2*
X-261091Y21069D1*
X-258239Y19610D1*
X-255354D1*
X-252502Y21069D1*
X-251043Y23921D1*
X-249617Y29658D1*
X-248191Y33969D1*
X-245306Y36821D1*
X-242454Y38246D1*
X-238143D1*
X-235291Y36821D1*
X-233832Y35395D1*
X-232406Y31084D1*
Y25347D1*
X-233832Y21069D1*
X-235291Y19610D1*
X-238143Y18184D1*
X-242454D1*
X-245306Y19610D1*
X-248191Y22495D1*
X-249617Y26773D1*
X-251043Y32510D1*
X-252502Y35395D1*
X-255354Y36821D1*
X-258239D1*
X-261091Y35395D1*
X-262516Y31084D1*
Y25347D1*
X-470359Y122316D2*
X-471785Y125168D1*
X-474670Y128053D1*
X-477522Y129479D1*
X-483259D1*
X-486144Y128053D1*
X-488996Y125168D1*
X-490455Y122316D1*
X-491881Y118005D1*
Y110809D1*
X-490455Y106531D1*
X-488996Y103646D1*
X-486144Y100794D1*
X-483259Y99335D1*
X-477522D1*
X-474670Y100794D1*
X-471785Y103646D1*
X-470359Y106531D1*
X-445127Y119431D2*
X-446586Y115120D1*
X-449438Y112235D1*
X-453749Y110809D1*
X-455175D1*
X-459486Y112235D1*
X-462338Y115120D1*
X-463797Y119431D1*
Y120857D1*
X-462338Y125168D1*
X-459486Y128020D1*
X-455175Y129446D1*
X-453749D1*
X-449438Y128020D1*
X-446586Y125168D1*
X-445127Y119431D1*
Y112235D1*
X-446586Y105072D1*
X-449438Y100761D1*
X-453749Y99335D1*
X-456601D1*
X-460912Y100761D1*
X-462338Y103646D1*
X216651Y-785D2*
X213799Y-2211D1*
X210914Y-5096D1*
X209488Y-7948D1*
Y-13685D1*
X210914Y-16570D1*
X213799Y-19422D1*
X216651Y-20881D1*
X220962Y-22307D1*
X228158D1*
X232436Y-20881D1*
X235321Y-19422D1*
X238173Y-16570D1*
X239632Y-13685D1*
Y-7948D1*
X238173Y-5096D1*
X235321Y-2211D1*
X232436Y-785D1*
X215259Y5776D2*
X213799Y8661D1*
X209522Y12973D1*
X239632Y12972D1*
X209522Y28156D2*
X210948Y23845D1*
X215259Y20960D1*
X222421Y19534D1*
X226732D1*
X233895Y20960D1*
X238206Y23845D1*
X239632Y28156D1*
Y31008D1*
X238206Y35319D1*
X233895Y38171D1*
X226732Y39630D1*
X222421D1*
X215259Y38171D1*
X210948Y35319D1*
X209522Y31008D1*
Y28156D1*
X215259Y38171D2*
X233895Y20960D1*
X-271538Y-196697D2*
X-274390Y-198123D1*
X-277275Y-201008D1*
X-278701Y-203860D1*
Y-209597D1*
X-277275Y-212482D1*
X-274390Y-215334D1*
X-271538Y-216793D1*
X-267227Y-218219D1*
X-260031D1*
X-255753Y-216793D1*
X-252868Y-215334D1*
X-250016Y-212482D1*
X-248557Y-209597D1*
Y-203860D1*
X-250016Y-201009D1*
X-252868Y-198123D1*
X-255753Y-196698D1*
X-272930Y-190136D2*
X-274390Y-187251D1*
X-278667Y-182940D1*
X-248557D1*
X-272930Y-176378D2*
X-274390Y-173493D1*
X-278667Y-169182D1*
X-248557D1*
X-476376Y-182015D2*
X-477802Y-179163D1*
X-480687Y-176278D1*
X-483539Y-174852D1*
X-489276D1*
X-492161Y-176278D1*
X-495013Y-179163D1*
X-496472Y-182015D1*
X-497898Y-186326D1*
Y-193522D1*
X-496472Y-197800D1*
X-495013Y-200685D1*
X-492161Y-203537D1*
X-489276Y-204996D1*
X-483539D1*
X-480687Y-203537D1*
X-477802Y-200685D1*
X-476376Y-197800D1*
X-469814Y-180622D2*
X-466929Y-179163D1*
X-462618Y-174885D1*
Y-204996D1*
X-454597Y-182048D2*
Y-180622D1*
X-453171Y-177737D1*
X-451745Y-176311D1*
X-448860Y-174885D1*
X-443123D1*
X-440271Y-176311D1*
X-438845Y-177737D1*
X-437386Y-180622D1*
Y-183474D1*
X-438845Y-186359D1*
X-441697Y-190637D1*
X-456056Y-204996D1*
X-435960D1*
X-472439Y-244220D2*
X-473865Y-241368D1*
X-476750Y-238483D1*
X-479602Y-237057D1*
X-485339D1*
X-488224Y-238483D1*
X-491076Y-241368D1*
X-492535Y-244220D1*
X-493961Y-248531D1*
Y-255727D1*
X-492535Y-260004D1*
X-491076Y-262890D1*
X-488224Y-265741D1*
X-485339Y-267201D1*
X-479602D1*
X-476750Y-265741D1*
X-473865Y-262890D1*
X-472439Y-260004D1*
X-465877Y-242827D2*
X-462992Y-241368D1*
X-458681Y-237090D1*
Y-267201D1*
X-449234Y-237090D2*
X-433483D1*
X-442071Y-248564D1*
X-437760D1*
X-434908Y-249990D1*
X-433483Y-251416D1*
X-432023Y-255727D1*
Y-258579D1*
X-433483Y-262890D1*
X-436334Y-265775D1*
X-440645Y-267201D1*
X-444956D1*
X-449234Y-265775D1*
X-450660Y-264316D1*
X-452119Y-261464D1*
X-84175Y-477684D2*
X-85601Y-474832D1*
X-88486Y-471947D1*
X-91338Y-470521D1*
X-97075D1*
X-99960Y-471947D1*
X-102812Y-474832D1*
X-104271Y-477684D1*
X-105697Y-481995D1*
Y-489191D1*
X-104271Y-493469D1*
X-102812Y-496354D1*
X-99960Y-499206D1*
X-97075Y-500665D1*
X-91338D1*
X-88486Y-499206D1*
X-85601Y-496354D1*
X-84175Y-493469D1*
X-77614Y-476291D2*
X-74729Y-474832D1*
X-70418Y-470554D1*
Y-500665D1*
X-49497D2*
Y-470554D1*
X-63856Y-490617D1*
X-42334D1*
X182286Y-332408D2*
X180860Y-329557D1*
X177975Y-326672D1*
X175123Y-325246D1*
X169386D1*
X166501Y-326672D1*
X163649Y-329557D1*
X162190Y-332408D1*
X160764Y-336720D1*
Y-343916D1*
X162190Y-348193D1*
X163649Y-351079D1*
X166501Y-353930D1*
X169386Y-355390D1*
X175123D1*
X177975Y-353930D1*
X180860Y-351079D1*
X182286Y-348193D1*
X188847Y-331016D2*
X191732Y-329557D1*
X196043Y-325279D1*
Y-355390D1*
X219816Y-325279D2*
X205490D1*
X204064Y-338179D1*
X205490Y-336753D1*
X209801Y-335294D1*
X214079D1*
X218390Y-336753D1*
X221275Y-339605D1*
X222701Y-343916D1*
Y-346768D1*
X221275Y-351079D1*
X218390Y-353964D1*
X214079Y-355390D1*
X209801D1*
X205490Y-353964D1*
X204064Y-352504D1*
X202605Y-349653D1*
X175524Y-375716D2*
X174098Y-372864D1*
X171213Y-369979D1*
X168361Y-368553D1*
X162624D1*
X159739Y-369979D1*
X156887Y-372864D1*
X155428Y-375716D1*
X154002Y-380027D1*
Y-387223D1*
X155428Y-391501D1*
X156887Y-394386D1*
X159739Y-397238D1*
X162624Y-398697D1*
X168361D1*
X171213Y-397238D1*
X174098Y-394386D1*
X175524Y-391501D1*
X182086Y-374323D2*
X184971Y-372864D1*
X189282Y-368586D1*
Y-398697D1*
X213055Y-372864D2*
X211629Y-370012D1*
X207318Y-368586D1*
X204466D1*
X200155Y-370012D1*
X197270Y-374323D1*
X195844Y-381486D1*
Y-388649D1*
X197270Y-394386D1*
X200155Y-397271D1*
X204466Y-398697D1*
X205892D1*
X210170Y-397271D1*
X213055Y-394386D1*
X214481Y-390075D1*
Y-388649D1*
X213055Y-384338D1*
X210170Y-381486D1*
X205892Y-380060D1*
X204466D1*
X200155Y-381486D1*
X197270Y-384338D1*
X195844Y-388649D1*
X-169289Y-393826D2*
X-170715Y-390974D1*
X-173600Y-388089D1*
X-176452Y-386663D1*
X-182189D1*
X-185074Y-388089D1*
X-187926Y-390974D1*
X-189385Y-393826D1*
X-190811Y-398137D1*
Y-405333D1*
X-189385Y-409611D1*
X-187926Y-412496D1*
X-185074Y-415348D1*
X-182189Y-416807D1*
X-176452D1*
X-173600Y-415348D1*
X-170715Y-412496D1*
X-169289Y-409611D1*
X-162728Y-392433D2*
X-159843Y-390974D1*
X-155531Y-386696D1*
Y-416807D1*
X-143233D2*
X-128874Y-386696D1*
X-148970D1*
X352775Y-535164D2*
X351349Y-532312D1*
X348464Y-529427D1*
X345612Y-528001D1*
X339875D1*
X336990Y-529427D1*
X334138Y-532312D1*
X332679Y-535164D1*
X331253Y-539475D1*
Y-546672D1*
X332679Y-550949D1*
X334138Y-553834D1*
X336990Y-556686D1*
X339875Y-558145D1*
X345612D1*
X348464Y-556686D1*
X351349Y-553834D1*
X352775Y-550949D1*
X359336Y-533772D2*
X362221Y-532312D1*
X366532Y-528035D1*
Y-558145D1*
X380257Y-528035D2*
X375979Y-529461D1*
X374520Y-532312D1*
Y-535198D1*
X375979Y-538049D1*
X378831Y-539509D1*
X384568Y-540935D1*
X388879Y-542360D1*
X391731Y-545246D1*
X393157Y-548097D1*
Y-552408D1*
X391731Y-555260D1*
X390305Y-556720D1*
X385994Y-558145D1*
X380257D1*
X375979Y-556720D1*
X374520Y-555260D1*
X373094Y-552408D1*
Y-548097D1*
X374520Y-545246D1*
X377405Y-542360D1*
X381683Y-540935D1*
X387420Y-539509D1*
X390305Y-538049D1*
X391731Y-535198D1*
Y-532312D1*
X390305Y-529461D1*
X385994Y-528035D1*
X380257D1*
X93813Y389736D2*
Y359592D1*
X111024D1*
X136222Y389736D2*
X117585D1*
Y359592D1*
X136222D1*
X117585Y375377D2*
X129059D1*
X142784Y389736D2*
Y359592D1*
X152832D1*
X157143Y361051D1*
X160028Y363903D1*
X161454Y366788D1*
X162880Y371066D1*
Y378262D1*
X161454Y382573D1*
X160028Y385425D1*
X157143Y388310D1*
X152832Y389736D1*
X142784D1*
X-370996Y299215D2*
Y269071D1*
X-353785D1*
X-347224Y293445D2*
X-344338Y294904D1*
X-340027Y299182D1*
Y269071D1*
X-177652Y337353D2*
Y307209D1*
X-160441D1*
X-152420Y330157D2*
Y331583D1*
X-150994Y334468D1*
X-149569Y335894D1*
X-146683Y337320D1*
X-140946D1*
X-138095Y335894D1*
X-136669Y334468D1*
X-135209Y331583D1*
Y328731D1*
X-136669Y325846D1*
X-139521Y321568D1*
X-153880Y307209D1*
X-133784D1*
X275310Y8219D2*
Y-21925D1*
X292521D1*
X301967Y8186D2*
X317719D1*
X309130Y-3288D1*
X313441D1*
X316293Y-4714D1*
X317719Y-6140D1*
X319178Y-10451D1*
Y-13303D1*
X317719Y-17614D1*
X314867Y-20499D1*
X310556Y-21925D1*
X306245D1*
X301967Y-20499D1*
X300542Y-19040D1*
X299082Y-16188D1*
X181498Y529293D2*
X194398D1*
X198709Y530752D1*
X200168Y532178D1*
X201594Y535030D1*
Y537915D1*
X200168Y540767D1*
X198709Y542226D1*
X194398Y543652D1*
X181498D1*
Y513508D1*
X191546Y529293D2*
X201594Y513508D1*
X208156Y537882D2*
X211041Y539341D1*
X215352Y543619D1*
Y513508D1*
X-33219Y494647D2*
X-20319D1*
X-16008Y496107D1*
X-14549Y497532D1*
X-13123Y500384D1*
Y503269D1*
X-14549Y506121D1*
X-16008Y507580D1*
X-20319Y509006D1*
X-33219D1*
Y478862D1*
X-23171Y494647D2*
X-13123Y478862D1*
X-5103Y501810D2*
Y503236D1*
X-3677Y506121D1*
X-2251Y507547D1*
X634Y508973D1*
X6371D1*
X9223Y507547D1*
X10649Y506121D1*
X12108Y503236D1*
Y500384D1*
X10649Y497499D1*
X7797Y493221D1*
X-6562Y478862D1*
X13534D1*
X-17876Y-267397D2*
Y-254497D1*
X-19335Y-250186D1*
X-20761Y-248727D1*
X-23613Y-247301D1*
X-26498D1*
X-29350Y-248727D1*
X-30809Y-250186D1*
X-32235Y-254497D1*
Y-267397D1*
X-2091D1*
X-17876Y-257349D2*
X-2091Y-247301D1*
Y-226380D2*
X-32202D1*
X-12139Y-240739D1*
Y-219217D1*
X-247057Y-390392D2*
X-234157D1*
X-229846Y-388933D1*
X-228387Y-387507D1*
X-226961Y-384655D1*
Y-381770D1*
X-228387Y-378918D1*
X-229846Y-377459D1*
X-234157Y-376033D1*
X-247057D1*
Y-406177D1*
X-237009Y-390392D2*
X-226961Y-406177D1*
X-203188Y-380344D2*
X-204614Y-377492D1*
X-208925Y-376066D1*
X-211777D1*
X-216088Y-377492D1*
X-218973Y-381803D1*
X-220399Y-388966D1*
Y-396129D1*
X-218973Y-401866D1*
X-216088Y-404751D1*
X-211777Y-406177D1*
X-210351D1*
X-206073Y-404751D1*
X-203188Y-401866D1*
X-201762Y-397555D1*
Y-396129D1*
X-203188Y-391818D1*
X-206073Y-388966D1*
X-210351Y-387540D1*
X-211777D1*
X-216088Y-388966D1*
X-218973Y-391818D1*
X-220399Y-396129D1*
X-123388Y-352117D2*
X-123387Y-339217D1*
X-124847Y-334906D1*
X-126273Y-333447D1*
X-129124Y-332021D1*
X-132010D1*
X-134861Y-333447D1*
X-136321Y-334906D1*
X-137747Y-339217D1*
Y-352117D1*
X-107603D1*
X-123388Y-342069D2*
X-107603Y-332021D1*
X-137713Y-308248D2*
Y-322574D1*
X-124813Y-324000D1*
X-126239Y-322574D1*
X-127699Y-318263D1*
Y-313985D1*
X-126239Y-309674D1*
X-123387Y-306789D1*
X-119076Y-305363D1*
X-116225D1*
X-111914Y-306789D1*
X-109028Y-309674D1*
X-107603Y-313985D1*
Y-318263D1*
X-109028Y-322574D1*
X-110488Y-324000D1*
X-113339Y-325459D1*
X376820Y412828D2*
X406964D1*
Y430039D1*
Y459548D2*
X376820D1*
X406964Y448074D1*
X376820Y436600D1*
X406964D1*
X376820Y476158D2*
X406964D1*
X376820Y466110D2*
Y486206D1*
X376854Y501390D2*
X378280Y497079D1*
X382591Y494193D1*
X389753Y492767D1*
X394064D1*
X401227Y494193D1*
X405538Y497078D1*
X406964Y501390D1*
Y504241D1*
X405538Y508552D1*
X401227Y511404D1*
X394064Y512863D1*
X389753D1*
X382591Y511404D1*
X378280Y508552D1*
X376854Y504241D1*
Y501390D1*
X382591Y511404D2*
X401227Y494193D1*
X382591Y519425D2*
X381131Y522310D1*
X376854Y526621D1*
X406964D1*
X496044Y99064D2*
X517566D1*
X521877Y100490D1*
X524729Y103375D1*
X526188Y107686D1*
Y110538D1*
X524729Y114849D1*
X521877Y117734D1*
X517566Y119160D1*
X496044D1*
X496077Y128607D2*
Y144359D1*
X507551Y135770D1*
Y140081D1*
X508977Y142933D1*
X510403Y144359D1*
X514714Y145818D1*
X517566D1*
X521877Y144359D1*
X524762Y141507D1*
X526188Y137196D1*
Y132885D1*
X524762Y128607D1*
X523303Y127181D1*
X520451Y125722D1*
X242839Y332628D2*
Y311107D1*
X244265Y306795D1*
X247150Y303944D1*
X251461Y302484D1*
X254313D1*
X258624Y303944D1*
X261509Y306795D1*
X262935Y311107D1*
Y332628D1*
X283856Y302484D2*
Y332595D1*
X269497Y312532D1*
X291019D1*
X-69461Y184203D2*
Y162681D1*
X-68035Y158370D1*
X-65150Y155518D1*
X-60839Y154059D1*
X-57987D1*
X-53676Y155518D1*
X-50791Y158370D1*
X-49365Y162681D1*
Y184203D1*
X-25592Y184170D2*
X-39918D1*
X-41344Y171270D1*
X-39918Y172696D1*
X-35607Y174155D1*
X-31329D1*
X-27018Y172696D1*
X-24133Y169844D1*
X-22707Y165533D1*
Y162681D1*
X-24133Y158370D1*
X-27018Y155485D1*
X-31329Y154059D1*
X-35607D1*
X-39918Y155485D1*
X-41344Y156944D1*
X-42803Y159796D1*
X-396455Y-14379D2*
X-374933D1*
X-370622Y-12953D1*
X-367770Y-10068D1*
X-366311Y-5757D1*
Y-2906D1*
X-367770Y1405D1*
X-370622Y4291D1*
X-374933Y5717D1*
X-396455D1*
X-392144Y29489D2*
X-394996Y28063D1*
X-396422Y23752D1*
Y20900D1*
X-394996Y16589D1*
X-390685Y13704D1*
X-383522Y12278D1*
X-376359D1*
X-370622Y13704D1*
X-367737Y16589D1*
X-366311Y20900D1*
Y22326D1*
X-367737Y26604D1*
X-370622Y29489D1*
X-374933Y30915D1*
X-376359D1*
X-380670Y29489D1*
X-383522Y26604D1*
X-384948Y22326D1*
Y20900D1*
X-383522Y16589D1*
X-380670Y13704D1*
X-376359Y12278D1*
X-445264Y-125973D2*
Y-156117D1*
X-432331D1*
X-428020Y-154657D1*
X-426594Y-153232D1*
X-425168Y-150380D1*
Y-146069D1*
X-426594Y-143184D1*
X-428020Y-141758D1*
X-432331Y-140332D1*
X-428020Y-138873D1*
X-426594Y-137447D1*
X-425168Y-134595D1*
Y-131710D1*
X-426594Y-128858D1*
X-428020Y-127399D1*
X-432331Y-125973D1*
X-445264D1*
Y-140332D2*
X-432331D1*
X-395659Y-156117D2*
Y-125973D1*
X-407133Y-156117D1*
X-418607Y-125973D1*
Y-156117D1*
X-370460Y-125973D2*
X-389097D1*
Y-156117D1*
X-370460D1*
X-389097Y-140332D2*
X-377623D1*
X-362439Y-133169D2*
Y-131743D1*
X-361014Y-128858D1*
X-359588Y-127432D1*
X-356702Y-126006D1*
X-350966D1*
X-348114Y-127432D1*
X-346688Y-128858D1*
X-345229Y-131743D1*
Y-134595D1*
X-346688Y-137480D1*
X-349540Y-141758D1*
X-363899Y-156117D1*
X-343803D1*
X-330078Y-126006D2*
X-334356Y-127432D1*
X-335815Y-130284D1*
Y-133169D1*
X-334356Y-136021D1*
X-331504Y-137480D1*
X-325767Y-138906D1*
X-321456Y-140332D1*
X-318604Y-143217D1*
X-317178Y-146069D1*
Y-150380D1*
X-318604Y-153232D1*
X-320030Y-154691D1*
X-324341Y-156117D1*
X-330078D1*
X-334356Y-154691D1*
X-335815Y-153232D1*
X-337241Y-150380D1*
Y-146069D1*
X-335815Y-143217D1*
X-332930Y-140332D1*
X-328652Y-138906D1*
X-322915Y-137480D1*
X-320030Y-136021D1*
X-318604Y-133169D1*
Y-130284D1*
X-320030Y-127432D1*
X-324341Y-126006D1*
X-330078D1*
X-301994D2*
X-306305Y-127432D1*
X-309190Y-131743D1*
X-310616Y-138906D1*
Y-143217D1*
X-309190Y-150380D1*
X-306305Y-154691D1*
X-301994Y-156117D1*
X-299142D1*
X-294831Y-154691D1*
X-291979Y-150380D1*
X-290520Y-143217D1*
Y-138906D1*
X-291979Y-131743D1*
X-294831Y-127432D1*
X-299142Y-126006D1*
X-301994D1*
X-291979Y-131743D2*
X-309190Y-150380D1*
X-543455Y-408145D2*
X-513311D1*
X-543455Y-428241D1*
X-513311D1*
X-543455Y-382913D2*
Y-401583D1*
X-513311D1*
X-529096D2*
Y-390109D1*
X-536292Y-354830D2*
X-539144Y-356256D1*
X-542029Y-359141D1*
X-543455Y-361993D1*
Y-367730D1*
X-542029Y-370615D1*
X-539144Y-373467D1*
X-536292Y-374926D1*
X-531981Y-376352D1*
X-524785D1*
X-520507Y-374926D1*
X-517622Y-373467D1*
X-514770Y-370615D1*
X-513311Y-367730D1*
Y-361993D1*
X-514770Y-359141D1*
X-517622Y-356256D1*
X-520507Y-354830D1*
X-30786Y-429668D2*
Y-459812D1*
X-40834Y-429668D2*
X-20738D1*
X8772Y-459812D2*
Y-429668D1*
X-2702Y-459812D1*
X-14176Y-429668D1*
Y-459812D1*
X15334Y-445453D2*
X28267D1*
X32544Y-444027D1*
X34004Y-442568D1*
X35430Y-439716D1*
Y-435405D1*
X34004Y-432553D1*
X32544Y-431094D1*
X28267Y-429668D1*
X15334D1*
Y-459812D1*
X41991Y-435438D2*
X44876Y-433979D1*
X49187Y-429701D1*
Y-459812D1*
X55749Y-435438D2*
X58634Y-433979D1*
X62945Y-429701D1*
Y-459812D1*
X75244D2*
X89603Y-429701D1*
X69507D1*
X-371212Y-527731D2*
X-374064Y-524846D1*
X-378375Y-523420D1*
X-384112D1*
X-388423Y-524846D1*
X-391308Y-527731D1*
Y-530583D1*
X-389849Y-533468D1*
X-388423Y-534894D1*
X-385571Y-536320D1*
X-376949Y-539205D1*
X-374064Y-540631D1*
X-372638Y-542090D1*
X-371212Y-544942D1*
Y-549253D1*
X-374064Y-552105D1*
X-378375Y-553564D1*
X-384112D1*
X-388423Y-552105D1*
X-391308Y-549253D1*
X-364651Y-523420D2*
Y-553564D1*
X-344555Y-523420D2*
Y-553564D1*
X-364651Y-537779D2*
X-344555D1*
X-327945Y-523420D2*
Y-553564D1*
X-337993Y-523420D2*
X-317897D1*
X-309876Y-530616D2*
Y-529190D1*
X-308450Y-526305D1*
X-307024Y-524879D1*
X-304139Y-523453D1*
X-298402D1*
X-295550Y-524879D1*
X-294124Y-526305D1*
X-292665Y-529190D1*
Y-532042D1*
X-294124Y-534927D1*
X-296976Y-539205D1*
X-311335Y-553564D1*
X-291239D1*
X-284678Y-523420D2*
X-264582Y-553564D1*
Y-523420D2*
X-284678Y-553564D1*
X-174740Y-527101D2*
X-177592Y-524216D1*
X-181903Y-522790D1*
X-187640D1*
X-191951Y-524216D1*
X-194836Y-527101D1*
Y-529953D1*
X-193377Y-532838D1*
X-191951Y-534264D1*
X-189099Y-535690D1*
X-180477Y-538575D1*
X-177592Y-540001D1*
X-176166Y-541460D1*
X-174740Y-544312D1*
Y-548623D1*
X-177592Y-551475D1*
X-181903Y-552934D1*
X-187640D1*
X-191951Y-551475D1*
X-194836Y-548623D1*
X-168178Y-522790D2*
Y-552934D1*
X-155879D2*
X-141520Y-522823D1*
X-161616D1*
X-126337D2*
X-130648Y-524249D1*
X-133533Y-528560D1*
X-134959Y-535723D1*
Y-540034D1*
X-133533Y-547197D1*
X-130648Y-551508D1*
X-126337Y-552934D1*
X-123485D1*
X-119174Y-551508D1*
X-116322Y-547197D1*
X-114863Y-540034D1*
Y-535723D1*
X-116322Y-528560D1*
X-119174Y-524249D1*
X-123485Y-522823D1*
X-126337D1*
X-116322Y-528560D2*
X-133533Y-547197D1*
X-106842Y-529986D2*
Y-528560D1*
X-105416Y-525675D1*
X-103990Y-524249D1*
X-101105Y-522823D1*
X-95368D1*
X-92516Y-524249D1*
X-91090Y-525675D1*
X-89631Y-528560D1*
Y-531412D1*
X-91090Y-534297D1*
X-93942Y-538575D1*
X-108301Y-552934D1*
X-88205D1*
X-81643Y-522790D2*
X-61547Y-552934D1*
Y-522790D2*
X-81643Y-552934D1*
X175493Y-522545D2*
Y-552689D1*
X192704D1*
X199266Y-522545D2*
Y-552689D1*
X225924Y-526856D2*
X223072Y-523971D1*
X218761Y-522545D1*
X213024D1*
X208713Y-523971D1*
X205828Y-526856D1*
Y-529708D1*
X207287Y-532593D1*
X208713Y-534019D1*
X211565Y-535445D1*
X220187Y-538330D1*
X223072Y-539756D1*
X224498Y-541215D1*
X225924Y-544067D1*
Y-548378D1*
X223072Y-551230D1*
X218761Y-552689D1*
X213024D1*
X208713Y-551230D1*
X205828Y-548378D1*
X233944Y-529741D2*
Y-528315D1*
X235370Y-525430D1*
X236796Y-524004D1*
X239681Y-522578D1*
X245418D1*
X248270Y-524004D1*
X249696Y-525430D1*
X251155Y-528315D1*
Y-531167D1*
X249696Y-534052D1*
X246844Y-538330D1*
X232485Y-552689D1*
X252581D1*
X259143Y-522545D2*
Y-552689D1*
X269191D1*
X273502Y-551230D1*
X276387Y-548378D1*
X277813Y-545493D1*
X279239Y-541215D1*
Y-534019D1*
X277813Y-529708D1*
X276387Y-526856D1*
X273502Y-523971D1*
X269191Y-522545D1*
X259143D1*
X217174Y372206D2*
X230074D1*
X234385Y373666D1*
X235844Y375092D1*
X237270Y377943D1*
Y380828D1*
X235844Y383680D1*
X234385Y385140D1*
X230074Y386565D1*
X217174D1*
Y356421D1*
X227222Y372206D2*
X237270Y356421D1*
X246717Y386532D2*
X262469D1*
X253880Y375058D1*
X258191D1*
X261043Y373632D1*
X262469Y372206D1*
X263928Y367895D1*
Y365044D1*
X262469Y360732D1*
X259617Y357847D1*
X255306Y356421D1*
X250995D1*
X246717Y357847D1*
X245291Y359307D1*
X243832Y362158D1*
M02*
